<?xml version="1.0" standalone="no"?>
<!DOCTYPE svg PUBLIC "-//W3C//DTD SVG 1.1//EN" "http://www.w3.org/Graphics/SVG/1.1/DTD/svg11.dtd" >
<svg xmlns="http://www.w3.org/2000/svg" xmlns:xlink="http://www.w3.org/1999/xlink" version="1.1">
<metadata>
Created by FontForge 20170731 at Wed Nov  4 02:27:45 2020
 By Aleksey,,,
Copyright (c) 2015 by Radomir Tinkov. All rights reserved.
</metadata>
<defs>
<font id="QanelasSoft-Bold" horiz-adv-x="1089" >
  <font-face 
    font-family="Qanelas Soft Bold"
    font-weight="700"
    font-stretch="normal"
    units-per-em="2048"
    panose-1="0 0 8 0 0 0 0 0 0 0"
    ascent="1638"
    descent="-410"
    x-height="1024"
    cap-height="1434"
    bbox="-825.34 -538 2310 1999"
    underline-thickness="102"
    underline-position="-307"
    unicode-range="U+0020-FB02"
  />
<missing-glyph horiz-adv-x="1024" 
d="M840 1638v-2048h-650v2048h650zM682 1501h-338v-67h133v-76h-135v-68h340v68h-135v76h135v67zM547 1237h-205v-213h340v70h-135v143zM477 1167v-73h-67v73h67zM682 969h-340v-68h135v-76h-135v-67h205v143h135v68zM682 846h-68v-135h-272v-70h340v205zM682 596h-205v-115
h70v47h67v-96h-204v164h-68v-231h340v231zM682 242h-340v-232h340v232zM614 174v-96h-204v96h204zM682 -37h-340v-67h143l-143 -97v-67h340v67h-209l143 97h66v67z" />
    <glyph glyph-name="fi" unicode="fi" horiz-adv-x="1105" 
d="M937 1024q49 0 49 -49v-926q0 -49 -49 -49h-166q-49 0 -49 49v721h-301v-721q0 -49 -49 -49h-167q-48 0 -48 49v721h-98q-49 0 -49 49v156q0 49 49 49h98v10q0 427 480 427q100 0 199 -19q43 -7 43 -53v-147q0 -23 -14 -35.5t-38 -9.5q-96 10 -190 10q-110 0 -163 -37.5
t-53 -135.5v-10h416h100z" />
    <glyph glyph-name="fl" unicode="fl" horiz-adv-x="1105" 
d="M943 1427q43 -9 43 -53v-1325q0 -49 -49 -49h-166q-49 0 -49 49v1179q-29 3 -85 3q-216 0 -216 -197v-10h122q48 0 48 -49v-156q0 -49 -48 -49h-122v-721q0 -49 -49 -49h-167q-48 0 -48 49v721h-98q-49 0 -49 49v156q0 49 49 49h98v10q0 427 480 427q143 0 306 -34z" />
    <glyph glyph-name="f_f" unicode="ff" horiz-adv-x="1206" 
d="M1155 1230q-166 -6 -166 -175v-31h168q49 0 49 -49v-156q0 -49 -49 -49h-168v-721q0 -49 -48 -49h-167q-49 0 -49 49v721h-146h-158v-721q0 -49 -49 -49h-167q-48 0 -48 49v721h-98q-49 0 -49 49v156q0 49 49 49h98v10q0 205 109 317.5t323 111.5q48 0 48 -50v-157
q0 -44 -50 -47q-166 -6 -166 -175v-10h216h88v31q0 205 109 317.5t323 111.5q23 0 36 -14t13 -37v-157q0 -43 -51 -46z" />
    <glyph glyph-name="f_f_i" unicode="ffi" horiz-adv-x="1675" 
d="M1506 1024q48 0 48 -49v-926q0 -49 -48 -49h-167q-49 0 -49 49v721h-301v-721q0 -49 -48 -49h-167q-49 0 -49 49v721h-146h-158v-721q0 -49 -49 -49h-167q-48 0 -48 49v721h-98q-49 0 -49 49v156q0 49 49 49h98v10q0 205 109 317.5t323 111.5q48 0 48 -50v-157
q0 -44 -50 -47q-166 -6 -166 -175v-10h216h88v31q0 427 481 427q93 0 198 -20q43 -7 43 -52v-147q0 -23 -13.5 -35.5t-37.5 -9.5q-96 10 -190 10q-110 0 -163.5 -37.5t-53.5 -135.5v-31h416h101z" />
    <glyph glyph-name="f_f_l" unicode="ffl" horiz-adv-x="1675" 
d="M1511 1448q43 -9 43 -54v-1345q0 -49 -48 -49h-167q-49 0 -49 49v1199q-29 3 -84 3q-217 0 -217 -196v-31h122q49 0 49 -49v-156q0 -49 -49 -49h-122v-721q0 -49 -48 -49h-167q-49 0 -49 49v721h-146h-158v-721q0 -49 -49 -49h-167q-48 0 -48 49v721h-98q-49 0 -49 49
v156q0 49 49 49h98v10q0 205 109 317.5t323 111.5q48 0 48 -50v-157q0 -44 -50 -47q-166 -6 -166 -175v-10h216h88v31q0 427 481 427q142 0 305 -34z" />
    <glyph glyph-name=".notdef" horiz-adv-x="1024" 
d="M840 1638v-2048h-650v2048h650zM682 1501h-338v-67h133v-76h-135v-68h340v68h-135v76h135v67zM547 1237h-205v-213h340v70h-135v143zM477 1167v-73h-67v73h67zM682 969h-340v-68h135v-76h-135v-67h205v143h135v68zM682 846h-68v-135h-272v-70h340v205zM682 596h-205v-115
h70v47h67v-96h-204v164h-68v-231h340v231zM682 242h-340v-232h340v232zM614 174v-96h-204v96h204zM682 -37h-340v-67h143l-143 -97v-67h340v67h-209l143 97h66v67z" />
    <glyph glyph-name=".null" horiz-adv-x="0" 
 />
    <glyph glyph-name="nonmarkingreturn" horiz-adv-x="682" 
 />
    <glyph glyph-name="space" unicode=" " horiz-adv-x="512" 
 />
    <glyph glyph-name="exclam" unicode="!" horiz-adv-x="548" 
d="M213 481q-45 0 -49 43l-49 500v361q0 49 49 49h220q49 0 49 -49v-361l-49 -500q-4 -43 -49 -43h-122zM177 0q-49 0 -49 49v194q0 49 49 49h194q49 0 49 -49v-194q0 -49 -49 -49h-194z" />
    <glyph glyph-name="quotedbl" unicode="&#x22;" horiz-adv-x="774" 
d="M169 963q-22 0 -35.5 12t-14.5 34l-28 375q-2 23 10 36.5t35 13.5h153q23 0 35 -13.5t10 -36.5l-28 -375q-1 -22 -14.5 -34t-35.5 -12h-87zM517 963q-22 0 -35.5 12t-14.5 34l-28 375q-2 23 10 36.5t35 13.5h153q23 0 35 -13.5t10 -36.5l-28 -375q-1 -22 -14.5 -34
t-35.5 -12h-87z" />
    <glyph glyph-name="numbersign" unicode="#" horiz-adv-x="1261" 
d="M1162 1009q25 0 36.5 -14t7.5 -39l-17 -102q-6 -45 -52 -45h-178l-30 -184h170q25 0 37 -14t8 -39l-16 -102q-6 -45 -52 -45h-181l-46 -278q-6 -45 -52 -45h-111q-25 0 -36.5 14t-7.5 39l45 270h-208l-47 -278q-6 -45 -52 -45h-111q-25 0 -36.5 14t-7.5 39l45 270h-171
q-25 0 -37 14t-8 39l17 102q6 45 53 45h179l31 184h-173q-25 0 -36.5 14t-7.5 39l17 102q6 45 52 45h181l47 278q6 44 52 44h111q25 0 36.5 -14t7.5 -39l-45 -269h208l46 278q6 44 53 44h110q25 0 37 -14t8 -39l-45 -269h169zM720 625l31 184h-208l-31 -184h208z" />
    <glyph glyph-name="dollar" unicode="$" horiz-adv-x="1116" 
d="M1064 389q0 -92 -34.5 -168.5t-95 -127t-138 -80.5t-167.5 -38v-139q0 -41 -41 -41h-56q-41 0 -41 41v141q-182 20 -302.5 125t-135.5 289q-1 24 11.5 37.5t36.5 13.5h185q42 0 50 -47q21 -115 155 -141v349q-50 18 -85.5 32t-81.5 37.5t-78 47t-66 57.5t-54.5 72
t-33.5 89t-13 110q0 91 33 166t90.5 125t131 80.5t157.5 38.5v139q0 41 41 41h56q41 0 41 -41v-140q166 -20 280 -123.5t130 -283.5q1 -24 -11.5 -37.5t-36.5 -13.5h-178q-43 0 -51 47q-19 107 -133 133v-347q44 -16 68.5 -25t67 -27t67.5 -31.5t60.5 -36.5t57 -44.5
t46 -52.5t37.5 -63.5t22 -74t9 -88.5zM360 1048q0 -54 33.5 -92t97.5 -69v294q-62 -12 -96.5 -47t-34.5 -86zM629 251q73 11 113.5 48t40.5 90q0 55 -39.5 93t-114.5 70v-301z" />
    <glyph glyph-name="percent" unicode="%" horiz-adv-x="1634" 
d="M438 785q-148 0 -247 98t-99 240t99 240t247 98q147 0 245.5 -97t98.5 -241q0 -142 -98.5 -240t-245.5 -98zM260 0q-30 0 -39.5 16.5t7.5 41.5l943 1344q21 32 59 32h143q29 0 38.5 -17t-7.5 -42l-945 -1344q-22 -31 -59 -31h-140zM436 993q56 0 92.5 38t36.5 92
q0 55 -36.5 93t-92.5 38t-91.5 -37.5t-35.5 -93.5q0 -55 35.5 -92.5t91.5 -37.5zM1198 -25q-148 0 -247 98t-99 240t99 240t247 98q147 0 245.5 -98.5t98.5 -239.5t-98.5 -239.5t-245.5 -98.5zM1196 183q56 0 92.5 38t36.5 92q0 55 -36.5 93t-92.5 38t-91.5 -37.5
t-35.5 -93.5q0 -55 35.5 -92.5t91.5 -37.5z" />
    <glyph glyph-name="ampersand" unicode="&#x26;" horiz-adv-x="1472" 
d="M1386 60q23 -23 15 -41.5t-40 -18.5h-230q-36 0 -60 24l-63 61q-174 -113 -404 -113q-144 0 -260.5 51t-186.5 150.5t-70 231.5q0 115 54.5 217t155.5 172q-84 118 -84 255q0 180 134.5 296t335.5 116q90 0 171 -25t148 -73.5t110 -129t52 -183.5q1 -24 -12 -37.5
t-37 -13.5h-184q-41 0 -52 47q-13 69 -66.5 105t-129.5 36q-80 0 -134 -41.5t-54 -116.5q0 -27 11 -55t34 -57.5t40.5 -48.5t47.5 -49l364 -364q39 83 46 191q3 48 48 48h186q49 0 49 -32q-12 -227 -134 -402zM627 231q105 0 189 41l-351 342q-93 -69 -93 -183
q0 -90 66.5 -145t188.5 -55z" />
    <glyph glyph-name="quotesingle" unicode="'" horiz-adv-x="425" 
d="M169 963q-22 0 -35.5 12t-14.5 34l-28 375q-2 23 10 36.5t35 13.5h153q23 0 35 -13.5t10 -36.5l-28 -375q-1 -22 -14.5 -34t-35.5 -12h-87z" />
    <glyph glyph-name="parenleft" unicode="(" horiz-adv-x="628" 
d="M372 -205q-39 0 -57 36q-207 433 -207 886t207 886q17 35 57 35h161q28 0 38 -15.5t-1 -40.5q-198 -426 -198 -865t198 -865q11 -25 1 -41t-38 -16h-161z" />
    <glyph glyph-name="parenright" unicode=")" horiz-adv-x="628" 
d="M256 -205h-161q-28 0 -38 16t1 41q198 426 198 865t-198 865q-11 25 -1 40.5t38 15.5h161q38 0 56 -35q208 -435 208 -886t-208 -886q-18 -36 -56 -36z" />
    <glyph glyph-name="asterisk" unicode="*" horiz-adv-x="815" 
d="M658 1241q23 2 36.5 -10t13.5 -34v-65q0 -22 -14 -34.5t-36 -10.5l-135 11l79 -105q31 -40 -10 -66l-54 -34q-43 -27 -65 19l-65 127l-65 -127q-22 -46 -65 -19l-55 34q-41 26 -10 66l79 105l-135 -11q-22 -2 -35.5 10t-13.5 35v65q0 22 13 34t36 10l135 -10l-79 104
q-31 40 10 66l55 34q43 27 65 -19l65 -127l65 127q22 46 65 19l54 -33q41 -26 10 -67l-79 -104z" />
    <glyph glyph-name="plus" unicode="+" horiz-adv-x="1136" 
d="M980 841q49 0 49 -49v-150q0 -49 -49 -49h-288v-288q0 -49 -48 -49h-151q-49 0 -49 49v288h-288q-48 0 -48 49v150q0 49 48 49h288v288q0 49 49 49h151q48 0 48 -49v-288h288z" />
    <glyph glyph-name="comma" unicode="," horiz-adv-x="548" 
d="M371 292q49 0 49 -49v-243q0 -120 -66.5 -194t-185.5 -88q-40 -5 -40 36v45q0 31 36 39q52 11 76.5 49t24.5 113h-88q-49 0 -49 49v194q0 49 49 49h194z" />
    <glyph glyph-name="hyphen" unicode="-" horiz-adv-x="1034" 
d="M182 490q-49 0 -49 49v157q0 48 49 48h670q49 0 49 -48v-157q0 -49 -49 -49h-670z" />
    <glyph glyph-name="period" unicode="." horiz-adv-x="548" 
d="M177 0q-49 0 -49 49v194q0 49 49 49h194q49 0 49 -49v-194q0 -49 -49 -49h-194z" />
    <glyph glyph-name="slash" unicode="/" horiz-adv-x="1071" 
d="M158 -205h-48q-19 0 -26.5 10.5t-0.5 28.5l793 1780q11 24 36 24h49q19 0 26 -10t0 -29l-792 -1779q-11 -25 -37 -25z" />
    <glyph glyph-name="zero" unicode="0" horiz-adv-x="1290" 
d="M645 -28q-180 0 -310.5 94.5t-196.5 261.5t-66 389t66 389t196.5 261t310.5 94t310.5 -94t197 -261t66.5 -389t-66.5 -389t-197 -261.5t-310.5 -94.5zM645 247q143 0 217.5 121t74.5 349t-74.5 349t-217.5 121t-217.5 -121t-74.5 -349t74.5 -349t217.5 -121z" />
    <glyph glyph-name="one" unicode="1" horiz-adv-x="788" 
d="M331 1418q25 16 60 16h200q49 0 49 -49v-1336q0 -49 -49 -49h-184q-49 0 -49 49v1101l-277 -152q-25 -14 -41.5 -4.5t-16.5 37.5v179q0 39 33 58z" />
    <glyph glyph-name="two" unicode="2" horiz-adv-x="1091" 
d="M115 0q-48 0 -48 49v127q0 35 25 60l461 465q168 172 168 299q0 89 -48.5 138t-129.5 49q-168 0 -191 -146q-8 -47 -51 -47h-186q-49 0 -46 51q9 104 51.5 185.5t107.5 131t143.5 74.5t165.5 25q90 0 171.5 -28.5t148 -83t106 -145t39.5 -204.5q0 -116 -62.5 -232
t-163.5 -215l-288 -282h489q49 0 49 -48v-174q0 -49 -49 -49h-862z" />
    <glyph glyph-name="three" unicode="3" horiz-adv-x="1116" 
d="M719 852q148 -43 239.5 -149.5t91.5 -260.5q0 -112 -42 -203t-113 -148.5t-162.5 -88t-194.5 -30.5q-130 0 -239.5 46.5t-184 143.5t-86.5 229q-1 24 11.5 37.5t36.5 13.5h186q39 0 50 -46q14 -70 73 -109.5t153 -39.5q109 0 169.5 53t60.5 142t-60.5 142t-169.5 53h-105
q-48 0 -48 49v104q0 32 21 60l240 319h-515q-49 0 -49 49v167q0 49 49 49h804q49 0 49 -49v-152q0 -31 -21 -60z" />
    <glyph glyph-name="four" unicode="4" horiz-adv-x="1198" 
d="M1126 505q49 0 49 -49v-164q0 -48 -49 -48h-105v-195q0 -49 -48 -49h-188q-48 0 -48 49v195h-645q-48 0 -48 48v182q0 33 13 60l444 865q17 35 57 35h200q28 0 38 -16.5t-3 -42.5l-446 -870h390v291q0 49 48 49h188q48 0 48 -49v-291h105z" />
    <glyph glyph-name="five" unicode="5" horiz-adv-x="1142" 
d="M586 911q138 0 249 -52t179.5 -160t68.5 -257q0 -112 -42 -203t-113 -148.5t-162.5 -88t-194.5 -30.5q-130 0 -239.5 46.5t-184 143.5t-86.5 229q-1 24 11.5 37.5t36.5 13.5h186q40 0 51 -46q14 -70 72.5 -109.5t152.5 -39.5q109 0 169.5 53t60.5 142t-60.5 142
t-169.5 53h-396q-23 0 -35.5 13.5t-11.5 37.5l50 699q2 22 15 34.5t35 12.5h740q48 0 48 -49v-167q0 -49 -48 -49h-523l-19 -258h160z" />
    <glyph glyph-name="six" unicode="6" horiz-adv-x="1132" 
d="M582 967q224 -5 363.5 -143t139.5 -354q0 -220 -145 -359t-374 -139q-231 0 -375.5 139t-144.5 359q0 165 86 289l-1 1l425 642q20 32 58 32h214q29 0 38.5 -17t-6.5 -42zM566 238q102 0 170 63.5t68 168.5t-68 168.5t-170 63.5q-103 0 -170.5 -63t-67.5 -169t67.5 -169
t170.5 -63z" />
    <glyph glyph-name="seven" unicode="7" horiz-adv-x="1003" 
d="M26 1385q0 49 48 49h830q48 0 48 -49v-160q0 -31 -11 -60l-459 -1128q-14 -37 -56 -37h-197q-27 0 -37 15t0 41l450 1107h-568q-48 0 -48 49v173z" />
    <glyph glyph-name="eight" unicode="8" horiz-adv-x="1163" 
d="M897 746q95 -57 147 -147t52 -199q0 -198 -138.5 -313t-376.5 -115t-376 115t-138 313q0 109 51.5 199t146.5 147q-150 104 -150 296q0 134 65 230.5t168.5 142.5t232.5 46t232.5 -46t168.5 -142.5t65 -230.5q0 -192 -150 -296zM581 1196q-81 0 -132.5 -45.5
t-51.5 -123.5q0 -76 51.5 -122.5t132.5 -46.5t132.5 46.5t51.5 122.5q0 78 -51.5 123.5t-132.5 45.5zM581 238q104 0 168.5 52t64.5 145t-64.5 145.5t-168.5 52.5t-168.5 -52.5t-64.5 -145.5t64.5 -145t168.5 -52z" />
    <glyph glyph-name="nine" unicode="9" horiz-adv-x="1132" 
d="M1085 964q0 -168 -85 -290l-424 -643q-20 -31 -58 -31h-215q-29 0 -38 16.5t7 41.5l278 408q-224 5 -364 143.5t-140 354.5q0 220 145 358.5t375 138.5q231 0 375 -138.5t144 -358.5zM328 964q0 -105 68 -169t170 -64q103 0 170.5 63.5t67.5 169.5t-67.5 169t-170.5 63
q-102 0 -170 -63.5t-68 -168.5z" />
    <glyph glyph-name="colon" unicode=":" horiz-adv-x="548" 
d="M177 732q-49 0 -49 49v194q0 49 49 49h194q49 0 49 -49v-194q0 -49 -49 -49h-194zM177 0q-49 0 -49 49v194q0 49 49 49h194q49 0 49 -49v-194q0 -49 -49 -49h-194z" />
    <glyph glyph-name="semicolon" unicode=";" horiz-adv-x="548" 
d="M371 1024q49 0 49 -49v-194q0 -49 -49 -49h-194q-49 0 -49 49v194q0 49 49 49h194zM371 292q49 0 49 -49v-243q0 -120 -66.5 -194t-185.5 -88q-40 -5 -40 36v45q0 31 36 39q52 11 76.5 49t24.5 113h-88q-49 0 -49 49v194q0 49 49 49h194z" />
    <glyph glyph-name="less" unicode="&#x3c;" horiz-adv-x="1081" 
d="M988 1161v-171q0 -40 -38 -55l-558 -218l558 -219q38 -15 38 -55v-171q0 -28 -15.5 -38t-40.5 1l-803 348q-37 18 -37 57v154q0 41 37 56l803 349q25 11 40.5 0.5t15.5 -38.5z" />
    <glyph glyph-name="equal" unicode="=" horiz-adv-x="1075" 
d="M141 805q-49 0 -49 49v151q0 48 49 48h793q49 0 49 -48v-151q0 -49 -49 -49h-793zM141 380q-49 0 -49 49v151q0 48 49 48h793q49 0 49 -48v-151q0 -49 -49 -49h-793z" />
    <glyph glyph-name="greater" unicode="&#x3e;" horiz-adv-x="1081" 
d="M92 1161q0 28 15.5 38.5t40.5 -0.5l803 -349q37 -15 37 -56v-154q0 -39 -37 -57l-803 -348q-25 -11 -40.5 -1t-15.5 38v171q0 40 39 55l558 219l-558 218q-39 15 -39 55v171z" />
    <glyph glyph-name="question" unicode="?" horiz-adv-x="1134" 
d="M451 481q-24 0 -37 14t-8 37q11 63 50 122t86.5 103t94 87t77.5 92.5t31 101.5q0 71 -48.5 110t-137.5 39q-83 0 -138 -36t-68 -106q-11 -46 -51 -46h-185q-24 0 -36.5 13.5t-11.5 37.5q9 102 52.5 181.5t112 129t153.5 75t181 25.5q119 0 221.5 -44.5t170 -138
t67.5 -219.5q0 -78 -29.5 -146.5t-74.5 -118.5t-91.5 -93.5t-87 -89.5t-53.5 -88q-15 -42 -52 -42h-188zM444 0q-48 0 -48 49v194q0 49 48 49h195q49 0 49 -49v-194q0 -49 -49 -49h-195z" />
    <glyph glyph-name="at" unicode="@" horiz-adv-x="1595" 
d="M812 1253q133 0 249.5 -40t201 -109t145.5 -158.5t91 -190t30 -202.5q0 -215 -91.5 -330t-234.5 -115q-102 0 -170.5 43t-97.5 120q-78 -94 -204 -94q-132 0 -216.5 95t-84.5 240t84.5 240t216.5 95q112 0 187 -75v5q0 48 48 48h122q49 0 49 -48v-425q0 -150 119 -150
q88 0 142 88t54 263t-84 320t-231 228t-325 83q-184 0 -337.5 -88t-242.5 -242.5t-89 -341.5q0 -191 91 -345t252.5 -240.5t362.5 -86.5q175 0 301 42q15 4 23.5 -2.5t8.5 -21.5v-15q0 -24 -17 -30q-137 -42 -316 -42q-221 0 -399.5 95t-280.5 264.5t-102 381.5
q0 203 96.5 372.5t268 269t380.5 99.5zM785 373q57 0 94 39t37 100q0 62 -37 100.5t-94 38.5q-59 0 -96 -38.5t-37 -100.5q0 -61 37 -100t96 -39z" />
    <glyph glyph-name="A" unicode="A" horiz-adv-x="1337" 
d="M1313 55q9 -26 -2.5 -40.5t-38.5 -14.5h-205q-44 0 -55 40l-69 217h-550l-69 -217q-11 -40 -55 -40h-205q-27 0 -38 14.5t-2 40.5l455 1338q12 41 57 41h265q44 0 56 -41zM477 521h382l-191 599z" />
    <glyph glyph-name="B" unicode="B" horiz-adv-x="1402" 
d="M1100 872q114 -59 180.5 -169t66.5 -247q0 -194 -129.5 -325t-323.5 -131h-679h-33q-49 0 -49 49v1336q0 49 49 49h233h314q183 0 303 -110t120 -277q0 -93 -52 -175zM729 1169h-314v-242h412q43 43 43 104t-38.5 99.5t-102.5 38.5zM858 264q100 0 153.5 58t53.5 149
t-53 149t-152 58h-445v-414h443z" />
    <glyph glyph-name="C" unicode="C" horiz-adv-x="1540" 
d="M814 -28q-213 0 -384.5 98.5t-267 268.5t-95.5 378q0 155 56 292.5t154 237t237.5 157t299.5 57.5q239 0 427 -134t254 -351q7 -24 -5 -39t-37 -15h-199q-37 0 -55 38q-48 104 -151.5 165.5t-233.5 61.5q-209 0 -337.5 -131t-128.5 -339t128.5 -339t337.5 -131
q130 0 233.5 61.5t151.5 165.5q18 38 55 38h199q25 0 37.5 -14t5.5 -37q-64 -217 -252.5 -353t-429.5 -136z" />
    <glyph glyph-name="D" unicode="D" horiz-adv-x="1501" 
d="M742 1434q194 0 353 -94.5t249 -259t90 -363.5t-90 -363.5t-249 -259t-353 -94.5h-517h-43q-49 0 -49 49v1336q0 49 49 49h233h327zM742 270q187 0 303.5 124t116.5 323t-116.5 322.5t-303.5 123.5h-327v-893h327z" />
    <glyph glyph-name="E" unicode="E" horiz-adv-x="1050" 
d="M934 270q49 0 49 -48v-173q0 -49 -49 -49h-709h-43q-49 0 -49 49v1336q0 49 49 49h233h509q49 0 49 -49v-173q0 -49 -49 -49h-509v-306h458q49 0 49 -49v-167q0 -49 -49 -49h-458v-322h519z" />
    <glyph glyph-name="F" unicode="F" horiz-adv-x="1030" 
d="M924 1434q49 0 49 -49v-173q0 -49 -49 -49h-509v-365h494q48 0 48 -48v-173q0 -49 -48 -49h-494v-479q0 -49 -49 -49h-184q-49 0 -49 49v1336q0 49 49 49h233h509z" />
    <glyph glyph-name="G" unicode="G" horiz-adv-x="1607" 
d="M1457 769q49 0 49 -49v-200v-471q0 -49 -49 -49h-169q-48 0 -48 49v133q-153 -210 -460 -210q-200 0 -364 98.5t-256.5 269t-92.5 377.5q0 155 56 292.5t153.5 237t236.5 157t298 57.5q235 0 423 -128t255 -326q9 -25 -2.5 -40t-37.5 -15h-199q-38 0 -57 36
q-51 88 -154.5 143.5t-227.5 55.5q-208 0 -335.5 -131t-127.5 -339q0 -217 130 -351.5t333 -134.5q98 0 181 29t147 96t86 164h-352q-48 0 -48 49v151q0 49 48 49h584z" />
    <glyph glyph-name="H" unicode="H" horiz-adv-x="1306" 
d="M1124 1434q48 0 48 -49v-1336q0 -49 -48 -49h-184q-49 0 -49 49v553h-476v-553q0 -49 -49 -49h-184q-49 0 -49 49v1336q0 49 49 49h184q49 0 49 -49v-513h476v513q0 49 49 49h184z" />
    <glyph glyph-name="I" unicode="I" horiz-adv-x="548" 
d="M133 1385q0 49 49 49h184q49 0 49 -49v-1336q0 -49 -49 -49h-184q-49 0 -49 49v1336z" />
    <glyph glyph-name="J" unicode="J" horiz-adv-x="1101" 
d="M507 -28q-92 0 -172.5 25.5t-147 76.5t-109 137t-50.5 198q-3 51 46 51h186q43 0 51 -49q18 -164 196 -164q96 0 148 45t52 132v961q0 49 48 49h185q48 0 48 -49v-961q0 -112 -40 -200.5t-108 -142.5t-153 -81.5t-180 -27.5z" />
    <glyph glyph-name="K" unicode="K" horiz-adv-x="1259" 
d="M1209 59q17 -25 8 -42t-38 -17h-215q-39 0 -59 30l-490 643v-624q0 -49 -49 -49h-184q-49 0 -49 49v1336q0 49 49 49h184q49 0 49 -49v-585l469 604q24 30 59 30h215q30 0 39 -17.5t-9 -41.5l-486 -639z" />
    <glyph glyph-name="L" unicode="L" horiz-adv-x="972" 
d="M899 270q48 0 48 -48v-173q0 -49 -48 -49h-623h-94q-49 0 -49 49v1336q0 49 49 49h184q49 0 49 -49v-1115h484z" />
    <glyph glyph-name="M" unicode="M" horiz-adv-x="1669" 
d="M1487 1434q49 0 49 -49v-1336q0 -49 -49 -49h-184q-49 0 -49 49v914l-301 -697q-14 -37 -56 -37h-124q-43 0 -57 37l-301 697v-914q0 -49 -49 -49h-184q-49 0 -49 49v1336q0 49 49 49h184h48q43 0 57 -37l364 -840l364 840q14 37 56 37h140h92z" />
    <glyph glyph-name="N" unicode="N" horiz-adv-x="1320" 
d="M906 1385q0 49 49 49h184q49 0 49 -49v-1336q0 -49 -49 -49h-127q-42 0 -60 31l-537 855v-837q0 -49 -49 -49h-184q-49 0 -49 49v1336q0 49 49 49h127q41 0 60 -32l537 -854v837z" />
    <glyph glyph-name="O" unicode="O" horiz-adv-x="1622" 
d="M811 -28q-152 0 -290 58t-237.5 157t-158 237.5t-58.5 292.5q0 206 99.5 377t270 269t374.5 98t374.5 -98t270 -269t99.5 -377q0 -154 -58.5 -292.5t-158 -237.5t-237.5 -157t-290 -58zM811 247q197 0 330 133t133 337t-133 337t-330 133t-330 -133t-133 -337t133 -337
t330 -133z" />
    <glyph glyph-name="P" unicode="P" horiz-adv-x="1204" 
d="M668 1434q133 0 244.5 -64t175.5 -173.5t64 -239.5t-64 -239.5t-175.5 -173t-244.5 -63.5h-253v-432q0 -49 -49 -49h-184q-49 0 -49 49v1336q0 49 49 49h233h253zM668 745q86 0 144 61t58 151t-58 151t-144 61h-253v-424h253z" />
    <glyph glyph-name="Q" unicode="Q" horiz-adv-x="1632" 
d="M1375 228l125 -141q31 -37 -6 -68l-131 -109q-38 -32 -68 6l-128 145q-166 -89 -356 -89q-152 0 -289.5 58t-237 157t-158.5 237.5t-59 292.5t59 292.5t158.5 237t237 156.5t289.5 58t289.5 -58t237 -156.5t158.5 -237t59 -292.5q0 -280 -180 -489zM811 247q88 0 167 29
l-132 149q-31 37 6 69l131 109q38 32 68 -7l139 -157q84 120 84 278q0 204 -133.5 337t-329.5 133t-329.5 -133t-133.5 -337t133.5 -337t329.5 -133z" />
    <glyph glyph-name="R" unicode="R" horiz-adv-x="1290" 
d="M1278 60q20 -23 11 -41.5t-40 -18.5h-217q-38 0 -60 29l-382 468h-175v-448q0 -49 -49 -49h-184q-49 0 -49 49v1336q0 49 49 49h233h261q198 0 337 -139.5t139 -337.5q0 -131 -73.5 -243t-194.5 -170zM415 1169v-424h261q81 0 137.5 61.5t56.5 150.5t-56.5 150.5
t-137.5 61.5h-261z" />
    <glyph glyph-name="S" unicode="S" horiz-adv-x="1118" 
d="M574 -28q-102 0 -191 25.5t-160 75.5t-116 131.5t-54 186.5q-1 24 11.5 37.5t36.5 13.5h185q42 0 50 -47q26 -148 238 -148q104 0 158 40t54 105q0 30 -14 55.5t-34 43t-57 36t-66.5 30t-79.5 29.5q-167 59 -235 97q-181 99 -214 270q-9 43 -9 92q0 99 39 180
t104.5 131.5t148.5 77.5t174 27t172.5 -25t148 -74t109.5 -129.5t52 -182.5q1 -24 -12 -37.5t-37 -13.5h-184q-43 0 -51 47q-25 141 -198 141q-85 0 -135 -39.5t-50 -102.5q0 -38 16.5 -68t51 -54t70.5 -41t93 -38l42 -15q45 -16 68.5 -24.5t67 -26.5t68 -31.5t61 -36
t57.5 -43.5t46 -51.5t38 -62.5t22 -73.5t9 -87.5q0 -133 -69 -230t-179 -143.5t-246 -46.5z" />
    <glyph glyph-name="T" unicode="T" horiz-adv-x="1024" 
d="M950 1434q48 0 48 -49v-173q0 -49 -48 -49h-297v-1114q0 -49 -49 -49h-184q-49 0 -49 49v1114h-297q-48 0 -48 49v173q0 49 48 49h579h297z" />
    <glyph glyph-name="U" unicode="U" horiz-adv-x="1269" 
d="M635 -28q-147 0 -263.5 52t-187.5 159.5t-71 254.5v947q0 49 48 49h185q48 0 48 -49v-925q0 -213 241 -213t241 213v925q0 49 48 49h184q49 0 49 -49v-947q0 -147 -71 -254.5t-187.5 -159.5t-263.5 -52z" />
    <glyph glyph-name="V" unicode="V" horiz-adv-x="1294" 
d="M515 0q-43 0 -55 40l-437 1339q-8 25 3.5 40t37.5 15h205q44 0 55 -41l323 -1064l323 1064q11 41 55 41h205q26 0 37.5 -15t3.5 -40l-436 -1339q-12 -40 -55 -40h-265z" />
    <glyph glyph-name="W" unicode="W" horiz-adv-x="1822" 
d="M1761 1434q26 0 37 -14.5t4 -40.5l-381 -1338q-11 -41 -54 -41h-226q-44 0 -55 41l-174 614l-176 -614q-11 -41 -54 -41h-226q-44 0 -55 41l-380 1338q-7 26 4 40.5t37 14.5h193q43 0 53 -43l276 -1032l204 730l-82 290q-7 26 4 40.5t37 14.5h163q43 0 53 -43l276 -1032
l275 1032q10 43 53 43h194z" />
    <glyph glyph-name="X" unicode="X" horiz-adv-x="1228" 
d="M1169 58q14 -26 5 -42t-37 -16h-214q-39 0 -58 33l-251 429l-250 -429q-19 -33 -58 -33h-214q-28 0 -37.5 16t4.5 42l396 679l-373 638q-14 25 -4.5 42t37.5 17h214q39 0 58 -33l227 -390l228 390q19 33 58 33h214q28 0 37 -17t-5 -42l-372 -638z" />
    <glyph glyph-name="Y" unicode="Y" horiz-adv-x="1230" 
d="M1159 1434q28 0 38 -17t-5 -42l-436 -739v-587q0 -49 -48 -49h-185q-48 0 -48 49v588l-436 738q-15 25 -5 42t38 17h214q39 0 57 -35l273 -491l272 491q18 35 57 35h214z" />
    <glyph glyph-name="Z" unicode="Z" horiz-adv-x="1095" 
d="M432 270h561q49 0 49 -48v-173q0 -49 -49 -49h-870q-49 0 -49 49v142q0 30 18 60l579 912h-535q-49 0 -49 49v173q0 49 49 49h844q49 0 49 -49v-143q0 -32 -17 -60z" />
    <glyph glyph-name="bracketleft" unicode="[" horiz-adv-x="593" 
d="M545 1384h-173v-1335h173q49 0 49 -48v-157q0 -49 -49 -49h-309h-80q-48 0 -48 49v1746q0 48 48 48h216h173q49 0 49 -48v-157q0 -49 -49 -49z" />
    <glyph glyph-name="backslash" unicode="\" horiz-adv-x="1071" 
d="M912 -205q-25 0 -36 25l-793 1779q-7 18 0.5 28.5t26.5 10.5h48q26 0 37 -24l792 -1780q7 -19 0 -29t-26 -10h-49z" />
    <glyph glyph-name="bracketright" unicode="]" horiz-adv-x="593" 
d="M438 1638q48 0 48 -48v-1746q0 -49 -48 -49h-216h-173q-49 0 -49 49v157q0 48 49 48h173v1335h-173q-49 0 -49 49v157q0 48 49 48h309h80z" />
    <glyph glyph-name="asciicircum" unicode="^" horiz-adv-x="1146" 
d="M1032 816q14 -26 4 -42t-39 -16h-178q-41 0 -59 35l-187 337l-186 -337q-18 -35 -59 -35h-178q-29 0 -39 16t4 42l339 584q19 34 58 34h123q39 0 58 -34z" />
    <glyph glyph-name="underscore" unicode="_" horiz-adv-x="1064" 
d="M115 -350q-48 0 -48 48v157q0 49 48 49h835q48 0 48 -49v-157q0 -48 -48 -48h-835z" />
    <glyph glyph-name="grave" unicode="`" horiz-adv-x="563" 
d="M466 1152q24 0 32 14t-4 34l-120 206q-14 28 -47 28h-223q-26 0 -33 -14.5t9 -35.5l169 -209q17 -23 49 -23h168z" />
    <glyph glyph-name="a" unicode="a" horiz-adv-x="1042" 
d="M530 1052q86 0 160.5 -25.5t132.5 -74.5t91 -127t33 -175v-601q0 -49 -48 -49h-161q-49 0 -49 49v40q-96 -117 -277 -117q-94 0 -170.5 34.5t-125.5 109.5t-49 178t49 178t125.5 109.5t170.5 34.5q175 0 277 -90v109q0 172 -159 172q-58 0 -98 -23.5t-53 -64.5
q-9 -23 -20 -33t-31 -10h-164q-24 0 -36.5 13.5t-11.5 37.5q19 152 135 238.5t279 86.5zM501 167q86 0 137 35.5t51 91.5q0 59 -50.5 93.5t-137.5 34.5q-84 0 -127 -35t-43 -93t43 -92.5t127 -34.5z" />
    <glyph glyph-name="b" unicode="b" horiz-adv-x="1282" 
d="M717 1052q101 0 193 -42t159 -113.5t107 -172t40 -212.5t-40 -212.5t-107 -172t-159 -113.5t-193 -42q-215 0 -332 149v-72q0 -49 -49 -49h-167q-49 0 -49 49v1336q0 49 49 49h167q49 0 49 -49v-482q117 149 332 149zM668 223q123 0 203.5 80.5t80.5 208.5t-80.5 208.5
t-203.5 80.5t-203 -80.5t-80 -208.5t80 -208.5t203 -80.5z" />
    <glyph glyph-name="c" unicode="c" horiz-adv-x="1159" 
d="M1064 374q25 0 37.5 -15.5t3.5 -39.5q-50 -155 -186.5 -251t-310.5 -96q-232 0 -386.5 155t-154.5 385t154.5 385t386.5 155q174 0 310.5 -96t186.5 -251q9 -24 -3.5 -39.5t-37.5 -15.5h-183q-36 0 -59 34q-32 51 -88.5 79.5t-125.5 28.5q-118 0 -197.5 -79t-79.5 -201
t79.5 -201t197.5 -79q69 0 125.5 28t88.5 78q22 36 59 36h183z" />
    <glyph glyph-name="d" unicode="d" horiz-adv-x="1282" 
d="M1114 1434q48 0 48 -49v-1336q0 -49 -48 -49h-167q-49 0 -49 49v72q-117 -149 -332 -149q-101 0 -193 42t-159 113.5t-107 172t-40 212.5t40 212.5t107 172t159 113.5t193 42q215 0 332 -149v482q0 49 49 49h167zM614 223q123 0 203.5 80.5t80.5 208.5t-80.5 208.5
t-203.5 80.5t-203 -80.5t-80 -208.5t80 -208.5t203 -80.5z" />
    <glyph glyph-name="e" unicode="e" horiz-adv-x="1179" 
d="M609 1052q148 0 266 -72t182 -195.5t64 -273.5q0 -33 -3 -63q-6 -45 -53 -45h-211h-512q26 -106 100 -159t177 -53q56 0 106 20.5t81 54.5q29 27 60 27l164 1q27 0 39 -15t1 -38q-57 -129 -177 -199t-278 -70q-246 0 -397 153.5t-151 386.5q0 151 67.5 274t192 194.5
t282.5 71.5zM340 611h517q-22 103 -90.5 153.5t-158.5 50.5q-104 0 -174.5 -54t-93.5 -150z" />
    <glyph glyph-name="f" unicode="f" horiz-adv-x="636" 
d="M587 1209q-80 1 -123 -43t-43 -132v-10h168q48 0 48 -49v-156q0 -49 -48 -49h-168v-721q0 -49 -49 -49h-167q-48 0 -48 49v721h-98q-49 0 -49 49v156q0 49 49 49h98v10q0 205 109 317.5t323 111.5q48 0 48 -50v-157q0 -47 -50 -47z" />
    <glyph glyph-name="g" unicode="g" horiz-adv-x="1282" 
d="M1114 1024q48 0 48 -49v-926q0 -98 -30 -179.5t-80.5 -137t-118 -94.5t-142 -57t-152.5 -18q-126 0 -234.5 40t-184.5 123t-90 195q-1 24 12 37.5t37 13.5h168q38 0 52 -43q19 -57 81.5 -94t158.5 -37q125 0 195 65.5t70 185.5v109q-119 -155 -338 -155q-134 0 -249 70
t-182.5 191t-67.5 263t67.5 263t182.5 191.5t249 70.5q219 0 338 -155v78q0 49 49 49h161zM617 248q125 0 206 78.5t81 200.5t-81 201t-206 79t-205.5 -79t-80.5 -201t80.5 -200.5t205.5 -78.5z" />
    <glyph glyph-name="h" unicode="h" 
d="M663 1052q146 0 239.5 -107t93.5 -291v-605q0 -49 -49 -49h-167q-48 0 -48 49v585q0 85 -45 129t-118 44q-84 0 -134.5 -52t-50.5 -162v-544q0 -49 -48 -49h-167q-49 0 -49 49v1336q0 49 49 49h167q48 0 48 -49v-466q87 133 279 133z" />
    <glyph glyph-name="i" unicode="i" horiz-adv-x="505" 
d="M169 1167q-49 0 -49 49v169q0 49 49 49h167q49 0 49 -49v-169q0 -49 -49 -49h-167zM169 0q-49 0 -49 49v926q0 49 49 49h167q49 0 49 -49v-926q0 -49 -49 -49h-167z" />
    <glyph glyph-name="j" unicode="j" horiz-adv-x="540" 
d="M371 1434q49 0 49 -49v-169q0 -49 -49 -49h-167q-48 0 -48 49v169q0 49 48 49h167zM371 1024q49 0 49 -49v-995q0 -214 -97.5 -317t-299.5 -102q-23 0 -36 13.5t-13 36.5v157q0 45 50 50q68 5 100 43.5t32 118.5v995q0 49 48 49h167z" />
    <glyph glyph-name="k" unicode="k" horiz-adv-x="1058" 
d="M1002 59q19 -24 10.5 -41.5t-38.5 -17.5h-195q-37 0 -58 30l-336 432v-413q0 -49 -49 -49h-167q-49 0 -49 49v1336q0 49 49 49h167q49 0 49 -49v-811l315 420q21 30 59 30h196q30 0 38.5 -17t-9.5 -42l-345 -448z" />
    <glyph glyph-name="l" unicode="l" horiz-adv-x="505" 
d="M169 0q-49 0 -49 49v1377q0 49 49 49h167q49 0 49 -49v-1377q0 -49 -49 -49h-167z" />
    <glyph glyph-name="m" unicode="m" horiz-adv-x="1570" 
d="M1158 1052q148 0 233.5 -94t85.5 -268v-641q0 -49 -49 -49h-166q-49 0 -49 49v621q0 72 -36.5 104.5t-94.5 32.5q-63 0 -107 -40.5t-44 -132.5v-585q0 -49 -49 -49h-167q-48 0 -48 49v621q0 72 -36.5 104.5t-94.5 32.5q-63 0 -107 -40.5t-44 -132.5v-585q0 -49 -49 -49
h-167q-49 0 -49 49v926q0 49 49 49h167q49 0 49 -49v-51q85 128 245 128q166 0 247 -136q107 136 281 136z" />
    <glyph glyph-name="n" unicode="n" 
d="M663 1052q146 0 239.5 -107t93.5 -291v-605q0 -49 -49 -49h-167q-48 0 -48 49v585q0 85 -45 129t-118 44q-84 0 -134.5 -52t-50.5 -162v-544q0 -49 -48 -49h-167q-49 0 -49 49v926q0 49 49 49h167q48 0 48 -49v-56q87 133 279 133z" />
    <glyph glyph-name="o" unicode="o" horiz-adv-x="1216" 
d="M608 -28q-149 0 -273 71t-196 195t-72 274t72 274t196 195t273 71t273 -71t196.5 -195t72.5 -274t-72.5 -274t-196.5 -195t-273 -71zM608 229q119 0 198.5 80t79.5 203t-79.5 203t-198.5 80t-198 -79.5t-79 -203.5t79 -203.5t198 -79.5z" />
    <glyph glyph-name="p" unicode="p" horiz-adv-x="1282" 
d="M717 1052q101 0 193 -42t159 -113.5t107 -172t40 -212.5t-40 -212.5t-107 -172t-159 -113.5t-193 -42q-215 0 -332 149v-482q0 -49 -49 -49h-167q-49 0 -49 49v1336q0 49 49 49h167q49 0 49 -49v-72q117 149 332 149zM668 223q123 0 203.5 80.5t80.5 208.5t-80.5 208.5
t-203.5 80.5t-203 -80.5t-80 -208.5t80 -208.5t203 -80.5z" />
    <glyph glyph-name="q" unicode="q" horiz-adv-x="1282" 
d="M1114 1024q48 0 48 -49v-1336q0 -49 -48 -49h-167q-49 0 -49 49v482q-117 -149 -332 -149q-101 0 -193 42t-159 113.5t-107 172t-40 212.5t40 212.5t107 172t159 113.5t193 42q215 0 332 -149v72q0 49 49 49h167zM614 223q123 0 203.5 80.5t80.5 208.5t-80.5 208.5
t-203.5 80.5t-203 -80.5t-80 -208.5t80 -208.5t203 -80.5z" />
    <glyph glyph-name="r" unicode="r" horiz-adv-x="690" 
d="M615 1040q24 4 37 -9.5t13 -37.5v-193q0 -47 -37 -47q-49 0 -91 -13t-77 -41.5t-55 -78t-20 -115.5v-456q0 -49 -49 -49h-167q-49 0 -49 49v926q0 49 49 49h167q49 0 49 -49v-106q63 150 230 171z" />
    <glyph glyph-name="s" unicode="s" horiz-adv-x="983" 
d="M354 727q0 -36 30.5 -59t79 -36t107 -24.5t117.5 -32t107.5 -51.5t79 -89t30.5 -138q0 -157 -117.5 -241t-296.5 -84q-107 0 -194 32t-146 101.5t-71 169.5q-3 24 10 37.5t37 13.5h164q34 0 53 -42q25 -79 147 -79q73 0 111.5 24t38.5 68q0 35 -30.5 58t-79 36t-107 25
t-117.5 32.5t-107.5 51.5t-79 89t-30.5 138q0 104 56.5 179.5t146 110.5t198.5 35q99 0 181 -32t139.5 -102t69.5 -169q3 -24 -10 -37.5t-37 -13.5h-164q-20 0 -31 10t-21 33q-11 38 -45.5 58t-81.5 20q-64 0 -100.5 -24t-36.5 -68z" />
    <glyph glyph-name="t" unicode="t" horiz-adv-x="684" 
d="M602 1024q48 0 48 -49v-156q0 -49 -48 -49h-128v-721q0 -49 -49 -49h-166q-49 0 -49 49v721h-128q-49 0 -49 49v156q0 49 49 49h128v279q0 49 49 49h166q49 0 49 -49v-279h128z" />
    <glyph glyph-name="u" unicode="u" 
d="M921 1024q49 0 49 -49v-926q0 -49 -49 -49h-167q-48 0 -48 49v56q-87 -133 -279 -133q-146 0 -239.5 107t-93.5 291v605q0 49 49 49h167q48 0 48 -49v-585q0 -85 45 -129t118 -44q84 0 134.5 52t50.5 162v544q0 49 48 49h167z" />
    <glyph glyph-name="v" unicode="v" horiz-adv-x="1024" 
d="M960 1024q26 0 37 -15t2 -41l-337 -929q-15 -39 -55 -39h-142h-48q-39 0 -55 39l-337 929q-9 26 2.5 41t38.5 15h178q43 0 55 -40l213 -659l213 659q12 40 55 40h180z" />
    <glyph glyph-name="w" unicode="w" horiz-adv-x="1484" 
d="M1406 1024q26 0 37 -15t3 -40l-303 -929q-12 -40 -56 -40h-140h-27q-44 0 -56 40l-121 372l-122 -372q-12 -40 -56 -40h-108h-59q-44 0 -56 40l-304 929q-8 25 3.5 40t37.5 15h181q43 0 54 -40l188 -661l133 418l-74 228q-8 25 3 40t37 15h135q42 0 54 -40l200 -635
l181 635q11 40 54 40h181z" />
    <glyph glyph-name="x" unicode="x" horiz-adv-x="968" 
d="M920 58q16 -25 6.5 -41.5t-39.5 -16.5h-173q-38 0 -59 33l-171 270l-172 -270q-21 -33 -58 -33h-174q-29 0 -38.5 16.5t6.5 41.5l295 467l-280 441q-16 25 -6.5 41.5t39.5 16.5h174q37 0 58 -33l156 -245l155 245q21 33 59 33h173q30 0 39.5 -16.5t-6.5 -41.5l-280 -441z
" />
    <glyph glyph-name="y" unicode="y" horiz-adv-x="1024" 
d="M725 984q12 40 55 40h181q27 0 38 -14.5t2 -40.5l-452 -1340q-12 -39 -56 -39h-181q-27 0 -38.5 14.5t-2.5 40.5l125 369l-369 954q-9 25 2 40.5t37 15.5h180q40 0 55 -38l227 -607z" />
    <glyph glyph-name="z" unicode="z" horiz-adv-x="929" 
d="M422 248h405q49 0 49 -49v-150q0 -49 -49 -49h-712q-48 0 -48 49v94q0 32 19 60l413 573h-363q-49 0 -49 49v150q0 49 49 49h670q49 0 49 -49v-94q0 -32 -19 -60z" />
    <glyph glyph-name="braceleft" unicode="{" horiz-adv-x="718" 
d="M693 -172q0 -50 -48 -50q-192 -1 -287 97t-95 286v304q0 70 -26.5 98t-83.5 30q-51 3 -51 49v155q0 46 51 49q57 2 83.5 30t26.5 98v304q0 188 95 286t287 97q48 0 48 -50v-155q0 -46 -50 -49q-59 0 -87.5 -29t-28.5 -100v-304q0 -185 -121 -254q121 -72 121 -255v-304
q0 -71 28.5 -100t87.5 -29q50 -3 50 -48v-156z" />
    <glyph glyph-name="bar" unicode="|" horiz-adv-x="530" 
d="M182 -410q-49 0 -49 49v1787q0 49 49 49h167q48 0 48 -49v-1787q0 -49 -48 -49h-167z" />
    <glyph glyph-name="braceright" unicode="}" horiz-adv-x="718" 
d="M26 -172v156q0 45 50 48q59 0 87 29t28 100v304q0 183 122 255q-122 69 -122 254v304q0 71 -28 100t-87 29q-50 3 -50 49v155q0 50 48 50q192 1 287 -97t95 -286v-304q0 -70 26.5 -98t83.5 -30q50 -3 50 -49v-155q0 -46 -50 -49q-57 -2 -83.5 -30t-26.5 -98v-304
q0 -188 -95 -286t-287 -97q-48 0 -48 50z" />
    <glyph glyph-name="asciitilde" unicode="~" horiz-adv-x="1226" 
d="M900 861q20 46 64 24l129 -63q42 -21 27 -64q-40 -116 -116 -177.5t-172 -61.5t-210 51q-72 34 -117 50t-81 17.5t-58 -15.5t-40 -54q-23 -46 -64 -25l-129 62q-42 21 -27 64q40 116 116.5 177.5t172.5 61.5t209 -51q72 -34 117 -50t81 -16.5t58 16.5t40 54z" />
    <glyph glyph-name="exclamdown" unicode="&#xa1;" horiz-adv-x="548" 
d="M177 1024h194q49 0 49 -49v-194q0 -49 -49 -49h-194q-49 0 -49 49v194q0 49 49 49zM213 543h122q45 0 49 -43l49 -500v-361q0 -49 -49 -49h-220q-49 0 -49 49v361l49 500q4 43 49 43z" />
    <glyph glyph-name="cent" unicode="&#xa2;" horiz-adv-x="1159" 
d="M1064 579q25 0 37.5 -15.5t3.5 -39.5q-50 -155 -186.5 -251t-310.5 -96q-72 0 -140 17l-54 -167q-9 -27 -37 -27h-50q-17 0 -24.5 10t-2.5 27l63 195q-136 66 -216 195t-80 290q0 230 154.5 384.5t386.5 154.5q44 0 84 -6l50 157q9 27 37 27h50q17 0 24.5 -10t2.5 -27
l-56 -174q110 -41 190 -122.5t115 -190.5q9 -24 -3.5 -39.5t-37.5 -15.5h-183q-36 0 -59 34q-36 58 -102 85l-172 -531q28 -6 60 -6q69 0 125.5 28t88.5 78q22 36 59 36h183zM331 717q0 -73 30.5 -133t83.5 -97l165 509h-2q-119 0 -198 -79t-79 -200z" />
    <glyph glyph-name="sterling" unicode="&#xa3;" horiz-adv-x="1198" 
d="M1119 271q48 0 48 -48v-174q0 -49 -48 -49h-1004q-48 0 -48 49v174q0 48 48 48h101v254h-75q-49 0 -49 49v149q0 49 49 49h75v238q0 90 26 165.5t69.5 127.5t102 88t122.5 53t131 17q84 0 162.5 -27.5t143.5 -81t104.5 -142t39.5 -200.5v-40q0 -48 -48 -48h-185
q-48 0 -48 48v40q0 85 -48.5 131t-120.5 46q-74 0 -121.5 -46t-47.5 -131v-238h337q48 0 48 -49v-149q0 -49 -48 -49h-337v-254h621z" />
    <glyph glyph-name="currency" unicode="&#xa4;" horiz-adv-x="1112" 
d="M1018 332q27 -27 0 -54l-23 -24q-29 -28 -54 0l-117 118q-118 -86 -268 -86q-149 0 -267 86l-117 -118q-28 -28 -55 0l-23 24q-27 27 0 54l115 116q-92 116 -92 269t92 269l-115 115q-28 27 0 55l23 23q27 27 55 0l117 -117q118 86 267 86t267 -86l118 117q27 27 54 0
l23 -23q28 -28 0 -55l-115 -115q92 -116 92 -269q0 -152 -93 -269zM556 537q79 0 128.5 50.5t49.5 129.5t-49.5 129.5t-128.5 50.5t-128.5 -50.5t-49.5 -129.5t49.5 -129.5t128.5 -50.5z" />
    <glyph glyph-name="yen" unicode="&#xa5;" horiz-adv-x="1230" 
d="M1159 1434q28 0 38 -17t-5 -42l-374 -634h225q44 0 44 -44v-76q0 -44 -44 -44h-287v-93h287q44 0 44 -44v-76q0 -45 -44 -45h-287v-270q0 -49 -48 -49h-185q-48 0 -48 49v270h-286q-44 0 -44 45v76q0 44 44 44h286v93h-286q-44 0 -44 44v76q0 44 44 44h224l-374 634
q-15 25 -5 42t38 17h214q39 0 57 -35l273 -491l272 491q18 35 57 35h214z" />
    <glyph glyph-name="brokenbar" unicode="&#xa6;" horiz-adv-x="530" 
d="M182 717q-49 0 -49 48v661q0 49 49 49h167q48 0 48 -49v-661q0 -48 -48 -48h-167zM182 -410q-49 0 -49 49v661q0 48 49 48h167q48 0 48 -48v-661q0 -49 -48 -49h-167z" />
    <glyph glyph-name="section" unicode="&#xa7;" horiz-adv-x="1116" 
d="M1030 582q0 -163 -128 -268q67 -83 67 -203q0 -109 -56.5 -187.5t-148 -115.5t-207.5 -37q-109 0 -196.5 33t-147.5 107.5t-71 182.5q-1 24 12 37.5t37 13.5h162q41 0 51 -45q22 -97 153 -97q72 0 109.5 28.5t37.5 79.5q0 22 -13 42.5t-30.5 35t-51.5 32t-60.5 28.5
t-73 30t-74.5 31q-53 23 -93 44t-84 53.5t-72 67.5t-46.5 84t-18.5 106q0 162 129 258q-63 82 -63 204q0 107 56 184.5t145 113.5t198 36q99 0 182 -33t142 -108.5t70 -182.5q3 -50 -48 -50h-163q-22 0 -33.5 11t-16.5 34q-21 97 -133 97q-64 0 -99.5 -26.5t-35.5 -75.5
q0 -19 7 -36t25.5 -33t33.5 -27.5t48 -27t51.5 -23.5t61.5 -25t61 -25q55 -23 95 -43t86.5 -52t75.5 -66t48.5 -82.5t19.5 -104.5zM351 680q0 -55 43 -91t124 -69q13 -5 89 -33.5t117 -46.5q41 49 41 111q0 58 -46.5 95t-136.5 72q-19 7 -58 21.5t-71 27t-60 25.5
q-42 -50 -42 -112z" />
    <glyph glyph-name="dieresis" unicode="&#xa8;" horiz-adv-x="702" 
d="M81 1149q-40 0 -40 40v161q0 40 40 40h161q40 0 40 -40v-161q0 -40 -40 -40h-161zM460 1149q-40 0 -40 40v161q0 40 40 40h161q39 0 39 -40v-161q0 -40 -39 -40h-161z" />
    <glyph glyph-name="copyright" unicode="&#xa9;" horiz-adv-x="1615" 
d="M808 -25q-202 0 -372.5 99.5t-269.5 270t-99 372.5q0 151 58.5 288.5t157.5 236.5t236.5 157.5t288.5 58.5t288.5 -58.5t236.5 -157.5t157.5 -236.5t58.5 -288.5q0 -202 -99 -372.5t-269.5 -270t-372.5 -99.5zM808 45q135 0 258 53t212.5 143t142 214.5t52.5 261.5
t-52.5 261.5t-142 214.5t-212.5 143t-258 53t-258 -53t-212.5 -143t-142 -214.5t-52.5 -261.5t52.5 -261.5t142 -214.5t212.5 -143t258 -53zM814 316q-167 0 -286 118t-119 283t119 283t286 118q127 0 230 -72.5t146 -193.5q7 -25 -4.5 -39.5t-37.5 -14.5h-146q-33 0 -60 31
q-44 62 -133 62q-77 0 -125 -51.5t-48 -122.5t48 -122.5t125 -51.5q90 0 133 61q27 32 60 32h146q26 0 37.5 -16t3.5 -41q-42 -120 -145.5 -191.5t-229.5 -71.5z" />
    <glyph glyph-name="ordfeminine" unicode="&#xaa;" horiz-adv-x="559" 
d="M281 1461q91 0 151 -52t60 -147v-296q0 -31 -31 -31h-76q-31 0 -31 31v12q-48 -56 -138 -56q-71 0 -120.5 43t-49.5 118t49.5 118t120.5 43q85 0 138 -44v54q0 77 -73 77q-51 0 -67 -31q-15 -26 -34 -26h-78q-15 0 -23 9t-7 24q11 73 69 113.5t140 40.5zM264 1025
q37 0 63.5 16t26.5 42q0 28 -25.5 43t-64.5 15q-37 0 -57.5 -16t-20.5 -42t20.5 -42t57.5 -16z" />
    <glyph glyph-name="guillemotleft" unicode="&#xab;" horiz-adv-x="1116" 
d="M530 1017q29 0 38.5 -16.5t-4.5 -42.5l-191 -325l191 -326q14 -26 4.5 -42t-38.5 -16h-138q-39 0 -58 33l-187 318q-20 33 0 66l187 318q19 33 58 33h138zM919 1017q29 0 38.5 -16.5t-4.5 -42.5l-191 -325l191 -326q14 -26 4.5 -42t-38.5 -16h-138q-39 0 -58 33l-186 318
q-20 33 0 66l186 318q19 33 58 33h138z" />
    <glyph glyph-name="logicalnot" unicode="&#xac;" horiz-adv-x="1126" 
d="M986 841q48 0 48 -49v-199v-195q0 -49 -48 -49h-167q-49 0 -49 49v195h-629q-49 0 -49 49v150q0 49 49 49h845z" />
    <glyph glyph-name="registered" unicode="&#xae;" horiz-adv-x="1615" 
d="M808 1458q151 0 288.5 -58.5t236.5 -157.5t157.5 -236.5t58.5 -288.5q0 -202 -99 -372.5t-269.5 -270t-372.5 -99.5t-372.5 99.5t-269.5 270t-99 372.5q0 151 58.5 288.5t157.5 236.5t236.5 157.5t288.5 58.5zM808 45q135 0 258 53t212.5 143t142 214.5t52.5 261.5
t-52.5 261.5t-142 214.5t-212.5 143t-258 53t-258 -53t-212.5 -143t-142 -214.5t-52.5 -261.5t52.5 -261.5t142 -214.5t212.5 -143t258 -53zM1026 600l141 -203q17 -25 8 -42t-38 -17h-130q-37 0 -58 31l-123 178h-78v-160q0 -49 -49 -49h-121q-49 0 -49 49v660q0 49 49 49
h170h107q122 0 204 -73.5t82 -185.5q0 -76 -30.5 -137.5t-84.5 -99.5zM748 896v-165h69q50 0 77.5 21t27.5 62q0 40 -27.5 61t-77.5 21h-69z" />
    <glyph glyph-name="macron" unicode="&#xaf;" horiz-adv-x="675" 
d="M81 1156q-40 0 -40 40v134q0 40 40 40h514q40 0 40 -40v-134q0 -40 -40 -40h-514z" />
    <glyph glyph-name="degree" unicode="&#xb0;" horiz-adv-x="821" 
d="M411 983q-147 0 -245.5 98.5t-98.5 239.5q0 142 98 240t246 98t246 -98t98 -240q0 -141 -97 -239.5t-247 -98.5zM411 1198q54 0 87 34t33 89q0 53 -33.5 88t-86.5 35t-87 -35t-34 -88t34 -88t87 -35z" />
    <glyph glyph-name="plusminus" unicode="&#xb1;" horiz-adv-x="1136" 
d="M980 1028q49 0 49 -49v-151q0 -48 -49 -48h-288v-250q0 -49 -48 -49h-151q-49 0 -49 49v250h-288q-48 0 -48 48v151q0 49 48 49h288v249q0 49 49 49h151q48 0 48 -49v-249h288zM980 355q49 0 49 -48v-151q0 -48 -49 -48h-824q-48 0 -48 48v151q0 48 48 48h824z" />
    <glyph glyph-name="acute" unicode="&#xb4;" horiz-adv-x="563" 
d="M74 1209q-14 -25 -4.5 -41t36.5 -16h153q37 0 58 27l159 196q19 23 10 41t-39 18h-204q-38 0 -57 -33z" />
    <glyph glyph-name="uni00B5" unicode="&#xb5;" horiz-adv-x="1181" 
d="M1086 248q49 0 49 -49v-150q0 -49 -49 -49h-75q-157 0 -230 106q-93 -134 -272 -134q-63 0 -124 21v-354q0 -49 -49 -49h-167q-49 0 -49 49v1336q0 49 49 49h167q49 0 49 -49v-585q0 -85 44.5 -129t117.5 -44q84 0 134.5 52t50.5 162v544q0 49 48 49h167q49 0 49 -49
v-663q0 -38 21.5 -51t68.5 -13z" />
    <glyph glyph-name="paragraph" unicode="&#xb6;" horiz-adv-x="1370" 
d="M1226 1434q49 0 49 -49v-134q0 -49 -49 -49h-77v-1563q0 -49 -49 -49h-150q-49 0 -49 49v1563h-162v-1563q0 -49 -48 -49h-151q-48 0 -48 49v914q-120 0 -221.5 59t-160.5 160.5t-59 220.5q0 183 129 312t312 129h247h410h77z" />
    <glyph glyph-name="periodcentered" unicode="&#xb7;" horiz-adv-x="548" 
d="M177 563q-49 0 -49 49v194q0 49 49 49h194q49 0 49 -49v-194q0 -49 -49 -49h-194z" />
    <glyph glyph-name="cedilla" unicode="&#xb8;" horiz-adv-x="532" 
d="M347 -94q61 -14 103 -53.5t42 -105.5q0 -207 -409 -191q-42 3 -42 42v105q0 40 44 40q177 -9 177 42q0 35 -90 48q-39 6 -39 42v125h214v-94z" />
    <glyph glyph-name="ordmasculine" unicode="&#xba;" horiz-adv-x="634" 
d="M318 922q-114 0 -193 77.5t-79 191.5t79 192t193 78t192 -78t78 -192t-78 -191.5t-192 -77.5zM318 1058q56 0 92.5 37t36.5 96q0 60 -36.5 97t-92.5 37q-58 0 -94.5 -37t-36.5 -97q0 -59 37 -96t94 -37z" />
    <glyph glyph-name="guillemotright" unicode="&#xbb;" horiz-adv-x="1116" 
d="M196 1017h138q39 0 58 -33l187 -318q20 -33 0 -66l-187 -318q-19 -33 -58 -33h-138q-29 0 -38.5 16t4.5 42l191 326l-191 325q-14 26 -4.5 42.5t38.5 16.5zM585 1017h138q39 0 58 -33l187 -318q20 -33 0 -66l-187 -318q-19 -33 -58 -33h-138q-29 0 -38.5 16t4.5 42
l191 326l-191 325q-14 26 -4.5 42.5t38.5 16.5z" />
    <glyph glyph-name="onequarter" unicode="&#xbc;" horiz-adv-x="1667" 
d="M400 614h-125q-47 0 -47 48v549l-146 -77q-24 -13 -40 -3t-16 37v117q0 38 33 57l143 77q26 15 57 15h141q47 0 47 -48v-724q0 -48 -47 -48zM1177 1434q28 0 37.5 -17t-4.5 -42l-766 -1342q-18 -33 -58 -33h-79q-28 0 -38 16t4 42l767 1342q18 34 58 34h79zM1587 331
q47 0 47 -47v-105q0 -47 -47 -47h-36v-85q0 -47 -47 -47h-115q-48 0 -48 47v85h-334q-48 0 -48 47v122q0 29 15 58l232 426q16 34 55 34h134q27 0 36.5 -15.5t-3.5 -40.5l-226 -432h139v95q0 22 12.5 35t35.5 13h115q47 0 47 -48v-95h36z" />
    <glyph glyph-name="onehalf" unicode="&#xbd;" horiz-adv-x="1665" 
d="M202 1419q26 15 57 15h141q47 0 47 -48v-724q0 -48 -47 -48h-125q-47 0 -47 48v549l-146 -77q-24 -13 -40 -3t-16 37v117q0 38 33 57zM307 0q-28 0 -38 16t4 42l767 1342q18 34 58 34h79q28 0 37.5 -17t-4.5 -42l-766 -1342q-18 -33 -58 -33h-79zM1045 0q-47 0 -47 47v64
q0 33 24 57l285 281q70 68 70 126q0 33 -20.5 52.5t-57.5 19.5q-63 0 -81 -47q-10 -23 -20 -32.5t-29 -9.5h-130q-23 0 -36 13t-9 36q15 116 99.5 178t205.5 62q132 0 215.5 -69.5t83.5 -197.5q0 -119 -139 -254l-133 -126h238q47 0 47 -47v-106q0 -47 -47 -47h-519z" />
    <glyph glyph-name="threequarters" unicode="&#xbe;" horiz-adv-x="1832" 
d="M663 862q0 -132 -84 -203.5t-233 -71.5q-134 0 -216 58.5t-98 167.5q-4 23 9 36t36 13h131q13 0 22.5 -5.5t14 -12t14.5 -21.5q20 -44 87 -44q47 0 71.5 22t24.5 61t-25 60t-71 21h-76q-47 0 -47 47v46q0 35 21 59l116 139h-251q-48 0 -48 47v105q0 22 12.5 35t35.5 13
h469q47 0 47 -48v-81q0 -35 -21 -59l-123 -151q87 -26 134.5 -86.5t47.5 -146.5zM1341 1434q28 0 38 -17t-4 -42l-767 -1342q-18 -33 -58 -33h-79q-28 0 -37.5 16t4.5 42l766 1342q18 34 59 34h78zM1752 331q47 0 47 -47v-105q0 -47 -47 -47h-36v-85q0 -47 -47 -47h-116
q-47 0 -47 47v85h-335q-47 0 -47 47v122q0 29 15 58l231 426q16 34 55 34h134q27 0 37 -15.5t-3 -40.5l-227 -432h140v95q0 48 47 48h116q47 0 47 -48v-95h36z" />
    <glyph glyph-name="questiondown" unicode="&#xbf;" horiz-adv-x="1118" 
d="M674 1024q49 0 49 -49v-194q0 -49 -49 -49h-194q-49 0 -49 49v194q0 49 49 49h194zM668 543q24 0 37 -14t8 -37q-11 -63 -50 -122t-86.5 -103t-94 -87t-77.5 -92.5t-31 -101.5q0 -71 48.5 -110t137.5 -39q83 0 137.5 36t67.5 106q11 46 52 46h185q24 0 36.5 -13.5
t11.5 -37.5q-9 -102 -52.5 -181.5t-112 -129t-154 -75t-181.5 -25.5q-88 0 -169 26.5t-146 75.5t-104 127t-39 173q0 78 29.5 146.5t74.5 118.5t91.5 93.5t87 89.5t53.5 88q15 42 52 42h188z" />
    <glyph glyph-name="Agrave" unicode="&#xc0;" horiz-adv-x="1337" 
d="M553 1584l-168 210q-16 21 -9 35t33 14h222q35 0 48 -27l120 -206q12 -20 4 -34t-32 -14h-168q-33 0 -50 22zM1313 55q9 -26 -2.5 -40.5t-38.5 -14.5h-205q-44 0 -55 40l-69 217h-550l-69 -217q-11 -40 -55 -40h-205q-27 0 -38 14.5t-2 40.5l455 1338q12 41 57 41h265
q44 0 56 -41zM477 521h382l-191 599z" />
    <glyph glyph-name="Aacute" unicode="&#xc1;" horiz-adv-x="1337" 
d="M569 1562q-27 0 -36.5 16t4.5 41l112 192q18 32 57 32h204q30 0 39 -18t-10 -41l-158 -195q-21 -27 -59 -27h-153zM1313 55q9 -26 -2.5 -40.5t-38.5 -14.5h-205q-44 0 -55 40l-69 217h-550l-69 -217q-11 -40 -55 -40h-205q-27 0 -38 14.5t-2 40.5l455 1338q12 41 57 41
h265q44 0 56 -41zM477 521h382l-191 599z" />
    <glyph glyph-name="Acircumflex" unicode="&#xc2;" horiz-adv-x="1337" 
d="M370 1546q-24 0 -31.5 14t6.5 34l163 224q19 25 49 25h155h52q30 0 49 -25l163 -224q14 -20 6.5 -34t-31.5 -14h-169q-32 0 -48 26l-74 108l-73 -108q-16 -26 -48 -26h-169zM1313 55q9 -26 -2.5 -40.5t-38.5 -14.5h-205q-44 0 -55 40l-69 217h-550l-69 -217
q-11 -40 -55 -40h-205q-27 0 -38 14.5t-2 40.5l455 1338q12 41 57 41h265q44 0 56 -41zM477 521h382l-191 599z" />
    <glyph glyph-name="Atilde" unicode="&#xc3;" horiz-adv-x="1337" 
d="M360 1556q-41 0 -38 42q6 103 41 167.5t88 84t115.5 8t126.5 -52.5q35 -24 55.5 -32t33.5 1t17 39q6 40 40 40h136q41 0 38 -42q-5 -83 -29 -141t-60.5 -86.5t-83.5 -35t-97 8.5t-101 48q-35 24 -55.5 31.5t-33.5 -1.5t-17 -39q-6 -40 -40 -40h-136zM1313 55
q9 -26 -2.5 -40.5t-38.5 -14.5h-205q-44 0 -55 40l-69 217h-550l-69 -217q-11 -40 -55 -40h-205q-27 0 -38 14.5t-2 40.5l455 1338q12 41 57 41h265q44 0 56 -41zM477 521h382l-191 599z" />
    <glyph glyph-name="Adieresis" unicode="&#xc4;" horiz-adv-x="1337" 
d="M398 1559q-40 0 -40 40v161q0 40 40 40h161q40 0 40 -40v-161q0 -40 -40 -40h-161zM777 1559q-40 0 -40 40v161q0 40 40 40h161q40 0 40 -40v-161q0 -40 -40 -40h-161zM1313 55q9 -26 -2.5 -40.5t-38.5 -14.5h-205q-44 0 -55 40l-69 217h-550l-69 -217q-11 -40 -55 -40
h-205q-27 0 -38 14.5t-2 40.5l455 1338q12 41 57 41h265q44 0 56 -41zM477 521h382l-191 599z" />
    <glyph glyph-name="Aring" unicode="&#xc5;" horiz-adv-x="1337" 
d="M668 1513q-113 0 -185.5 69.5t-72.5 173.5t72.5 173.5t185.5 69.5q115 0 187 -69t72 -174t-72 -174t-187 -69zM668 1833q-38 0 -59 -21.5t-21 -55.5t21 -55.5t59 -21.5q39 0 60.5 21.5t21.5 55.5t-21.5 55.5t-60.5 21.5zM1313 55q9 -26 -2.5 -40.5t-38.5 -14.5h-205
q-44 0 -55 40l-69 217h-550l-69 -217q-11 -40 -55 -40h-205q-27 0 -38 14.5t-2 40.5l455 1338q12 41 57 41h265q44 0 56 -41zM477 521h382l-191 599z" />
    <glyph glyph-name="AE" unicode="&#xc6;" horiz-adv-x="1802" 
d="M1687 270q49 0 49 -48v-173q0 -49 -49 -49h-668h-49q-48 0 -48 49v208h-453l-132 -224q-19 -33 -58 -33h-211q-29 0 -38 16t5 42l793 1343q19 33 59 33h127h182h481q48 0 48 -49v-173q0 -49 -48 -49h-481v-306h435q48 0 48 -49v-167q0 -49 -48 -49h-435v-322h491z
M624 521h298v505z" />
    <glyph glyph-name="Ccedilla" unicode="&#xc7;" horiz-adv-x="1540" 
d="M1453 512q25 0 37.5 -14t5.5 -37q-56 -189 -209.5 -318.5t-356.5 -161.5v-75q61 -14 103 -53.5t42 -105.5q0 -207 -409 -191q-42 3 -42 42v105q0 40 44 40q177 -9 177 42q0 35 -90 48q-39 6 -39 42v103q-189 22 -337 124t-230 263t-82 352q0 155 56 292.5t154 237
t237.5 157t299.5 57.5q239 0 427 -134t254 -351q7 -24 -5 -39t-37 -15h-199q-37 0 -55 38q-48 104 -151.5 165.5t-233.5 61.5q-209 0 -337.5 -131t-128.5 -339t128.5 -339t337.5 -131q130 0 233.5 61.5t151.5 165.5q18 38 55 38h199z" />
    <glyph glyph-name="Egrave" unicode="&#xc8;" horiz-adv-x="1050" 
d="M439 1584l-169 210q-16 21 -9 35t33 14h223q35 0 48 -27l120 -206q12 -20 4 -34t-32 -14h-168q-34 0 -50 22zM934 270q49 0 49 -48v-173q0 -49 -49 -49h-709h-43q-49 0 -49 49v1336q0 49 49 49h233h509q49 0 49 -49v-173q0 -49 -49 -49h-509v-306h458q49 0 49 -49v-167
q0 -49 -49 -49h-458v-322h519z" />
    <glyph glyph-name="Eacute" unicode="&#xc9;" horiz-adv-x="1050" 
d="M455 1562q-27 0 -36.5 16t4.5 41l112 192q18 32 57 32h204q30 0 39 -18t-10 -41l-158 -195q-21 -27 -59 -27h-153zM934 270q49 0 49 -48v-173q0 -49 -49 -49h-709h-43q-49 0 -49 49v1336q0 49 49 49h233h509q49 0 49 -49v-173q0 -49 -49 -49h-509v-306h458q49 0 49 -49
v-167q0 -49 -49 -49h-458v-322h519z" />
    <glyph glyph-name="Ecircumflex" unicode="&#xca;" horiz-adv-x="1050" 
d="M256 1546q-24 0 -31.5 14t6.5 34l163 224q19 25 48 25h156h52q29 0 48 -25l164 -224q14 -20 6.5 -34t-31.5 -14h-169q-32 0 -48 26l-74 108l-73 -108q-16 -26 -48 -26h-169zM934 270q49 0 49 -48v-173q0 -49 -49 -49h-709h-43q-49 0 -49 49v1336q0 49 49 49h233h509
q49 0 49 -49v-173q0 -49 -49 -49h-509v-306h458q49 0 49 -49v-167q0 -49 -49 -49h-458v-322h519z" />
    <glyph glyph-name="Edieresis" unicode="&#xcb;" horiz-adv-x="1050" 
d="M284 1559q-40 0 -40 40v161q0 40 40 40h161q40 0 40 -40v-161q0 -40 -40 -40h-161zM663 1559q-40 0 -40 40v161q0 40 40 40h161q40 0 40 -40v-161q0 -40 -40 -40h-161zM934 270q49 0 49 -48v-173q0 -49 -49 -49h-709h-43q-49 0 -49 49v1336q0 49 49 49h233h509
q49 0 49 -49v-173q0 -49 -49 -49h-509v-306h458q49 0 49 -49v-167q0 -49 -49 -49h-458v-322h519z" />
    <glyph glyph-name="Igrave" unicode="&#xcc;" horiz-adv-x="548" 
d="M377 1562q24 0 31.5 14t-4.5 34l-119 206q-13 27 -48 27h-223q-26 0 -33 -14t9 -35l169 -210q17 -22 50 -22h168zM133 1385q0 49 49 49h184q49 0 49 -49v-1336q0 -49 -49 -49h-184q-49 0 -49 49v1336z" />
    <glyph glyph-name="Iacute" unicode="&#xcd;" horiz-adv-x="548" 
d="M143 1619q-14 -25 -4.5 -41t36.5 -16h153q38 0 59 27l158 195q19 23 10 41t-39 18h-204q-39 0 -57 -32zM133 1385q0 49 49 49h184q49 0 49 -49v-1336q0 -49 -49 -49h-184q-49 0 -49 49v1336z" />
    <glyph glyph-name="Icircumflex" unicode="&#xce;" horiz-adv-x="548" 
d="M582 1594q14 -20 6.5 -34t-31.5 -14h-169q-33 0 -49 26l-73 108l-73 -108q-16 -26 -48 -26h-169q-24 0 -31.5 14t6.5 34l163 224q19 25 48 25h155h53q29 0 48 -25zM366 1434q49 0 49 -49v-1336q0 -49 -49 -49h-184q-49 0 -49 49v1336q0 49 49 49h184z" />
    <glyph glyph-name="Idieresis" unicode="&#xcf;" horiz-adv-x="548" 
d="M4 1559q-40 0 -40 40v161q0 40 40 40h161q40 0 40 -40v-161q0 -40 -40 -40h-161zM383 1559q-40 0 -40 40v161q0 40 40 40h161q40 0 40 -40v-161q0 -40 -40 -40h-161zM133 1385q0 49 49 49h184q49 0 49 -49v-1336q0 -49 -49 -49h-184q-49 0 -49 49v1336z" />
    <glyph glyph-name="Eth" unicode="&#xd0;" horiz-adv-x="1572" 
d="M814 1434q146 0 274.5 -55.5t219.5 -151.5t144 -228.5t53 -281.5t-53 -281.5t-144 -228.5t-219.5 -151.5t-274.5 -55.5h-517h-44q-48 0 -48 49v525h-110q-49 0 -49 49v157q0 48 49 48h110v557q0 49 48 49h233h328zM814 270q187 0 303.5 124t116.5 323t-116.5 322.5
t-303.5 123.5h-328v-335h279q49 0 49 -48v-157q0 -49 -49 -49h-279v-304h328z" />
    <glyph glyph-name="Ntilde" unicode="&#xd1;" horiz-adv-x="1320" 
d="M352 1556q-41 0 -38 42q6 103 41 167.5t88.5 84t116 8t126.5 -52.5q35 -24 55.5 -32t33 1t16.5 39q6 40 40 40h136q41 0 38 -42q-5 -83 -29 -141t-60.5 -86.5t-83.5 -35t-97 8.5t-101 48q-35 24 -55.5 31.5t-33.5 -1.5t-17 -39q-6 -40 -40 -40h-136zM906 1385q0 49 49 49
h184q49 0 49 -49v-1336q0 -49 -49 -49h-127q-42 0 -60 31l-537 855v-837q0 -49 -49 -49h-184q-49 0 -49 49v1336q0 49 49 49h127q41 0 60 -32l537 -854v837z" />
    <glyph glyph-name="Ograve" unicode="&#xd2;" horiz-adv-x="1622" 
d="M914 1577q24 0 32 14.5t-4 33.5l-120 206q-14 28 -48 28h-223q-26 0 -33 -14.5t9 -35.5l169 -210q16 -22 50 -22h168zM811 -28q-152 0 -290 58t-237.5 157t-158 237.5t-58.5 292.5q0 206 99.5 377t270 269t374.5 98t374.5 -98t270 -269t99.5 -377q0 -154 -58.5 -292.5
t-158 -237.5t-237.5 -157t-290 -58zM811 247q197 0 330 133t133 337t-133 337t-330 133t-330 -133t-133 -337t133 -337t330 -133z" />
    <glyph glyph-name="Oacute" unicode="&#xd3;" horiz-adv-x="1622" 
d="M680 1634q-14 -26 -4.5 -41.5t36.5 -15.5h153q38 0 59 27l158 196q19 23 10 41t-39 18h-204q-38 0 -57 -33zM811 -28q-152 0 -290 58t-237.5 157t-158 237.5t-58.5 292.5q0 206 99.5 377t270 269t374.5 98t374.5 -98t270 -269t99.5 -377q0 -154 -58.5 -292.5t-158 -237.5
t-237.5 -157t-290 -58zM811 247q197 0 330 133t133 337t-133 337t-330 133t-330 -133t-133 -337t133 -337t330 -133z" />
    <glyph glyph-name="Ocircumflex" unicode="&#xd4;" horiz-adv-x="1622" 
d="M513 1562q-24 0 -31.5 14t6.5 34l163 223q19 26 48 26h156h52q29 0 48 -26l164 -223q14 -20 6.5 -34t-31.5 -14h-169q-32 0 -48 25l-74 108l-73 -108q-16 -25 -48 -25h-169zM811 1461q204 0 374.5 -98t270 -269t99.5 -377q0 -154 -58.5 -292.5t-158 -237.5t-237.5 -157
t-290 -58t-290 58t-237.5 157t-158 237.5t-58.5 292.5q0 206 99.5 377t270 269t374.5 98zM811 247q197 0 330 133t133 337t-133 337t-330 133t-330 -133t-133 -337t133 -337t330 -133z" />
    <glyph glyph-name="Otilde" unicode="&#xd5;" horiz-adv-x="1622" 
d="M503 1571q-41 0 -38 42q6 103 41 167.5t88 84t115.5 8t126.5 -52.5q35 -24 55.5 -32t33.5 1t17 39q6 41 40 41h136q41 0 38 -42q-6 -103 -41 -167.5t-88 -84t-115.5 -8t-126.5 52.5q-35 24 -55.5 32t-33.5 -1t-17 -39q-6 -41 -41 -41h-135zM811 -28q-152 0 -290 58
t-237.5 157t-158 237.5t-58.5 292.5q0 206 99.5 377t270 269t374.5 98t374.5 -98t270 -269t99.5 -377q0 -154 -58.5 -292.5t-158 -237.5t-237.5 -157t-290 -58zM811 247q197 0 330 133t133 337t-133 337t-330 133t-330 -133t-133 -337t133 -337t330 -133z" />
    <glyph glyph-name="Odieresis" unicode="&#xd6;" horiz-adv-x="1622" 
d="M541 1574q-40 0 -40 40v161q0 40 40 40h161q40 0 40 -40v-161q0 -40 -40 -40h-161zM920 1574q-40 0 -40 40v161q0 40 40 40h161q40 0 40 -40v-161q0 -40 -40 -40h-161zM811 -28q-152 0 -290 58t-237.5 157t-158 237.5t-58.5 292.5q0 206 99.5 377t270 269t374.5 98
t374.5 -98t270 -269t99.5 -377q0 -154 -58.5 -292.5t-158 -237.5t-237.5 -157t-290 -58zM811 247q197 0 330 133t133 337t-133 337t-330 133t-330 -133t-133 -337t133 -337t330 -133z" />
    <glyph glyph-name="multiply" unicode="&#xd7;" horiz-adv-x="1048" 
d="M697 717l213 -213q35 -35 0 -70l-105 -103q-35 -35 -70 1l-211 211l-212 -211q-35 -35 -69 -1l-105 103q-36 36 -1 70l213 213l-213 213q-34 34 1 69l105 103q35 34 69 0l212 -212l211 212q35 35 70 0l105 -103q34 -35 0 -69z" />
    <glyph glyph-name="Oslash" unicode="&#xd8;" horiz-adv-x="1634" 
d="M1359 1238q99 -102 154 -236t55 -285q0 -154 -58.5 -292.5t-158 -237.5t-237.5 -157t-290 -58q-225 0 -412 122l-55 -67q-23 -27 -61 -27h-90q-31 0 -39.5 18.5t11.5 41.5l111 135q-99 102 -154.5 236.5t-55.5 285.5q0 206 99.5 377t270.5 269t375 98q227 0 412 -121
l55 66q24 28 60 28h90q31 0 40 -19t-11 -42zM361 717q0 -180 105 -307l593 716q-108 61 -235 61q-197 0 -330 -133t-133 -337zM824 247q197 0 330 133t133 337q0 179 -106 307l-593 -717q106 -60 236 -60z" />
    <glyph glyph-name="Ugrave" unicode="&#xd9;" horiz-adv-x="1269" 
d="M738 1562q24 0 31.5 14t-4.5 34l-119 206q-14 27 -48 27h-223q-26 0 -33 -14t9 -35l169 -210q16 -22 50 -22h168zM635 -28q-147 0 -263.5 52t-187.5 159.5t-71 254.5v947q0 49 48 49h185q48 0 48 -49v-925q0 -213 241 -213t241 213v925q0 49 48 49h184q49 0 49 -49v-947
q0 -147 -71 -254.5t-187.5 -159.5t-263.5 -52z" />
    <glyph glyph-name="Uacute" unicode="&#xda;" horiz-adv-x="1269" 
d="M504 1619q-14 -25 -4.5 -41t36.5 -16h153q38 0 59 27l158 195q19 23 10 41t-39 18h-204q-39 0 -57 -32zM635 -28q-147 0 -263.5 52t-187.5 159.5t-71 254.5v947q0 49 48 49h185q48 0 48 -49v-925q0 -213 241 -213t241 213v925q0 49 48 49h184q49 0 49 -49v-947
q0 -147 -71 -254.5t-187.5 -159.5t-263.5 -52z" />
    <glyph glyph-name="Ucircumflex" unicode="&#xdb;" horiz-adv-x="1269" 
d="M337 1546q-24 0 -31.5 14t6.5 34l163 224q19 25 48 25h155h53q29 0 48 -25l164 -224q14 -20 6.5 -34t-31.5 -14h-169q-33 0 -49 26l-73 108l-73 -108q-16 -26 -48 -26h-169zM1108 1434q49 0 49 -49v-947q0 -147 -71 -254.5t-187.5 -159.5t-263.5 -52t-263.5 52
t-187.5 159.5t-71 254.5v947q0 49 48 49h185q48 0 48 -49v-925q0 -213 241 -213t241 213v925q0 49 48 49h184z" />
    <glyph glyph-name="Udieresis" unicode="&#xdc;" horiz-adv-x="1269" 
d="M365 1559q-40 0 -40 40v161q0 40 40 40h161q40 0 40 -40v-161q0 -40 -40 -40h-161zM744 1559q-40 0 -40 40v161q0 40 40 40h161q40 0 40 -40v-161q0 -40 -40 -40h-161zM635 -28q-147 0 -263.5 52t-187.5 159.5t-71 254.5v947q0 49 48 49h185q48 0 48 -49v-925
q0 -213 241 -213t241 213v925q0 49 48 49h184q49 0 49 -49v-947q0 -147 -71 -254.5t-187.5 -159.5t-263.5 -52z" />
    <glyph glyph-name="Yacute" unicode="&#xdd;" horiz-adv-x="1230" 
d="M515 1562q-27 0 -36.5 16t4.5 41l112 192q18 32 57 32h204q30 0 39 -18t-10 -41l-158 -195q-21 -27 -59 -27h-153zM1159 1434q28 0 38 -17t-5 -42l-436 -739v-587q0 -49 -48 -49h-185q-48 0 -48 49v588l-436 738q-15 25 -5 42t38 17h214q39 0 57 -35l273 -491l272 491
q18 35 57 35h214z" />
    <glyph glyph-name="Thorn" unicode="&#xde;" horiz-adv-x="1204" 
d="M676 1193q198 0 337 -139t139 -337q0 -197 -139 -336.5t-337 -139.5h-261v-192q0 -49 -49 -49h-184q-49 0 -49 49v1336q0 49 49 49h184q49 0 49 -49v-192h261zM676 505q81 0 137.5 61.5t56.5 150.5t-56.5 150.5t-137.5 61.5h-261v-424h261z" />
    <glyph glyph-name="germandbls" unicode="&#xdf;" horiz-adv-x="1050" 
d="M600 -16q-23 1 -36 15t-13 36v136q0 47 53 47q157 1 157 125q0 46 -38 106.5t-83 111t-83 112t-38 108.5q0 37 21 81t46.5 78.5t46.5 81t21 88.5q0 51 -34.5 80.5t-89.5 29.5q-63 0 -104 -38t-41 -122v-1011q0 -49 -49 -49h-167q-49 0 -49 49v1011q0 184 111.5 292.5
t306.5 108.5q178 0 279.5 -87t101.5 -223q0 -61 -22.5 -119t-50 -94t-50 -74.5t-22.5 -66.5q0 -33 26 -74.5t63 -85t74 -93t63 -115t26 -133.5q0 -56 -13.5 -103.5t-45 -89t-79.5 -69t-121.5 -41.5t-166.5 -9z" />
    <glyph glyph-name="agrave" unicode="&#xe0;" horiz-adv-x="1042" 
d="M417 1190l-169 209q-16 21 -9 35.5t33 14.5h223q33 0 47 -28l120 -206q12 -19 4 -33.5t-32 -14.5h-168q-32 0 -49 23zM530 1052q86 0 160.5 -25.5t132.5 -74.5t91 -127t33 -175v-601q0 -49 -48 -49h-161q-49 0 -49 49v40q-96 -117 -277 -117q-94 0 -170.5 34.5
t-125.5 109.5t-49 178t49 178t125.5 109.5t170.5 34.5q175 0 277 -90v109q0 172 -159 172q-58 0 -98 -23.5t-53 -64.5q-9 -23 -20 -33t-31 -10h-164q-24 0 -36.5 13.5t-11.5 37.5q19 152 135 238.5t279 86.5zM501 167q86 0 137 35.5t51 91.5q0 59 -50.5 93.5t-137.5 34.5
q-84 0 -127 -35t-43 -93t43 -92.5t127 -34.5z" />
    <glyph glyph-name="aacute" unicode="&#xe1;" horiz-adv-x="1042" 
d="M433 1167q-27 0 -37 16.5t4 41.5l113 192q18 32 56 32h205q30 0 38.5 -18t-10.5 -41l-158 -196q-21 -27 -59 -27h-152zM530 1052q86 0 160.5 -25.5t132.5 -74.5t91 -127t33 -175v-601q0 -49 -48 -49h-161q-49 0 -49 49v40q-96 -117 -277 -117q-94 0 -170.5 34.5
t-125.5 109.5t-49 178t49 178t125.5 109.5t170.5 34.5q175 0 277 -90v109q0 172 -159 172q-58 0 -98 -23.5t-53 -64.5q-9 -23 -20 -33t-31 -10h-164q-24 0 -36.5 13.5t-11.5 37.5q19 152 135 238.5t279 86.5zM501 167q86 0 137 35.5t51 91.5q0 59 -50.5 93.5t-137.5 34.5
q-84 0 -127 -35t-43 -93t43 -92.5t127 -34.5z" />
    <glyph glyph-name="acircumflex" unicode="&#xe2;" horiz-adv-x="1042" 
d="M233 1152q-24 0 -31.5 14t6.5 34l164 224q19 25 48 25h155h53q29 0 48 -25l163 -224q14 -20 6.5 -34t-31.5 -14h-169q-32 0 -48 26l-73 108l-73 -108q-16 -26 -49 -26h-169zM530 1052q86 0 160.5 -25.5t132.5 -74.5t91 -127t33 -175v-601q0 -49 -48 -49h-161
q-49 0 -49 49v40q-96 -117 -277 -117q-94 0 -170.5 34.5t-125.5 109.5t-49 178t49 178t125.5 109.5t170.5 34.5q175 0 277 -90v109q0 172 -159 172q-58 0 -98 -23.5t-53 -64.5q-9 -23 -20 -33t-31 -10h-164q-24 0 -36.5 13.5t-11.5 37.5q19 152 135 238.5t279 86.5zM501 167
q86 0 137 35.5t51 91.5q0 59 -50.5 93.5t-137.5 34.5q-84 0 -127 -35t-43 -93t43 -92.5t127 -34.5z" />
    <glyph glyph-name="atilde" unicode="&#xe3;" horiz-adv-x="1042" 
d="M223 1162q-41 0 -38 42q6 103 41 167.5t88.5 84t116 8t126.5 -52.5q35 -24 55.5 -32t33 1t16.5 39q6 40 40 40h136q41 0 38 -42q-6 -103 -41 -167.5t-88 -84t-115.5 -8t-126.5 52.5q-35 24 -55.5 32t-33.5 -1t-17 -39q-6 -40 -40 -40h-136zM530 1052q86 0 160.5 -25.5
t132.5 -74.5t91 -127t33 -175v-601q0 -49 -48 -49h-161q-49 0 -49 49v40q-96 -117 -277 -117q-94 0 -170.5 34.5t-125.5 109.5t-49 178t49 178t125.5 109.5t170.5 34.5q175 0 277 -90v109q0 172 -159 172q-58 0 -98 -23.5t-53 -64.5q-9 -23 -20 -33t-31 -10h-164
q-24 0 -36.5 13.5t-11.5 37.5q19 152 135 238.5t279 86.5zM501 167q86 0 137 35.5t51 91.5q0 59 -50.5 93.5t-137.5 34.5q-84 0 -127 -35t-43 -93t43 -92.5t127 -34.5z" />
    <glyph glyph-name="adieresis" unicode="&#xe4;" horiz-adv-x="1042" 
d="M262 1165q-40 0 -40 40v161q0 39 40 39h160q40 0 40 -39v-161q0 -40 -40 -40h-160zM641 1165q-40 0 -40 40v161q0 39 40 39h160q40 0 40 -39v-161q0 -40 -40 -40h-160zM530 1052q86 0 160.5 -25.5t132.5 -74.5t91 -127t33 -175v-601q0 -49 -48 -49h-161q-49 0 -49 49v40
q-96 -117 -277 -117q-94 0 -170.5 34.5t-125.5 109.5t-49 178t49 178t125.5 109.5t170.5 34.5q175 0 277 -90v109q0 172 -159 172q-58 0 -98 -23.5t-53 -64.5q-9 -23 -20 -33t-31 -10h-164q-24 0 -36.5 13.5t-11.5 37.5q19 152 135 238.5t279 86.5zM501 167q86 0 137 35.5
t51 91.5q0 59 -50.5 93.5t-137.5 34.5q-84 0 -127 -35t-43 -93t43 -92.5t127 -34.5z" />
    <glyph glyph-name="aring" unicode="&#xe5;" horiz-adv-x="1042" 
d="M531 1119q-113 0 -185.5 69.5t-72.5 173.5t72.5 173.5t185.5 69.5q115 0 187 -69t72 -174t-72 -174t-187 -69zM531 1439q-38 0 -58.5 -21.5t-20.5 -55.5t20.5 -55.5t58.5 -21.5q39 0 60.5 21.5t21.5 55.5t-21.5 55.5t-60.5 21.5zM530 1052q86 0 160.5 -25.5t132.5 -74.5
t91 -127t33 -175v-601q0 -49 -48 -49h-161q-49 0 -49 49v40q-96 -117 -277 -117q-94 0 -170.5 34.5t-125.5 109.5t-49 178t49 178t125.5 109.5t170.5 34.5q175 0 277 -90v109q0 172 -159 172q-58 0 -98 -23.5t-53 -64.5q-9 -23 -20 -33t-31 -10h-164q-24 0 -36.5 13.5
t-11.5 37.5q19 152 135 238.5t279 86.5zM501 167q86 0 137 35.5t51 91.5q0 59 -50.5 93.5t-137.5 34.5q-84 0 -127 -35t-43 -93t43 -92.5t127 -34.5z" />
    <glyph glyph-name="ae" unicode="&#xe6;" horiz-adv-x="1710" 
d="M1202 1052q138 0 241 -72.5t155.5 -194.5t52.5 -274q0 -33 -3 -63q-6 -45 -52 -45h-212h-421q21 -106 82.5 -159t150.5 -53q100 0 145 69q24 34 57 34h166q27 0 38 -16.5t1 -43.5q-45 -122 -151.5 -190.5t-236.5 -68.5q-236 0 -351 171q-101 -174 -385 -174
q-187 0 -299.5 86.5t-112.5 235.5q0 103 49 178t125.5 109.5t170.5 34.5q171 0 277 -86v105l92 6l-92 -6q0 172 -159 172q-58 0 -98 -23.5t-53 -64.5q-9 -23 -20 -33t-31 -10h-164q-24 0 -36.5 13.5t-11.5 37.5q19 152 133.5 238.5t270.5 86.5q115 0 203.5 -47.5
t138.5 -134.5q117 182 340 182zM962 611h431q-16 104 -72.5 154t-134.5 50q-93 0 -149.5 -53t-74.5 -151zM503 167q87 0 136.5 35t49.5 92q0 59 -50.5 93.5t-137.5 34.5q-84 0 -127 -35t-43 -93q0 -57 44.5 -92t127.5 -35z" />
    <glyph glyph-name="ccedilla" unicode="&#xe7;" horiz-adv-x="1159" 
d="M1064 374q25 0 37.5 -15.5t3.5 -39.5q-40 -127 -142.5 -216.5t-238.5 -118.5v-78q61 -14 103 -53.5t42 -105.5q0 -207 -409 -191q-42 3 -42 42v105q0 40 44 40q177 -9 177 42q0 35 -90 48q-39 6 -39 42v105q-196 33 -319.5 181t-123.5 351q0 230 154.5 385t386.5 155
q174 0 310.5 -96t186.5 -251q9 -24 -3.5 -39.5t-37.5 -15.5h-183q-36 0 -59 34q-32 51 -88.5 79.5t-125.5 28.5q-118 0 -197.5 -79t-79.5 -201t79.5 -201t197.5 -79q69 0 125.5 28t88.5 78q22 36 59 36h183z" />
    <glyph glyph-name="egrave" unicode="&#xe8;" horiz-adv-x="1179" 
d="M497 1182l-169 210q-16 21 -9 35t33 14h223q35 0 48 -27l119 -206q12 -20 4.5 -34t-31.5 -14h-168q-33 0 -50 22zM609 1052q148 0 266 -72t182 -195.5t64 -273.5q0 -33 -3 -63q-6 -45 -53 -45h-211h-512q26 -106 100 -159t177 -53q56 0 106 20.5t81 54.5q29 27 60 27
l164 1q27 0 39 -15t1 -38q-57 -129 -177 -199t-278 -70q-246 0 -397 153.5t-151 386.5q0 151 67.5 274t192 194.5t282.5 71.5zM340 611h517q-22 103 -90.5 153.5t-158.5 50.5q-104 0 -174.5 -54t-93.5 -150z" />
    <glyph glyph-name="eacute" unicode="&#xe9;" horiz-adv-x="1179" 
d="M513 1160q-27 0 -36.5 16t4.5 41l112 192q18 32 57 32h204q30 0 39 -18t-10 -41l-159 -195q-21 -27 -58 -27h-153zM609 1052q148 0 266 -72t182 -195.5t64 -273.5q0 -33 -3 -63q-6 -45 -53 -45h-211h-512q26 -106 100 -159t177 -53q56 0 106 20.5t81 54.5q29 27 60 27
l164 1q27 0 39 -15t1 -38q-57 -129 -177 -199t-278 -70q-246 0 -397 153.5t-151 386.5q0 151 67.5 274t192 194.5t282.5 71.5zM340 611h517q-22 103 -90.5 153.5t-158.5 50.5q-104 0 -174.5 -54t-93.5 -150z" />
    <glyph glyph-name="ecircumflex" unicode="&#xea;" horiz-adv-x="1179" 
d="M314 1144q-24 0 -31.5 14t6.5 34l163 224q19 25 48 25h155h53q29 0 48 -25l164 -224q13 -20 5.5 -34t-31.5 -14h-168q-33 0 -49 26l-73 108l-73 -108q-16 -26 -48 -26h-169zM609 1052q148 0 266 -72t182 -195.5t64 -273.5q0 -33 -3 -63q-6 -45 -53 -45h-211h-512
q26 -106 100 -159t177 -53q56 0 106 20.5t81 54.5q29 27 60 27l164 1q27 0 39 -15t1 -38q-57 -129 -177 -199t-278 -70q-246 0 -397 153.5t-151 386.5q0 151 67.5 274t192 194.5t282.5 71.5zM340 611h517q-22 103 -90.5 153.5t-158.5 50.5q-104 0 -174.5 -54t-93.5 -150z
" />
    <glyph glyph-name="edieresis" unicode="&#xeb;" horiz-adv-x="1179" 
d="M342 1157q-40 0 -40 40v161q0 40 40 40h161q40 0 40 -40v-161q0 -40 -40 -40h-161zM721 1157q-40 0 -40 40v161q0 40 40 40h161q40 0 40 -40v-161q0 -40 -40 -40h-161zM609 1052q148 0 266 -72t182 -195.5t64 -273.5q0 -33 -3 -63q-6 -45 -53 -45h-211h-512
q26 -106 100 -159t177 -53q56 0 106 20.5t81 54.5q29 27 60 27l164 1q27 0 39 -15t1 -38q-57 -129 -177 -199t-278 -70q-246 0 -397 153.5t-151 386.5q0 151 67.5 274t192 194.5t282.5 71.5zM340 611h517q-22 103 -90.5 153.5t-158.5 50.5q-104 0 -174.5 -54t-93.5 -150z
" />
    <glyph glyph-name="igrave" unicode="&#xec;" horiz-adv-x="505" 
d="M162 1137q-39 0 -56 36l-93 204q-12 26 -1.5 41.5t38.5 15.5h196q43 0 55 -41l59 -202q7 -26 -4.5 -40t-37.5 -14h-156zM169 0q-49 0 -49 49v926q0 49 49 49h167q49 0 49 -49v-926q0 -49 -49 -49h-167z" />
    <glyph glyph-name="iacute" unicode="&#xed;" horiz-adv-x="505" 
d="M137 1191q-7 -26 4.5 -40t37.5 -14h156q40 0 57 36l93 204q12 26 1.5 41.5t-38.5 15.5h-197q-42 0 -54 -41zM169 0q-49 0 -49 49v926q0 49 49 49h167q49 0 49 -49v-926q0 -49 -49 -49h-167z" />
    <glyph glyph-name="icircumflex" unicode="&#xee;" horiz-adv-x="505" 
d="M540 1195q16 -25 6.5 -41.5t-39.5 -16.5h-152q-40 0 -59 32l-44 76l-44 -76q-19 -32 -58 -32h-153q-29 0 -38.5 16.5t6.5 41.5l132 207q20 32 61 32h137h52q41 0 61 -32zM336 1024q49 0 49 -49v-926q0 -49 -49 -49h-167q-49 0 -49 49v926q0 49 49 49h167z" />
    <glyph glyph-name="idieresis" unicode="&#xef;" horiz-adv-x="505" 
d="M7 1149q-49 0 -49 49v143q0 49 49 49h143q49 0 49 -49v-143q0 -49 -49 -49h-143zM355 1149q-49 0 -49 49v143q0 49 49 49h143q49 0 49 -49v-143q0 -49 -49 -49h-143zM169 0q-49 0 -49 49v926q0 49 49 49h167q49 0 49 -49v-926q0 -49 -49 -49h-167z" />
    <glyph glyph-name="eth" unicode="&#xf0;" horiz-adv-x="1169" 
d="M1009 758q94 -128 94 -287q0 -150 -73 -265t-189.5 -173t-255.5 -58t-255.5 58t-189.5 173t-73 265q0 133 67 242.5t182 168.5t250 49l-119 164l-204 -100q-25 -13 -41 -3.5t-16 37.5v81q0 39 36 58l127 63l-105 144q-18 25 -9 42t38 17h195q35 0 58 -30l47 -63l185 91
q25 13 41 3.5t16 -37.5v-81q0 -39 -36 -58l-106 -52zM585 223q111 0 182.5 66.5t71.5 181.5q0 85 -43 143q-72 97 -210 97q-113 0 -184 -65.5t-71 -174.5q0 -115 71.5 -181.5t182.5 -66.5z" />
    <glyph glyph-name="ntilde" unicode="&#xf1;" 
d="M244 1162q-41 0 -38 42q6 103 41 167.5t88 84t115.5 8t126.5 -52.5q35 -24 55.5 -32t33 1t16.5 39q6 40 41 40h136q41 0 38 -42q-6 -103 -41 -167.5t-88 -84t-115.5 -8t-126.5 52.5q-35 24 -55.5 32t-33.5 -1t-17 -39q-6 -40 -41 -40h-135zM663 1052q146 0 239.5 -107
t93.5 -291v-605q0 -49 -49 -49h-167q-48 0 -48 49v585q0 85 -45 129t-118 44q-84 0 -134.5 -52t-50.5 -162v-544q0 -49 -48 -49h-167q-49 0 -49 49v926q0 49 49 49h167q48 0 48 -49v-56q87 133 279 133z" />
    <glyph glyph-name="ograve" unicode="&#xf2;" horiz-adv-x="1216" 
d="M711 1167q24 0 32 14.5t-4 33.5l-120 206q-14 28 -48 28h-222q-26 0 -33 -14.5t9 -35.5l169 -209q17 -23 49 -23h168zM608 -28q-149 0 -273 71t-196 195t-72 274t72 274t196 195t273 71t273 -71t196.5 -195t72.5 -274t-72.5 -274t-196.5 -195t-273 -71zM608 229
q119 0 198.5 80t79.5 203t-79.5 203t-198.5 80t-198 -79.5t-79 -203.5t79 -203.5t198 -79.5z" />
    <glyph glyph-name="oacute" unicode="&#xf3;" horiz-adv-x="1216" 
d="M477 1225q-14 -25 -4.5 -41.5t36.5 -16.5h153q38 0 59 27l158 196q19 23 10 41t-39 18h-204q-39 0 -57 -32zM608 -28q-149 0 -273 71t-196 195t-72 274t72 274t196 195t273 71t273 -71t196.5 -195t72.5 -274t-72.5 -274t-196.5 -195t-273 -71zM608 229q119 0 198.5 80
t79.5 203t-79.5 203t-198.5 80t-198 -79.5t-79 -203.5t79 -203.5t198 -79.5z" />
    <glyph glyph-name="ocircumflex" unicode="&#xf4;" horiz-adv-x="1216" 
d="M310 1152q-24 0 -31.5 14t6.5 34l164 224q19 25 48 25h155h53q29 0 48 -25l163 -224q14 -20 6.5 -34t-31.5 -14h-169q-32 0 -48 26l-73 108l-74 -108q-16 -26 -48 -26h-169zM608 1052q149 0 273 -71t196.5 -195t72.5 -274t-72.5 -274t-196.5 -195t-273 -71t-273 71
t-196 195t-72 274t72 274t196 195t273 71zM608 229q119 0 198.5 80t79.5 203t-79.5 203t-198.5 80t-198 -79.5t-79 -203.5t79 -203.5t198 -79.5z" />
    <glyph glyph-name="otilde" unicode="&#xf5;" horiz-adv-x="1216" 
d="M300 1162q-41 0 -38 42q6 103 41 167.5t88 84t115.5 8t126.5 -52.5q35 -24 55.5 -32t33.5 1t17 39q6 40 40 40h136q41 0 38 -42q-6 -103 -41 -167.5t-88 -84t-115.5 -8t-126.5 52.5q-35 24 -55.5 32t-33.5 -1t-17 -39q-6 -40 -40 -40h-136zM608 -28q-149 0 -273 71
t-196 195t-72 274t72 274t196 195t273 71t273 -71t196.5 -195t72.5 -274t-72.5 -274t-196.5 -195t-273 -71zM608 229q119 0 198.5 80t79.5 203t-79.5 203t-198.5 80t-198 -79.5t-79 -203.5t79 -203.5t198 -79.5z" />
    <glyph glyph-name="odieresis" unicode="&#xf6;" horiz-adv-x="1216" 
d="M338 1165q-40 0 -40 40v161q0 39 40 39h161q40 0 40 -39v-161q0 -40 -40 -40h-161zM717 1165q-40 0 -40 40v161q0 39 40 39h161q40 0 40 -39v-161q0 -40 -40 -40h-161zM608 -28q-149 0 -273 71t-196 195t-72 274t72 274t196 195t273 71t273 -71t196.5 -195t72.5 -274
t-72.5 -274t-196.5 -195t-273 -71zM608 229q119 0 198.5 80t79.5 203t-79.5 203t-198.5 80t-198 -79.5t-79 -203.5t79 -203.5t198 -79.5z" />
    <glyph glyph-name="divide" unicode="&#xf7;" horiz-adv-x="1157" 
d="M579 949q-71 0 -119 48t-48 118q0 71 48 119t119 48q70 0 118 -48t48 -119t-47.5 -118.5t-118.5 -47.5zM141 593q-49 0 -49 49v150q0 49 49 49h875q49 0 49 -49v-150q0 -49 -49 -49h-875zM579 152q-71 0 -119 48t-48 118t48 118.5t119 48.5q70 0 118 -48t48 -119
q0 -70 -47.5 -118t-118.5 -48z" />
    <glyph glyph-name="oslash" unicode="&#xf8;" horiz-adv-x="1216" 
d="M995 892q155 -157 155 -380q0 -150 -72.5 -274t-196.5 -195t-273 -71q-168 0 -304 91l-30 -36q-23 -27 -60 -27h-55q-30 0 -38.5 18.5t10.5 41.5l74 89q-138 152 -138 363q0 150 72 274t196 195t273 71q156 0 284 -78l19 23q23 27 61 27h54q31 0 40 -18.5t-11 -41.5z
M331 512q0 -90 44 -159l348 418q-56 24 -115 24q-119 0 -198 -79.5t-79 -203.5zM608 229q119 0 198.5 80t79.5 203q0 104 -59 179l-356 -428q62 -34 137 -34z" />
    <glyph glyph-name="ugrave" unicode="&#xf9;" 
d="M432 1175l-169 209q-16 21 -9 35.5t33 14.5h223q34 0 48 -28l119 -206q12 -20 4.5 -34t-31.5 -14h-168q-33 0 -50 23zM921 1024q49 0 49 -49v-926q0 -49 -49 -49h-167q-48 0 -48 49v56q-87 -133 -279 -133q-146 0 -239.5 107t-93.5 291v605q0 49 49 49h167q48 0 48 -49
v-585q0 -85 45 -129t118 -44q84 0 134.5 52t50.5 162v544q0 49 48 49h167z" />
    <glyph glyph-name="uacute" unicode="&#xfa;" 
d="M448 1152q-27 0 -36.5 16t4.5 41l112 192q19 33 57 33h204q30 0 39 -18t-10 -41l-159 -196q-21 -27 -58 -27h-153zM921 1024q49 0 49 -49v-926q0 -49 -49 -49h-167q-48 0 -48 49v56q-87 -133 -279 -133q-146 0 -239.5 107t-93.5 291v605q0 49 49 49h167q48 0 48 -49v-585
q0 -85 45 -129t118 -44q84 0 134.5 52t50.5 162v544q0 49 48 49h167z" />
    <glyph glyph-name="ucircumflex" unicode="&#xfb;" 
d="M249 1137q-24 0 -31.5 14.5t6.5 33.5l163 224q19 25 48 25h155h53q29 0 48 -25l164 -224q13 -19 5.5 -33.5t-31.5 -14.5h-169q-32 0 -48 25l-73 108l-73 -108q-16 -25 -48 -25h-169zM921 1024q49 0 49 -49v-926q0 -49 -49 -49h-167q-48 0 -48 49v56q-87 -133 -279 -133
q-146 0 -239.5 107t-93.5 291v605q0 49 49 49h167q48 0 48 -49v-585q0 -85 45 -129t118 -44q84 0 134.5 52t50.5 162v544q0 49 48 49h167z" />
    <glyph glyph-name="udieresis" unicode="&#xfc;" 
d="M277 1149q-40 0 -40 40v161q0 40 40 40h161q40 0 40 -40v-161q0 -40 -40 -40h-161zM656 1149q-40 0 -40 40v161q0 40 40 40h161q40 0 40 -40v-161q0 -40 -40 -40h-161zM921 1024q49 0 49 -49v-926q0 -49 -49 -49h-167q-48 0 -48 49v56q-87 -133 -279 -133
q-146 0 -239.5 107t-93.5 291v605q0 49 49 49h167q48 0 48 -49v-585q0 -85 45 -129t118 -44q84 0 134.5 52t50.5 162v544q0 49 48 49h167z" />
    <glyph glyph-name="yacute" unicode="&#xfd;" horiz-adv-x="1024" 
d="M381 1209q-14 -25 -4.5 -41t36.5 -16h153q38 0 59 27l158 196q19 23 10 41t-39 18h-204q-38 0 -57 -33zM725 984q12 40 55 40h181q27 0 38 -14.5t2 -40.5l-452 -1340q-12 -39 -56 -39h-181q-27 0 -38.5 14.5t-2.5 40.5l125 369l-369 954q-9 25 2 40.5t37 15.5h180
q40 0 55 -38l227 -607z" />
    <glyph glyph-name="thorn" unicode="&#xfe;" horiz-adv-x="1282" 
d="M717 1052q101 0 193 -42t159 -113.5t107 -172t40 -212.5t-40 -212.5t-107 -172t-159 -113.5t-193 -42q-215 0 -332 149v-482q0 -49 -49 -49h-167q-49 0 -49 49v1746q0 49 49 49h167q49 0 49 -49v-482q117 149 332 149zM668 223q123 0 203.5 80.5t80.5 208.5t-80.5 208.5
t-203.5 80.5t-203 -80.5t-80 -208.5t80 -208.5t203 -80.5z" />
    <glyph glyph-name="ydieresis" unicode="&#xff;" horiz-adv-x="1024" 
d="M242 1149q-40 0 -40 40v161q0 40 40 40h161q40 0 40 -40v-161q0 -40 -40 -40h-161zM621 1149q-40 0 -40 40v161q0 40 40 40h161q40 0 40 -40v-161q0 -40 -40 -40h-161zM725 984q12 40 55 40h181q27 0 38 -14.5t2 -40.5l-452 -1340q-12 -39 -56 -39h-181q-27 0 -38.5 14.5
t-2.5 40.5l125 369l-369 954q-9 25 2 40.5t37 15.5h180q40 0 55 -38l227 -607z" />
    <glyph glyph-name="Amacron" unicode="&#x100;" horiz-adv-x="1337" 
d="M411 1565q-40 0 -40 40v134q0 40 40 40h514q40 0 40 -40v-134q0 -40 -40 -40h-514zM1313 55q9 -26 -2.5 -40.5t-38.5 -14.5h-205q-44 0 -55 40l-69 217h-550l-69 -217q-11 -40 -55 -40h-205q-27 0 -38 14.5t-2 40.5l455 1338q12 41 57 41h265q44 0 56 -41zM477 521h382
l-191 599z" />
    <glyph glyph-name="amacron" unicode="&#x101;" horiz-adv-x="1042" 
d="M274 1171q-40 0 -40 40v134q0 40 40 40h514q40 0 40 -40v-134q0 -40 -40 -40h-514zM530 1052q86 0 160.5 -25.5t132.5 -74.5t91 -127t33 -175v-601q0 -49 -48 -49h-161q-49 0 -49 49v40q-96 -117 -277 -117q-94 0 -170.5 34.5t-125.5 109.5t-49 178t49 178t125.5 109.5
t170.5 34.5q175 0 277 -90v109q0 172 -159 172q-58 0 -98 -23.5t-53 -64.5q-9 -23 -20 -33t-31 -10h-164q-24 0 -36.5 13.5t-11.5 37.5q19 152 135 238.5t279 86.5zM501 167q86 0 137 35.5t51 91.5q0 59 -50.5 93.5t-137.5 34.5q-84 0 -127 -35t-43 -93t43 -92.5t127 -34.5z
" />
    <glyph glyph-name="Abreve" unicode="&#x102;" horiz-adv-x="1337" 
d="M668 1530q-150 0 -237 66.5t-101 188.5q-3 42 39 42h156q33 0 43 -39q16 -69 100 -69t100 69q10 39 43 39h156q43 0 40 -37q-11 -125 -98.5 -192.5t-240.5 -67.5zM1313 55q9 -26 -2.5 -40.5t-38.5 -14.5h-205q-44 0 -55 40l-69 217h-550l-69 -217q-11 -40 -55 -40h-205
q-27 0 -38 14.5t-2 40.5l455 1338q12 41 57 41h265q44 0 56 -41zM477 521h382l-191 599z" />
    <glyph glyph-name="abreve" unicode="&#x103;" horiz-adv-x="1042" 
d="M531 1136q-150 0 -237 66.5t-101 188.5q-3 42 39 42h157q33 0 43 -39q16 -69 99 -69t100 69q11 39 43 39h156q43 0 40 -37q-11 -125 -98.5 -192.5t-240.5 -67.5zM530 1052q86 0 160.5 -25.5t132.5 -74.5t91 -127t33 -175v-601q0 -49 -48 -49h-161q-49 0 -49 49v40
q-96 -117 -277 -117q-94 0 -170.5 34.5t-125.5 109.5t-49 178t49 178t125.5 109.5t170.5 34.5q175 0 277 -90v109q0 172 -159 172q-58 0 -98 -23.5t-53 -64.5q-9 -23 -20 -33t-31 -10h-164q-24 0 -36.5 13.5t-11.5 37.5q19 152 135 238.5t279 86.5zM501 167q86 0 137 35.5
t51 91.5q0 59 -50.5 93.5t-137.5 34.5q-84 0 -127 -35t-43 -93t43 -92.5t127 -34.5z" />
    <glyph glyph-name="Aogonek" unicode="&#x104;" horiz-adv-x="1337" 
d="M1272 -249q46 3 46 -35v-88q0 -34 -26 -43q-62 -22 -139 -22q-88 0 -142 46t-54 132q0 109 131 259h-21q-44 0 -55 40l-69 217h-550l-69 -217q-11 -40 -55 -40h-205q-27 0 -38 14.5t-2 40.5l455 1338q12 41 57 41h265q44 0 56 -41l456 -1338q3 -10 4.5 -19t-0.5 -17
l-3.5 -14t-6.5 -13.5l-7 -10.5t-8 -10l-6 -7q-76 -93 -76 -158q-1 -30 15.5 -43.5t46.5 -11.5zM477 521h382l-191 599z" />
    <glyph glyph-name="aogonek" unicode="&#x105;" horiz-adv-x="1042" 
d="M947 650v-601v-3q0 -10 -3 -20t-9 -20t-10.5 -16t-12.5 -15.5t-9 -10.5q-76 -93 -76 -158q-1 -30 15.5 -43.5t46.5 -11.5q46 3 46 -35v-88q0 -34 -26 -43q-62 -22 -139 -22q-88 0 -142 46t-54 132q0 111 136 265q-21 13 -21 43v40q-96 -117 -277 -117q-94 0 -170.5 34.5
t-125.5 109.5t-49 178t49 178t125.5 109.5t170.5 34.5q175 0 277 -90v109q0 172 -159 172q-58 0 -98 -23.5t-53 -64.5q-9 -23 -20 -33t-31 -10h-164q-24 0 -36.5 13.5t-11.5 37.5q19 152 135 238.5t279 86.5q86 0 160.5 -25.5t132.5 -74.5t91 -127t33 -175zM501 167
q86 0 137 35.5t51 91.5q0 59 -50.5 93.5t-137.5 34.5q-84 0 -127 -35t-43 -93t43 -92.5t127 -34.5z" />
    <glyph glyph-name="Cacute" unicode="&#x106;" horiz-adv-x="1540" 
d="M682 1634q-14 -26 -4 -41.5t37 -15.5h152q38 0 59 27l158 196q19 23 10.5 41t-38.5 18h-205q-37 0 -56 -33zM814 -28q-213 0 -384.5 98.5t-267 268.5t-95.5 378q0 155 56 292.5t154 237t237.5 157t299.5 57.5q239 0 427 -134t254 -351q7 -24 -5 -39t-37 -15h-199
q-37 0 -55 38q-48 104 -151.5 165.5t-233.5 61.5q-209 0 -337.5 -131t-128.5 -339t128.5 -339t337.5 -131q130 0 233.5 61.5t151.5 165.5q18 38 55 38h199q25 0 37.5 -14t5.5 -37q-64 -217 -252.5 -353t-429.5 -136z" />
    <glyph glyph-name="cacute" unicode="&#x107;" horiz-adv-x="1159" 
d="M475 1209q-14 -25 -4.5 -41t36.5 -16h152q38 0 59 27l159 196q19 23 10 41t-39 18h-204q-38 0 -57 -33zM1064 374q25 0 37.5 -15.5t3.5 -39.5q-50 -155 -186.5 -251t-310.5 -96q-232 0 -386.5 155t-154.5 385t154.5 385t386.5 155q174 0 310.5 -96t186.5 -251
q9 -24 -3.5 -39.5t-37.5 -15.5h-183q-36 0 -59 34q-32 51 -88.5 79.5t-125.5 28.5q-118 0 -197.5 -79t-79.5 -201t79.5 -201t197.5 -79q69 0 125.5 28t88.5 78q22 36 59 36h183z" />
    <glyph glyph-name="Cdotaccent" unicode="&#x10a;" horiz-adv-x="1540" 
d="M715 1567q-40 0 -40 40v196q0 40 40 40h197q40 0 40 -40v-196q0 -40 -40 -40h-197zM814 -28q-213 0 -384.5 98.5t-267 268.5t-95.5 378q0 155 56 292.5t154 237t237.5 157t299.5 57.5q239 0 427 -134t254 -351q7 -24 -5 -39t-37 -15h-199q-37 0 -55 38
q-48 104 -151.5 165.5t-233.5 61.5q-209 0 -337.5 -131t-128.5 -339t128.5 -339t337.5 -131q130 0 233.5 61.5t151.5 165.5q18 38 55 38h199q25 0 37.5 -14t5.5 -37q-64 -217 -252.5 -353t-429.5 -136z" />
    <glyph glyph-name="cdotaccent" unicode="&#x10b;" horiz-adv-x="1159" 
d="M507 1142q-40 0 -40 40v196q0 40 40 40h197q40 0 40 -40v-196q0 -40 -40 -40h-197zM1064 374q25 0 37.5 -15.5t3.5 -39.5q-50 -155 -186.5 -251t-310.5 -96q-232 0 -386.5 155t-154.5 385t154.5 385t386.5 155q174 0 310.5 -96t186.5 -251q9 -24 -3.5 -39.5t-37.5 -15.5
h-183q-36 0 -59 34q-32 51 -88.5 79.5t-125.5 28.5q-118 0 -197.5 -79t-79.5 -201t79.5 -201t197.5 -79q69 0 125.5 28t88.5 78q22 36 59 36h183z" />
    <glyph glyph-name="Ccaron" unicode="&#x10c;" horiz-adv-x="1540" 
d="M654 1587l-164 223q-14 20 -6 34.5t32 14.5h169q32 0 48 -26l73 -108l73 108q16 26 48 26h169q24 0 31.5 -14.5t-6.5 -34.5l-163 -223q-19 -25 -48 -25h-155h-53q-29 0 -48 25zM1453 512q25 0 37.5 -14t5.5 -37q-64 -217 -252.5 -353t-429.5 -136q-213 0 -384.5 98.5
t-267 268.5t-95.5 378q0 155 56 292.5t154 237t237.5 157t299.5 57.5q239 0 427 -134t254 -351q7 -24 -5 -39t-37 -15h-199q-37 0 -55 38q-48 104 -151.5 165.5t-233.5 61.5q-209 0 -337.5 -131t-128.5 -339t128.5 -339t337.5 -131q130 0 233.5 61.5t151.5 165.5
q18 38 55 38h199z" />
    <glyph glyph-name="ccaron" unicode="&#x10d;" horiz-adv-x="1159" 
d="M446 1162l-163 223q-14 19 -6.5 34t31.5 15h169q32 0 48 -26l73 -108l73 108q16 26 48 26h169q24 0 31.5 -15t-6.5 -34l-163 -223q-19 -25 -48 -25h-155h-53q-29 0 -48 25zM1064 374q25 0 37.5 -15.5t3.5 -39.5q-50 -155 -186.5 -251t-310.5 -96q-232 0 -386.5 155
t-154.5 385t154.5 385t386.5 155q174 0 310.5 -96t186.5 -251q9 -24 -3.5 -39.5t-37.5 -15.5h-183q-36 0 -59 34q-32 51 -88.5 79.5t-125.5 28.5q-118 0 -197.5 -79t-79.5 -201t79.5 -201t197.5 -79q69 0 125.5 28t88.5 78q22 36 59 36h183z" />
    <glyph glyph-name="Dcaron" unicode="&#x10e;" horiz-adv-x="1501" 
d="M526 1571l-163 224q-14 19 -6.5 33.5t31.5 14.5h169q32 0 48 -25l73 -109l74 109q16 25 48 25h169q24 0 31.5 -14.5t-6.5 -33.5l-164 -224q-19 -25 -48 -25h-155h-53q-29 0 -48 25zM742 1434q194 0 353 -94.5t249 -259t90 -363.5t-90 -363.5t-249 -259t-353 -94.5h-517
h-43q-49 0 -49 49v1336q0 49 49 49h233h327zM742 270q187 0 303.5 124t116.5 323t-116.5 322.5t-303.5 123.5h-327v-893h327z" />
    <glyph glyph-name="dcaron" unicode="&#x10f;" horiz-adv-x="1505" 
d="M1114 1434q48 0 48 -49v-1336q0 -49 -48 -49h-167q-49 0 -49 49v72q-117 -149 -332 -149q-101 0 -193 42t-159 113.5t-107 172t-40 212.5t40 212.5t107 172t159 113.5t193 42q215 0 332 -149v482q0 49 49 49h167zM1473 1434q51 0 45 -53l-48 -312q-6 -45 -50 -45h-113
q-24 0 -37 13.5t-12 37.5l17 312q3 47 49 47h149zM614 223q123 0 203.5 80.5t80.5 208.5t-80.5 208.5t-203.5 80.5t-203 -80.5t-80 -208.5t80 -208.5t203 -80.5z" />
    <glyph glyph-name="Dcroat" unicode="&#x110;" horiz-adv-x="1572" 
d="M814 1434q146 0 274.5 -55.5t219.5 -151.5t144 -228.5t53 -281.5t-53 -281.5t-144 -228.5t-219.5 -151.5t-274.5 -55.5h-517h-44q-48 0 -48 49v525h-110q-49 0 -49 49v157q0 48 49 48h110v557q0 49 48 49h233h328zM814 270q187 0 303.5 124t116.5 323t-116.5 322.5
t-303.5 123.5h-328v-335h279q49 0 49 -48v-157q0 -49 -49 -49h-279v-304h328z" />
    <glyph glyph-name="dcroat" unicode="&#x111;" horiz-adv-x="1296" 
d="M1242 1306q48 0 48 -49v-75q0 -48 -48 -48h-80v-1085q0 -49 -48 -49h-167q-49 0 -49 49v72q-117 -149 -332 -149q-101 0 -193 42t-159 113.5t-107 172t-40 212.5t40 212.5t107 172t159 113.5t193 42q215 0 332 -149v231h-261q-48 0 -48 48v75q0 49 48 49h261v79
q0 49 49 49h167q48 0 48 -49v-79h80zM614 223q123 0 203.5 80.5t80.5 208.5t-80.5 208.5t-203.5 80.5t-203 -80.5t-80 -208.5t80 -208.5t203 -80.5z" />
    <glyph glyph-name="Emacron" unicode="&#x112;" horiz-adv-x="1050" 
d="M297 1565q-40 0 -40 40v134q0 40 40 40h514q40 0 40 -40v-134q0 -40 -40 -40h-514zM934 270q49 0 49 -48v-173q0 -49 -49 -49h-709h-43q-49 0 -49 49v1336q0 49 49 49h233h509q49 0 49 -49v-173q0 -49 -49 -49h-509v-306h458q49 0 49 -49v-167q0 -49 -49 -49h-458v-322
h519z" />
    <glyph glyph-name="emacron" unicode="&#x113;" horiz-adv-x="1179" 
d="M355 1163q-40 0 -40 40v134q0 40 40 40h514q40 0 40 -40v-134q0 -40 -40 -40h-514zM609 1052q148 0 266 -72t182 -195.5t64 -273.5q0 -33 -3 -63q-6 -45 -53 -45h-211h-512q26 -106 100 -159t177 -53q56 0 106 20.5t81 54.5q29 27 60 27l164 1q27 0 39 -15t1 -38
q-57 -129 -177 -199t-278 -70q-246 0 -397 153.5t-151 386.5q0 151 67.5 274t192 194.5t282.5 71.5zM340 611h517q-22 103 -90.5 153.5t-158.5 50.5q-104 0 -174.5 -54t-93.5 -150z" />
    <glyph glyph-name="Edotaccent" unicode="&#x116;" horiz-adv-x="1050" 
d="M456 1551q-40 0 -40 40v197q0 40 40 40h196q40 0 40 -40v-197q0 -40 -40 -40h-196zM934 270q49 0 49 -48v-173q0 -49 -49 -49h-709h-43q-49 0 -49 49v1336q0 49 49 49h233h509q49 0 49 -49v-173q0 -49 -49 -49h-509v-306h458q49 0 49 -49v-167q0 -49 -49 -49h-458v-322
h519z" />
    <glyph glyph-name="edotaccent" unicode="&#x117;" horiz-adv-x="1179" 
d="M514 1149q-40 0 -40 40v197q0 40 40 40h196q40 0 40 -40v-197q0 -40 -40 -40h-196zM609 1052q148 0 266 -72t182 -195.5t64 -273.5q0 -33 -3 -63q-6 -45 -53 -45h-211h-512q26 -106 100 -159t177 -53q56 0 106 20.5t81 54.5q29 27 60 27l164 1q27 0 39 -15t1 -38
q-57 -129 -177 -199t-278 -70q-246 0 -397 153.5t-151 386.5q0 151 67.5 274t192 194.5t282.5 71.5zM340 611h517q-22 103 -90.5 153.5t-158.5 50.5q-104 0 -174.5 -54t-93.5 -150z" />
    <glyph glyph-name="Eogonek" unicode="&#x118;" horiz-adv-x="1050" 
d="M818 -437q-88 0 -142 46t-54 132q0 119 135 259h-575q-49 0 -49 49v1336q0 49 49 49h742q49 0 49 -49v-173q0 -49 -49 -49h-509v-306h458q49 0 49 -49v-167q0 -49 -49 -49h-458v-322h519q49 0 49 -48v-187q0 -32 -24 -62q-84 -98 -84 -167q-1 -29 15.5 -43t45.5 -12
q47 3 47 -36v-86q0 -35 -28 -45q-63 -21 -137 -21z" />
    <glyph glyph-name="eogonek" unicode="&#x119;" horiz-adv-x="1179" 
d="M609 1052q148 0 266 -72t182 -195.5t64 -273.5q0 -33 -3 -63q-6 -45 -53 -45h-211h-512q26 -106 100 -159t177 -53q56 0 106 20.5t81 54.5q29 27 60 27l164 1q27 0 39 -15t1 -38q-36 -82 -104 -144q-167 -182 -167 -291q-1 -29 16 -43t46 -12q26 1 36 -8.5t10 -34.5v-73
q0 -41 -33 -52q-60 -20 -132 -20q-88 0 -142 46t-54 132q0 118 133 234q-32 -3 -64 -3q-246 0 -397 153.5t-151 386.5q0 151 67.5 274t192 194.5t282.5 71.5zM340 611h517q-22 103 -90.5 153.5t-158.5 50.5q-104 0 -174.5 -54t-93.5 -150z" />
    <glyph glyph-name="Ecaron" unicode="&#x11a;" horiz-adv-x="1050" 
d="M394 1571l-163 224q-14 19 -6.5 33.5t31.5 14.5h169q32 0 48 -25l73 -109l74 109q16 25 48 25h169q24 0 31.5 -14.5t-6.5 -33.5l-164 -224q-19 -25 -48 -25h-155h-53q-29 0 -48 25zM934 270q49 0 49 -48v-173q0 -49 -49 -49h-709h-43q-49 0 -49 49v1336q0 49 49 49h233
h509q49 0 49 -49v-173q0 -49 -49 -49h-509v-306h458q49 0 49 -49v-167q0 -49 -49 -49h-458v-322h519z" />
    <glyph glyph-name="ecaron" unicode="&#x11b;" horiz-adv-x="1179" 
d="M452 1169l-163 224q-14 19 -6.5 33.5t31.5 14.5h169q32 0 48 -25l73 -109l73 109q16 25 49 25h168q24 0 31.5 -14.5t-5.5 -33.5l-164 -224q-19 -25 -48 -25h-155h-53q-29 0 -48 25zM609 1052q148 0 266 -72t182 -195.5t64 -273.5q0 -33 -3 -63q-6 -45 -53 -45h-211h-512
q26 -106 100 -159t177 -53q56 0 106 20.5t81 54.5q29 27 60 27l164 1q27 0 39 -15t1 -38q-57 -129 -177 -199t-278 -70q-246 0 -397 153.5t-151 386.5q0 151 67.5 274t192 194.5t282.5 71.5zM340 611h517q-22 103 -90.5 153.5t-158.5 50.5q-104 0 -174.5 -54t-93.5 -150z
" />
    <glyph glyph-name="Gbreve" unicode="&#x11e;" horiz-adv-x="1607" 
d="M806 1545q-150 0 -237.5 66.5t-101.5 188.5q-3 42 40 42h156q33 0 43 -38q16 -69 100 -69t100 69q10 38 43 38h156q42 0 39 -37q-11 -125 -98 -192.5t-240 -67.5zM1457 769q49 0 49 -49v-200v-471q0 -49 -49 -49h-169q-48 0 -48 49v133q-153 -210 -460 -210
q-200 0 -364 98.5t-256.5 269t-92.5 377.5q0 155 56 292.5t153.5 237t236.5 157t298 57.5q235 0 423 -128t255 -326q9 -25 -2.5 -40t-37.5 -15h-199q-38 0 -57 36q-51 88 -154.5 143.5t-227.5 55.5q-208 0 -335.5 -131t-127.5 -339q0 -217 130 -351.5t333 -134.5
q98 0 181 29t147 96t86 164h-352q-48 0 -48 49v151q0 49 48 49h584z" />
    <glyph glyph-name="gbreve" unicode="&#x11f;" horiz-adv-x="1282" 
d="M608 1136q-150 0 -237.5 66.5t-101.5 188.5q-3 42 40 42h156q33 0 43 -39q16 -69 100 -69t100 69q10 39 43 39h156q42 0 39 -37q-11 -125 -98 -192.5t-240 -67.5zM1114 1024q48 0 48 -49v-926q0 -98 -30 -179.5t-80.5 -137t-118 -94.5t-142 -57t-152.5 -18
q-126 0 -234.5 40t-184.5 123t-90 195q-1 24 12 37.5t37 13.5h168q38 0 52 -43q19 -57 81.5 -94t158.5 -37q125 0 195 65.5t70 185.5v109q-119 -155 -338 -155q-134 0 -249 70t-182.5 191t-67.5 263t67.5 263t182.5 191.5t249 70.5q219 0 338 -155v78q0 49 49 49h161z
M617 248q125 0 206 78.5t81 200.5t-81 201t-206 79t-205.5 -79t-80.5 -201t80.5 -200.5t205.5 -78.5z" />
    <glyph glyph-name="Gdotaccent" unicode="&#x120;" horiz-adv-x="1607" 
d="M708 1567q-40 0 -40 40v196q0 40 40 40h196q40 0 40 -40v-196q0 -40 -40 -40h-196zM1457 769q49 0 49 -49v-200v-471q0 -49 -49 -49h-169q-48 0 -48 49v133q-153 -210 -460 -210q-200 0 -364 98.5t-256.5 269t-92.5 377.5q0 155 56 292.5t153.5 237t236.5 157t298 57.5
q235 0 423 -128t255 -326q9 -25 -2.5 -40t-37.5 -15h-199q-38 0 -57 36q-51 88 -154.5 143.5t-227.5 55.5q-208 0 -335.5 -131t-127.5 -339q0 -217 130 -351.5t333 -134.5q98 0 181 29t147 96t86 164h-352q-48 0 -48 49v151q0 49 48 49h584z" />
    <glyph glyph-name="gdotaccent" unicode="&#x121;" horiz-adv-x="1282" 
d="M509 1157q-39 0 -39 40v197q0 40 39 40h197q40 0 40 -40v-197q0 -40 -40 -40h-197zM1114 1024q48 0 48 -49v-926q0 -98 -30 -179.5t-80.5 -137t-118 -94.5t-142 -57t-152.5 -18q-126 0 -234.5 40t-184.5 123t-90 195q-1 24 12 37.5t37 13.5h168q38 0 52 -43
q19 -57 81.5 -94t158.5 -37q125 0 195 65.5t70 185.5v109q-119 -155 -338 -155q-134 0 -249 70t-182.5 191t-67.5 263t67.5 263t182.5 191.5t249 70.5q219 0 338 -155v78q0 49 49 49h161zM617 248q125 0 206 78.5t81 200.5t-81 201t-206 79t-205.5 -79t-80.5 -201
t80.5 -200.5t205.5 -78.5z" />
    <glyph glyph-name="Gcommaaccent" unicode="&#x122;" horiz-adv-x="1607" 
d="M1457 769q49 0 49 -49v-200v-471q0 -49 -49 -49h-169q-48 0 -48 49v133q-153 -210 -460 -210q-200 0 -364 98.5t-256.5 269t-92.5 377.5q0 155 56 292.5t153.5 237t236.5 157t298 57.5q235 0 423 -128t255 -326q9 -25 -2.5 -40t-37.5 -15h-199q-38 0 -57 36
q-51 88 -154.5 143.5t-227.5 55.5q-208 0 -335.5 -131t-127.5 -339q0 -217 130 -351.5t333 -134.5q98 0 181 29t147 96t86 164h-352q-48 0 -48 49v151q0 49 48 49h584zM917 -128q20 0 30.5 -11t7.5 -31l-49 -332q-6 -36 -44 -36h-130q-41 0 -38 41l16 330q3 39 42 39h165z
" />
    <glyph glyph-name="gcommaaccent" unicode="&#x123;" horiz-adv-x="1282" 
d="M514 1193q-20 0 -30.5 11t-7.5 31l49 332q6 36 44 36h129q42 0 39 -41l-17 -330q-3 -39 -41 -39h-165zM1114 1024q48 0 48 -49v-926q0 -98 -30 -179.5t-80.5 -137t-118 -94.5t-142 -57t-152.5 -18q-126 0 -234.5 40t-184.5 123t-90 195q-1 24 12 37.5t37 13.5h168
q38 0 52 -43q19 -57 81.5 -94t158.5 -37q125 0 195 65.5t70 185.5v109q-119 -155 -338 -155q-134 0 -249 70t-182.5 191t-67.5 263t67.5 263t182.5 191.5t249 70.5q219 0 338 -155v78q0 49 49 49h161zM617 248q125 0 206 78.5t81 200.5t-81 201t-206 79t-205.5 -79
t-80.5 -201t80.5 -200.5t205.5 -78.5z" />
    <glyph glyph-name="Hbar" unicode="&#x126;" horiz-adv-x="1392" 
d="M1293 1232q48 0 48 -48v-110q0 -48 -48 -48h-77v-977q0 -49 -49 -49h-184q-49 0 -49 49v507h-476v-507q0 -49 -48 -49h-185q-48 0 -48 49v977h-77q-49 0 -49 48v110q0 48 49 48h77v153q0 49 48 49h185q48 0 48 -49v-153h476v153q0 49 49 49h184q49 0 49 -49v-153h77z
M934 826v200h-476v-200h476z" />
    <glyph glyph-name="hbar" unicode="&#x127;" horiz-adv-x="1103" 
d="M676 1052q146 0 239.5 -107t93.5 -291v-605q0 -49 -49 -49h-167q-49 0 -49 49v585q0 85 -44.5 129t-117.5 44q-84 0 -134.5 -52t-50.5 -162v-544q0 -49 -48 -49h-167q-49 0 -49 49v1085h-79q-49 0 -49 48v75q0 49 49 49h79v79q0 49 49 49h167q48 0 48 -49v-79h240
q49 0 49 -49v-75q0 -48 -49 -48h-240v-215q87 133 279 133z" />
    <glyph glyph-name="Imacron" unicode="&#x12a;" horiz-adv-x="548" 
d="M17 1565q-40 0 -40 40v134q0 40 40 40h514q40 0 40 -40v-134q0 -40 -40 -40h-514zM133 1385q0 49 49 49h184q49 0 49 -49v-1336q0 -49 -49 -49h-184q-49 0 -49 49v1336z" />
    <glyph glyph-name="imacron" unicode="&#x12b;" horiz-adv-x="505" 
d="M66 1156q-49 0 -49 48v132q0 49 49 49h373q49 0 49 -49v-132q0 -48 -49 -48h-373zM169 0q-49 0 -49 49v926q0 49 49 49h167q49 0 49 -49v-926q0 -49 -49 -49h-167z" />
    <glyph glyph-name="Iogonek" unicode="&#x12e;" horiz-adv-x="548" 
d="M407 -249q27 1 37 -8.5t10 -34.5v-73q0 -41 -35 -53q-62 -19 -131 -19q-87 0 -141 46t-54 132q0 114 93 259h-4q-49 0 -49 49v1336q0 49 49 49h184q49 0 49 -49v-1336v-1q0 -39 -30 -107q-2 -4 -8.5 -19.5t-9.5 -22t-8 -20.5t-7 -23.5t-4 -23t-2 -26.5q0 -58 61 -55z" />
    <glyph glyph-name="iogonek" unicode="&#x12f;" horiz-adv-x="505" 
d="M169 1167q-49 0 -49 49v169q0 49 49 49h167q49 0 49 -49v-169q0 -49 -49 -49h-167zM376 -249q26 1 36 -8.5t10 -34.5v-73q0 -42 -34 -53q-62 -19 -131 -19q-88 0 -142 46t-54 132q0 113 95 260q-36 6 -36 48v926q0 49 49 49h167q49 0 49 -49v-926v-1q0 -17 -4.5 -35
t-7.5 -27t-13.5 -31.5t-12.5 -27.5q-33 -70 -33 -121q0 -58 62 -55z" />
    <glyph glyph-name="Idotaccent" unicode="&#x130;" horiz-adv-x="548" 
d="M176 1551q-40 0 -40 40v197q0 40 40 40h196q40 0 40 -40v-197q0 -40 -40 -40h-196zM133 1385q0 49 49 49h184q49 0 49 -49v-1336q0 -49 -49 -49h-184q-49 0 -49 49v1336z" />
    <glyph glyph-name="dotlessi" unicode="&#x131;" horiz-adv-x="505" 
d="M169 0q-49 0 -49 49v926q0 49 49 49h167q49 0 49 -49v-926q0 -49 -49 -49h-167z" />
    <glyph glyph-name="Kcommaaccent" unicode="&#x136;" horiz-adv-x="1259" 
d="M1209 59q17 -25 8 -42t-38 -17h-215q-39 0 -59 30l-490 643v-624q0 -49 -49 -49h-184q-49 0 -49 49v1336q0 49 49 49h184q49 0 49 -49v-585l469 604q24 30 59 30h215q30 0 39 -17.5t-9 -41.5l-486 -639zM722 -128q20 0 30.5 -11t7.5 -31l-49 -332q-6 -36 -44 -36h-130
q-41 0 -38 41l16 330q3 39 42 39h165z" />
    <glyph glyph-name="kcommaaccent" unicode="&#x137;" horiz-adv-x="1058" 
d="M1002 59q19 -24 10.5 -41.5t-38.5 -17.5h-195q-37 0 -58 30l-336 432v-413q0 -49 -49 -49h-167q-49 0 -49 49v1336q0 49 49 49h167q49 0 49 -49v-811l315 420q21 30 59 30h196q30 0 38.5 -17t-9.5 -42l-345 -448zM667 -128q20 0 30.5 -11t7.5 -31l-50 -332
q-6 -36 -44 -36h-129q-42 0 -39 41l17 330q3 39 41 39h166z" />
    <glyph glyph-name="Lacute" unicode="&#x139;" horiz-adv-x="972" 
d="M202 1562q-27 0 -36.5 16t4.5 41l112 192q18 32 57 32h204q30 0 39 -18t-10 -41l-158 -195q-21 -27 -59 -27h-153zM899 270q48 0 48 -48v-173q0 -49 -48 -49h-623h-94q-49 0 -49 49v1336q0 49 49 49h184q49 0 49 -49v-1115h484z" />
    <glyph glyph-name="lacute" unicode="&#x13a;" horiz-adv-x="505" 
d="M148 1619q-14 -25 -4 -41t37 -16h152q38 0 59 27l158 195q19 23 10.5 41t-38.5 18h-205q-38 0 -56 -32zM169 0q-49 0 -49 49v1377q0 49 49 49h167q49 0 49 -49v-1377q0 -49 -49 -49h-167z" />
    <glyph glyph-name="Lcommaaccent" unicode="&#x13b;" horiz-adv-x="972" 
d="M899 270q48 0 48 -48v-173q0 -49 -48 -49h-623h-94q-49 0 -49 49v1336q0 49 49 49h184q49 0 49 -49v-1115h484zM654 -128q20 0 30.5 -11t7.5 -31l-49 -332q-6 -36 -44 -36h-130q-41 0 -38 41l16 330q3 39 41 39h166z" />
    <glyph glyph-name="lcommaaccent" unicode="&#x13c;" horiz-adv-x="505" 
d="M169 0q-49 0 -49 49v1377q0 49 49 49h167q49 0 49 -49v-1377q0 -49 -49 -49h-167zM283 -538q38 0 44 36l49 332q3 20 -7.5 31t-30.5 11h-165q-39 0 -42 -39l-16 -330q-3 -41 38 -41h130z" />
    <glyph glyph-name="Lcaron" unicode="&#x13d;" horiz-adv-x="972" 
d="M899 270q48 0 48 -48v-173q0 -49 -48 -49h-623h-94q-49 0 -49 49v1336q0 49 49 49h184q49 0 49 -49v-1115h484zM598 1055q-24 0 -37 13t-12 37l17 282q3 47 48 47h165q25 0 37 -14t8 -39l-46 -282q-6 -44 -52 -44h-128z" />
    <glyph glyph-name="lcaron" unicode="&#x13e;" horiz-adv-x="724" 
d="M169 0q-49 0 -49 49v1377q0 49 49 49h167q49 0 49 -49v-1377q0 -49 -49 -49h-167zM639 1065q45 0 51 45l47 312q6 53 -45 53h-149q-46 0 -49 -47l-16 -312q-1 -24 12 -37.5t36 -13.5h113z" />
    <glyph glyph-name="Lslash" unicode="&#x141;" horiz-adv-x="1013" 
d="M940 270q48 0 48 -48v-173q0 -49 -48 -49h-623h-94q-49 0 -49 49v379l-49 -32q-25 -16 -41.5 -6.5t-16.5 38.5v175q0 39 31 59l76 49v674q0 49 49 49h184q49 0 49 -49v-490l228 149q25 16 41.5 7t16.5 -38v-175q0 -39 -31 -59l-255 -167v-342h484z" />
    <glyph glyph-name="lslash" unicode="&#x142;" horiz-adv-x="538" 
d="M454 963q25 16 41.5 7t16.5 -38v-144q0 -38 -31 -58l-80 -54v-627q0 -49 -49 -49h-167q-48 0 -48 49v447l-53 -36q-25 -16 -41.5 -7.5t-16.5 37.5v144q0 38 31 58l80 55v679q0 49 48 49h167q49 0 49 -49v-499z" />
    <glyph glyph-name="Nacute" unicode="&#x143;" horiz-adv-x="1320" 
d="M529 1619q-14 -25 -4 -41t37 -16h152q38 0 59 27l158 195q19 23 10.5 41t-38.5 18h-205q-38 0 -56 -32zM906 1385q0 49 49 49h184q49 0 49 -49v-1336q0 -49 -49 -49h-127q-42 0 -60 31l-537 855v-837q0 -49 -49 -49h-184q-49 0 -49 49v1336q0 49 49 49h127q41 0 60 -32
l537 -854v837z" />
    <glyph glyph-name="nacute" unicode="&#x144;" 
d="M453 1167q-27 0 -36.5 16.5t4.5 41.5l112 192q18 32 57 32h204q30 0 39 -18t-10 -41l-158 -196q-21 -27 -59 -27h-153zM663 1052q146 0 239.5 -107t93.5 -291v-605q0 -49 -49 -49h-167q-48 0 -48 49v585q0 85 -45 129t-118 44q-84 0 -134.5 -52t-50.5 -162v-544
q0 -49 -48 -49h-167q-49 0 -49 49v926q0 49 49 49h167q48 0 48 -49v-56q87 133 279 133z" />
    <glyph glyph-name="Ncommaaccent" unicode="&#x145;" horiz-adv-x="1320" 
d="M906 1385q0 49 49 49h184q49 0 49 -49v-1336q0 -49 -49 -49h-127q-42 0 -60 31l-537 855v-837q0 -49 -49 -49h-184q-49 0 -49 49v1336q0 49 49 49h127q41 0 60 -32l537 -854v837zM698 -538q38 0 44 36l50 332q3 20 -7.5 31t-30.5 11h-166q-38 0 -41 -39l-17 -330
q-3 -41 39 -41h129z" />
    <glyph glyph-name="ncommaaccent" unicode="&#x146;" 
d="M663 1052q146 0 239.5 -107t93.5 -291v-605q0 -49 -49 -49h-167q-48 0 -48 49v585q0 85 -45 129t-118 44q-84 0 -134.5 -52t-50.5 -162v-544q0 -49 -48 -49h-167q-49 0 -49 49v926q0 49 49 49h167q48 0 48 -49v-56q87 133 279 133zM657 -128q20 0 30.5 -11t7.5 -31
l-49 -332q-6 -36 -44 -36h-129q-42 0 -39 41l17 330q3 39 41 39h165z" />
    <glyph glyph-name="Ncaron" unicode="&#x147;" horiz-adv-x="1320" 
d="M501 1571l-164 224q-14 19 -6.5 33.5t31.5 14.5h169q33 0 49 -25l73 -109l73 109q16 25 48 25h169q24 0 31.5 -14.5t-6.5 -33.5l-163 -224q-19 -25 -48 -25h-155h-53q-29 0 -48 25zM1139 1434q49 0 49 -49v-1336q0 -49 -49 -49h-127q-42 0 -60 31l-537 855v-837
q0 -49 -49 -49h-184q-49 0 -49 49v1336q0 49 49 49h127q41 0 60 -32l537 -854v837q0 49 49 49h184z" />
    <glyph glyph-name="ncaron" unicode="&#x148;" 
d="M392 1177l-163 224q-14 19 -6.5 33.5t31.5 14.5h169q32 0 48 -26l73 -108l73 108q16 26 49 26h169q24 0 31.5 -14.5t-6.5 -33.5l-164 -224q-19 -25 -48 -25h-155h-53q-29 0 -48 25zM663 1052q146 0 239.5 -107t93.5 -291v-605q0 -49 -49 -49h-167q-48 0 -48 49v585
q0 85 -45 129t-118 44q-84 0 -134.5 -52t-50.5 -162v-544q0 -49 -48 -49h-167q-49 0 -49 49v926q0 49 49 49h167q48 0 48 -49v-56q87 133 279 133z" />
    <glyph glyph-name="Eng" unicode="&#x14a;" horiz-adv-x="1320" 
d="M1139 1434q49 0 49 -49v-1336v-49q0 -195 -109.5 -296.5t-316.5 -111.5q-50 -3 -50 47v154q0 42 48 50q71 9 108.5 46t37.5 111v104l-491 782v-837q0 -49 -49 -49h-184q-49 0 -49 49v1336q0 49 49 49h127q41 0 60 -32l537 -854v837q0 49 49 49h184z" />
    <glyph glyph-name="eng" unicode="&#x14b;" 
d="M663 1052q146 0 239.5 -107t93.5 -291v-674q0 -200 -95.5 -309t-286.5 -110q-48 0 -48 50v157q0 43 49 48q117 9 117 164v654q0 85 -45 129t-118 44q-84 0 -134.5 -52t-50.5 -162v-544q0 -49 -48 -49h-167q-49 0 -49 49v926q0 49 49 49h167q48 0 48 -49v-56
q87 133 279 133z" />
    <glyph glyph-name="Omacron" unicode="&#x14c;" horiz-adv-x="1622" 
d="M554 1581q-40 0 -40 39v135q0 40 40 40h514q40 0 40 -40v-135q0 -39 -40 -39h-514zM811 -28q-152 0 -290 58t-237.5 157t-158 237.5t-58.5 292.5q0 206 99.5 377t270 269t374.5 98t374.5 -98t270 -269t99.5 -377q0 -154 -58.5 -292.5t-158 -237.5t-237.5 -157t-290 -58z
M811 247q197 0 330 133t133 337t-133 337t-330 133t-330 -133t-133 -337t133 -337t330 -133z" />
    <glyph glyph-name="omacron" unicode="&#x14d;" horiz-adv-x="1216" 
d="M351 1171q-40 0 -40 40v134q0 40 40 40h514q40 0 40 -40v-134q0 -40 -40 -40h-514zM608 -28q-149 0 -273 71t-196 195t-72 274t72 274t196 195t273 71t273 -71t196.5 -195t72.5 -274t-72.5 -274t-196.5 -195t-273 -71zM608 229q119 0 198.5 80t79.5 203t-79.5 203
t-198.5 80t-198 -79.5t-79 -203.5t79 -203.5t198 -79.5z" />
    <glyph glyph-name="Ohungarumlaut" unicode="&#x150;" horiz-adv-x="1622" 
d="M505 1618q-14 -26 -4.5 -41t37.5 -15h159q37 0 57 32l116 192q15 25 6.5 41t-36.5 16h-170q-38 0 -57 -33zM863 1619q-15 -24 -5.5 -40.5t37.5 -16.5h158q39 0 58 30l131 194q16 25 7 41t-38 16h-168q-39 0 -57 -31zM811 -28q-152 0 -290 58t-237.5 157t-158 237.5
t-58.5 292.5q0 206 99.5 377t270 269t374.5 98t374.5 -98t270 -269t99.5 -377q0 -154 -58.5 -292.5t-158 -237.5t-237.5 -157t-290 -58zM811 247q197 0 330 133t133 337t-133 337t-330 133t-330 -133t-133 -337t133 -337t330 -133z" />
    <glyph glyph-name="ohungarumlaut" unicode="&#x151;" horiz-adv-x="1216" 
d="M303 1209q-14 -25 -4.5 -41t36.5 -16h160q36 0 56 32l117 192q14 25 5.5 41.5t-36.5 16.5h-170q-38 0 -57 -33zM660 1209q-15 -24 -5.5 -40.5t38.5 -16.5h157q39 0 58 31l131 193q16 25 7 41.5t-38 16.5h-168q-39 0 -57 -31zM608 -28q-149 0 -273 71t-196 195t-72 274
t72 274t196 195t273 71t273 -71t196.5 -195t72.5 -274t-72.5 -274t-196.5 -195t-273 -71zM608 229q119 0 198.5 80t79.5 203t-79.5 203t-198.5 80t-198 -79.5t-79 -203.5t79 -203.5t198 -79.5z" />
    <glyph glyph-name="OE" unicode="&#x152;" horiz-adv-x="1875" 
d="M1760 270q49 0 49 -48v-173q0 -49 -49 -49h-673h-92q-100 -28 -204 -28q-203 0 -369.5 98.5t-260.5 269t-94 377.5q0 155 55.5 292.5t151 237t230.5 157t287 57.5q108 0 204 -27h281h474q49 0 49 -49v-173q0 -49 -49 -49h-474v-306h428q49 0 49 -49v-167q0 -49 -49 -49
h-428v-322h484zM995 278v878q-86 31 -204 31q-195 0 -319 -132t-124 -338t124 -338t319 -132q118 0 204 31z" />
    <glyph glyph-name="oe" unicode="&#x153;" horiz-adv-x="1998" 
d="M1435 1052q148 0 264 -72t178.5 -195t62.5 -274q0 -33 -3 -63q-6 -45 -52 -45h-212h-512q26 -106 100 -159t177 -53q56 0 106 20.5t81 54.5q29 27 60 27l164 1q27 0 38.5 -15t0.5 -38q-57 -129 -173.5 -199t-273.5 -70q-149 0 -257 59t-170 166q-65 -105 -172 -165
t-241 -60q-150 0 -272.5 71t-192 195t-69.5 274t69.5 274t192 195t272.5 71q135 0 242 -60t172 -166q63 107 169.5 166.5t250.5 59.5zM1160 611h516q-22 103 -90.5 153.5t-158.5 50.5q-104 0 -174 -53.5t-93 -150.5zM608 229q119 0 198.5 80t79.5 203t-79.5 203t-198.5 80
q-120 0 -198.5 -79.5t-78.5 -203.5t78.5 -203.5t198.5 -79.5z" />
    <glyph glyph-name="Racute" unicode="&#x154;" horiz-adv-x="1290" 
d="M475 1562q-27 0 -37 16t4 41l112 192q18 32 57 32h205q30 0 38.5 -18t-10.5 -41l-158 -195q-21 -27 -59 -27h-152zM1278 60q20 -23 11 -41.5t-40 -18.5h-217q-38 0 -60 29l-382 468h-175v-448q0 -49 -49 -49h-184q-49 0 -49 49v1336q0 49 49 49h233h261q198 0 337 -139.5
t139 -337.5q0 -131 -73.5 -243t-194.5 -170zM415 1169v-424h261q81 0 137.5 61.5t56.5 150.5t-56.5 150.5t-137.5 61.5h-261z" />
    <glyph glyph-name="racute" unicode="&#x155;" horiz-adv-x="690" 
d="M638 1434q30 0 39 -18t-10 -41l-159 -196q-21 -27 -58 -27h-153q-27 0 -36.5 16t4.5 41l112 192q19 33 57 33h204zM615 1040q24 4 37 -9.5t13 -37.5v-193q0 -47 -37 -47q-49 0 -91 -13t-77 -41.5t-55 -78t-20 -115.5v-456q0 -49 -49 -49h-167q-49 0 -49 49v926
q0 49 49 49h167q49 0 49 -49v-106q63 150 230 171z" />
    <glyph glyph-name="Rcommaaccent" unicode="&#x156;" horiz-adv-x="1290" 
d="M1278 60q20 -23 11 -41.5t-40 -18.5h-217q-38 0 -60 29l-382 468h-175v-448q0 -49 -49 -49h-184q-49 0 -49 49v1336q0 49 49 49h233h261q198 0 337 -139.5t139 -337.5q0 -131 -73.5 -243t-194.5 -170zM415 1169v-424h261q81 0 137.5 61.5t56.5 150.5t-56.5 150.5
t-137.5 61.5h-261zM810 -128q20 0 30.5 -11t7.5 -31l-49 -332q-6 -36 -44 -36h-130q-41 0 -38 41l16 330q3 39 42 39h165z" />
    <glyph glyph-name="rcommaaccent" unicode="&#x157;" horiz-adv-x="690" 
d="M615 1040q24 4 37 -9.5t13 -37.5v-193q0 -47 -37 -47q-49 0 -91 -13t-77 -41.5t-55 -78t-20 -115.5v-456q0 -49 -49 -49h-167q-49 0 -49 49v926q0 49 49 49h167q49 0 49 -49v-106q63 150 230 171zM339 -128q20 0 30.5 -11t7.5 -31l-49 -332q-6 -36 -44 -36h-129
q-42 0 -39 41l17 330q3 39 41 39h165z" />
    <glyph glyph-name="Rcaron" unicode="&#x158;" horiz-adv-x="1290" 
d="M414 1571l-164 224q-14 19 -6.5 33.5t31.5 14.5h169q33 0 49 -25l73 -109l73 109q16 25 48 25h169q24 0 31.5 -14.5t-6.5 -33.5l-163 -224q-19 -25 -48 -25h-155h-53q-29 0 -48 25zM1278 60q20 -23 11 -41.5t-40 -18.5h-217q-38 0 -60 29l-382 468h-175v-448
q0 -49 -49 -49h-184q-49 0 -49 49v1336q0 49 49 49h233h261q198 0 337 -139.5t139 -337.5q0 -131 -73.5 -243t-194.5 -170zM415 1169v-424h261q81 0 137.5 61.5t56.5 150.5t-56.5 150.5t-137.5 61.5h-261z" />
    <glyph glyph-name="rcaron" unicode="&#x159;" horiz-adv-x="690" 
d="M678 1434q24 0 31.5 -15t-6.5 -34l-163 -223q-19 -25 -48 -25h-155h-53q-29 0 -48 25l-163 223q-14 19 -6.5 34t31.5 15h169q32 0 48 -26l73 -108l73 108q16 26 48 26h169zM615 1040q24 4 37 -9.5t13 -37.5v-193q0 -47 -37 -47q-49 0 -91 -13t-77 -41.5t-55 -78
t-20 -115.5v-456q0 -49 -49 -49h-167q-49 0 -49 49v926q0 49 49 49h167q49 0 49 -49v-106q63 150 230 171z" />
    <glyph glyph-name="Sacute" unicode="&#x15a;" horiz-adv-x="1118" 
d="M424 1634q-14 -26 -4.5 -41.5t36.5 -15.5h153q38 0 59 27l158 196q19 23 10 41t-39 18h-204q-38 0 -57 -33zM574 -28q-102 0 -191 25.5t-160 75.5t-116 131.5t-54 186.5q-1 24 11.5 37.5t36.5 13.5h185q42 0 50 -47q26 -148 238 -148q104 0 158 40t54 105q0 30 -14 55.5
t-34 43t-57 36t-66.5 30t-79.5 29.5q-167 59 -235 97q-181 99 -214 270q-9 43 -9 92q0 99 39 180t104.5 131.5t148.5 77.5t174 27t172.5 -25t148 -74t109.5 -129.5t52 -182.5q1 -24 -12 -37.5t-37 -13.5h-184q-43 0 -51 47q-25 141 -198 141q-85 0 -135 -39.5t-50 -102.5
q0 -38 16.5 -68t51 -54t70.5 -41t93 -38l42 -15q45 -16 68.5 -24.5t67 -26.5t68 -31.5t61 -36t57.5 -43.5t46 -51.5t38 -62.5t22 -73.5t9 -87.5q0 -133 -69 -230t-179 -143.5t-246 -46.5z" />
    <glyph glyph-name="sacute" unicode="&#x15b;" horiz-adv-x="983" 
d="M388 1167q-27 0 -37 16.5t4 41.5l112 192q18 32 57 32h205q30 0 38.5 -18t-10.5 -41l-158 -196q-21 -27 -59 -27h-152zM354 727q0 -36 30.5 -59t79 -36t107 -24.5t117.5 -32t107.5 -51.5t79 -89t30.5 -138q0 -157 -117.5 -241t-296.5 -84q-107 0 -194 32t-146 101.5
t-71 169.5q-3 24 10 37.5t37 13.5h164q34 0 53 -42q25 -79 147 -79q73 0 111.5 24t38.5 68q0 35 -30.5 58t-79 36t-107 25t-117.5 32.5t-107.5 51.5t-79 89t-30.5 138q0 104 56.5 179.5t146 110.5t198.5 35q99 0 181 -32t139.5 -102t69.5 -169q3 -24 -10 -37.5t-37 -13.5
h-164q-20 0 -31 10t-21 33q-11 38 -45.5 58t-81.5 20q-64 0 -100.5 -24t-36.5 -68z" />
    <glyph glyph-name="Scedilla" unicode="&#x15e;" horiz-adv-x="1118" 
d="M1068 392q0 -169 -105.5 -275.5t-274.5 -134.5v-76q61 -14 102.5 -53.5t41.5 -105.5q0 -207 -408 -191q-42 3 -42 42v105q0 40 44 40q177 -9 177 42q0 35 -91 48q-38 6 -38 42v104q-176 24 -291 128.5t-130 283.5q-1 24 11.5 37.5t36.5 13.5h185q42 0 50 -47
q26 -148 238 -148q104 0 158 40t54 105q0 30 -14 55.5t-34 43t-57 36t-66.5 30t-79.5 29.5q-167 59 -235 97q-181 99 -214 270q-9 43 -9 92q0 99 39 180t104.5 131.5t148.5 77.5t174 27t172.5 -25t148 -74t109.5 -129.5t52 -182.5q1 -24 -12 -37.5t-37 -13.5h-184
q-43 0 -51 47q-25 141 -198 141q-85 0 -135 -39.5t-50 -102.5q0 -38 16.5 -68t51 -54t70.5 -41t93 -38l42 -15q45 -16 68.5 -24.5t67 -26.5t68 -31.5t61 -36t57.5 -43.5t46 -51.5t38 -62.5t22 -73.5t9 -87.5z" />
    <glyph glyph-name="scedilla" unicode="&#x15f;" horiz-adv-x="983" 
d="M905 297q0 -126 -78 -205.5t-208 -106.5v-79q61 -14 103 -53.5t42 -105.5q0 -207 -409 -191q-42 3 -42 42v105q0 40 44 40q178 -9 178 42q0 35 -91 48q-39 6 -39 42v103q-134 19 -222.5 94.5t-102.5 202.5q-3 24 10 37.5t37 13.5h164q34 0 53 -42q25 -79 147 -79
q73 0 111.5 24t38.5 68q0 35 -30.5 58t-79 36t-107 25t-117.5 32.5t-107.5 51.5t-79 89t-30.5 138q0 104 56.5 179.5t146 110.5t198.5 35q99 0 181 -32t139.5 -102t69.5 -169q3 -24 -10 -37.5t-37 -13.5h-164q-20 0 -31 10t-21 33q-11 38 -45.5 58t-81.5 20
q-64 0 -100.5 -24t-36.5 -68q0 -36 30.5 -59t79 -36t107 -24.5t117.5 -32t107.5 -51.5t79 -89t30.5 -138z" />
    <glyph glyph-name="Scaron" unicode="&#x160;" horiz-adv-x="1118" 
d="M395 1587l-163 223q-14 20 -6.5 34.5t31.5 14.5h169q32 0 48 -26l73 -108l74 108q16 26 48 26h169q24 0 31.5 -14.5t-6.5 -34.5l-164 -223q-19 -25 -48 -25h-155h-53q-29 0 -48 25zM589 844l42 -15q45 -16 68.5 -24.5t67 -26.5t68 -31.5t61 -36t57.5 -43.5t46 -51.5
t38 -62.5t22 -73.5t9 -87.5q0 -133 -69 -230t-179 -143.5t-246 -46.5q-102 0 -191 25.5t-160 75.5t-116 131.5t-54 186.5q-1 24 11.5 37.5t36.5 13.5h185q42 0 50 -47q26 -148 238 -148q104 0 158 40t54 105q0 30 -14 55.5t-34 43t-57 36t-66.5 30t-79.5 29.5
q-167 59 -235 97q-181 99 -214 270q-9 43 -9 92q0 99 39 180t104.5 131.5t148.5 77.5t174 27t172.5 -25t148 -74t109.5 -129.5t52 -182.5q1 -24 -12 -37.5t-37 -13.5h-184q-43 0 -51 47q-25 141 -198 141q-85 0 -135 -39.5t-50 -102.5q0 -38 16.5 -68t51 -54t70.5 -41
t93 -38z" />
    <glyph glyph-name="scaron" unicode="&#x161;" horiz-adv-x="983" 
d="M327 1177l-164 224q-14 19 -6.5 33.5t31.5 14.5h169q33 0 49 -26l73 -108l73 108q16 26 48 26h169q24 0 31.5 -14.5t-6.5 -33.5l-163 -224q-19 -25 -48 -25h-155h-53q-29 0 -48 25zM354 727q0 -36 30.5 -59t79 -36t107 -24.5t117.5 -32t107.5 -51.5t79 -89t30.5 -138
q0 -157 -117.5 -241t-296.5 -84q-107 0 -194 32t-146 101.5t-71 169.5q-3 24 10 37.5t37 13.5h164q34 0 53 -42q25 -79 147 -79q73 0 111.5 24t38.5 68q0 35 -30.5 58t-79 36t-107 25t-117.5 32.5t-107.5 51.5t-79 89t-30.5 138q0 104 56.5 179.5t146 110.5t198.5 35
q99 0 181 -32t139.5 -102t69.5 -169q3 -24 -10 -37.5t-37 -13.5h-164q-20 0 -31 10t-21 33q-11 38 -45.5 58t-81.5 20q-64 0 -100.5 -24t-36.5 -68z" />
    <glyph glyph-name="uni0162" unicode="&#x162;" horiz-adv-x="1024" 
d="M950 1434q48 0 48 -49v-173q0 -49 -48 -49h-297v-1114q0 -49 -49 -49h-184q-49 0 -49 49v1114h-297q-48 0 -48 49v173q0 49 48 49h579h297zM605 -128q20 0 30.5 -11t7.5 -31l-49 -332q-6 -36 -44 -36h-130q-41 0 -38 41l16 330q3 39 42 39h165z" />
    <glyph glyph-name="uni0163" unicode="&#x163;" horiz-adv-x="684" 
d="M602 1024q48 0 48 -49v-156q0 -49 -48 -49h-128v-721q0 -49 -49 -49h-166q-49 0 -49 49v721h-128q-49 0 -49 49v156q0 49 49 49h128v279q0 49 49 49h166q49 0 49 -49v-279h128zM431 -128q20 0 30 -11t7 -31l-49 -332q-6 -36 -44 -36h-129q-42 0 -39 41l17 330q3 39 41 39
h166z" />
    <glyph glyph-name="Tcaron" unicode="&#x164;" horiz-adv-x="1024" 
d="M352 1571l-163 224q-14 19 -6.5 33.5t31.5 14.5h169q32 0 48 -25l73 -109l74 109q16 25 48 25h169q24 0 31.5 -14.5t-6.5 -33.5l-164 -224q-19 -25 -48 -25h-155h-53q-29 0 -48 25zM950 1434q48 0 48 -49v-173q0 -49 -48 -49h-297v-1114q0 -49 -49 -49h-184q-49 0 -49 49
v1114h-297q-48 0 -48 49v173q0 49 48 49h579h297z" />
    <glyph glyph-name="tcaron" unicode="&#x165;" horiz-adv-x="804" 
d="M782 1505q25 0 36.5 -13.5t7.5 -38.5l-45 -277q-6 -44 -52 -44h-113q-24 0 -37 13t-12 37l17 277q3 46 48 46h150zM602 1024q48 0 48 -49v-156q0 -49 -48 -49h-128v-721q0 -49 -49 -49h-166q-49 0 -49 49v721h-128q-49 0 -49 49v156q0 49 49 49h128v279q0 49 49 49h166
q49 0 49 -49v-279h128z" />
    <glyph glyph-name="Tbar" unicode="&#x166;" horiz-adv-x="1024" 
d="M950 1434q48 0 48 -49v-173q0 -49 -48 -49h-297v-335h194q49 0 49 -48v-157q0 -49 -49 -49h-194v-525q0 -49 -49 -49h-184q-49 0 -49 49v525h-194q-49 0 -49 49v157q0 48 49 48h194v335h-297q-48 0 -48 49v173q0 49 48 49h579h297z" />
    <glyph glyph-name="tbar" unicode="&#x167;" horiz-adv-x="684" 
d="M602 1024q48 0 48 -49v-156q0 -49 -48 -49h-128v-119h91q48 0 48 -48v-115q0 -49 -48 -49h-91v-390q0 -49 -49 -49h-166q-49 0 -49 49v390h-91q-48 0 -48 49v115q0 48 48 48h91v119h-128q-49 0 -49 49v156q0 49 49 49h128v279q0 49 49 49h166q49 0 49 -49v-279h128z" />
    <glyph glyph-name="Umacron" unicode="&#x16a;" horiz-adv-x="1269" 
d="M378 1565q-40 0 -40 40v134q0 40 40 40h514q40 0 40 -40v-134q0 -40 -40 -40h-514zM635 -28q-147 0 -263.5 52t-187.5 159.5t-71 254.5v947q0 49 48 49h185q48 0 48 -49v-925q0 -213 241 -213t241 213v925q0 49 48 49h184q49 0 49 -49v-947q0 -147 -71 -254.5
t-187.5 -159.5t-263.5 -52z" />
    <glyph glyph-name="umacron" unicode="&#x16b;" 
d="M290 1156q-40 0 -40 40v134q0 40 40 40h514q40 0 40 -40v-134q0 -40 -40 -40h-514zM921 1024q49 0 49 -49v-926q0 -49 -49 -49h-167q-48 0 -48 49v56q-87 -133 -279 -133q-146 0 -239.5 107t-93.5 291v605q0 49 49 49h167q48 0 48 -49v-585q0 -85 45 -129t118 -44
q84 0 134.5 52t50.5 162v544q0 49 48 49h167z" />
    <glyph glyph-name="Uring" unicode="&#x16e;" horiz-adv-x="1269" 
d="M635 1513q-113 0 -186 69.5t-73 173.5t73 173.5t186 69.5q115 0 186.5 -69t71.5 -174t-71.5 -174t-186.5 -69zM635 1679q39 0 60.5 21.5t21.5 55.5t-21.5 55.5t-60.5 21.5q-38 0 -59 -21.5t-21 -55.5t21 -55.5t59 -21.5zM635 -28q-147 0 -263.5 52t-187.5 159.5
t-71 254.5v947q0 49 48 49h185q48 0 48 -49v-925q0 -213 241 -213t241 213v925q0 49 48 49h184q49 0 49 -49v-947q0 -147 -71 -254.5t-187.5 -159.5t-263.5 -52z" />
    <glyph glyph-name="uring" unicode="&#x16f;" 
d="M547 1103q-113 0 -186 70t-73 174t73 173.5t186 69.5q115 0 186.5 -69t71.5 -174t-71.5 -174.5t-186.5 -69.5zM547 1424q-38 0 -59 -21.5t-21 -55.5t21 -56t59 -22q39 0 60.5 22t21.5 56t-21.5 55.5t-60.5 21.5zM921 1024q49 0 49 -49v-926q0 -49 -49 -49h-167
q-48 0 -48 49v56q-87 -133 -279 -133q-146 0 -239.5 107t-93.5 291v605q0 49 49 49h167q48 0 48 -49v-585q0 -85 45 -129t118 -44q84 0 134.5 52t50.5 162v544q0 49 48 49h167z" />
    <glyph glyph-name="Uhungarumlaut" unicode="&#x170;" horiz-adv-x="1269" 
d="M329 1603q-14 -25 -4.5 -41t36.5 -16h160q37 0 57 32l116 192q15 25 6.5 41.5t-36.5 16.5h-170q-38 0 -57 -33zM687 1604q-15 -24 -5.5 -41t37.5 -17h158q38 0 57 31l131 193q16 25 7.5 41.5t-37.5 16.5h-168q-39 0 -57 -31zM635 -28q-147 0 -263.5 52t-187.5 159.5
t-71 254.5v947q0 49 48 49h185q48 0 48 -49v-925q0 -213 241 -213t241 213v925q0 49 48 49h184q49 0 49 -49v-947q0 -147 -71 -254.5t-187.5 -159.5t-263.5 -52z" />
    <glyph glyph-name="uhungarumlaut" unicode="&#x171;" 
d="M273 1137q-27 0 -36.5 15.5t4.5 40.5l108 192q19 33 57 33h169q28 0 36.5 -16t-5.5 -41l-116 -192q-20 -32 -57 -32h-160zM947 1418q29 0 37.5 -16t-7.5 -41l-131 -194q-19 -30 -57 -30h-158q-28 0 -37.5 16.5t5.5 40.5l123 194q18 30 57 30h168zM921 1024q49 0 49 -49
v-926q0 -49 -49 -49h-167q-48 0 -48 49v56q-87 -133 -279 -133q-146 0 -239.5 107t-93.5 291v605q0 49 49 49h167q48 0 48 -49v-585q0 -85 45 -129t118 -44q84 0 134.5 52t50.5 162v544q0 49 48 49h167z" />
    <glyph glyph-name="Uogonek" unicode="&#x172;" horiz-adv-x="1269" 
d="M1108 1434q49 0 49 -49v-947q0 -216 -147 -342q-116 -105 -161 -167.5t-45 -122.5q-1 -29 16 -43t46 -12q24 2 35 -8t11 -35v-73q0 -41 -33 -52q-60 -20 -132 -20q-88 0 -142 46t-54 132q0 105 111 232q-4 0 -13 -0.5t-14 -0.5q-147 0 -263.5 52t-187.5 159.5t-71 254.5
v947q0 49 48 49h185q48 0 48 -49v-925q0 -213 241 -213t241 213v925q0 49 48 49h184z" />
    <glyph glyph-name="uogonek" unicode="&#x173;" 
d="M970 975v-926v-3q0 -10 -3 -20t-9 -20t-10.5 -16t-12.5 -15.5t-9 -10.5q-77 -95 -77 -158q-1 -29 16 -43t47 -12q45 3 45 -35v-88q0 -34 -26 -43q-62 -22 -139 -22q-87 0 -141 46t-54 132q0 112 133 263q-24 10 -24 45v56q-87 -133 -279 -133q-146 0 -239.5 107
t-93.5 291v605q0 49 49 49h167q48 0 48 -49v-585q0 -85 45 -129t118 -44q84 0 134.5 52t50.5 162v544q0 49 48 49h167q49 0 49 -49z" />
    <glyph glyph-name="Wcircumflex" unicode="&#x174;" horiz-adv-x="1822" 
d="M613 1546q-24 0 -31.5 14t6.5 34l164 224q19 25 48 25h155h53q29 0 48 -25l163 -224q14 -20 6.5 -34t-31.5 -14h-169q-32 0 -48 26l-73 108l-74 -108q-16 -26 -48 -26h-169zM1761 1434q26 0 37 -14.5t4 -40.5l-381 -1338q-11 -41 -54 -41h-226q-44 0 -55 41l-174 614
l-176 -614q-11 -41 -54 -41h-226q-44 0 -55 41l-380 1338q-7 26 4 40.5t37 14.5h193q43 0 53 -43l276 -1032l204 730l-82 290q-7 26 4 40.5t37 14.5h163q43 0 53 -43l276 -1032l275 1032q10 43 53 43h194z" />
    <glyph glyph-name="wcircumflex" unicode="&#x175;" horiz-adv-x="1484" 
d="M444 1137q-24 0 -31.5 14.5t6.5 33.5l164 224q19 25 48 25h155h53q29 0 48 -25l163 -224q14 -19 6.5 -33.5t-31.5 -14.5h-169q-32 0 -48 25l-73 108l-73 -108q-16 -25 -49 -25h-169zM1406 1024q26 0 37 -15t3 -40l-303 -929q-12 -40 -56 -40h-140h-27q-44 0 -56 40
l-121 372l-122 -372q-12 -40 -56 -40h-108h-59q-44 0 -56 40l-304 929q-8 25 3.5 40t37.5 15h181q43 0 54 -40l188 -661l133 418l-74 228q-8 25 3 40t37 15h135q42 0 54 -40l200 -635l181 635q11 40 54 40h181z" />
    <glyph glyph-name="Ycircumflex" unicode="&#x176;" horiz-adv-x="1230" 
d="M316 1546q-24 0 -31.5 14t6.5 34l163 224q19 25 48 25h155h53q29 0 48 -25l164 -224q14 -20 6.5 -34t-31.5 -14h-169q-33 0 -49 26l-73 108l-73 -108q-16 -26 -48 -26h-169zM1159 1434q28 0 38 -17t-5 -42l-436 -739v-587q0 -49 -48 -49h-185q-48 0 -48 49v588l-436 738
q-15 25 -5 42t38 17h214q39 0 57 -35l273 -491l272 491q18 35 57 35h214z" />
    <glyph glyph-name="ycircumflex" unicode="&#x177;" horiz-adv-x="1024" 
d="M214 1137q-24 0 -31.5 14.5t6.5 33.5l163 224q19 25 48 25h156h52q29 0 48 -25l164 -224q14 -19 6.5 -33.5t-31.5 -14.5h-169q-32 0 -48 25l-74 108l-73 -108q-16 -25 -48 -25h-169zM961 1024q27 0 38 -14.5t2 -40.5l-452 -1340q-12 -39 -56 -39h-181q-27 0 -38.5 14.5
t-2.5 40.5l125 369l-369 954q-9 25 2 40.5t37 15.5h180q40 0 55 -38l227 -607l197 605q12 40 55 40h181z" />
    <glyph glyph-name="Ydieresis" unicode="&#x178;" horiz-adv-x="1230" 
d="M344 1559q-40 0 -40 40v161q0 40 40 40h161q40 0 40 -40v-161q0 -40 -40 -40h-161zM723 1559q-40 0 -40 40v161q0 40 40 40h161q40 0 40 -40v-161q0 -40 -40 -40h-161zM1159 1434q28 0 38 -17t-5 -42l-436 -739v-587q0 -49 -48 -49h-185q-48 0 -48 49v588l-436 738
q-15 25 -5 42t38 17h214q39 0 57 -35l273 -491l272 491q18 35 57 35h214z" />
    <glyph glyph-name="Zacute" unicode="&#x179;" horiz-adv-x="1095" 
d="M427 1619q-14 -25 -4.5 -41t36.5 -16h153q38 0 59 27l158 195q19 23 10 41t-39 18h-204q-39 0 -57 -32zM432 270h561q49 0 49 -48v-173q0 -49 -49 -49h-870q-49 0 -49 49v142q0 30 18 60l579 912h-535q-49 0 -49 49v173q0 49 49 49h844q49 0 49 -49v-143q0 -32 -17 -60z
" />
    <glyph glyph-name="zacute" unicode="&#x17a;" horiz-adv-x="929" 
d="M341 1209q-14 -25 -4.5 -41t36.5 -16h153q38 0 59 27l158 196q19 23 10 41t-39 18h-204q-38 0 -57 -33zM422 248h405q49 0 49 -49v-150q0 -49 -49 -49h-712q-48 0 -48 49v94q0 32 19 60l413 573h-363q-49 0 -49 49v150q0 49 49 49h670q49 0 49 -49v-94q0 -32 -19 -60z
" />
    <glyph glyph-name="Zdotaccent" unicode="&#x17b;" horiz-adv-x="1095" 
d="M460 1551q-40 0 -40 40v197q0 40 40 40h196q40 0 40 -40v-197q0 -40 -40 -40h-196zM432 270h561q49 0 49 -48v-173q0 -49 -49 -49h-870q-49 0 -49 49v142q0 30 18 60l579 912h-535q-49 0 -49 49v173q0 49 49 49h844q49 0 49 -49v-143q0 -32 -17 -60z" />
    <glyph glyph-name="zdotaccent" unicode="&#x17c;" horiz-adv-x="929" 
d="M374 1142q-40 0 -40 40v196q0 40 40 40h196q40 0 40 -40v-196q0 -40 -40 -40h-196zM422 248h405q49 0 49 -49v-150q0 -49 -49 -49h-712q-48 0 -48 49v94q0 32 19 60l413 573h-363q-49 0 -49 49v150q0 49 49 49h670q49 0 49 -49v-94q0 -32 -19 -60z" />
    <glyph glyph-name="Zcaron" unicode="&#x17d;" horiz-adv-x="1095" 
d="M398 1571l-163 224q-14 19 -6.5 33.5t31.5 14.5h169q32 0 48 -25l73 -109l74 109q16 25 48 25h169q24 0 31.5 -14.5t-6.5 -33.5l-164 -224q-19 -25 -48 -25h-155h-53q-29 0 -48 25zM993 270q49 0 49 -48v-173q0 -49 -49 -49h-870q-49 0 -49 49v142q0 30 18 60l579 912
h-535q-49 0 -49 49v173q0 49 49 49h844q49 0 49 -49v-143q0 -32 -17 -60l-580 -912h561z" />
    <glyph glyph-name="zcaron" unicode="&#x17e;" horiz-adv-x="929" 
d="M312 1162l-163 223q-14 19 -6.5 34t31.5 15h169q32 0 48 -26l73 -108l74 108q16 26 48 26h169q24 0 31.5 -15t-6.5 -34l-164 -223q-19 -25 -48 -25h-155h-53q-29 0 -48 25zM827 248q49 0 49 -49v-150q0 -49 -49 -49h-712q-48 0 -48 49v94q0 32 19 60l413 573h-363
q-49 0 -49 49v150q0 49 49 49h670q49 0 49 -49v-94q0 -32 -19 -60l-414 -573h405z" />
    <glyph glyph-name="florin" unicode="&#x192;" horiz-adv-x="903" 
d="M861 1453q43 -9 43 -55v-164q0 -46 -52 -38q-62 10 -110 -24t-60 -107l-37 -218h137q49 0 49 -48v-157q0 -49 -49 -49h-180l-115 -677q-35 -204 -154 -286.5t-291 -51.5q-42 9 -42 55v164q0 47 52 39q62 -10 109.5 23.5t59.5 106.5l107 627h-125q-48 0 -48 49v157
q0 48 48 48h168l46 269q35 204 153.5 286t290.5 51z" />
    <glyph glyph-name="Scommaaccent" unicode="&#x218;" horiz-adv-x="1118" 
d="M574 -28q-102 0 -191 25.5t-160 75.5t-116 131.5t-54 186.5q-1 24 11.5 37.5t36.5 13.5h185q42 0 50 -47q26 -148 238 -148q104 0 158 40t54 105q0 30 -14 55.5t-34 43t-57 36t-66.5 30t-79.5 29.5q-167 59 -235 97q-181 99 -214 270q-9 43 -9 92q0 99 39 180
t104.5 131.5t148.5 77.5t174 27t172.5 -25t148 -74t109.5 -129.5t52 -182.5q1 -24 -12 -37.5t-37 -13.5h-184q-43 0 -51 47q-25 141 -198 141q-85 0 -135 -39.5t-50 -102.5q0 -38 16.5 -68t51 -54t70.5 -41t93 -38l42 -15q45 -16 68.5 -24.5t67 -26.5t68 -31.5t61 -36
t57.5 -43.5t46 -51.5t38 -62.5t22 -73.5t9 -87.5q0 -133 -69 -230t-179 -143.5t-246 -46.5zM617 -538q38 0 44 36l49 332q3 20 -7.5 31t-30.5 11h-165q-39 0 -42 -39l-16 -330q-3 -41 38 -41h130z" />
    <glyph glyph-name="scommaaccent" unicode="&#x219;" horiz-adv-x="983" 
d="M354 727q0 -36 30.5 -59t79 -36t107 -24.5t117.5 -32t107.5 -51.5t79 -89t30.5 -138q0 -157 -117.5 -241t-296.5 -84q-107 0 -194 32t-146 101.5t-71 169.5q-3 24 10 37.5t37 13.5h164q34 0 53 -42q25 -79 147 -79q73 0 111.5 24t38.5 68q0 35 -30.5 58t-79 36t-107 25
t-117.5 32.5t-107.5 51.5t-79 89t-30.5 138q0 104 56.5 179.5t146 110.5t198.5 35q99 0 181 -32t139.5 -102t69.5 -169q3 -24 -10 -37.5t-37 -13.5h-164q-20 0 -31 10t-21 33q-11 38 -45.5 58t-81.5 20q-64 0 -100.5 -24t-36.5 -68zM604 -128q20 0 30.5 -11t7.5 -31
l-50 -332q-6 -36 -44 -36h-129q-42 0 -39 41l17 330q3 39 41 39h166z" />
    <glyph glyph-name="uni021A" unicode="&#x21a;" horiz-adv-x="1024" 
d="M950 1434q48 0 48 -49v-173q0 -49 -48 -49h-297v-1114q0 -49 -49 -49h-184q-49 0 -49 49v1114h-297q-48 0 -48 49v173q0 49 48 49h579h297zM605 -128q20 0 30.5 -11t7.5 -31l-49 -332q-6 -36 -44 -36h-130q-41 0 -38 41l16 330q3 39 42 39h165z" />
    <glyph glyph-name="uni021B" unicode="&#x21b;" horiz-adv-x="684" 
d="M602 1024q48 0 48 -49v-156q0 -49 -48 -49h-128v-721q0 -49 -49 -49h-166q-49 0 -49 49v721h-128q-49 0 -49 49v156q0 49 49 49h128v279q0 49 49 49h166q49 0 49 -49v-279h128zM431 -128q20 0 30 -11t7 -31l-49 -332q-6 -36 -44 -36h-129q-42 0 -39 41l17 330q3 39 41 39
h166z" />
    <glyph glyph-name="circumflex" unicode="&#x2c6;" horiz-adv-x="784" 
d="M707 1185q14 -19 6.5 -33.5t-31.5 -14.5h-169q-32 0 -48 25l-73 108l-74 -108q-16 -25 -48 -25h-169q-24 0 -31.5 14.5t6.5 33.5l164 224q19 25 48 25h155h53q29 0 48 -25z" />
    <glyph glyph-name="caron" unicode="&#x2c7;" horiz-adv-x="784" 
d="M682 1434q24 0 31.5 -15t-6.5 -34l-163 -223q-19 -25 -48 -25h-156h-52q-29 0 -48 25l-164 223q-14 19 -6.5 34t31.5 15h169q32 0 48 -26l74 -108l73 108q16 26 48 26h169z" />
    <glyph glyph-name="breve" unicode="&#x2d8;" horiz-adv-x="763" 
d="M381 1120q-150 0 -237 66.5t-101 188.5q-3 42 39 42h157q33 0 43 -38q16 -69 99 -69t100 69q10 38 43 38h156q43 0 40 -37q-11 -125 -98.5 -192.5t-240.5 -67.5z" />
    <glyph glyph-name="dotaccent" unicode="&#x2d9;" horiz-adv-x="358" 
d="M81 1142q-40 0 -40 40v196q0 40 40 40h197q39 0 39 -40v-196q0 -40 -39 -40h-197z" />
    <glyph glyph-name="ring" unicode="&#x2da;" horiz-adv-x="600" 
d="M300 1103q-113 0 -186 70t-73 174t73 173.5t186 69.5q115 0 186.5 -69t71.5 -174t-71.5 -174.5t-186.5 -69.5zM300 1269q39 0 60 21.5t21 56.5q0 34 -21 55.5t-60 21.5q-38 0 -59 -21.5t-21 -55.5t21 -56t59 -22z" />
    <glyph glyph-name="ogonek" unicode="&#x2db;" horiz-adv-x="442" 
d="M237 -437q-88 0 -142 46t-54 132q0 119 135 259h226q-50 -53 -79 -105t-29 -89q-1 -30 15.5 -43.5t46.5 -11.5q46 3 46 -35v-88q0 -34 -26 -43q-62 -22 -139 -22z" />
    <glyph glyph-name="tilde" unicode="&#x2dc;" horiz-adv-x="776" 
d="M81 1146q-41 0 -38 42q6 103 41 167.5t88 84t115.5 8t126.5 -52.5q35 -24 55.5 -32t33.5 1t17 39q6 41 40 41h136q41 0 38 -42q-6 -103 -41 -167.5t-88 -84t-115.5 -8t-126.5 52.5q-35 24 -55.5 32t-33.5 -1t-17 -39q-6 -41 -40 -41h-136z" />
    <glyph glyph-name="hungarumlaut" unicode="&#x2dd;" horiz-adv-x="890" 
d="M73 1193q-14 -25 -4.5 -40.5t36.5 -15.5h160q37 0 57 32l116 192q15 25 6.5 41t-36.5 16h-170q-38 0 -57 -33zM431 1194q-15 -24 -5.5 -40.5t37.5 -16.5h158q38 0 57 30l131 194q16 25 7.5 41t-37.5 16h-168q-39 0 -57 -30z" />
    <glyph glyph-name="gravecomb" unicode="&#x300;" horiz-adv-x="0" 
d="M-97 1152q24 0 32 14t-4 34l-120 206q-14 28 -48 28h-222q-26 0 -33 -14.5t9 -35.5l169 -209q17 -23 49 -23h168z" />
    <glyph glyph-name="acutecomb" unicode="&#x301;" horiz-adv-x="0" 
d="M-489 1209q-14 -25 -4.5 -41t36.5 -16h152q38 0 59 27l158 196q19 23 10.5 41t-38.5 18h-205q-37 0 -56 -33z" />
    <glyph glyph-name="uni0302" unicode="&#x302;" horiz-adv-x="0" 
d="M-76 1185q14 -19 6.5 -33.5t-31.5 -14.5h-169q-32 0 -48 25l-74 108l-73 -108q-16 -25 -48 -25h-169q-24 0 -31.5 14.5t6.5 33.5l163 224q19 25 48 25h156h52q29 0 48 -25z" />
    <glyph glyph-name="tildecomb" unicode="&#x303;" horiz-adv-x="0" 
d="M-680 1146q-41 0 -38 42q6 103 41 167.5t88 84t115.5 8t126.5 -52.5q35 -24 55.5 -32t33 1t16.5 39q6 41 41 41h135q41 0 38 -42q-6 -103 -41 -167.5t-87.5 -84t-115 -8t-126.5 52.5q-35 24 -55.5 32t-33.5 -1t-17 -39q-6 -41 -41 -41h-135z" />
    <glyph glyph-name="uni0304" unicode="&#x304;" horiz-adv-x="0" 
d="M-595 1156q-40 0 -40 40v134q0 40 40 40h514q40 0 40 -40v-134q0 -40 -40 -40h-514z" />
    <glyph glyph-name="uni0306" unicode="&#x306;" horiz-adv-x="0" 
d="M-381 1120q-150 0 -237.5 66.5t-101.5 188.5q-3 42 40 42h156q33 0 43 -38q17 -69 100 -69t99 69q10 38 43 38h157q42 0 39 -37q-11 -125 -98 -192.5t-240 -67.5z" />
    <glyph glyph-name="uni0307" unicode="&#x307;" horiz-adv-x="0" 
d="M-280 1142q-40 0 -40 40v196q0 40 40 40h197q39 0 39 -40v-196q0 -40 -39 -40h-197z" />
    <glyph glyph-name="uni0308" unicode="&#x308;" horiz-adv-x="0" 
d="M-621 1149q-39 0 -39 40v161q0 40 39 40h161q40 0 40 -40v-161q0 -40 -40 -40h-161zM-242 1149q-40 0 -40 40v161q0 40 40 40h161q40 0 40 -40v-161q0 -40 -40 -40h-161z" />
    <glyph glyph-name="uni030A" unicode="&#x30a;" horiz-adv-x="0" 
d="M-307 1103q-113 0 -186 70t-73 174t73 173.5t186 69.5q115 0 186.5 -69t71.5 -174t-71.5 -174.5t-186.5 -69.5zM-307 1269q39 0 60.5 22t21.5 56t-21.5 55.5t-60.5 21.5q-38 0 -59 -21.5t-21 -55.5t21 -56t59 -22z" />
    <glyph glyph-name="uni030B" unicode="&#x30b;" horiz-adv-x="0" 
d="M-817 1193q-14 -25 -4.5 -40.5t37.5 -15.5h159q37 0 57 32l116 192q15 25 6.5 41t-36.5 16h-170q-38 0 -57 -33zM-459 1194q-15 -24 -5.5 -40.5t38.5 -16.5h157q39 0 58 30l131 194q16 25 7 41t-38 16h-168q-39 0 -57 -30z" />
    <glyph glyph-name="uni030C" unicode="&#x30c;" horiz-adv-x="0" 
d="M-101 1434q24 0 31.5 -15t-6.5 -34l-164 -223q-19 -25 -48 -25h-155h-53q-29 0 -48 25l-163 223q-14 19 -6.5 34t31.5 15h169q32 0 48 -26l73 -108l74 108q16 26 48 26h169z" />
    <glyph glyph-name="uni0312" unicode="&#x312;" horiz-adv-x="0" 
d="M-211 1997q-38 0 -44 -36l-49 -332q-3 -20 7.5 -31t30.5 -11h165q18 0 29.5 10.5t12.5 29.5l16 329q3 41 -38 41h-130z" />
    <glyph glyph-name="uni0326" unicode="&#x326;" horiz-adv-x="0" 
d="M-140 -538q38 0 44 36l49 332q3 20 -7.5 31t-30.5 11h-165q-39 0 -42 -39l-16 -330q-3 -41 38 -41h130z" />
    <glyph glyph-name="uni0327" unicode="&#x327;" horiz-adv-x="0" 
d="M-185 -94q61 -14 102.5 -53.5t41.5 -105.5q0 -207 -409 -191q-42 3 -42 42v105q0 40 45 40q177 -9 177 42q0 35 -91 48q-38 6 -38 42v125h214v-94z" />
    <glyph glyph-name="uni0328" unicode="&#x328;" horiz-adv-x="0" 
d="M-222 -437q-87 0 -141 46t-54 132q0 119 135 259h226q-50 -53 -79 -105t-29 -89q-1 -30 15.5 -43.5t46.5 -11.5q46 3 46 -35v-88q0 -34 -26 -43q-62 -22 -140 -22z" />
    <glyph glyph-name="uni0394" unicode="&#x394;" horiz-adv-x="1337" 
d="M1313 55q9 -26 -2.5 -40.5t-38.5 -14.5h-247h-769h-192q-27 0 -38 14.5t-2 40.5l455 1338q12 41 57 41h265q44 0 56 -41zM396 264h544l-272 856z" />
    <glyph glyph-name="uni03A9" unicode="&#x3a9;" horiz-adv-x="1591" 
d="M1540 748q0 -143 -59 -266.5t-163 -211.5h146q48 0 48 -48v-173q0 -49 -48 -49h-470q-48 0 -48 49v180q0 40 38 56q125 51 199.5 166t74.5 266q0 204 -132.5 337t-329.5 133t-330 -133t-133 -337q0 -151 74.5 -266t200.5 -166q38 -16 38 -56v-180q0 -49 -49 -49h-470
q-48 0 -48 49v173q0 48 48 48h146q-105 88 -163.5 211t-58.5 267q0 198 99.5 362t270.5 257.5t375 93.5t374.5 -93.5t270 -257.5t99.5 -362z" />
    <glyph glyph-name="pi" unicode="&#x3c0;" horiz-adv-x="1300" 
d="M1206 1024q48 0 48 -49v-150q0 -49 -48 -49h-114v-727q0 -49 -49 -49h-166q-49 0 -49 49v727h-347v-727q0 -49 -49 -49h-167q-48 0 -48 49v727h-122q-49 0 -49 49v150q0 49 49 49h386h611h114z" />
    <glyph glyph-name="uni0401" unicode="&#x401;" horiz-adv-x="1050" 
d="M284 1559q-40 0 -40 40v161q0 40 40 40h161q40 0 40 -40v-161q0 -40 -40 -40h-161zM663 1559q-40 0 -40 40v161q0 40 40 40h161q40 0 40 -40v-161q0 -40 -40 -40h-161zM934 270q49 0 49 -48v-173q0 -49 -49 -49h-709h-43q-49 0 -49 49v1336q0 49 49 49h233h509
q49 0 49 -49v-173q0 -49 -49 -49h-509v-306h458q49 0 49 -49v-167q0 -49 -49 -49h-458v-322h519z" />
    <glyph glyph-name="uni0402" unicode="&#x402;" horiz-adv-x="1357" 
d="M891 939q177 0 281 -103t104 -297v-142q0 -214 -97 -316.5t-299 -101.5q-23 0 -36 13.5t-13 36.5v164q0 42 53 50q60 5 85.5 41.5t25.5 112.5v115q0 173 -165 173q-87 0 -182 -39v-597q0 -49 -49 -49h-184q-49 0 -49 49v1114h-292q-48 0 -48 49v173q0 49 48 49h574h358
q49 0 49 -49v-173q0 -49 -49 -49h-358v-269q125 45 243 45z" />
    <glyph glyph-name="uni0403" unicode="&#x403;" horiz-adv-x="972" 
d="M451 1560q-27 0 -36.5 16t4.5 41l112 192q18 32 57 32h204q30 0 39 -18t-10 -41l-158 -195q-21 -27 -59 -27h-153zM899 1434q48 0 48 -49v-173q0 -49 -48 -49h-484v-1114q0 -49 -49 -49h-184q-49 0 -49 49v1336q0 49 49 49h233h484z" />
    <glyph glyph-name="uni0404" unicode="&#x404;" horiz-adv-x="1533" 
d="M1440 512q25 0 38 -14.5t6 -38.5q-60 -218 -248 -352.5t-438 -134.5q-159 0 -296 57.5t-232 157.5t-149 237t-54 293t54 293t149 236.5t232 157t296 57.5q250 0 437.5 -134t248.5 -352q7 -24 -6 -38.5t-38 -14.5h-197q-41 0 -57 40q-44 104 -147 164.5t-241 60.5
q-170 0 -284.5 -91t-150.5 -247h590q48 0 48 -49v-167q0 -48 -48 -48h-590q36 -156 150.5 -247t284.5 -91q139 0 242.5 60.5t147.5 164.5q15 40 55 40h197z" />
    <glyph glyph-name="uni0405" unicode="&#x405;" horiz-adv-x="1118" 
d="M574 -28q-102 0 -191 25.5t-160 75.5t-116 131.5t-54 186.5q-1 24 11.5 37.5t36.5 13.5h185q42 0 50 -47q26 -148 238 -148q104 0 158 40t54 105q0 30 -14 55.5t-34 43t-57 36t-66.5 30t-79.5 29.5q-167 59 -235 97q-181 99 -214 270q-9 43 -9 92q0 99 39 180
t104.5 131.5t148.5 77.5t174 27t172.5 -25t148 -74t109.5 -129.5t52 -182.5q1 -24 -12 -37.5t-37 -13.5h-184q-43 0 -51 47q-25 141 -198 141q-85 0 -135 -39.5t-50 -102.5q0 -38 16.5 -68t51 -54t70.5 -41t93 -38l42 -15q45 -16 68.5 -24.5t67 -26.5t68 -31.5t61 -36
t57.5 -43.5t46 -51.5t38 -62.5t22 -73.5t9 -87.5q0 -133 -69 -230t-179 -143.5t-246 -46.5z" />
    <glyph glyph-name="uni0406" unicode="&#x406;" horiz-adv-x="548" 
d="M133 1385q0 49 49 49h184q49 0 49 -49v-1336q0 -49 -49 -49h-184q-49 0 -49 49v1336z" />
    <glyph glyph-name="uni0407" unicode="&#x407;" horiz-adv-x="548" 
d="M4 1559q-40 0 -40 40v161q0 40 40 40h161q40 0 40 -40v-161q0 -40 -40 -40h-161zM383 1559q-40 0 -40 40v161q0 40 40 40h161q40 0 40 -40v-161q0 -40 -40 -40h-161zM133 1385q0 49 49 49h184q49 0 49 -49v-1336q0 -49 -49 -49h-184q-49 0 -49 49v1336z" />
    <glyph glyph-name="uni0408" unicode="&#x408;" horiz-adv-x="1101" 
d="M507 -28q-92 0 -172.5 25.5t-147 76.5t-109 137t-50.5 198q-3 51 46 51h186q43 0 51 -49q18 -164 196 -164q96 0 148 45t52 132v961q0 49 48 49h185q48 0 48 -49v-961q0 -112 -40 -200.5t-108 -142.5t-153 -81.5t-180 -27.5z" />
    <glyph glyph-name="uni0409" unicode="&#x409;" horiz-adv-x="1886" 
d="M1352 896q206 0 345 -126.5t139 -321.5q0 -129 -64.5 -232t-174.5 -159.5t-245 -56.5h-402h-44q-48 0 -48 49v1114h-300v-569q0 -119 -18.5 -214t-53 -160t-79 -111t-101 -71.5t-114 -35.5t-122.5 -8q-23 0 -35 13.5t-12 35.5v165q0 48 50 46q101 -1 152 74.5t51 257.5
v799q0 49 49 49h766q48 0 48 -49v-489h213zM1352 264q89 0 145.5 48.5t56.5 135.5t-56.5 135.5t-145.5 48.5h-213v-368h213z" />
    <glyph glyph-name="uni040A" unicode="&#x40a;" horiz-adv-x="1880" 
d="M1344 896q206 0 345 -126.5t139 -321.5q0 -129 -64.5 -232t-174.5 -159.5t-245 -56.5h-402h-43q-49 0 -49 49v583h-435v-583q0 -49 -49 -49h-184q-49 0 -49 49v1336q0 49 49 49h184q49 0 49 -49v-489h435v489q0 49 49 49h184q49 0 49 -49v-489h212zM1344 264
q89 0 145.5 48.5t56.5 135.5t-56.5 135.5t-145.5 48.5h-212v-368h212z" />
    <glyph glyph-name="uni040B" unicode="&#x40b;" horiz-adv-x="1368" 
d="M891 939q177 0 281 -103t104 -297v-490q0 -49 -48 -49h-185q-48 0 -48 49v463q0 173 -165 173q-87 0 -182 -39v-597q0 -49 -49 -49h-184q-49 0 -49 49v1114h-292q-48 0 -48 49v173q0 49 48 49h574h358q49 0 49 -49v-173q0 -49 -49 -49h-358v-269q125 45 243 45z" />
    <glyph glyph-name="uni040C" unicode="&#x40c;" horiz-adv-x="1259" 
d="M533 1560q-27 0 -36.5 16t4.5 41l112 192q18 32 57 32h204q30 0 39 -18t-10 -41l-159 -195q-21 -27 -58 -27h-153zM1209 59q17 -25 8 -42t-38 -17h-215q-39 0 -59 30l-490 643v-624q0 -49 -49 -49h-184q-49 0 -49 49v1336q0 49 49 49h184q49 0 49 -49v-585l469 604
q24 30 59 30h215q30 0 39 -17.5t-9 -41.5l-486 -639z" />
    <glyph glyph-name="uni040E" unicode="&#x40e;" horiz-adv-x="1228" 
d="M353 1563q-49 0 -49 49v132q0 49 49 49h496q49 0 49 -49v-132q0 -49 -49 -49h-496zM1148 1434q27 0 37 -15.5t0 -41.5l-406 -982q-163 -393 -517 -396q-23 -1 -36 12.5t-13 37.5v165q0 47 51 47q92 1 151.5 44t99.5 127l-442 945q-11 26 -1.5 41.5t37.5 15.5h179
q40 0 57 -37l297 -656l268 656q14 37 57 37h181z" />
    <glyph glyph-name="uni040F" unicode="&#x40f;" horiz-adv-x="1306" 
d="M1124 1434q48 0 48 -49v-1336q0 -49 -48 -49h-233h-97v-246q0 -49 -49 -49h-184q-49 0 -49 49v246h-287h-43q-49 0 -49 49v1336q0 49 49 49h184q49 0 49 -49v-1115h476v1115q0 49 49 49h184z" />
    <glyph glyph-name="uni0410" unicode="&#x410;" horiz-adv-x="1337" 
d="M1313 55q9 -26 -2.5 -40.5t-38.5 -14.5h-205q-44 0 -55 40l-69 217h-550l-69 -217q-11 -40 -55 -40h-205q-27 0 -38 14.5t-2 40.5l455 1338q12 41 57 41h265q44 0 56 -41zM477 521h382l-191 599z" />
    <glyph glyph-name="uni0411" unicode="&#x411;" horiz-adv-x="1198" 
d="M681 891q210 0 343 -124.5t133 -321.5t-133 -321t-343 -124h-456h-43q-49 0 -49 49v1336q0 49 49 49h233h571q48 0 48 -49v-173q0 -49 -48 -49h-571v-272h266zM681 264q84 0 139.5 47.5t55.5 133.5t-55.5 134t-139.5 48h-266v-363h266z" />
    <glyph glyph-name="uni0412" unicode="&#x412;" horiz-adv-x="1402" 
d="M1100 872q114 -59 180.5 -169t66.5 -247q0 -194 -129.5 -325t-323.5 -131h-679h-33q-49 0 -49 49v1336q0 49 49 49h233h314q183 0 303 -110t120 -277q0 -93 -52 -175zM729 1169h-314v-242h412q43 43 43 104t-38.5 99.5t-102.5 38.5zM858 264q100 0 153.5 58t53.5 149
t-53 149t-152 58h-445v-414h443z" />
    <glyph glyph-name="uni0413" unicode="&#x413;" horiz-adv-x="972" 
d="M899 1434q48 0 48 -49v-173q0 -49 -48 -49h-484v-1114q0 -49 -49 -49h-184q-49 0 -49 49v1336q0 49 49 49h233h484z" />
    <glyph glyph-name="uni0414" unicode="&#x414;" horiz-adv-x="1398" 
d="M1293 264q48 0 48 -48v-216v-246q0 -49 -48 -49h-185q-48 0 -48 49v246h-748v-246q0 -49 -48 -49h-185q-48 0 -48 49v320v142q0 48 48 48h86q124 162 124 491v630q0 49 48 49h802q49 0 49 -49v-1121h105zM469 264h437v905h-336v-418q0 -318 -101 -487z" />
    <glyph glyph-name="uni0415" unicode="&#x415;" horiz-adv-x="1050" 
d="M934 270q49 0 49 -48v-173q0 -49 -49 -49h-709h-43q-49 0 -49 49v1336q0 49 49 49h233h509q49 0 49 -49v-173q0 -49 -49 -49h-509v-306h458q49 0 49 -49v-167q0 -49 -49 -49h-458v-322h519z" />
    <glyph glyph-name="uni0416" unicode="&#x416;" horiz-adv-x="1851" 
d="M1786 59q17 -25 7.5 -42t-39.5 -17h-204q-38 0 -59 32l-425 622v-605q0 -49 -48 -49h-184q-49 0 -49 49v605l-425 -622q-21 -32 -59 -32h-204q-29 0 -38.5 17t7.5 42l458 671l-438 645q-17 25 -7.5 42t39.5 17h204q37 0 58 -32l405 -611v594q0 49 49 49h184q48 0 48 -49
v-594l405 611q21 32 59 32h204q30 0 39 -17t-8 -42l-437 -645z" />
    <glyph glyph-name="uni0417" unicode="&#x417;" horiz-adv-x="1116" 
d="M890 842q96 -64 148.5 -164t52.5 -225q0 -213 -145.5 -347t-387.5 -134q-226 0 -369 124.5t-161 321.5q-3 50 48 50h185q40 0 51 -45q13 -82 76.5 -134t169.5 -52q122 0 186.5 60t64.5 156t-63 156t-180 60h-62q-48 0 -48 48v165q0 49 48 49h62q33 0 63 -3q72 46 72 131
q0 62 -41.5 100t-119.5 38q-63 0 -103 -26t-52 -69q-9 -23 -20 -33t-32 -10h-186q-24 0 -37 13t-12 37q18 158 138.5 255t303.5 97q197 0 320 -109.5t123 -277.5q0 -131 -93 -232z" />
    <glyph glyph-name="uni0418" unicode="&#x418;" horiz-adv-x="1320" 
d="M906 49v837l-537 -855q-18 -31 -60 -31h-127q-49 0 -49 49v1336q0 49 49 49h184q49 0 49 -49v-837l537 854q19 32 60 32h127q49 0 49 -49v-1336q0 -49 -49 -49h-184q-49 0 -49 49z" />
    <glyph glyph-name="uni0419" unicode="&#x419;" horiz-adv-x="1320" 
d="M433 1565q-49 0 -49 49v132q0 49 49 49h496q49 0 49 -49v-132q0 -49 -49 -49h-496zM906 49v837l-537 -855q-18 -31 -60 -31h-127q-49 0 -49 49v1336q0 49 49 49h184q49 0 49 -49v-837l537 854q19 32 60 32h127q49 0 49 -49v-1336q0 -49 -49 -49h-184q-49 0 -49 49z" />
    <glyph glyph-name="uni041A" unicode="&#x41a;" horiz-adv-x="1259" 
d="M1209 59q17 -25 8 -42t-38 -17h-215q-39 0 -59 30l-490 643v-624q0 -49 -49 -49h-184q-49 0 -49 49v1336q0 49 49 49h184q49 0 49 -49v-585l469 604q24 30 59 30h215q30 0 39 -17.5t-9 -41.5l-486 -639z" />
    <glyph glyph-name="uni041B" unicode="&#x41b;" horiz-adv-x="1312" 
d="M70 -6q-23 0 -35 13.5t-12 35.5v165q0 48 50 46q101 -1 152 74.5t51 257.5v799q0 49 49 49h807q48 0 48 -49v-1336q0 -49 -48 -49h-185q-48 0 -48 49v1114h-341v-569q0 -119 -18.5 -214t-53 -160t-79 -111t-101 -71.5t-114 -35.5t-122.5 -8z" />
    <glyph glyph-name="uni041C" unicode="&#x41c;" horiz-adv-x="1669" 
d="M1487 1434q49 0 49 -49v-1336q0 -49 -49 -49h-184q-49 0 -49 49v914l-301 -697q-14 -37 -56 -37h-124q-43 0 -57 37l-301 697v-914q0 -49 -49 -49h-184q-49 0 -49 49v1336q0 49 49 49h184h48q43 0 57 -37l364 -840l364 840q14 37 56 37h140h92z" />
    <glyph glyph-name="uni041D" unicode="&#x41d;" horiz-adv-x="1306" 
d="M1124 1434q48 0 48 -49v-1336q0 -49 -48 -49h-184q-49 0 -49 49v553h-476v-553q0 -49 -49 -49h-184q-49 0 -49 49v1336q0 49 49 49h184q49 0 49 -49v-513h476v513q0 49 49 49h184z" />
    <glyph glyph-name="uni041E" unicode="&#x41e;" horiz-adv-x="1622" 
d="M811 -28q-152 0 -290 58t-237.5 157t-158 237.5t-58.5 292.5q0 206 99.5 377t270 269t374.5 98t374.5 -98t270 -269t99.5 -377q0 -154 -58.5 -292.5t-158 -237.5t-237.5 -157t-290 -58zM811 247q197 0 330 133t133 337t-133 337t-330 133t-330 -133t-133 -337t133 -337
t330 -133z" />
    <glyph glyph-name="uni041F" unicode="&#x41f;" horiz-adv-x="1306" 
d="M1124 1434q48 0 48 -49v-1336q0 -49 -48 -49h-184q-49 0 -49 49v1114h-476v-1114q0 -49 -49 -49h-184q-49 0 -49 49v1336q0 49 49 49h233h665h44z" />
    <glyph glyph-name="uni0420" unicode="&#x420;" horiz-adv-x="1204" 
d="M668 1434q133 0 244.5 -64t175.5 -173.5t64 -239.5t-64 -239.5t-175.5 -173t-244.5 -63.5h-253v-432q0 -49 -49 -49h-184q-49 0 -49 49v1336q0 49 49 49h233h253zM668 745q86 0 144 61t58 151t-58 151t-144 61h-253v-424h253z" />
    <glyph glyph-name="uni0421" unicode="&#x421;" horiz-adv-x="1540" 
d="M814 -28q-213 0 -384.5 98.5t-267 268.5t-95.5 378q0 155 56 292.5t154 237t237.5 157t299.5 57.5q239 0 427 -134t254 -351q7 -24 -5 -39t-37 -15h-199q-37 0 -55 38q-48 104 -151.5 165.5t-233.5 61.5q-209 0 -337.5 -131t-128.5 -339t128.5 -339t337.5 -131
q130 0 233.5 61.5t151.5 165.5q18 38 55 38h199q25 0 37.5 -14t5.5 -37q-64 -217 -252.5 -353t-429.5 -136z" />
    <glyph glyph-name="uni0422" unicode="&#x422;" horiz-adv-x="1024" 
d="M950 1434q48 0 48 -49v-173q0 -49 -48 -49h-297v-1114q0 -49 -49 -49h-184q-49 0 -49 49v1114h-297q-48 0 -48 49v173q0 49 48 49h579h297z" />
    <glyph glyph-name="uni0423" unicode="&#x423;" horiz-adv-x="1228" 
d="M1148 1434q27 0 37 -15.5t0 -41.5l-406 -982q-163 -393 -517 -396q-23 -1 -36 12.5t-13 37.5v165q0 47 51 47q92 1 151.5 44t99.5 127l-442 945q-11 26 -1.5 41.5t37.5 15.5h179q40 0 57 -37l297 -656l268 656q14 37 57 37h181z" />
    <glyph glyph-name="uni0424" unicode="&#x424;" horiz-adv-x="1677" 
d="M1631 717q0 -244 -177.5 -397.5t-477.5 -183.5v-118q0 -49 -48 -49h-178q-49 0 -49 49v118q-300 30 -477.5 183.5t-177.5 397.5t177.5 397.5t477.5 183.5v118q0 48 49 48h178q48 0 48 -48v-118q300 -30 477.5 -183.5t177.5 -397.5zM328 717q0 -283 373 -324v647
q-373 -41 -373 -323zM976 393q374 41 374 324q0 282 -374 323v-647z" />
    <glyph glyph-name="uni0425" unicode="&#x425;" horiz-adv-x="1228" 
d="M1169 58q14 -26 5 -42t-37 -16h-214q-39 0 -58 33l-251 429l-250 -429q-19 -33 -58 -33h-214q-28 0 -37.5 16t4.5 42l396 679l-373 638q-14 25 -4.5 42t37.5 17h214q39 0 58 -33l227 -390l228 390q19 33 58 33h214q28 0 37 -17t-5 -42l-372 -638z" />
    <glyph glyph-name="uni0426" unicode="&#x426;" horiz-adv-x="1382" 
d="M1172 270h105q49 0 49 -48v-468q0 -49 -49 -49h-184q-49 0 -49 49v246h-862q-49 0 -49 49v1336q0 49 49 49h184q49 0 49 -49v-1115h476v1115q0 49 49 49h184q48 0 48 -49v-1115z" />
    <glyph glyph-name="uni0427" unicode="&#x427;" horiz-adv-x="1261" 
d="M1080 1434q49 0 49 -49v-1336q0 -49 -49 -49h-184q-49 0 -49 49v463q-119 -43 -246 -43q-142 0 -254.5 53t-178.5 157t-66 243v463q0 49 49 49h184q49 0 49 -49v-427q0 -103 60.5 -161t162.5 -58q131 0 240 45v601q0 49 49 49h184z" />
    <glyph glyph-name="uni0428" unicode="&#x428;" horiz-adv-x="1849" 
d="M1434 1385q0 49 48 49h185q48 0 48 -49v-1336q0 -49 -48 -49h-1485q-49 0 -49 49v1336q0 49 49 49h184q49 0 49 -49v-1115h368v1115q0 49 49 49h184q49 0 49 -49v-1115h369v1115z" />
    <glyph glyph-name="uni0429" unicode="&#x429;" horiz-adv-x="1925" 
d="M1715 270h105q49 0 49 -48v-468q0 -49 -49 -49h-184q-49 0 -49 49v246h-1405q-49 0 -49 49v1336q0 49 49 49h184q49 0 49 -49v-1115h368v1115q0 49 49 49h184q49 0 49 -49v-1115h369v1115q0 49 48 49h185q48 0 48 -49v-1115z" />
    <glyph glyph-name="uni042A" unicode="&#x42a;" horiz-adv-x="1413" 
d="M392 0q-49 0 -49 49v1114h-294q-49 0 -49 49v173q0 49 49 49h527q49 0 49 -49v-433h253q133 0 244.5 -63.5t175.5 -173t64 -239.5q0 -198 -140.5 -337t-343.5 -139h-486zM625 264h253q86 0 144 61t58 151t-58 151t-144 61h-253v-424z" />
    <glyph glyph-name="uni042B" unicode="&#x42b;" horiz-adv-x="1697" 
d="M182 0q-49 0 -49 49v1336q0 49 49 49h184q49 0 49 -49v-433h253q133 0 244.5 -63.5t175.5 -173t64 -239.5q0 -198 -140.5 -337t-343.5 -139h-486zM1331 0q-48 0 -48 49v1336q0 49 48 49h185q48 0 48 -49v-1336q0 -49 -48 -49h-185zM415 264h253q86 0 144 61t58 151
t-58 151t-144 61h-253v-424z" />
    <glyph glyph-name="uni042C" unicode="&#x42c;" horiz-adv-x="1204" 
d="M668 952q133 0 244.5 -63.5t175.5 -173t64 -239.5q0 -198 -140.5 -337t-343.5 -139h-443h-43q-49 0 -49 49v1336q0 49 49 49h184q49 0 49 -49v-433h253zM668 264q86 0 144 61t58 151t-58 151t-144 61h-253v-424h253z" />
    <glyph glyph-name="uni042D" unicode="&#x42d;" horiz-adv-x="1533" 
d="M736 1461q159 0 296 -57.5t232 -157t149 -236.5t54 -293t-54 -293t-149 -237t-232 -157.5t-296 -57.5q-250 0 -438 134.5t-248 352.5q-7 24 6 38.5t38 14.5h197q40 0 55 -40q44 -104 147.5 -164.5t242.5 -60.5q170 0 284.5 91t150.5 247h-590q-49 0 -49 48v167
q0 49 49 49h590q-36 156 -150.5 247t-284.5 91q-138 0 -241 -60.5t-147 -164.5q-16 -40 -57 -40h-197q-25 0 -38 14.5t-6 38.5q61 218 248.5 352t437.5 134z" />
    <glyph glyph-name="uni042E" unicode="&#x42e;" horiz-adv-x="2160" 
d="M1350 1461q204 0 374.5 -98t270 -269t99.5 -377q0 -153 -58.5 -291.5t-158 -237.5t-237.5 -157.5t-290 -58.5q-138 0 -264 48t-221 131t-159 200t-84 251h-207v-553q0 -49 -49 -49h-184q-49 0 -49 49v1336q0 49 49 49h184q49 0 49 -49v-513h214q52 258 252.5 423.5
t468.5 165.5zM1350 247q197 0 329.5 133t132.5 337t-132.5 337t-329.5 133q-198 0 -330.5 -131t-132.5 -339q0 -204 133 -337t330 -133z" />
    <glyph glyph-name="uni042F" unicode="&#x42f;" horiz-adv-x="1300" 
d="M1119 1434q48 0 48 -49v-1336q0 -49 -48 -49h-185q-48 0 -48 49v448h-132l-382 -468q-22 -29 -60 -29h-223q-31 0 -40 18.5t11 41.5l394 469q-137 52 -221.5 169.5t-84.5 258.5q0 130 64 239.5t175.5 173.5t244.5 64h443h44zM640 745h246v424h-246q-87 0 -148.5 -61.5
t-61.5 -150.5t61.5 -150.5t148.5 -61.5z" />
    <glyph glyph-name="uni0430" unicode="&#x430;" horiz-adv-x="1042" 
d="M530 1052q86 0 160.5 -25.5t132.5 -74.5t91 -127t33 -175v-601q0 -49 -48 -49h-161q-49 0 -49 49v40q-96 -117 -277 -117q-94 0 -170.5 34.5t-125.5 109.5t-49 178t49 178t125.5 109.5t170.5 34.5q175 0 277 -90v109q0 172 -159 172q-58 0 -98 -23.5t-53 -64.5
q-9 -23 -20 -33t-31 -10h-164q-24 0 -36.5 13.5t-11.5 37.5q19 152 135 238.5t279 86.5zM501 167q86 0 137 35.5t51 91.5q0 59 -50.5 93.5t-137.5 34.5q-84 0 -127 -35t-43 -93t43 -92.5t127 -34.5z" />
    <glyph glyph-name="uni0431" unicode="&#x431;" horiz-adv-x="1153" 
d="M598 -28q-233 0 -382 147t-149 375q0 112 31.5 209.5t83 167.5t114.5 130.5t128.5 109.5t122 92.5t98.5 91.5t55 95q12 44 53 44h183q24 0 37.5 -13.5t11.5 -37.5q-9 -78 -46 -141.5t-87.5 -104.5t-114 -81.5t-121.5 -71t-114 -73.5t-87 -89q108 84 259 84
q79 0 157 -32.5t141.5 -89.5t103 -144t39.5 -188q0 -208 -145 -344t-372 -136zM596 214q111 0 183 67.5t72 170.5q0 104 -74.5 172.5t-187.5 68.5q-100 0 -177 -63t-77 -169q0 -108 75 -177.5t186 -69.5z" />
    <glyph glyph-name="uni0432" unicode="&#x432;" horiz-adv-x="1075" 
d="M870 607q86 -39 131.5 -113t45.5 -168q0 -142 -95.5 -234t-273.5 -92h-460h-49q-49 0 -49 49v926q0 49 49 49h200h222q148 0 238 -79.5t90 -197.5q0 -76 -49 -140zM553 811h-184v-167h284q17 29 17 62q0 48 -31 77t-86 28zM655 219q65 0 99.5 30t34.5 85q0 110 -134 110
h-286v-225h286z" />
    <glyph glyph-name="uni0433" unicode="&#x433;" horiz-adv-x="784" 
d="M732 1024q49 0 49 -49v-156q0 -49 -49 -49h-347v-721q0 -49 -49 -49h-167q-49 0 -49 49v926q0 49 49 49h216h347z" />
    <glyph glyph-name="uni0434" unicode="&#x434;" horiz-adv-x="1183" 
d="M1088 239q49 0 49 -49v-190v-246q0 -49 -49 -49h-161q-48 0 -48 49v246h-595v-246q0 -49 -49 -49h-161q-48 0 -48 49v320v116q0 49 48 49h72q47 67 70.5 152t23.5 219v365q0 49 48 49h210h407h47q49 0 49 -49v-736h87zM430 239h313v546h-245v-175q0 -219 -68 -371z" />
    <glyph glyph-name="uni0435" unicode="&#x435;" horiz-adv-x="1179" 
d="M609 1052q148 0 266 -72t182 -195.5t64 -273.5q0 -33 -3 -63q-6 -45 -53 -45h-211h-512q26 -106 100 -159t177 -53q56 0 106 20.5t81 54.5q29 27 60 27l164 1q27 0 39 -15t1 -38q-57 -129 -177 -199t-278 -70q-246 0 -397 153.5t-151 386.5q0 151 67.5 274t192 194.5
t282.5 71.5zM340 611h517q-22 103 -90.5 153.5t-158.5 50.5q-104 0 -174.5 -54t-93.5 -150z" />
    <glyph glyph-name="uni0436" unicode="&#x436;" horiz-adv-x="1527" 
d="M1461 59q17 -25 8 -42t-38 -17h-186q-38 0 -59 32l-293 426v-409q0 -49 -49 -49h-160q-49 0 -49 49v409l-293 -426q-21 -32 -59 -32h-186q-29 0 -38 17t8 42l328 458l-308 448q-17 25 -8 42t39 17h186q39 0 58 -32l273 -413v396q0 49 49 49h160q49 0 49 -49v-396l272 413
q19 32 59 32h186q30 0 39 -17t-8 -42l-308 -448z" />
    <glyph glyph-name="uni0437" unicode="&#x437;" horiz-adv-x="890" 
d="M721 584q137 -88 137 -264q0 -149 -109 -248.5t-304 -99.5q-180 0 -286.5 84.5t-123.5 222.5q-1 24 12 37t37 13h165q36 0 53 -43q24 -78 143 -78q74 0 112.5 32.5t38.5 91.5q0 54 -40 86.5t-111 32.5h-46q-48 0 -48 48v103q0 48 48 48h57h25q50 35 50 86q0 42 -28 64
t-75 22q-76 0 -95 -52q-12 -23 -22.5 -32.5t-29.5 -9.5h-161q-24 0 -37.5 13t-9.5 37q15 129 109.5 201.5t252.5 72.5q162 0 256.5 -83.5t94.5 -209.5q0 -103 -65 -175z" />
    <glyph glyph-name="uni0438" unicode="&#x438;" horiz-adv-x="1116" 
d="M777 993q22 31 58 31h112q49 0 49 -49v-926q0 -49 -49 -49h-161q-48 0 -48 49v545l-399 -563q-22 -31 -58 -31h-112q-49 0 -49 49v926q0 49 49 49h161q48 0 48 -49v-545z" />
    <glyph glyph-name="uni0439" unicode="&#x439;" horiz-adv-x="1116" 
d="M310 1156q-49 0 -49 48v132q0 49 49 49h496q49 0 49 -49v-132q0 -48 -49 -48h-496zM777 993q22 31 58 31h112q49 0 49 -49v-926q0 -49 -49 -49h-161q-48 0 -48 49v545l-399 -563q-22 -31 -58 -31h-112q-49 0 -49 49v926q0 49 49 49h161q48 0 48 -49v-545z" />
    <glyph glyph-name="uni043A" unicode="&#x43a;" horiz-adv-x="1058" 
d="M1002 59q19 -24 10.5 -41.5t-38.5 -17.5h-195q-37 0 -58 30l-336 432v-413q0 -49 -49 -49h-167q-49 0 -49 49v926q0 49 49 49h167q49 0 49 -49v-401l315 420q21 30 59 30h196q30 0 38.5 -17t-9.5 -42l-345 -448z" />
    <glyph glyph-name="uni043B" unicode="&#x43b;" horiz-adv-x="1062" 
d="M893 1024q49 0 49 -49v-926q0 -49 -49 -49h-166q-49 0 -49 49v721h-225v-343q0 -438 -384 -441q-23 0 -36 13.5t-13 36.5v151q0 22 12 32.5t36 14.5q120 15 120 208v533q0 49 49 49h216h393h47z" />
    <glyph glyph-name="uni043C" unicode="&#x43c;" horiz-adv-x="1337" 
d="M1167 1024q49 0 49 -49v-926q0 -49 -49 -49h-157q-49 0 -49 49v583l-203 -406q-18 -35 -57 -35h-69q-36 0 -53 35l-204 406v-583q0 -49 -48 -49h-158q-49 0 -49 49v926q0 49 49 49h158h33q40 0 57 -35l251 -500l252 500q18 35 56 35h45h146z" />
    <glyph glyph-name="uni043D" unicode="&#x43d;" horiz-adv-x="1116" 
d="M947 1024q49 0 49 -49v-926q0 -49 -49 -49h-167q-48 0 -48 49v339h-347v-339q0 -49 -49 -49h-167q-49 0 -49 49v926q0 49 49 49h167q49 0 49 -49v-339h347v339q0 49 48 49h167z" />
    <glyph glyph-name="uni043E" unicode="&#x43e;" horiz-adv-x="1216" 
d="M608 -28q-149 0 -273 71t-196 195t-72 274t72 274t196 195t273 71t273 -71t196.5 -195t72.5 -274t-72.5 -274t-196.5 -195t-273 -71zM608 229q119 0 198.5 80t79.5 203t-79.5 203t-198.5 80t-198 -79.5t-79 -203.5t79 -203.5t198 -79.5z" />
    <glyph glyph-name="uni043F" unicode="&#x43f;" horiz-adv-x="1116" 
d="M947 1024q49 0 49 -49v-926q0 -49 -49 -49h-167q-48 0 -48 49v727h-347v-727q0 -49 -49 -49h-167q-49 0 -49 49v926q0 49 49 49h216h515h47z" />
    <glyph glyph-name="uni0440" unicode="&#x440;" horiz-adv-x="1282" 
d="M717 1052q101 0 193 -42t159 -113.5t107 -172t40 -212.5t-40 -212.5t-107 -172t-159 -113.5t-193 -42q-215 0 -332 149v-482q0 -49 -49 -49h-167q-49 0 -49 49v1336q0 49 49 49h167q49 0 49 -49v-72q117 149 332 149zM668 223q123 0 203.5 80.5t80.5 208.5t-80.5 208.5
t-203.5 80.5t-203 -80.5t-80 -208.5t80 -208.5t203 -80.5z" />
    <glyph glyph-name="uni0441" unicode="&#x441;" horiz-adv-x="1159" 
d="M1064 374q25 0 37.5 -15.5t3.5 -39.5q-50 -155 -186.5 -251t-310.5 -96q-232 0 -386.5 155t-154.5 385t154.5 385t386.5 155q174 0 310.5 -96t186.5 -251q9 -24 -3.5 -39.5t-37.5 -15.5h-183q-36 0 -59 34q-32 51 -88.5 79.5t-125.5 28.5q-118 0 -197.5 -79t-79.5 -201
t79.5 -201t197.5 -79q69 0 125.5 28t88.5 78q22 36 59 36h183z" />
    <glyph glyph-name="uni0442" unicode="&#x442;" horiz-adv-x="866" 
d="M796 1024q49 0 49 -49v-150q0 -49 -49 -49h-230v-727q0 -49 -48 -49h-167q-49 0 -49 49v727h-233q-49 0 -49 49v150q0 49 49 49h727z" />
    <glyph glyph-name="uni0443" unicode="&#x443;" horiz-adv-x="1013" 
d="M950 1024q27 0 38.5 -14.5t2.5 -40.5l-329 -969q-68 -203 -195 -305.5t-298 -104.5q-23 -1 -35.5 12t-12.5 37v150q0 46 48 49q84 6 134.5 48t81.5 130l-369 952q-9 25 2 40.5t37 15.5h181q39 0 54 -38l233 -636l192 634q11 40 55 40h180z" />
    <glyph glyph-name="uni0444" unicode="&#x444;" horiz-adv-x="1402" 
d="M1336 512q0 -205 -135.5 -350t-370.5 -178v-345q0 -49 -48 -49h-161q-49 0 -49 49v345q-235 33 -370 178t-135 350t135 350t370 178v345q0 49 49 49h161q48 0 48 -49v-345q235 -33 370.5 -178t135.5 -350zM328 512q0 -104 63 -177t181 -99v552q-118 -26 -181 -99
t-63 -177zM830 236q118 26 181.5 99t63.5 177t-63.5 177t-181.5 99v-552z" />
    <glyph glyph-name="uni0445" unicode="&#x445;" horiz-adv-x="968" 
d="M920 58q16 -25 6.5 -41.5t-39.5 -16.5h-173q-38 0 -59 33l-171 270l-172 -270q-21 -33 -58 -33h-174q-29 0 -38.5 16.5t6.5 41.5l295 467l-280 441q-16 25 -6.5 41.5t39.5 16.5h174q37 0 58 -33l156 -245l155 245q21 33 59 33h173q30 0 39.5 -16.5t-6.5 -41.5l-280 -441z
" />
    <glyph glyph-name="uni0446" unicode="&#x446;" horiz-adv-x="1177" 
d="M960 248h123q49 0 49 -49v-445q0 -49 -49 -49h-161q-49 0 -49 49v246h-704q-49 0 -49 49v926q0 49 49 49h167q49 0 49 -49v-727h311v727q0 49 48 49h167q49 0 49 -49v-727z" />
    <glyph glyph-name="uni0447" unicode="&#x447;" horiz-adv-x="1046" 
d="M878 1024q49 0 49 -49v-926q0 -49 -49 -49h-167q-48 0 -48 49v277q-109 -38 -222 -38q-166 0 -267.5 90.5t-101.5 258.5v338q0 49 48 49h167q49 0 49 -49v-307q0 -133 151 -133q92 0 176 39v401q0 49 48 49h167z" />
    <glyph glyph-name="uni0448" unicode="&#x448;" horiz-adv-x="1583" 
d="M1413 1024q49 0 49 -49v-926q0 -49 -49 -49h-215h-539h-451h-39q-49 0 -49 49v926q0 49 49 49h167q49 0 49 -49v-727h274v727q0 49 49 49h166q49 0 49 -49v-727h275v727q0 49 48 49h167z" />
    <glyph glyph-name="uni0449" unicode="&#x449;" horiz-adv-x="1613" 
d="M1518 248q49 0 49 -49v-199v-246q0 -49 -49 -49h-161q-48 0 -48 49v246h-1101h-39q-49 0 -49 49v926q0 49 49 49h167q49 0 49 -49v-727h259v727q0 49 48 49h167q49 0 49 -49v-727h259v727q0 49 48 49h167q49 0 49 -49v-727h87z" />
    <glyph glyph-name="uni044A" unicode="&#x44a;" horiz-adv-x="1175" 
d="M742 696q174 0 280.5 -96t106.5 -252t-106.5 -252t-280.5 -96h-399h-15q-49 0 -49 49v727h-230q-49 0 -49 49v150q0 49 49 49h320h126q48 0 48 -49v-279h199zM744 232q56 0 91.5 32t35.5 84t-35.5 84t-91.5 32h-201v-232h201z" />
    <glyph glyph-name="uni044B" unicode="&#x44b;" horiz-adv-x="1468" 
d="M584 696q174 0 280 -96t106 -252t-106 -252t-280 -96h-400h-15q-49 0 -49 49v926q0 49 49 49h167q49 0 49 -49v-279h199zM1298 1024q49 0 49 -49v-926q0 -49 -49 -49h-166q-49 0 -49 49v926q0 49 49 49h166zM585 232q56 0 91.5 32t35.5 84t-35.5 84t-91.5 32h-200v-232
h200z" />
    <glyph glyph-name="uni044C" unicode="&#x44c;" horiz-adv-x="1015" 
d="M584 696q174 0 280 -96t106 -252t-106 -252t-280 -96h-400h-15q-49 0 -49 49v926q0 49 49 49h167q49 0 49 -49v-279h199zM585 232q56 0 91.5 32t35.5 84t-35.5 84t-91.5 32h-200v-232h200z" />
    <glyph glyph-name="uni044D" unicode="&#x44d;" horiz-adv-x="1148" 
d="M544 1052q231 0 384.5 -155t153.5 -385t-153.5 -385t-384.5 -155q-175 0 -311.5 96t-186.5 251q-9 24 3 39.5t37 15.5h175q35 0 58 -36q33 -57 95 -89.5t139 -32.5q90 0 157 48t97 129h-301q-48 0 -48 48v142q0 48 48 48h301q-30 81 -97 129t-157 48q-77 0 -138.5 -32.5
t-95.5 -89.5q-19 -36 -57 -36h-176q-25 0 -37 15.5t-3 39.5q50 155 186.5 251t311.5 96z" />
    <glyph glyph-name="uni044E" unicode="&#x44e;" horiz-adv-x="1660" 
d="M1053 1052q149 0 273 -71t196.5 -195t72.5 -274t-72.5 -274t-196.5 -195t-273 -71q-192 0 -336 116.5t-184 299.5h-148v-339q0 -49 -49 -49h-167q-49 0 -49 49v926q0 49 49 49h167q49 0 49 -49v-339h148q40 183 184 299.5t336 116.5zM1053 229q119 0 198.5 80t79.5 203
t-79.5 203t-198.5 80t-198 -79.5t-79 -203.5t79 -203.5t198 -79.5z" />
    <glyph glyph-name="uni044F" unicode="&#x44f;" horiz-adv-x="1062" 
d="M893 1024q49 0 49 -49v-926q0 -49 -49 -49h-160q-49 0 -49 49v270h-107l-239 -290q-24 -29 -60 -29h-191q-31 0 -39.5 17.5t10.5 42.5l242 293q-96 43 -152 130t-56 188q0 144 102 248.5t269 104.5h416h14zM483 788q-59 0 -96 -33.5t-37 -90.5t37 -89.5t96 -32.5h201v246
h-201z" />
    <glyph glyph-name="uni0451" unicode="&#x451;" horiz-adv-x="1179" 
d="M342 1157q-40 0 -40 40v161q0 40 40 40h161q40 0 40 -40v-161q0 -40 -40 -40h-161zM721 1157q-40 0 -40 40v161q0 40 40 40h161q40 0 40 -40v-161q0 -40 -40 -40h-161zM609 1052q148 0 266 -72t182 -195.5t64 -273.5q0 -33 -3 -63q-6 -45 -53 -45h-211h-512
q26 -106 100 -159t177 -53q56 0 106 20.5t81 54.5q29 27 60 27l164 1q27 0 39 -15t1 -38q-57 -129 -177 -199t-278 -70q-246 0 -397 153.5t-151 386.5q0 151 67.5 274t192 194.5t282.5 71.5zM340 611h517q-22 103 -90.5 153.5t-158.5 50.5q-104 0 -174.5 -54t-93.5 -150z
" />
    <glyph glyph-name="uni0452" unicode="&#x452;" horiz-adv-x="1091" 
d="M676 1052q146 0 239.5 -107t93.5 -291v-674q0 -214 -97.5 -317t-299.5 -102q-23 0 -36 13.5t-13 36.5v157q0 45 50 50q68 5 99.5 43.5t31.5 118.5v654q0 85 -44.5 129t-117.5 44q-84 0 -134.5 -52t-50.5 -162v-544q0 -49 -48 -49h-167q-49 0 -49 49v1085h-79
q-49 0 -49 48v75q0 49 49 49h79v79q0 49 49 49h167q48 0 48 -49v-79h240q49 0 49 -49v-75q0 -48 -49 -48h-240v-215q87 133 279 133z" />
    <glyph glyph-name="uni0453" unicode="&#x453;" horiz-adv-x="784" 
d="M318 1152q-27 0 -36.5 16t4.5 41l112 192q19 33 57 33h204q30 0 39 -18t-10 -41l-159 -196q-21 -27 -58 -27h-153zM732 1024q49 0 49 -49v-156q0 -49 -49 -49h-347v-721q0 -49 -49 -49h-167q-49 0 -49 49v926q0 49 49 49h216h347z" />
    <glyph glyph-name="uni0454" unicode="&#x454;" horiz-adv-x="1148" 
d="M1063 374q25 0 37 -15.5t3 -39.5q-50 -155 -186.5 -251t-311.5 -96q-231 0 -384.5 155t-153.5 385t153.5 385t384.5 155q175 0 311.5 -96t186.5 -251q9 -24 -3 -39.5t-37 -15.5h-176q-37 0 -57 36q-34 57 -96 89.5t-139 32.5q-89 0 -156 -48t-97 -129h301q48 0 48 -48
v-142q0 -48 -48 -48h-301q30 -81 97 -129t156 -48q77 0 139.5 32.5t95.5 89.5q22 36 58 36h175z" />
    <glyph glyph-name="uni0455" unicode="&#x455;" horiz-adv-x="983" 
d="M354 727q0 -36 30.5 -59t79 -36t107 -24.5t117.5 -32t107.5 -51.5t79 -89t30.5 -138q0 -157 -117.5 -241t-296.5 -84q-107 0 -194 32t-146 101.5t-71 169.5q-3 24 10 37.5t37 13.5h164q34 0 53 -42q25 -79 147 -79q73 0 111.5 24t38.5 68q0 35 -30.5 58t-79 36t-107 25
t-117.5 32.5t-107.5 51.5t-79 89t-30.5 138q0 104 56.5 179.5t146 110.5t198.5 35q99 0 181 -32t139.5 -102t69.5 -169q3 -24 -10 -37.5t-37 -13.5h-164q-20 0 -31 10t-21 33q-11 38 -45.5 58t-81.5 20q-64 0 -100.5 -24t-36.5 -68z" />
    <glyph glyph-name="uni0456" unicode="&#x456;" horiz-adv-x="505" 
d="M169 1167q-49 0 -49 49v169q0 49 49 49h167q49 0 49 -49v-169q0 -49 -49 -49h-167zM169 0q-49 0 -49 49v926q0 49 49 49h167q49 0 49 -49v-926q0 -49 -49 -49h-167z" />
    <glyph glyph-name="uni0457" unicode="&#x457;" horiz-adv-x="505" 
d="M-17 1149q-40 0 -40 40v161q0 40 40 40h160q40 0 40 -40v-161q0 -40 -40 -40h-160zM361 1149q-39 0 -39 40v161q0 40 39 40h161q40 0 40 -40v-161q0 -40 -40 -40h-161zM169 0q-49 0 -49 49v926q0 49 49 49h167q49 0 49 -49v-926q0 -49 -49 -49h-167z" />
    <glyph glyph-name="uni0458" unicode="&#x458;" horiz-adv-x="540" 
d="M371 1434q49 0 49 -49v-169q0 -49 -49 -49h-167q-48 0 -48 49v169q0 49 48 49h167zM371 1024q49 0 49 -49v-995q0 -214 -97.5 -317t-299.5 -102q-23 0 -36 13.5t-13 36.5v157q0 45 50 50q68 5 100 43.5t32 118.5v995q0 49 48 49h167z" />
    <glyph glyph-name="uni0459" unicode="&#x459;" horiz-adv-x="1517" 
d="M1105 671q163 0 264.5 -91t101.5 -245q0 -153 -102.5 -244t-263.5 -91h-384h-15q-49 0 -49 49v721h-204v-343q0 -438 -384 -441q-23 0 -36 13.5t-13 36.5v151q0 22 12 32.5t36 14.5q120 15 120 208v533q0 49 49 49h216h372h48q49 0 49 -49v-304h183zM1107 232
q45 0 75.5 27t30.5 76t-30.5 76t-75.5 27h-185v-206h185z" />
    <glyph glyph-name="uni045A" unicode="&#x45a;" horiz-adv-x="1556" 
d="M1144 671q163 0 264.5 -91t101.5 -245q0 -153 -102.5 -244t-263.5 -91h-385h-15q-48 0 -48 49v374h-327v-374q0 -49 -48 -49h-167q-49 0 -49 49v926q0 49 49 49h167q48 0 48 -49v-304h327v304q0 49 48 49h167q49 0 49 -49v-304h184zM1145 232q45 0 76 27t31 76t-31 76
t-76 27h-185v-206h185z" />
    <glyph glyph-name="uni045B" unicode="&#x45b;" horiz-adv-x="1103" 
d="M676 1052q146 0 239.5 -107t93.5 -291v-605q0 -49 -49 -49h-167q-49 0 -49 49v585q0 85 -44.5 129t-117.5 44q-84 0 -134.5 -52t-50.5 -162v-544q0 -49 -48 -49h-167q-49 0 -49 49v1085h-79q-49 0 -49 48v75q0 49 49 49h79v79q0 49 49 49h167q48 0 48 -49v-79h240
q49 0 49 -49v-75q0 -48 -49 -48h-240v-215q87 133 279 133z" />
    <glyph glyph-name="uni045C" unicode="&#x45c;" horiz-adv-x="1058" 
d="M436 1152q-27 0 -37 16t4 41l113 192q19 33 56 33h205q30 0 38.5 -18t-10.5 -41l-158 -196q-21 -27 -59 -27h-152zM1002 59q19 -24 10.5 -41.5t-38.5 -17.5h-195q-37 0 -58 30l-336 432v-413q0 -49 -49 -49h-167q-49 0 -49 49v926q0 49 49 49h167q49 0 49 -49v-401
l315 420q21 30 59 30h196q30 0 38.5 -17t-9.5 -42l-345 -448z" />
    <glyph glyph-name="uni045E" unicode="&#x45e;" horiz-adv-x="1013" 
d="M254 1156q-49 0 -49 48v132q0 49 49 49h497q48 0 48 -49v-132q0 -48 -48 -48h-497zM950 1024q27 0 38.5 -14.5t2.5 -40.5l-329 -969q-68 -203 -195 -305.5t-298 -104.5q-23 -1 -35.5 12t-12.5 37v150q0 46 48 49q84 6 134.5 48t81.5 130l-369 952q-9 25 2 40.5t37 15.5
h181q39 0 54 -38l233 -636l192 634q11 40 55 40h180z" />
    <glyph glyph-name="uni045F" unicode="&#x45f;" horiz-adv-x="1116" 
d="M947 1024q49 0 49 -49v-926q0 -49 -49 -49h-215h-45v-246q0 -49 -49 -49h-160q-49 0 -49 49v246h-221h-39q-49 0 -49 49v926q0 49 49 49h167q49 0 49 -49v-727h347v727q0 49 48 49h167z" />
    <glyph glyph-name="uni0490" unicode="&#x490;" horiz-adv-x="972" 
d="M899 1679q48 0 48 -48v-336v-83q0 -49 -48 -49h-484v-1114q0 -49 -49 -49h-184q-49 0 -49 49v1336q0 49 49 49h233h251v197q0 48 48 48h185z" />
    <glyph glyph-name="uni0491" unicode="&#x491;" horiz-adv-x="784" 
d="M732 1231q49 0 49 -49v-258v-105q0 -49 -49 -49h-347v-721q0 -49 -49 -49h-167q-49 0 -49 49v926q0 49 49 49h216h138v158q0 49 48 49h161z" />
    <glyph glyph-name="Wgrave" unicode="&#x1e80;" horiz-adv-x="1822" 
d="M797 1584l-169 210q-16 21 -9 35t33 14h222q34 0 48 -27l120 -206q12 -20 4 -34t-32 -14h-168q-33 0 -49 22zM1761 1434q26 0 37 -14.5t4 -40.5l-381 -1338q-11 -41 -54 -41h-226q-44 0 -55 41l-174 614l-176 -614q-11 -41 -54 -41h-226q-44 0 -55 41l-380 1338
q-7 26 4 40.5t37 14.5h193q43 0 53 -43l276 -1032l204 730l-82 290q-7 26 4 40.5t37 14.5h163q43 0 53 -43l276 -1032l275 1032q10 43 53 43h194z" />
    <glyph glyph-name="wgrave" unicode="&#x1e81;" horiz-adv-x="1484" 
d="M628 1175l-169 209q-16 21 -9 35.5t33 14.5h223q33 0 47 -28l120 -206q12 -20 4 -34t-32 -14h-168q-32 0 -49 23zM1406 1024q26 0 37 -15t3 -40l-303 -929q-12 -40 -56 -40h-140h-27q-44 0 -56 40l-121 372l-122 -372q-12 -40 -56 -40h-108h-59q-44 0 -56 40l-304 929
q-8 25 3.5 40t37.5 15h181q43 0 54 -40l188 -661l133 418l-74 228q-8 25 3 40t37 15h135q42 0 54 -40l200 -635l181 635q11 40 54 40h181z" />
    <glyph glyph-name="Wacute" unicode="&#x1e82;" horiz-adv-x="1822" 
d="M813 1562q-27 0 -37 16t4 41l112 192q18 32 57 32h205q30 0 38.5 -18t-10.5 -41l-158 -195q-21 -27 -59 -27h-152zM1761 1434q26 0 37 -14.5t4 -40.5l-381 -1338q-11 -41 -54 -41h-226q-44 0 -55 41l-174 614l-176 -614q-11 -41 -54 -41h-226q-44 0 -55 41l-380 1338
q-7 26 4 40.5t37 14.5h193q43 0 53 -43l276 -1032l204 730l-82 290q-7 26 4 40.5t37 14.5h163q43 0 53 -43l276 -1032l275 1032q10 43 53 43h194z" />
    <glyph glyph-name="wacute" unicode="&#x1e83;" horiz-adv-x="1484" 
d="M644 1152q-27 0 -37 16t4 41l112 192q19 33 57 33h205q30 0 38.5 -18t-10.5 -41l-158 -196q-21 -27 -59 -27h-152zM1406 1024q26 0 37 -15t3 -40l-303 -929q-12 -40 -56 -40h-140h-27q-44 0 -56 40l-121 372l-122 -372q-12 -40 -56 -40h-108h-59q-44 0 -56 40l-304 929
q-8 25 3.5 40t37.5 15h181q43 0 54 -40l188 -661l133 418l-74 228q-8 25 3 40t37 15h135q42 0 54 -40l200 -635l181 635q11 40 54 40h181z" />
    <glyph glyph-name="Wdieresis" unicode="&#x1e84;" horiz-adv-x="1822" 
d="M642 1559q-40 0 -40 40v161q0 40 40 40h160q40 0 40 -40v-161q0 -40 -40 -40h-160zM1020 1559q-40 0 -40 40v161q0 40 40 40h161q40 0 40 -40v-161q0 -40 -40 -40h-161zM1761 1434q26 0 37 -14.5t4 -40.5l-381 -1338q-11 -41 -54 -41h-226q-44 0 -55 41l-174 614
l-176 -614q-11 -41 -54 -41h-226q-44 0 -55 41l-380 1338q-7 26 4 40.5t37 14.5h193q43 0 53 -43l276 -1032l204 730l-82 290q-7 26 4 40.5t37 14.5h163q43 0 53 -43l276 -1032l275 1032q10 43 53 43h194z" />
    <glyph glyph-name="wdieresis" unicode="&#x1e85;" horiz-adv-x="1484" 
d="M473 1149q-40 0 -40 40v161q0 40 40 40h160q40 0 40 -40v-161q0 -40 -40 -40h-160zM851 1149q-39 0 -39 40v161q0 40 39 40h161q40 0 40 -40v-161q0 -40 -40 -40h-161zM1406 1024q26 0 37 -15t3 -40l-303 -929q-12 -40 -56 -40h-140h-27q-44 0 -56 40l-121 372l-122 -372
q-12 -40 -56 -40h-108h-59q-44 0 -56 40l-304 929q-8 25 3.5 40t37.5 15h181q43 0 54 -40l188 -661l133 418l-74 228q-8 25 3 40t37 15h135q42 0 54 -40l200 -635l181 635q11 40 54 40h181z" />
    <glyph glyph-name="Ygrave" unicode="&#x1ef2;" horiz-adv-x="1230" 
d="M499 1584l-169 210q-16 21 -9 35t33 14h223q35 0 48 -27l119 -206q12 -20 4.5 -34t-31.5 -14h-168q-33 0 -50 22zM1159 1434q28 0 38 -17t-5 -42l-436 -739v-587q0 -49 -48 -49h-185q-48 0 -48 49v588l-436 738q-15 25 -5 42t38 17h214q39 0 57 -35l273 -491l272 491
q18 35 57 35h214z" />
    <glyph glyph-name="ygrave" unicode="&#x1ef3;" horiz-adv-x="1024" 
d="M615 1152q24 0 32 14t-4 34l-120 206q-14 28 -48 28h-223q-26 0 -33 -14.5t9 -35.5l169 -209q17 -23 50 -23h168zM725 984q12 40 55 40h181q27 0 38 -14.5t2 -40.5l-452 -1340q-12 -39 -56 -39h-181q-27 0 -38.5 14.5t-2.5 40.5l125 369l-369 954q-9 25 2 40.5t37 15.5
h180q40 0 55 -38l227 -607z" />
    <glyph glyph-name="endash" unicode="&#x2013;" horiz-adv-x="1320" 
d="M182 490q-49 0 -49 49v157q0 48 49 48h957q49 0 49 -48v-157q0 -49 -49 -49h-957z" />
    <glyph glyph-name="emdash" unicode="&#x2014;" horiz-adv-x="1525" 
d="M182 490q-49 0 -49 49v157q0 48 49 48h1162q49 0 49 -48v-157q0 -49 -49 -49h-1162z" />
    <glyph glyph-name="quoteleft" unicode="&#x2018;" horiz-adv-x="548" 
d="M384 1322q-53 -11 -77 -48.5t-24 -112.5h88q49 0 49 -49v-194q0 -49 -49 -49h-194q-49 0 -49 49v243q0 120 66.5 193.5t185.5 87.5q40 5 40 -36v-44q0 -32 -36 -40z" />
    <glyph glyph-name="quoteright" unicode="&#x2019;" horiz-adv-x="548" 
d="M371 1434q49 0 49 -49v-243q0 -120 -66.5 -194t-185.5 -88q-40 -5 -40 36v45q0 31 36 39q52 11 76.5 49t24.5 113h-88q-49 0 -49 48v195q0 49 49 49h194z" />
    <glyph glyph-name="quotesinglbase" unicode="&#x201a;" horiz-adv-x="548" 
d="M371 292q49 0 49 -49v-243q0 -120 -66.5 -194t-185.5 -88q-40 -5 -40 36v45q0 31 36 39q52 11 76.5 49t24.5 113h-88q-49 0 -49 49v194q0 49 49 49h194z" />
    <glyph glyph-name="quotedblleft" unicode="&#x201c;" horiz-adv-x="927" 
d="M380 1442q40 5 40 -36v-44q0 -32 -36 -40q-53 -11 -77 -48.5t-24 -112.5h88q49 0 49 -49v-194q0 -49 -49 -49h-194q-49 0 -49 49v243q0 120 66.5 193.5t185.5 87.5zM763 1322q-53 -11 -77 -48.5t-24 -112.5h88q49 0 49 -49v-194q0 -49 -49 -49h-194q-49 0 -49 49v243
q0 120 66.5 193.5t185.5 87.5q40 5 40 -36v-44q0 -32 -36 -40z" />
    <glyph glyph-name="quotedblright" unicode="&#x201d;" horiz-adv-x="927" 
d="M371 1434q49 0 49 -49v-243q0 -120 -66.5 -194t-185.5 -88q-40 -5 -40 36v45q0 31 36 39q52 11 76.5 49t24.5 113h-88q-49 0 -49 48v195q0 49 49 49h194zM750 1434q49 0 49 -49v-243q0 -120 -66.5 -194t-185.5 -88q-40 -5 -40 36v45q0 31 36 39q52 11 76.5 49t24.5 113
h-88q-49 0 -49 48v195q0 49 49 49h194z" />
    <glyph glyph-name="quotedblbase" unicode="&#x201e;" horiz-adv-x="927" 
d="M371 292q49 0 49 -49v-243q0 -120 -66.5 -194t-185.5 -88q-40 -5 -40 36v45q0 31 36 39q52 11 76.5 49t24.5 113h-88q-49 0 -49 49v194q0 49 49 49h194zM750 292q49 0 49 -49v-243q0 -120 -66.5 -194t-185.5 -88q-40 -5 -40 36v45q0 31 36 39q52 11 76.5 49t24.5 113h-88
q-49 0 -49 49v194q0 49 49 49h194z" />
    <glyph glyph-name="dagger" unicode="&#x2020;" horiz-adv-x="983" 
d="M842 1157q49 0 49 -49v-156q0 -49 -49 -49h-218v-854q0 -49 -49 -49h-167q-49 0 -49 49v854h-218q-49 0 -49 49v156q0 49 49 49h218v228q0 49 49 49h167q49 0 49 -49v-228h218z" />
    <glyph glyph-name="daggerdbl" unicode="&#x2021;" horiz-adv-x="983" 
d="M842 903h-218v-373h218q49 0 49 -48v-157q0 -49 -49 -49h-218v-227q0 -49 -49 -49h-167q-49 0 -49 49v227h-218q-49 0 -49 49v157q0 48 49 48h218v373h-218q-49 0 -49 49v156q0 49 49 49h218v228q0 49 49 49h167q49 0 49 -49v-228h218q49 0 49 -49v-156q0 -49 -49 -49z
" />
    <glyph glyph-name="bullet" unicode="&#x2022;" horiz-adv-x="737" 
d="M372 435q-118 0 -201.5 83.5t-83.5 201.5q0 116 83.5 197t201.5 81q116 0 197 -81t81 -197q0 -118 -81 -201.5t-197 -83.5z" />
    <glyph glyph-name="ellipsis" unicode="&#x2026;" horiz-adv-x="1480" 
d="M177 0q-49 0 -49 49v194q0 49 49 49h194q49 0 49 -49v-194q0 -49 -49 -49h-194zM643 0q-49 0 -49 49v194q0 49 49 49h194q49 0 49 -49v-194q0 -49 -49 -49h-194zM1108 0q-48 0 -48 49v194q0 49 48 49h195q49 0 49 -49v-194q0 -49 -49 -49h-195z" />
    <glyph glyph-name="perthousand" unicode="&#x2030;" horiz-adv-x="2375" 
d="M438 785q-148 0 -247 98t-99 240t99 240t247 98q147 0 245.5 -98.5t98.5 -239.5q0 -142 -98.5 -240t-245.5 -98zM260 0q-30 0 -39.5 16.5t7.5 41.5l943 1344q21 32 59 32h143q29 0 38.5 -17t-7.5 -42l-945 -1344q-22 -31 -59 -31h-140zM436 993q56 0 92.5 38t36.5 92
q0 55 -36.5 93t-92.5 38t-91.5 -37.5t-35.5 -93.5q0 -55 35.5 -92.5t91.5 -37.5zM1198 -25q-148 0 -247 98t-99 240t99 240t247 98q147 0 245.5 -98.5t98.5 -239.5t-98.5 -239.5t-245.5 -98.5zM1966 -25q-148 0 -247 98t-99 240t99 240t247 98q147 0 245.5 -98.5
t98.5 -239.5t-98.5 -239.5t-245.5 -98.5zM1196 183q56 0 92.5 38t36.5 92q0 55 -36.5 93t-92.5 38t-91.5 -37.5t-35.5 -93.5q0 -55 35.5 -92.5t91.5 -37.5zM1964 183q56 0 92.5 38t36.5 92q0 55 -36.5 93t-92.5 38t-91.5 -37.5t-35.5 -93.5q0 -55 35.5 -92.5t91.5 -37.5z
" />
    <glyph glyph-name="guilsinglleft" unicode="&#x2039;" horiz-adv-x="727" 
d="M530 1017q29 0 38.5 -16.5t-4.5 -42.5l-191 -325l191 -326q14 -26 4.5 -42t-38.5 -16h-138q-39 0 -58 33l-187 318q-20 33 0 66l187 318q19 33 58 33h138z" />
    <glyph glyph-name="guilsinglright" unicode="&#x203a;" horiz-adv-x="727" 
d="M196 1017h138q39 0 58 -33l187 -318q20 -33 0 -66l-187 -318q-19 -33 -58 -33h-138q-29 0 -38.5 16t4.5 42l191 326l-191 325q-14 26 -4.5 42.5t38.5 16.5z" />
    <glyph glyph-name="fraction" unicode="&#x2044;" horiz-adv-x="389" 
d="M-241 0q-28 0 -37.5 16t4.5 42l767 1342q18 34 58 34h79q28 0 37.5 -17t-4.5 -42l-766 -1342q-18 -33 -59 -33h-79z" />
    <glyph glyph-name="Euro" unicode="&#x20ac;" horiz-adv-x="1320" 
d="M1222 510q25 0 37 -14t8 -39q-38 -225 -177.5 -355t-352.5 -130q-228 0 -373.5 148.5t-185.5 405.5h-101q-41 0 -41 41v77q0 41 41 41h87v32q0 32 1 48h-88q-41 0 -41 41v77q0 41 41 41h104q43 250 187 393.5t369 143.5q210 0 347.5 -124.5t177.5 -343.5q4 -25 -7.5 -39
t-36.5 -14h-188q-42 0 -53 45q-22 98 -84 150t-156 52q-106 0 -174.5 -67t-97.5 -196h380q41 0 41 -41v-77q0 -41 -41 -41h-399q-1 -16 -1 -48q0 -6 0.5 -16.5t0.5 -15.5h399q41 0 41 -41v-77q0 -41 -41 -41h-383q55 -279 275 -279q97 0 161 56.5t85 161.5q9 45 51 45h188z
" />
    <glyph glyph-name="uni20BD" unicode="&#x20bd;" horiz-adv-x="1230" 
d="M714 497h-253v-111h411q44 0 44 -44v-93q0 -44 -44 -44h-411v-156q0 -49 -49 -49h-184q-49 0 -49 49v156h-109q-44 0 -44 44v93q0 44 44 44h109v111h-105q-48 0 -48 48v152q0 48 48 48h105v640q0 49 49 49h233h253q133 0 244.5 -64t175.5 -173.5t64 -239.5
q0 -196 -140 -328t-344 -132zM461 1169v-424h253q86 0 144 61t58 151t-58 151t-144 61h-253z" />
    <glyph glyph-name="uni2116" unicode="&#x2116;" horiz-adv-x="2056" 
d="M1645 785q-147 0 -246 98.5t-99 239.5q0 142 98.5 240t246.5 98t246 -98t98 -240q0 -141 -97 -239.5t-247 -98.5zM906 1385q0 49 49 49h184q49 0 49 -49v-1336q0 -49 -49 -49h-127q-42 0 -60 31l-537 855v-837q0 -49 -49 -49h-184q-49 0 -49 49v1336q0 49 49 49h127
q41 0 60 -32l537 -854v837zM1645 1000q54 0 87 34t33 89q0 53 -33.5 88t-86.5 35t-87 -35t-34 -88t34 -88t87 -35zM1377 425q-49 0 -49 49v150q0 49 49 49h541q49 0 49 -49v-150q0 -49 -49 -49h-541z" />
    <glyph glyph-name="trademark" unicode="&#x2122;" horiz-adv-x="954" 
d="M379 1434q23 0 23 -24v-67q0 -24 -23 -24h-83v-271q0 -24 -23 -24h-76q-11 0 -17.5 7t-6.5 17v271h-83q-23 0 -23 24v67q0 24 23 24h206h83zM863 1434q11 0 17.5 -7t6.5 -17v-362q0 -10 -6.5 -17t-17.5 -7h-76q-11 0 -17.5 7t-6.5 17v186l-57 -110q-8 -16 -25 -16h-31
q-16 0 -24 16l-63 119v-195q0 -10 -6.5 -17t-17.5 -7h-72q-23 0 -23 24v362q0 24 23 24h72h17q19 0 28 -18l82 -164l82 164q9 18 27 18h63h25z" />
    <glyph glyph-name="estimated" unicode="&#x212e;" horiz-adv-x="1617" 
d="M809 1454q166 0 309 -58t240.5 -157.5t153 -234.5t55.5 -287q0 -31 -31 -31h-1147q-31 0 -31 -31v-393q0 -21 15 -39q173 -182 477 -182q296 0 473 199q15 18 37 18h76q20 0 25.5 -12t-7.5 -27q-106 -113 -260 -176t-344 -63q-181 0 -332.5 58t-253 157.5t-157.5 234
t-56 287.5q0 152 55.5 287t153 234.5t240.5 157.5t309 58zM1260 1171q0 21 -15 39q-174 183 -436 183t-436 -183q-15 -18 -15 -39v-393q0 -30 31 -30h840q31 0 31 30v393z" />
    <glyph glyph-name="oneeighth" unicode="&#x215b;" horiz-adv-x="1652" 
d="M400 614h-125q-47 0 -47 48v549l-146 -77q-24 -13 -40 -3t-16 37v117q0 38 33 57l143 77q26 15 57 15h141q47 0 47 -48v-724q0 -48 -47 -48zM1177 1434q28 0 37.5 -17t-4.5 -42l-766 -1342q-18 -33 -58 -33h-79q-28 0 -38 16t4 42l767 1342q18 34 58 34h79zM1489 430
q58 -34 89 -87.5t31 -119.5q0 -115 -84 -183t-231 -68q-148 0 -231.5 68t-83.5 183q0 66 31.5 119.5t89.5 87.5q-92 63 -92 171q0 113 80.5 179.5t205.5 66.5t206 -66.5t81 -179.5q0 -108 -92 -171zM1294 662q-46 0 -72 -20.5t-26 -58.5q0 -37 26 -58.5t72 -21.5
q43 0 70.5 21.5t27.5 58.5t-27.5 58t-70.5 21zM1294 160q51 0 79.5 25t28.5 68q0 42 -29.5 67t-78.5 25q-51 0 -79.5 -24.5t-28.5 -67.5t28.5 -68t79.5 -25z" />
    <glyph glyph-name="threeeighths" unicode="&#x215c;" horiz-adv-x="1816" 
d="M663 862q0 -132 -84 -203.5t-233 -71.5q-134 0 -216 58.5t-98 167.5q-4 23 9 36t36 13h131q13 0 22.5 -5.5t14 -12t14.5 -21.5q20 -44 87 -44q47 0 71.5 22t24.5 61t-25 60t-71 21h-76q-47 0 -47 47v46q0 35 21 59l116 139h-251q-48 0 -48 47v105q0 22 12.5 35t35.5 13
h469q47 0 47 -48v-81q0 -35 -21 -59l-123 -151q87 -26 134.5 -86.5t47.5 -146.5zM1341 1434q28 0 38 -17t-4 -42l-767 -1342q-18 -33 -58 -33h-79q-28 0 -37.5 16t4.5 42l766 1342q18 34 59 34h78zM1653 430q58 -34 89 -87.5t31 -119.5q0 -115 -83.5 -183t-230.5 -68
q-148 0 -231.5 68t-83.5 183q0 66 31 119.5t89 87.5q-92 63 -92 171q0 113 81 179.5t206 66.5t205.5 -66.5t80.5 -179.5q0 -108 -92 -171zM1459 662q-46 0 -72.5 -20.5t-26.5 -58.5q0 -37 26.5 -58.5t72.5 -21.5q43 0 70 21.5t27 58.5t-27 58t-70 21zM1459 160q51 0 79 25
t28 68q0 42 -29 67t-78 25q-51 0 -79.5 -24.5t-28.5 -67.5t28.5 -68t79.5 -25z" />
    <glyph glyph-name="fiveeighths" unicode="&#x215d;" horiz-adv-x="1789" 
d="M636 854q0 -129 -83.5 -198t-217.5 -69q-122 0 -202.5 57t-95.5 166q-4 23 9 36t36 13h113q13 0 22.5 -5.5t14 -12t14.5 -21.5q22 -46 89 -46q47 0 73 23.5t26 61.5q0 39 -26.5 62.5t-72.5 23.5h-223q-23 0 -35 13t-11 36l27 395q2 21 14.5 33t33.5 12h407q47 0 47 -48
v-104q0 -47 -47 -47h-258l-7 -110h61q134 0 213 -68t79 -203zM1314 1434q28 0 38 -17t-4 -42l-767 -1342q-18 -33 -58 -33h-79q-28 0 -37.5 16t4.5 42l766 1342q18 34 58 34h79zM1626 430q58 -34 89 -87.5t31 -119.5q0 -115 -83.5 -183t-230.5 -68q-148 0 -231.5 68
t-83.5 183q0 66 31 119.5t89 87.5q-92 63 -92 171q0 113 81 179.5t206 66.5t205.5 -66.5t80.5 -179.5q0 -108 -92 -171zM1432 662q-46 0 -72.5 -20.5t-26.5 -58.5q0 -37 26.5 -58.5t72.5 -21.5q43 0 70 21.5t27 58.5t-27 58t-70 21zM1432 160q51 0 79 25t28 68q0 42 -29 67
t-78 25q-51 0 -79.5 -24.5t-28.5 -67.5t28.5 -68t79.5 -25z" />
    <glyph glyph-name="seveneighths" unicode="&#x215e;" horiz-adv-x="1710" 
d="M560 1237l-232 -585q-15 -38 -55 -38h-129q-26 0 -36.5 15t-0.5 40l227 565h-282q-47 0 -47 47v105q0 48 47 48h472q47 0 47 -48v-91q0 -32 -11 -58zM1234 1434q28 0 38 -17t-4 -42l-767 -1342q-18 -33 -58 -33h-79q-28 0 -37.5 16t4.5 42l766 1342q18 34 59 34h78z
M1546 430q58 -34 89 -87.5t31 -119.5q0 -115 -83.5 -183t-230.5 -68q-148 0 -231.5 68t-83.5 183q0 66 31 119.5t89 87.5q-92 63 -92 171q0 113 81 179.5t206 66.5t205.5 -66.5t80.5 -179.5q0 -108 -92 -171zM1352 662q-46 0 -72.5 -20.5t-26.5 -58.5q0 -37 26.5 -58.5
t72.5 -21.5q43 0 70 21.5t27 58.5t-27 58t-70 21zM1352 160q51 0 79 25t28 68q0 42 -29 67t-78 25q-51 0 -79.5 -24.5t-28.5 -67.5t28.5 -68t79.5 -25z" />
    <glyph glyph-name="arrowleft" unicode="&#x2190;" horiz-adv-x="1634" 
d="M1492 844q49 0 49 -49v-157q0 -48 -49 -48h-923l427 -427q23 -23 15 -42t-40 -19h-230q-35 0 -60 25l-554 555q-35 35 0 70l554 554q25 25 60 25h230q32 0 40 -18.5t-15 -41.5l-427 -427h923z" />
    <glyph glyph-name="arrowup" unicode="&#x2191;" horiz-adv-x="1413" 
d="M1296 844q25 -25 25 -60v-230q0 -32 -18.5 -40t-41.5 15l-422 422v-902q0 -49 -49 -49h-167q-49 0 -49 49v902l-421 -422q-23 -23 -42 -15t-19 40v230q0 35 25 60l555 555q34 35 69 0z" />
    <glyph glyph-name="arrowright" unicode="&#x2192;" horiz-adv-x="1634" 
d="M1506 752q35 -35 0 -70l-554 -555q-25 -25 -60 -25h-230q-32 0 -40 19t15 42l427 427h-923q-49 0 -49 48v157q0 49 49 49h923l-427 427q-23 23 -15 41.5t40 18.5h230q35 0 60 -25z" />
    <glyph glyph-name="arrowdown" unicode="&#x2193;" horiz-adv-x="1413" 
d="M1261 904q23 23 41.5 15t18.5 -40v-230q0 -35 -25 -60l-555 -554q-35 -35 -69 0l-555 554q-25 25 -25 60v230q0 32 19 40t42 -15l421 -422v903q0 49 49 49h167q49 0 49 -49v-903z" />
    <glyph glyph-name="arrowboth" unicode="&#x2194;" horiz-adv-x="2222" 
d="M2095 752q35 -35 0 -70l-498 -498q-25 -25 -59 -25h-224q-32 0 -40 18.5t15 41.5l370 371h-1096l370 -371q23 -23 15 -41.5t-40 -18.5h-223q-35 0 -60 25l-498 498q-35 35 0 70l498 498q25 25 60 25h223q32 0 40 -19t-15 -42l-370 -370h1096l-370 370q-23 23 -15 42
t40 19h224q34 0 59 -25z" />
    <glyph glyph-name="arrowupdn" unicode="&#x2195;" horiz-adv-x="1300" 
d="M1148 894l-366 366v-1086l366 365q23 23 41.5 15t18.5 -40v-224q0 -35 -25 -60l-498 -497q-35 -35 -70 0l-498 497q-25 25 -25 60v224q0 32 19 40t42 -15l365 -365v1086l-365 -366q-23 -23 -42 -14.5t-19 40.5v223q0 35 25 60l498 498q35 35 70 0l498 -498q25 -25 25 -60
v-223q0 -32 -18.5 -40.5t-41.5 14.5z" />
    <glyph glyph-name="uni2196" unicode="&#x2196;" horiz-adv-x="1316" 
d="M1190 337q35 -35 0 -70l-109 -109q-35 -35 -70 0l-672 670v-602q0 -32 -18.5 -40t-41.5 15l-162 161q-25 25 -25 60v785q0 49 49 49h785q35 0 60 -25l161 -162q23 -23 15 -41.5t-40 -18.5h-602z" />
    <glyph glyph-name="uni2197" unicode="&#x2197;" horiz-adv-x="1316" 
d="M1177 1256q48 0 48 -49v-785q0 -35 -25 -60l-162 -161q-23 -23 -41.5 -15t-18.5 40v602l-672 -670q-34 -34 -69 0l-110 109q-35 35 0 70l671 672h-603q-32 0 -40 18.5t15 41.5l162 162q25 25 60 25h785z" />
    <glyph glyph-name="uni2198" unicode="&#x2198;" horiz-adv-x="1316" 
d="M1200 1042q25 -25 25 -60v-785q0 -49 -48 -49h-785q-34 0 -60 26l-162 161q-23 23 -15 42t40 19h603l-671 672q-35 34 0 69l110 110q35 35 69 0l672 -671v603q0 32 18.5 40t41.5 -15z" />
    <glyph glyph-name="uni2199" unicode="&#x2199;" horiz-adv-x="1316" 
d="M1190 1137q34 -35 0 -69l-670 -672h602q32 0 40 -19t-15 -42l-161 -161q-26 -26 -60 -26h-785q-49 0 -49 49v785q0 35 25 60l162 162q23 23 41.5 15t18.5 -40v-603l672 671q35 35 70 0z" />
    <glyph glyph-name="partialdiff" unicode="&#x2202;" horiz-adv-x="1196" 
d="M490 1461q121 0 232 -53.5t195.5 -148t135 -236t50.5 -306.5q0 -181 -45 -324.5t-123 -234.5t-181 -138.5t-222 -47.5q-139 0 -241.5 59.5t-153 157.5t-50.5 221q0 211 125 344.5t339 133.5q154 0 282 -80q-21 188 -117 295.5t-258 109.5q-93 3 -183 -39q-25 -10 -39 -1
t-14 35v143q0 37 31 55q103 55 237 55zM542 220q123 0 196.5 96t93.5 264q-102 76 -245 76q-103 0 -169.5 -63.5t-66.5 -175.5q0 -90 52.5 -143.5t138.5 -53.5z" />
    <glyph glyph-name="emptyset" unicode="&#x2205;" horiz-adv-x="1646" 
d="M1351 1238q101 -103 157.5 -237.5t56.5 -283.5q0 -202 -99.5 -372.5t-270 -270t-372.5 -99.5q-211 0 -392 113l-84 -104q-19 -25 -52 -25h-122q-26 0 -33.5 16t8.5 36l148 185q-101 103 -157.5 237.5t-56.5 283.5q0 151 58.5 288.5t157.5 236.5t236.5 157.5t288.5 58.5
q213 0 393 -112l83 104q19 25 52 25h123q26 0 33.5 -16t-8.5 -36zM266 717q0 -108 38 -206t106 -173l692 866q-129 74 -279 74q-114 0 -217.5 -44t-177.5 -119t-118 -179t-44 -219zM823 156q114 0 217.5 44t177.5 119t118 179t44 219q0 220 -144 378l-692 -865
q129 -74 279 -74z" />
    <glyph glyph-name="product" unicode="&#x220f;" horiz-adv-x="1310" 
d="M182 -410q-49 0 -49 49v1746q0 49 49 49h947q49 0 49 -49v-1746q0 -49 -49 -49h-167q-49 0 -49 49v1541h-516v-1541q0 -49 -48 -49h-167z" />
    <glyph glyph-name="summation" unicode="&#x2211;" horiz-adv-x="1153" 
d="M120 -410q-48 0 -48 49v144q0 32 17 60l419 689l-388 647q-18 33 -18 60v146q0 49 49 49h845q48 0 48 -49v-157q0 -48 -48 -48h-582l370 -614q20 -34 0 -67l-398 -655h641q48 0 48 -48v-157q0 -49 -48 -49h-907z" />
    <glyph glyph-name="minus" unicode="&#x2212;" horiz-adv-x="1136" 
d="M156 593q-48 0 -48 49v150q0 49 48 49h824q49 0 49 -49v-150q0 -49 -49 -49h-824z" />
    <glyph glyph-name="radical" unicode="&#x221a;" horiz-adv-x="1384" 
d="M589 0q-39 0 -59 33l-230 374h-159q-49 0 -49 48v157q0 48 49 48h272q39 0 58 -33l185 -320l435 1292q15 39 55 39h169q27 0 37.5 -15t1.5 -41l-534 -1543q-15 -39 -54 -39h-177z" />
    <glyph glyph-name="infinity" unicode="&#x221e;" horiz-adv-x="1654" 
d="M1178 1075q161 0 266 -99t105 -259t-105.5 -259.5t-265.5 -99.5q-175 0 -351 178q-176 -178 -351 -178q-160 0 -265.5 99.5t-105.5 259.5t105 259t266 99q175 0 351 -178q176 178 351 178zM489 596q90 0 182 121q-92 120 -182 120q-53 0 -86.5 -34t-33.5 -86t33.5 -86.5
t86.5 -34.5zM1165 596q53 0 87 34.5t34 86.5q0 51 -34 85.5t-87 34.5q-89 0 -181 -120q92 -121 181 -121z" />
    <glyph glyph-name="integral" unicode="&#x222b;" horiz-adv-x="903" 
d="M42 -427q-42 9 -42 55v164q0 47 52 39q61 -10 107.5 23.5t58.5 106.5l196 1150q35 205 153.5 286.5t293.5 49.5q43 -9 43 -54v-164q0 -47 -52 -39q-65 10 -113 -23t-60 -107l-195 -1150q-35 -204 -152.5 -286t-289.5 -51z" />
    <glyph glyph-name="approxequal" unicode="&#x2248;" horiz-adv-x="1165" 
d="M225 785l-87 30q-47 16 -32 61q59 174 180.5 219.5t286.5 -33.5q79 -37 129 -49.5t84 -0.5t54 52q23 45 62 26l131 -62q42 -19 27 -65q-52 -168 -177.5 -217.5t-291.5 30.5q-87 41 -146 53t-92.5 3t-63.5 -37q-32 -21 -64 -10zM262 344l-130 62q-41 19 -29 62
q52 169 178 219t292 -29q87 -41 146.5 -53.5t92.5 -3.5t63 37q33 22 64 11l88 -31q46 -16 31 -60q-117 -345 -467 -187q-79 37 -128.5 49.5t-83.5 0.5t-54 -52q-22 -45 -63 -25z" />
    <glyph glyph-name="notequal" unicode="&#x2260;" horiz-adv-x="1075" 
d="M934 805h-275l-79 -177h354q49 0 49 -48v-151q0 -49 -49 -49h-465l-108 -239q-12 -28 -45 -28h-83q-21 0 -28.5 11.5t0.5 31.5l100 224h-164q-49 0 -49 49v151q0 48 49 48h275l80 177h-355q-49 0 -49 49v151q0 48 49 48h466l107 239q12 29 45 29h83q21 0 28.5 -12
t-0.5 -32l-100 -224h164q49 0 49 -48v-151q0 -49 -49 -49z" />
    <glyph glyph-name="lessequal" unicode="&#x2264;" horiz-adv-x="1081" 
d="M932 442l-801 306q-39 16 -39 55v151q0 39 39 55l801 306q24 10 40 -1t16 -38v-172q0 -42 -40 -54l-552 -171l552 -171q40 -12 40 -55v-172q0 -27 -16 -38t-40 -1zM940 113h-799q-49 0 -49 48v151q0 48 49 48h799q48 0 48 -48v-151q0 -48 -48 -48z" />
    <glyph glyph-name="greaterequal" unicode="&#x2265;" horiz-adv-x="1081" 
d="M148 442q-24 -10 -40 1t-16 38v172q0 43 41 55l552 171l-552 171q-41 12 -41 54v172q0 27 16 38t40 1l801 -306q39 -16 39 -55v-151q0 -39 -39 -55zM141 113q-49 0 -49 48v151q0 48 49 48h799q48 0 48 -48v-151q0 -48 -48 -48h-799z" />
    <glyph glyph-name="lozenge" unicode="&#x25ca;" horiz-adv-x="1136" 
d="M507 0q-39 0 -57 35l-346 649q-17 33 0 66l346 649q18 35 57 35h123q39 0 57 -35l345 -649q17 -33 0 -66l-345 -649q-18 -35 -57 -35h-123zM568 348l196 369l-196 368l-196 -368z" />
    <glyph glyph-name="i.loclTRK" horiz-adv-x="505" 
d="M154 1142q-40 0 -40 40v196q0 40 40 40h197q40 0 40 -40v-196q0 -40 -40 -40h-197zM169 0q-49 0 -49 49v926q0 49 49 49h167q49 0 49 -49v-926q0 -49 -49 -49h-167z" />
    <glyph glyph-name="a.ss01" horiz-adv-x="1282" 
d="M1114 1024q48 0 48 -49v-926q0 -49 -48 -49h-167q-49 0 -49 49v72q-117 -149 -332 -149q-101 0 -193 42t-159 113.5t-107 172t-40 212.5t40 212.5t107 172t159 113.5t193 42q215 0 332 -149v72q0 49 49 49h167zM614 223q123 0 203.5 80.5t80.5 208.5t-80.5 208.5
t-203.5 80.5t-203 -80.5t-80 -208.5t80 -208.5t203 -80.5z" />
    <glyph glyph-name="aacute.ss01" horiz-adv-x="1282" 
d="M531 1152q-27 0 -36.5 16t4.5 41l112 192q19 33 57 33h204q30 0 39 -18t-10 -41l-159 -196q-21 -27 -58 -27h-153zM1114 1024q48 0 48 -49v-926q0 -49 -48 -49h-167q-49 0 -49 49v72q-117 -149 -332 -149q-101 0 -193 42t-159 113.5t-107 172t-40 212.5t40 212.5t107 172
t159 113.5t193 42q215 0 332 -149v72q0 49 49 49h167zM614 223q123 0 203.5 80.5t80.5 208.5t-80.5 208.5t-203.5 80.5t-203 -80.5t-80 -208.5t80 -208.5t203 -80.5z" />
    <glyph glyph-name="abreve.ss01" horiz-adv-x="1282" 
d="M630 1120q-150 0 -237.5 66.5t-101.5 188.5q-3 42 40 42h156q33 0 43 -38q16 -69 100 -69t100 69q10 38 43 38h156q42 0 39 -37q-11 -125 -98 -192.5t-240 -67.5zM1114 1024q48 0 48 -49v-926q0 -49 -48 -49h-167q-49 0 -49 49v72q-117 -149 -332 -149q-101 0 -193 42
t-159 113.5t-107 172t-40 212.5t40 212.5t107 172t159 113.5t193 42q215 0 332 -149v72q0 49 49 49h167zM614 223q123 0 203.5 80.5t80.5 208.5t-80.5 208.5t-203.5 80.5t-203 -80.5t-80 -208.5t80 -208.5t203 -80.5z" />
    <glyph glyph-name="acircumflex.ss01" horiz-adv-x="1282" 
d="M332 1137q-24 0 -31.5 14.5t6.5 33.5l163 224q19 25 48 25h155h53q29 0 48 -25l163 -224q14 -19 6.5 -33.5t-31.5 -14.5h-169q-32 0 -48 25l-73 108l-73 -108q-16 -25 -48 -25h-169zM1114 1024q48 0 48 -49v-926q0 -49 -48 -49h-167q-49 0 -49 49v72q-117 -149 -332 -149
q-101 0 -193 42t-159 113.5t-107 172t-40 212.5t40 212.5t107 172t159 113.5t193 42q215 0 332 -149v72q0 49 49 49h167zM614 223q123 0 203.5 80.5t80.5 208.5t-80.5 208.5t-203.5 80.5t-203 -80.5t-80 -208.5t80 -208.5t203 -80.5z" />
    <glyph glyph-name="adieresis.ss01" horiz-adv-x="1282" 
d="M360 1149q-40 0 -40 40v161q0 40 40 40h161q40 0 40 -40v-161q0 -40 -40 -40h-161zM739 1149q-40 0 -40 40v161q0 40 40 40h161q40 0 40 -40v-161q0 -40 -40 -40h-161zM1114 1024q48 0 48 -49v-926q0 -49 -48 -49h-167q-49 0 -49 49v72q-117 -149 -332 -149
q-101 0 -193 42t-159 113.5t-107 172t-40 212.5t40 212.5t107 172t159 113.5t193 42q215 0 332 -149v72q0 49 49 49h167zM614 223q123 0 203.5 80.5t80.5 208.5t-80.5 208.5t-203.5 80.5t-203 -80.5t-80 -208.5t80 -208.5t203 -80.5z" />
    <glyph glyph-name="agrave.ss01" horiz-adv-x="1282" 
d="M515 1175l-169 209q-16 21 -9 35.5t33 14.5h223q34 0 48 -28l119 -206q12 -20 4.5 -34t-31.5 -14h-168q-33 0 -50 23zM1114 1024q48 0 48 -49v-926q0 -49 -48 -49h-167q-49 0 -49 49v72q-117 -149 -332 -149q-101 0 -193 42t-159 113.5t-107 172t-40 212.5t40 212.5
t107 172t159 113.5t193 42q215 0 332 -149v72q0 49 49 49h167zM614 223q123 0 203.5 80.5t80.5 208.5t-80.5 208.5t-203.5 80.5t-203 -80.5t-80 -208.5t80 -208.5t203 -80.5z" />
    <glyph glyph-name="amacron.ss01" horiz-adv-x="1282" 
d="M373 1156q-40 0 -40 40v134q0 40 40 40h514q40 0 40 -40v-134q0 -40 -40 -40h-514zM1114 1024q48 0 48 -49v-926q0 -49 -48 -49h-167q-49 0 -49 49v72q-117 -149 -332 -149q-101 0 -193 42t-159 113.5t-107 172t-40 212.5t40 212.5t107 172t159 113.5t193 42
q215 0 332 -149v72q0 49 49 49h167zM614 223q123 0 203.5 80.5t80.5 208.5t-80.5 208.5t-203.5 80.5t-203 -80.5t-80 -208.5t80 -208.5t203 -80.5z" />
    <glyph glyph-name="aogonek.ss01" horiz-adv-x="1282" 
d="M1162 975v-926v-3q0 -11 -3 -21.5t-9 -20t-10.5 -15.5t-12 -14.5t-9.5 -10.5q-76 -93 -76 -158q-1 -30 15.5 -43.5t46.5 -11.5q46 3 46 -35v-88q0 -34 -26 -43q-62 -22 -139 -22q-88 0 -142 46t-54 132q0 111 134 263q-25 11 -25 45v72q-117 -149 -332 -149
q-101 0 -193 42t-159 113.5t-107 172t-40 212.5t40 212.5t107 172t159 113.5t193 42q215 0 332 -149v72q0 49 49 49h167q48 0 48 -49zM614 223q123 0 203.5 80.5t80.5 208.5t-80.5 208.5t-203.5 80.5t-203 -80.5t-80 -208.5t80 -208.5t203 -80.5z" />
    <glyph glyph-name="aring.ss01" horiz-adv-x="1282" 
d="M630 1103q-113 0 -186 70t-73 174t73 173.5t186 69.5q115 0 186.5 -69t71.5 -174t-71.5 -174.5t-186.5 -69.5zM630 1424q-38 0 -59 -21.5t-21 -55.5t21 -56t59 -22q39 0 60.5 22t21.5 56t-21.5 55.5t-60.5 21.5zM1114 1024q48 0 48 -49v-926q0 -49 -48 -49h-167
q-49 0 -49 49v72q-117 -149 -332 -149q-101 0 -193 42t-159 113.5t-107 172t-40 212.5t40 212.5t107 172t159 113.5t193 42q215 0 332 -149v72q0 49 49 49h167zM614 223q123 0 203.5 80.5t80.5 208.5t-80.5 208.5t-203.5 80.5t-203 -80.5t-80 -208.5t80 -208.5t203 -80.5z
" />
    <glyph glyph-name="atilde.ss01" horiz-adv-x="1282" 
d="M322 1146q-41 0 -38 42q6 103 41 167.5t88 84t115.5 8t126.5 -52.5q35 -24 55.5 -32t33 1t16.5 39q6 41 41 41h135q41 0 38 -42q-6 -103 -41 -167.5t-87.5 -84t-115 -8t-126.5 52.5q-35 24 -55.5 32t-33.5 -1t-17 -39q-6 -41 -41 -41h-135zM1114 1024q48 0 48 -49v-926
q0 -49 -48 -49h-167q-49 0 -49 49v72q-117 -149 -332 -149q-101 0 -193 42t-159 113.5t-107 172t-40 212.5t40 212.5t107 172t159 113.5t193 42q215 0 332 -149v72q0 49 49 49h167zM614 223q123 0 203.5 80.5t80.5 208.5t-80.5 208.5t-203.5 80.5t-203 -80.5t-80 -208.5
t80 -208.5t203 -80.5z" />
    <glyph glyph-name="ae.ss01" horiz-adv-x="2013" 
d="M1484 1052q147 0 255.5 -73t162 -194t53.5 -274q0 -43 -3 -64q-6 -44 -51 -44h-212h-513q26 -105 100.5 -158.5t177.5 -53.5q56 0 106 20.5t81 54.5q29 27 59 27l166 1q26 0 38 -14.5t2 -38.5q-111 -269 -414 -269q-218 0 -345 153v-77q0 -22 -12.5 -35t-35.5 -13h-153
q-22 0 -35 13t-13 35v73q-117 -149 -332 -149q-101 0 -193 42t-159 113.5t-107 172t-40 212.5t40 212.5t107 172t159 113.5t193 42q215 0 332 -149v73q0 22 13 35t35 13h153q23 0 35.5 -13t12.5 -35v-80q127 156 337 156zM1175 611h516q-22 103 -90.5 153.5t-158.5 50.5
q-104 0 -174 -53.5t-93 -150.5zM614 223q123 0 203.5 80.5t80.5 208.5t-80.5 208.5t-203.5 80.5t-203 -80.5t-80 -208.5t80 -208.5t203 -80.5z" />
    <glyph glyph-name="y.ss01" 
d="M921 1024q49 0 49 -49v-1011q0 -102 -34 -181t-93 -126t-134 -70.5t-162 -23.5q-163 0 -278.5 77t-134.5 217q-4 24 9.5 37.5t37.5 13.5h164q19 0 30 -9.5t23 -31.5q13 -36 51.5 -56t94.5 -20q162 0 162 173v141q-87 -133 -279 -133q-146 0 -239.5 107t-93.5 291v605
q0 49 49 49h167q48 0 48 -49v-585q0 -85 45 -129t118 -44q84 0 134.5 52t50.5 162v544q0 49 48 49h167z" />
    <glyph glyph-name="yacute.ss01" 
d="M433 1152q-27 0 -36.5 16t4.5 41l112 192q19 33 57 33h204q30 0 39 -18t-10 -41l-158 -196q-21 -27 -59 -27h-153zM921 1024q49 0 49 -49v-1011q0 -102 -34 -181t-93 -126t-134 -70.5t-162 -23.5q-163 0 -278.5 77t-134.5 217q-4 24 9.5 37.5t37.5 13.5h164q19 0 30 -9.5
t23 -31.5q13 -36 51.5 -56t94.5 -20q162 0 162 173v141q-87 -133 -279 -133q-146 0 -239.5 107t-93.5 291v605q0 49 49 49h167q48 0 48 -49v-585q0 -85 45 -129t118 -44q84 0 134.5 52t50.5 162v544q0 49 48 49h167z" />
    <glyph glyph-name="ycircumflex.ss01" 
d="M234 1137q-24 0 -31.5 14.5t6.5 33.5l163 224q19 25 48 25h155h53q29 0 48 -25l164 -224q14 -19 6.5 -33.5t-31.5 -14.5h-169q-32 0 -48 25l-74 108l-73 -108q-16 -25 -48 -25h-169zM921 1024q49 0 49 -49v-1011q0 -102 -34 -181t-93 -126t-134 -70.5t-162 -23.5
q-163 0 -278.5 77t-134.5 217q-4 24 9.5 37.5t37.5 13.5h164q19 0 30 -9.5t23 -31.5q13 -36 51.5 -56t94.5 -20q162 0 162 173v141q-87 -133 -279 -133q-146 0 -239.5 107t-93.5 291v605q0 49 49 49h167q48 0 48 -49v-585q0 -85 45 -129t118 -44q84 0 134.5 52t50.5 162v544
q0 49 48 49h167z" />
    <glyph glyph-name="ydieresis.ss01" 
d="M262 1149q-40 0 -40 40v161q0 40 40 40h161q40 0 40 -40v-161q0 -40 -40 -40h-161zM641 1149q-40 0 -40 40v161q0 40 40 40h161q40 0 40 -40v-161q0 -40 -40 -40h-161zM921 1024q49 0 49 -49v-1011q0 -102 -34 -181t-93 -126t-134 -70.5t-162 -23.5q-163 0 -278.5 77
t-134.5 217q-4 24 9.5 37.5t37.5 13.5h164q19 0 30 -9.5t23 -31.5q13 -36 51.5 -56t94.5 -20q162 0 162 173v141q-87 -133 -279 -133q-146 0 -239.5 107t-93.5 291v605q0 49 49 49h167q48 0 48 -49v-585q0 -85 45 -129t118 -44q84 0 134.5 52t50.5 162v544q0 49 48 49h167z
" />
    <glyph glyph-name="ygrave.ss01" 
d="M417 1175l-169 209q-16 21 -9 35.5t33 14.5h223q34 0 48 -28l120 -206q12 -20 4 -34t-32 -14h-168q-33 0 -50 23zM921 1024q49 0 49 -49v-1011q0 -102 -34 -181t-93 -126t-134 -70.5t-162 -23.5q-163 0 -278.5 77t-134.5 217q-4 24 9.5 37.5t37.5 13.5h164q19 0 30 -9.5
t23 -31.5q13 -36 51.5 -56t94.5 -20q162 0 162 173v141q-87 -133 -279 -133q-146 0 -239.5 107t-93.5 291v605q0 49 49 49h167q48 0 48 -49v-585q0 -85 45 -129t118 -44q84 0 134.5 52t50.5 162v544q0 49 48 49h167z" />
    <glyph glyph-name="f_f_j" horiz-adv-x="1675" 
d="M1506 1024q48 0 48 -49v-995q0 -214 -97 -317t-299 -102q-23 0 -36 13.5t-13 36.5v157q0 45 50 50q68 5 99.5 43.5t31.5 118.5v790h-301v-721q0 -49 -48 -49h-167q-49 0 -49 49v721h-146h-158v-721q0 -49 -49 -49h-167q-48 0 -48 49v721h-98q-49 0 -49 49v156q0 49 49 49
h98v10q0 205 109 317.5t323 111.5q48 0 48 -50v-157q0 -44 -50 -47q-166 -6 -166 -175v-10h216h88v31q0 427 481 427q93 0 198 -20q43 -7 43 -52v-147q0 -23 -13.5 -35.5t-37.5 -9.5q-96 10 -190 10q-110 0 -163.5 -37.5t-53.5 -135.5v-31h416h101z" />
    <glyph glyph-name="f_j" horiz-adv-x="1105" 
d="M937 1024q49 0 49 -49v-995q0 -214 -97.5 -317t-299.5 -102q-48 0 -48 50v157q0 45 49 50q68 5 100 43.5t32 118.5v790h-301v-721q0 -49 -49 -49h-167q-48 0 -48 49v721h-98q-49 0 -49 49v156q0 49 49 49h98v10q0 427 480 427q100 0 199 -19q43 -7 43 -53v-147
q0 -23 -14 -35.5t-38 -9.5q-96 10 -190 10q-110 0 -163 -37.5t-53 -135.5v-10h416h100z" />
    <glyph glyph-name="uni0414.loclBGR" horiz-adv-x="1495" 
d="M1411 264q48 0 48 -48v-216v-246q0 -49 -48 -49h-185q-48 0 -48 49v246h-767h-94v-246q0 -49 -48 -49h-185q-48 0 -48 49v320v142q0 48 48 48h112l364 1129q12 41 55 41h265q43 0 55 -41l364 -1129h112zM491 264h513l-256 850z" />
    <glyph glyph-name="uni041B.loclBGR" horiz-adv-x="1294" 
d="M515 1434h265q43 0 55 -41l436 -1338q8 -25 -3.5 -40t-37.5 -15h-205q-44 0 -55 40l-323 1065l-323 -1065q-11 -40 -55 -40h-205q-26 0 -37.5 15t-3.5 40l437 1338q12 41 55 41z" />
    <glyph glyph-name="uni0424.loclBGR" horiz-adv-x="1759" 
d="M1693 717q0 -304 -184 -501t-496 -233v-139q0 -49 -49 -49h-169q-49 0 -49 49v139q-312 36 -495.5 233t-183.5 501t183.5 501t495.5 233v139q0 48 49 48h169q49 0 49 -48v-139q312 -36 496 -233t184 -501zM348 717q0 -201 100.5 -323t297.5 -152v950
q-197 -30 -297.5 -152t-100.5 -323zM1013 242q197 30 297.5 152t100.5 323t-100.5 323t-297.5 152v-950z" />
    <glyph glyph-name="uni0414.ss01" horiz-adv-x="1398" 
d="M1293 264q48 0 48 -48v-167q0 -49 -48 -49h-387h-827q-48 0 -48 49v167q0 48 48 48h86q124 162 124 491v630q0 49 48 49h802q49 0 49 -49v-1121h105zM469 264h437v905h-336v-418q0 -318 -101 -487z" />
    <glyph glyph-name="uni0426.ss01" horiz-adv-x="1382" 
d="M1172 270h105q49 0 49 -48v-173q0 -49 -49 -49h-1095q-49 0 -49 49v1336q0 49 49 49h184q49 0 49 -49v-1115h476v1115q0 49 49 49h184q48 0 48 -49v-1115z" />
    <glyph glyph-name="uni0429.ss01" horiz-adv-x="1925" 
d="M1715 270h105q49 0 49 -48v-173q0 -49 -49 -49h-1638q-49 0 -49 49v1336q0 49 49 49h184q49 0 49 -49v-1115h368v1115q0 49 49 49h184q49 0 49 -49v-1115h369v1115q0 49 48 49h185q48 0 48 -49v-1115z" />
    <glyph glyph-name="uni0414.loclBGR.ss01" horiz-adv-x="1495" 
d="M1411 264q48 0 48 -48v-167q0 -49 -48 -49h-327h-973h-27q-48 0 -48 49v167q0 48 48 48h112l364 1129q12 41 55 41h265q43 0 55 -41l364 -1129h112zM491 264h513l-256 850z" />
    <glyph glyph-name="uni0432.loclBGR" horiz-adv-x="1159" 
d="M858 837q113 -47 174 -149t61 -251q0 -219 -128.5 -342t-357.5 -123q-221 0 -354 135t-133 361v487q0 229 127 367.5t338 138.5q179 0 290 -96t111 -260q0 -137 -128 -268zM585 1213q-91 0 -145.5 -70.5t-54.5 -187.5v-118l97 20q67 14 124 17q122 95 122 200
q0 63 -38 101t-105 38zM607 226q105 0 163.5 56t58.5 155q0 120 -94 167t-253 14l-97 -19v-131q0 -111 60 -176.5t162 -65.5z" />
    <glyph glyph-name="uni0433.loclBGR" horiz-adv-x="931" 
d="M613 283q10 23 21 33t31 10h164q24 0 37 -13.5t10 -37.5q-12 -100 -70.5 -169.5t-144.5 -101.5t-191 -32q-120 0 -212 33t-149.5 106.5t-57.5 180.5q0 80 30.5 138.5t79 90t107 53t117 34t106.5 26t78 36.5t30 58q0 45 -35.5 68t-96.5 23q-48 0 -84.5 -20.5t-48.5 -58.5
q-10 -23 -21 -33t-31 -10h-164q-24 0 -37 13.5t-10 37.5q17 147 129 225.5t266 78.5q80 0 150.5 -20.5t126 -59t88 -102t32.5 -142.5q0 -70 -23.5 -123.5t-62.5 -85t-88 -55t-100.5 -35t-101 -25t-88 -25.5t-61.5 -34t-23 -53q0 -45 37.5 -66t115.5 -21q120 0 145 78z" />
    <glyph glyph-name="uni0434.loclBGR" horiz-adv-x="1282" 
d="M1114 1024q48 0 48 -49v-926q0 -98 -30 -179.5t-80.5 -137t-118 -94.5t-142 -57t-152.5 -18q-126 0 -234.5 40t-184.5 123t-90 195q-1 24 12 37.5t37 13.5h168q38 0 52 -43q19 -57 81.5 -94t158.5 -37q125 0 195 65.5t70 185.5v109q-119 -155 -338 -155q-134 0 -249 70
t-182.5 191t-67.5 263t67.5 263t182.5 191.5t249 70.5q219 0 338 -155v78q0 49 49 49h161zM617 248q125 0 206 78.5t81 200.5t-81 201t-206 79t-205.5 -79t-80.5 -201t80.5 -200.5t205.5 -78.5z" />
    <glyph glyph-name="uni0436.loclBGR" horiz-adv-x="1527" 
d="M1461 59q17 -25 8 -42t-38 -17h-186q-38 0 -59 32l-293 425v-408q0 -49 -49 -49h-160q-49 0 -49 49v408l-293 -425q-21 -32 -59 -32h-186q-29 0 -38 17t8 42l328 458l-308 448q-17 25 -8 42t39 17h186q39 0 58 -32l273 -410v803q0 49 49 49h160q49 0 49 -49v-803l272 410
q19 32 59 32h186q30 0 39 -17t-8 -42l-308 -448z" />
    <glyph glyph-name="uni0438.loclBGR" 
d="M921 1024q49 0 49 -49v-926q0 -49 -49 -49h-167q-48 0 -48 49v56q-87 -133 -279 -133q-146 0 -239.5 107t-93.5 291v605q0 49 49 49h167q48 0 48 -49v-585q0 -85 45 -129t118 -44q84 0 134.5 52t50.5 162v544q0 49 48 49h167z" />
    <glyph glyph-name="uni0439.loclBGR" 
d="M305 1156q-49 0 -49 48v132q0 49 49 49h496q49 0 49 -49v-132q0 -48 -49 -48h-496zM921 1024q49 0 49 -49v-926q0 -49 -49 -49h-167q-48 0 -48 49v56q-87 -133 -279 -133q-146 0 -239.5 107t-93.5 291v605q0 49 49 49h167q48 0 48 -49v-585q0 -85 45 -129t118 -44
q84 0 134.5 52t50.5 162v544q0 49 48 49h167z" />
    <glyph glyph-name="uni043A.loclBGR" horiz-adv-x="1058" 
d="M1002 59q19 -24 10.5 -41.5t-38.5 -17.5h-195q-37 0 -58 30l-336 432v-413q0 -49 -49 -49h-167q-49 0 -49 49v1336q0 49 49 49h167q49 0 49 -49v-811l315 420q21 30 59 30h196q30 0 38.5 -17t-9.5 -42l-345 -448z" />
    <glyph glyph-name="uni043B.loclBGR" horiz-adv-x="1024" 
d="M999 56q9 -26 -2 -41t-37 -15h-180q-43 0 -55 40l-213 659l-213 -659q-12 -40 -55 -40h-178q-27 0 -38.5 15t-2.5 41l337 929q16 39 55 39h142h48q40 0 55 -39z" />
    <glyph glyph-name="uni043F.loclBGR" 
d="M663 1052q146 0 239.5 -107t93.5 -291v-605q0 -49 -49 -49h-167q-48 0 -48 49v585q0 85 -45 129t-118 44q-84 0 -134.5 -52t-50.5 -162v-544q0 -49 -48 -49h-167q-49 0 -49 49v926q0 49 49 49h167q48 0 48 -49v-56q87 133 279 133z" />
    <glyph glyph-name="uni0442.loclBGR" horiz-adv-x="1570" 
d="M1158 1052q148 0 233.5 -94t85.5 -268v-641q0 -49 -49 -49h-166q-49 0 -49 49v621q0 72 -36.5 104.5t-94.5 32.5q-63 0 -107 -40.5t-44 -132.5v-585q0 -49 -49 -49h-167q-48 0 -48 49v621q0 72 -36.5 104.5t-94.5 32.5q-63 0 -107 -40.5t-44 -132.5v-585q0 -49 -49 -49
h-167q-49 0 -49 49v926q0 49 49 49h167q49 0 49 -49v-51q85 128 245 128q166 0 247 -136q107 136 281 136z" />
    <glyph glyph-name="uni0446.loclBGR" horiz-adv-x="1169" 
d="M1075 248q49 0 49 -49v-199v-246q0 -49 -49 -49h-161q-48 0 -48 49v266q-72 27 -114 89q-103 -137 -302 -137q-158 0 -257 106.5t-99 291.5v605q0 49 49 49h167q48 0 48 -49v-585q0 -85 45 -129t118 -44q84 0 134.5 52t50.5 162v544q0 49 48 49h167q49 0 49 -49v-663
q0 -30 17.5 -47t47.5 -17h40z" />
    <glyph glyph-name="uni0448.loclBGR" horiz-adv-x="1570" 
d="M1402 1024q49 0 49 -49v-926q0 -49 -49 -49h-167q-48 0 -48 49v51q-85 -128 -245 -128q-80 0 -144.5 35t-103.5 101q-107 -136 -281 -136q-148 0 -233.5 94t-85.5 268v641q0 49 49 49h167q48 0 48 -49v-621q0 -72 36.5 -104.5t94.5 -32.5q63 0 107.5 40.5t44.5 132.5v585
q0 49 48 49h167q49 0 49 -49v-621q0 -72 36 -104.5t94 -32.5q63 0 107.5 40.5t44.5 132.5v585q0 49 48 49h167z" />
    <glyph glyph-name="uni0449.loclBGR" horiz-adv-x="1650" 
d="M1556 248q49 0 49 -49v-199v-246q0 -49 -49 -49h-160q-49 0 -49 49v266q-75 29 -115 91q-102 -139 -290 -139q-80 0 -144.5 35t-103.5 101q-107 -136 -281 -136q-148 0 -233.5 94t-85.5 268v641q0 49 49 49h167q48 0 48 -49v-621q0 -72 36.5 -104.5t94.5 -32.5
q63 0 107.5 40.5t44.5 132.5v585q0 49 48 49h167q49 0 49 -49v-621q0 -72 36 -104.5t94 -32.5q63 0 107.5 40.5t44.5 132.5v585q0 49 48 49h167q49 0 49 -49v-663q0 -30 17.5 -47t47.5 -17h40z" />
    <glyph glyph-name="uni044C.loclBGR" horiz-adv-x="1001" 
d="M540 738q201 0 307.5 -97.5t106.5 -274.5q0 -168 -119.5 -281t-310.5 -113q-201 0 -315.5 111t-114.5 298v594q0 49 49 49h161q48 0 48 -49v-237h188zM524 220q74 0 123 46t49 103q0 62 -40.5 99.5t-115.5 37.5h-188v-125q0 -70 46.5 -115.5t125.5 -45.5z" />
    <glyph glyph-name="uni044A.loclBGR" horiz-adv-x="1185" 
d="M724 738q201 0 308 -98t107 -274q0 -168 -119.5 -281t-310.5 -113q-201 0 -315.5 111t-114.5 298v395h-230q-49 0 -49 49v150q0 49 49 49h320h119q49 0 49 -49v-237h187zM709 220q74 0 123 46t49 103q0 62 -41 99.5t-116 37.5h-187v-125q0 -70 46.5 -115.5t125.5 -45.5z
" />
    <glyph glyph-name="uni044E.loclBGR" horiz-adv-x="1660" 
d="M1053 1052q149 0 273 -71t196.5 -195t72.5 -274t-72.5 -274t-196.5 -195t-273 -71q-192 0 -336 116.5t-184 299.5h-148v-339q0 -49 -49 -49h-167q-49 0 -49 49v1336q0 49 49 49h167q49 0 49 -49v-749h148q40 183 184 299.5t336 116.5zM1053 229q119 0 198.5 80t79.5 203
t-79.5 203t-198.5 80t-198 -79.5t-79 -203.5t79 -203.5t198 -79.5z" />
    <glyph glyph-name="uni0430.ss01" horiz-adv-x="1282" 
d="M1114 1024q48 0 48 -49v-926q0 -49 -48 -49h-167q-49 0 -49 49v72q-117 -149 -332 -149q-101 0 -193 42t-159 113.5t-107 172t-40 212.5t40 212.5t107 172t159 113.5t193 42q215 0 332 -149v72q0 49 49 49h167zM614 223q123 0 203.5 80.5t80.5 208.5t-80.5 208.5
t-203.5 80.5t-203 -80.5t-80 -208.5t80 -208.5t203 -80.5z" />
    <glyph glyph-name="uni0443.ss01" 
d="M921 1024q49 0 49 -49v-1011q0 -102 -34 -181t-93 -126t-134 -70.5t-162 -23.5q-163 0 -278.5 77t-134.5 217q-4 24 9.5 37.5t37.5 13.5h164q19 0 30 -9.5t23 -31.5q13 -36 51.5 -56t94.5 -20q162 0 162 173v141q-87 -133 -279 -133q-146 0 -239.5 107t-93.5 291v605
q0 49 49 49h167q48 0 48 -49v-585q0 -85 45 -129t118 -44q84 0 134.5 52t50.5 162v544q0 49 48 49h167z" />
    <glyph glyph-name="zero.sinf" horiz-adv-x="837" 
d="M418 -355q-171 0 -271.5 118t-100.5 319t100.5 319t271.5 118t272 -118t101 -319t-101 -319t-272 -118zM418 -137q70 0 108.5 56.5t38.5 162.5t-38.5 162.5t-108.5 56.5t-108.5 -56.5t-38.5 -162.5t38.5 -162.5t108.5 -56.5z" />
    <glyph glyph-name="one.sinf" horiz-adv-x="546" 
d="M202 477q26 15 57 15h141q47 0 47 -48v-725q0 -47 -47 -47h-125q-47 0 -47 47v550l-146 -77q-24 -13 -40 -3t-16 37v117q0 38 33 57z" />
    <glyph glyph-name="two.sinf" horiz-adv-x="729" 
d="M109 -328q-48 0 -48 47v64q0 33 25 58l284 280q71 69 71 127q0 33 -21 52t-58 19q-62 0 -80 -47q-10 -23 -20 -32.5t-30 -9.5h-130q-23 0 -36 13t-9 36q15 116 99.5 178t205.5 62q132 0 216 -69.5t84 -197.5q0 -118 -140 -254l-132 -126h238q47 0 47 -47v-106
q0 -47 -47 -47h-519z" />
    <glyph glyph-name="three.sinf" horiz-adv-x="712" 
d="M481 153q87 -26 134.5 -86.5t47.5 -146.5q0 -132 -84 -203.5t-233 -71.5q-134 0 -216 58t-98 167q-4 23 9 36.5t36 13.5h131q13 0 22.5 -5.5t14 -12t14.5 -21.5q20 -44 87 -44q47 0 71.5 22t24.5 61t-25 60t-71 21h-76q-47 0 -47 47v46q0 35 21 59l116 139h-251
q-48 0 -48 47v105q0 22 12.5 35t35.5 13h469q47 0 47 -48v-82q0 -34 -21 -58z" />
    <glyph glyph-name="four.sinf" horiz-adv-x="731" 
d="M651 3q47 0 47 -47v-104q0 -48 -47 -48h-36v-85q0 -47 -47 -47h-116q-47 0 -47 47v85h-335q-47 0 -47 48v121q0 29 15 58l231 427q16 34 56 34h133q27 0 37 -16t-3 -41l-227 -432h140v96q0 47 47 47h116q47 0 47 -47v-96h36z" />
    <glyph glyph-name="five.sinf" horiz-adv-x="684" 
d="M347 183q133 0 212 -68t79 -203q0 -129 -83 -198t-217 -69q-122 0 -203 57t-96 166q-4 23 9 36t36 13h114q13 0 22.5 -6t13.5 -11.5t14 -21.5q22 -46 90 -46q47 0 72.5 23.5t25.5 61.5q0 39 -26 62.5t-72 23.5h-224q-23 0 -34.5 13t-10.5 36l26 394q2 21 15 33.5t34 12.5
h407q47 0 47 -48v-104q0 -47 -47 -47h-258l-8 -110h62z" />
    <glyph glyph-name="six.sinf" horiz-adv-x="696" 
d="M379 226q129 -10 206.5 -90t77.5 -200q0 -128 -87 -209.5t-228 -81.5t-228 81.5t-87 209.5q0 82 39 149v1l236 374q21 32 57 32h120q29 0 38.5 -16.5t-6.5 -40.5zM348 -171q51 0 81.5 28.5t30.5 78.5t-30.5 77.5t-81.5 27.5t-81 -27.5t-30 -77.5t30 -78.5t81 -28.5z" />
    <glyph glyph-name="seven.sinf" horiz-adv-x="604" 
d="M5 444q0 48 47 48h472q47 0 47 -48v-91q0 -32 -11 -58l-232 -585q-15 -38 -55 -38h-129q-26 0 -36.5 15t-0.5 40l227 565h-282q-47 0 -47 47v105z" />
    <glyph glyph-name="eight.sinf" horiz-adv-x="714" 
d="M552 102q58 -34 89 -87t31 -119q0 -115 -83.5 -183t-230.5 -68q-148 0 -231.5 68t-83.5 183q0 66 31 119t89 87q-92 63 -92 171q0 113 81 179.5t206 66.5t205.5 -66.5t80.5 -179.5q0 -108 -92 -171zM358 334q-46 0 -72 -20.5t-26 -58.5q0 -37 26 -58t72 -21q43 0 70.5 21
t27.5 58t-27.5 58t-70.5 21zM358 -168q50 0 78.5 25.5t28.5 68.5q0 42 -29 66.5t-78 24.5q-51 0 -79.5 -24.5t-28.5 -66.5q0 -43 28.5 -68.5t79.5 -25.5z" />
    <glyph glyph-name="nine.sinf" horiz-adv-x="696" 
d="M664 228q0 -83 -39 -150l-236 -374q-21 -32 -57 -32h-120q-29 0 -38.5 16.5t6.5 40.5l138 209q-129 10 -207 90t-78 200q0 128 87.5 209.5t228.5 81.5t228 -81.5t87 -209.5zM237 228q0 -50 30.5 -77.5t81.5 -27.5t81 27.5t30 77.5t-30 78.5t-81 28.5t-81.5 -28.5
t-30.5 -78.5z" />
    <glyph glyph-name="zero.tf" horiz-adv-x="1183" 
d="M591 -28q-180 0 -310.5 94.5t-196.5 261.5t-66 389t66 389t196.5 261t310.5 94t310.5 -94t197 -261t66.5 -389t-66.5 -389t-197 -261.5t-310.5 -94.5zM591 247q143 0 217.5 121t74.5 349t-74.5 349t-217.5 121t-217 -120.5t-74 -349.5t74 -349.5t217 -120.5z" />
    <glyph glyph-name="one.tf" horiz-adv-x="1183" 
d="M108 0q-49 0 -49 49v173q0 48 49 48h381v880l-289 -161q-25 -14 -42 -4.5t-17 37.5v171q0 39 34 59l286 166q25 16 61 16h200q49 0 49 -49v-1115h325q48 0 48 -48v-173q0 -49 -48 -49h-988z" />
    <glyph glyph-name="two.tf" horiz-adv-x="1183" 
d="M125 0q-48 0 -48 49v126q0 33 27 59l496 449q98 88 151 158t53 142q0 92 -58 148t-157 56q-89 0 -150 -43t-75 -120q-11 -47 -52 -47h-185q-24 0 -36.5 13.5t-11.5 37.5q8 84 41 156t82.5 122t112.5 85.5t131 52.5t137 17q94 0 182.5 -31t160.5 -89t115.5 -151t43.5 -207
q0 -119 -76.5 -234.5t-216.5 -239.5l-271 -238h539q48 0 48 -48v-174q0 -49 -48 -49h-935z" />
    <glyph glyph-name="three.tf" horiz-adv-x="1183" 
d="M783 868q158 -42 252 -149.5t94 -268.5q0 -112 -43.5 -204t-118 -151t-173 -91t-210.5 -32q-142 0 -259.5 48.5t-195 147t-89.5 231.5q-1 24 12 37.5t37 13.5h186q39 0 50 -46q15 -75 81.5 -116t177.5 -41q128 0 195.5 54.5t67.5 148.5t-67.5 148t-195.5 54h-105
q-48 0 -48 49v103q0 31 23 60l256 305h-566q-49 0 -49 49v167q0 49 49 49h870q49 0 49 -49v-150q0 -34 -22 -60z" />
    <glyph glyph-name="four.tf" horiz-adv-x="1183" 
d="M1101 505q48 0 48 -49v-164q0 -48 -48 -48h-105v-195q0 -49 -49 -49h-187q-49 0 -49 49v195h-644q-49 0 -49 48v182q0 31 14 60l444 865q18 35 56 35h200q28 0 38 -16.5t-3 -42.5l-446 -870h390v281q0 49 49 49h187q49 0 49 -49v-281h105z" />
    <glyph glyph-name="five.tf" horiz-adv-x="1183" 
d="M607 911q227 0 372 -123t145 -346q0 -149 -73.5 -257.5t-192.5 -160.5t-267 -52q-140 0 -254 46.5t-189 143t-87 229.5q-1 24 11.5 37.5t36.5 13.5h186q40 0 51 -46q14 -70 77 -109.5t168 -39.5q123 0 187 52.5t64 142.5t-64 142.5t-187 52.5h-416q-23 0 -35.5 13.5
t-11.5 37.5l50 699q2 22 15 34.5t35 12.5h781q48 0 48 -49v-167q0 -49 -48 -49h-564l-19 -258h181z" />
    <glyph glyph-name="six.tf" horiz-adv-x="1183" 
d="M596 983q249 -3 396 -141.5t147 -363.5q0 -227 -150.5 -366.5t-402.5 -139.5q-254 0 -403.5 139t-149.5 367q0 177 95 305l446 620q22 31 58 31h215q29 0 38.5 -17t-7.5 -42zM586 238q125 0 198.5 63.5t73.5 176.5t-73.5 176.5t-198.5 63.5q-126 0 -198.5 -63t-72.5 -177
t72.5 -177t198.5 -63z" />
    <glyph glyph-name="seven.tf" horiz-adv-x="1183" 
d="M51 1385q0 49 49 49h968q48 0 48 -49v-160q0 -35 -13 -60l-512 -1128q-16 -37 -58 -37h-195q-28 0 -38 15t1 41l500 1107h-701q-49 0 -49 49v173z" />
    <glyph glyph-name="eight.tf" horiz-adv-x="1183" 
d="M934 745q101 -57 156 -146.5t55 -198.5q0 -198 -148 -313t-406 -115t-405.5 115t-147.5 313q0 109 55 198.5t156 146.5q-162 106 -162 297q0 133 68.5 229.5t181 143t254.5 46.5t254.5 -46.5t181.5 -143t69 -229.5q0 -191 -162 -297zM591 1196q-104 0 -163 -45.5
t-59 -123.5q0 -77 59 -123t163 -46t163.5 46t59.5 123q0 78 -59.5 123.5t-163.5 45.5zM591 238q131 0 201.5 51.5t70.5 145.5t-70.5 146t-201.5 52t-201.5 -52t-70.5 -146t70.5 -145.5t201.5 -51.5z" />
    <glyph glyph-name="nine.tf" horiz-adv-x="1183" 
d="M1149 956q0 -179 -94 -305l-446 -620q-22 -31 -59 -31h-214q-30 0 -39 16.5t8 41.5l282 393q-249 3 -396 141.5t-147 363.5q0 227 150 366t402 139q254 0 403.5 -138.5t149.5 -366.5zM325 956q0 -113 73 -176.5t198 -63.5q126 0 199 63t73 177t-73 177t-199 63
q-125 0 -198 -63.5t-73 -176.5z" />
    <glyph glyph-name="zero.dnom" horiz-adv-x="837" 
d="M418 -28q-171 0 -271.5 118.5t-100.5 319.5t100.5 319t271.5 118t272 -118t101 -319t-101 -319.5t-272 -118.5zM418 190q70 0 108.5 57t38.5 163t-38.5 162.5t-108.5 56.5t-108.5 -56.5t-38.5 -162.5t38.5 -163t108.5 -57z" />
    </font>
</defs>
</svg>
