<?xml version="1.0" standalone="no"?>
<!DOCTYPE svg PUBLIC "-//W3C//DTD SVG 1.1//EN" "http://www.w3.org/Graphics/SVG/1.1/DTD/svg11.dtd" >
<svg xmlns="http://www.w3.org/2000/svg" xmlns:xlink="http://www.w3.org/1999/xlink" version="1.1">
<metadata>
Created by FontForge 20170731 at Wed Nov  4 02:15:32 2020
 By Aleksey,,,
Copyright (c) 2015 by Radomir Tinkov. All rights reserved.
</metadata>
<defs>
<font id="QanelasSoft-ExtraBold" horiz-adv-x="1099" >
  <font-face 
    font-family="Qanelas Soft ExtraBold"
    font-weight="800"
    font-stretch="normal"
    units-per-em="2048"
    panose-1="0 0 9 0 0 0 0 0 0 0"
    ascent="1638"
    descent="-410"
    x-height="1024"
    cap-height="1434"
    bbox="-890 -553 2363 2017"
    underline-thickness="102"
    underline-position="-307"
    unicode-range="U+0020-FB02"
  />
<missing-glyph horiz-adv-x="1024" 
d="M840 1638v-2048h-650v2048h650zM682 1501h-338v-67h133v-76h-135v-68h340v68h-135v76h135v67zM547 1237h-205v-213h340v70h-135v143zM477 1167v-73h-67v73h67zM682 969h-340v-68h135v-76h-135v-67h205v143h135v68zM682 846h-68v-135h-272v-70h340v205zM682 596h-205v-115
h70v47h67v-96h-204v164h-68v-231h340v231zM682 242h-340v-232h340v232zM614 174v-96h-204v96h204zM682 -37h-340v-67h143l-143 -97v-67h340v67h-209l143 97h66v67z" />
    <glyph glyph-name="fi" unicode="fi" horiz-adv-x="1126" 
d="M963 1024q51 0 51 -51v-922q0 -51 -51 -51h-205q-51 0 -51 51v678h-263v-678q0 -51 -51 -51h-205q-51 0 -51 51v678h-86q-51 0 -51 51v193q0 51 51 51h86q0 438 498 438q108 0 211 -20q45 -6 45 -56v-182q0 -25 -14 -37.5t-39 -9.5q-120 10 -203 10q-96 0 -143.5 -30
t-47.5 -113h396h123z" />
    <glyph glyph-name="fl" unicode="fl" horiz-adv-x="1126" 
d="M969 1423q45 -9 45 -57v-1315q0 -51 -51 -51h-205q-51 0 -51 51v1143q-25 2 -72 2q-90 0 -140.5 -43t-50.5 -129h99q51 0 51 -51v-193q0 -51 -51 -51h-99v-678q0 -51 -51 -51h-205q-51 0 -51 51v678h-86q-51 0 -51 51v193q0 51 51 51h86q0 438 498 438q161 0 334 -39z
" />
    <glyph glyph-name="f_f" unicode="ff" horiz-adv-x="1208" 
d="M1155 1190q-137 -10 -137 -146v-20h139q51 0 51 -51v-193q0 -51 -51 -51h-139v-678q0 -51 -51 -51h-205q-51 0 -51 51v678h-138h-129v-678q0 -51 -51 -51h-205q-51 0 -51 51v678h-86q-51 0 -51 51v193q0 51 51 51h86q0 209 111.5 324.5t335.5 115.5q51 0 51 -53v-192
q0 -47 -53 -50q-138 -10 -138 -145h191h76v20q0 210 111.5 325.5t334.5 115.5q51 0 51 -53v-193q0 -46 -53 -49z" />
    <glyph glyph-name="f_f_i" unicode="ffi" horiz-adv-x="1699" 
d="M1536 1024q51 0 51 -51v-922q0 -51 -51 -51h-205q-51 0 -51 51v678h-262v-678q0 -51 -51 -51h-205q-51 0 -51 51v678h-138h-129v-678q0 -51 -51 -51h-205q-51 0 -51 51v678h-86q-51 0 -51 51v193q0 51 51 51h86q0 209 111.5 324.5t335.5 115.5q51 0 51 -53v-192
q0 -47 -53 -50q-138 -10 -138 -145h191h76v20q0 439 497 439q103 0 211 -21q45 -6 45 -55v-182q0 -25 -14 -37.5t-39 -9.5q-120 10 -203 10q-95 0 -142.5 -30t-47.5 -114v-20h395h123z" />
    <glyph glyph-name="f_f_l" unicode="ffl" horiz-adv-x="1699" 
d="M1542 1444q45 -9 45 -58v-1335q0 -51 -51 -51h-205q-51 0 -51 51v1163q-38 3 -72 3q-89 0 -139.5 -43t-50.5 -130v-20h98q51 0 51 -51v-193q0 -51 -51 -51h-98v-678q0 -51 -51 -51h-205q-51 0 -51 51v678h-138h-129v-678q0 -51 -51 -51h-205q-51 0 -51 51v678h-86
q-51 0 -51 51v193q0 51 51 51h86q0 209 111.5 324.5t335.5 115.5q51 0 51 -53v-192q0 -47 -53 -50q-138 -10 -138 -145h191h76v20q0 439 497 439q161 0 334 -39z" />
    <glyph glyph-name=".notdef" horiz-adv-x="1024" 
d="M840 1638v-2048h-650v2048h650zM682 1501h-338v-67h133v-76h-135v-68h340v68h-135v76h135v67zM547 1237h-205v-213h340v70h-135v143zM477 1167v-73h-67v73h67zM682 969h-340v-68h135v-76h-135v-67h205v143h135v68zM682 846h-68v-135h-272v-70h340v205zM682 596h-205v-115
h70v47h67v-96h-204v164h-68v-231h340v231zM682 242h-340v-232h340v232zM614 174v-96h-204v96h204zM682 -37h-340v-67h143l-143 -97v-67h340v67h-209l143 97h66v67z" />
    <glyph glyph-name=".null" horiz-adv-x="0" 
 />
    <glyph glyph-name="nonmarkingreturn" horiz-adv-x="682" 
 />
    <glyph glyph-name="space" unicode=" " horiz-adv-x="512" 
 />
    <glyph glyph-name="exclam" unicode="!" horiz-adv-x="573" 
d="M213 512q-49 0 -55 47l-56 465v358q0 52 52 52h266q51 0 51 -52v-358l-55 -465q-6 -47 -56 -47h-147zM174 0q-51 0 -51 51v225q0 52 51 52h225q52 0 52 -52v-225q0 -51 -52 -51h-225z" />
    <glyph glyph-name="quotedbl" unicode="&#x22;" horiz-adv-x="819" 
d="M172 942q-23 0 -37.5 13t-15.5 36l-33 389q-2 25 11 39.5t38 14.5h180q25 0 38.5 -14.5t11.5 -39.5l-33 -389q-1 -23 -15.5 -36t-37.5 -13h-107zM541 942q-23 0 -38 13t-16 36l-32 389q-2 25 11 39.5t38 14.5h180q25 0 38 -14.5t11 -39.5l-33 -389q-1 -23 -15.5 -36
t-37.5 -13h-106z" />
    <glyph glyph-name="numbersign" unicode="#" horiz-adv-x="1271" 
d="M1176 1024q26 0 38.5 -14.5t8.5 -40.5l-21 -123q-6 -47 -55 -47h-168l-27 -164h160q26 0 38.5 -14.5t8.5 -40.5l-18 -123q-6 -47 -56 -47h-171l-44 -260q-6 -48 -55 -48h-131q-26 0 -38.5 15t-8.5 41l42 252h-187l-43 -260q-6 -48 -56 -48h-131q-26 0 -38.5 15t-8.5 41
l42 252h-161q-26 0 -38.5 14.5t-8.5 40.5l21 123q6 47 55 47h170l27 164h-162q-26 0 -38.5 14.5t-8.5 40.5l20 123q6 47 55 47h172l43 260q6 47 56 47h131q26 0 38.5 -14.5t8.5 -40.5l-42 -252h187l43 260q6 47 56 47h131q26 0 38.5 -14.5t8.5 -40.5l-42 -252h159zM717 635
l27 164h-187l-27 -164h187z" />
    <glyph glyph-name="dollar" unicode="$" horiz-adv-x="1112" 
d="M1071 401q0 -96 -35 -174.5t-96 -130.5t-139.5 -83t-169.5 -39v-138q0 -41 -41 -41h-62q-41 0 -41 41v139q-185 19 -306.5 125t-137.5 297q-1 26 12.5 40t38.5 14h225q45 0 54 -50q18 -83 114 -103v281q-51 18 -85.5 31.5t-82 36.5t-80 46.5t-67.5 58.5t-56 74t-34.5 92
t-13.5 114q0 126 58.5 220.5t151 144.5t209.5 62v138q0 41 41 41h62q41 0 41 -41v-139q170 -20 286 -127t132 -295q1 -26 -13 -39.5t-39 -13.5h-217q-44 0 -53 49q-18 80 -96 102v-283q168 -58 242 -103q184 -111 197 -314q1 -16 1 -33zM395 1032q0 -73 92 -123v226
q-46 -12 -69 -39.5t-23 -63.5zM631 296q56 11 84 39t28 66q0 75 -112 125v-230z" />
    <glyph glyph-name="percent" unicode="%" horiz-adv-x="1667" 
d="M438 766q-152 0 -254 101t-102 247t102 247t254 101t253.5 -99.5t101.5 -248.5q0 -146 -102 -247t-253 -101zM264 0q-31 0 -41 17.5t8 43.5l940 1340q20 33 62 33h168q31 0 41 -18t-8 -44l-942 -1339q-23 -33 -62 -33h-166zM436 1001q48 0 79.5 33.5t31.5 79.5
q0 48 -31 80.5t-80 32.5q-47 0 -77.5 -32.5t-30.5 -80.5t30.5 -80.5t77.5 -32.5zM1231 -25q-152 0 -254.5 101.5t-102.5 247.5t102 247t255 101q151 0 252.5 -101t101.5 -247t-101.5 -247.5t-252.5 -101.5zM1229 211q48 0 79 33.5t31 79.5q0 48 -30.5 80t-79.5 32
q-47 0 -78 -32t-31 -80t31 -80.5t78 -32.5z" />
    <glyph glyph-name="ampersand" unicode="&#x26;" horiz-adv-x="1515" 
d="M1432 63q24 -25 15.5 -44t-42.5 -19h-275q-38 0 -63 25l-57 55q-176 -109 -402 -109q-108 0 -203.5 30t-167 84.5t-113.5 138t-42 184.5q0 113 53 215.5t151 173.5q-75 113 -75 245q0 182 137.5 301t347.5 119q75 0 143 -15.5t129.5 -49t108.5 -83t77.5 -120.5t37.5 -158
q3 -53 -51 -53h-226q-43 0 -55 49q-13 54 -57 82.5t-107 28.5q-67 0 -112 -32.5t-45 -94.5q0 -23 10 -47t32 -51.5t36 -43t43 -43.5l12 -12l319 -317q28 69 35 151q3 52 51 52h228q51 0 51 -35q-13 -215 -139 -394zM639 270q78 0 145 26l-303 290l-3 3q-64 -60 -64 -147
q0 -79 56 -125.5t169 -46.5z" />
    <glyph glyph-name="quotesingle" unicode="'" horiz-adv-x="450" 
d="M172 942q-23 0 -37.5 13t-15.5 36l-33 389q-2 25 11 39.5t38 14.5h180q25 0 38.5 -14.5t11.5 -39.5l-33 -389q-1 -23 -15.5 -36t-37.5 -13h-107z" />
    <glyph glyph-name="parenleft" unicode="(" horiz-adv-x="655" 
d="M369 -205q-42 0 -60 37q-207 436 -207 885t207 885q17 36 60 36h198q29 0 40 -16.5t-1 -42.5q-196 -423 -196 -862t196 -862q12 -26 1 -43t-40 -17h-198z" />
    <glyph glyph-name="parenright" unicode=")" horiz-adv-x="655" 
d="M287 -205h-199q-29 0 -40 17t1 43q197 426 197 862t-197 862q-12 26 -1 42.5t40 16.5h199q42 0 59 -36q207 -436 207 -885t-207 -885q-18 -37 -59 -37z" />
    <glyph glyph-name="asterisk" unicode="*" horiz-adv-x="819" 
d="M664 1239q25 3 39 -9.5t14 -37.5v-74q0 -25 -14 -37.5t-39 -9.5l-132 12l78 -98q33 -45 -10 -72l-59 -36q-22 -14 -41 -8.5t-29 28.5l-61 125l-62 -125q-22 -49 -69 -20l-60 36q-43 27 -10 72l78 98l-131 -12q-25 -3 -39.5 9.5t-14.5 37.5v74q0 25 14.5 37.5t39.5 9.5
l131 -12l-78 98q-33 45 10 72l60 37q46 29 69 -21l62 -125l61 125q10 23 29 29t41 -8l59 -37q43 -27 10 -72l-78 -98z" />
    <glyph glyph-name="plus" unicode="+" horiz-adv-x="1146" 
d="M993 860q51 0 51 -51v-184q0 -52 -51 -52h-276v-276q0 -51 -51 -51h-185q-51 0 -51 51v276h-276q-52 0 -52 52v184q0 51 52 51h276v277q0 51 51 51h185q51 0 51 -51v-277h276z" />
    <glyph glyph-name="comma" unicode="," horiz-adv-x="573" 
d="M399 328q52 0 52 -52v-276q0 -126 -75.5 -202t-209.5 -87q-43 -3 -43 39v51q0 35 41 41q58 9 84 46.5t26 111.5h-100q-51 0 -51 51v225q0 52 51 52h225z" />
    <glyph glyph-name="hyphen" unicode="-" horiz-adv-x="1024" 
d="M174 465q-51 0 -51 51v193q0 51 51 51h676q51 0 51 -51v-193q0 -51 -51 -51h-676z" />
    <glyph glyph-name="period" unicode="." horiz-adv-x="573" 
d="M174 0q-51 0 -51 51v225q0 52 51 52h225q52 0 52 -52v-225q0 -51 -52 -51h-225z" />
    <glyph glyph-name="slash" unicode="/" horiz-adv-x="1064" 
d="M158 -205h-54q-19 0 -26 10t0 29l792 1780q11 24 37 24h54q19 0 26 -10t0 -29l-792 -1779q-11 -25 -37 -25z" />
    <glyph glyph-name="zero" unicode="0" horiz-adv-x="1290" 
d="M645 -29q-182 0 -315 94.5t-201 262t-68 389.5t68 389t201 261.5t315 94.5t315 -94.5t201 -261.5t68 -389t-68 -389.5t-201 -262t-315 -94.5zM645 291q128 0 192 108.5t64 317.5t-64 317.5t-192 108.5t-192 -108.5t-64 -317.5t64 -317.5t192 -108.5z" />
    <glyph glyph-name="one" unicode="1" horiz-adv-x="819" 
d="M319 1417q28 17 64 17h242q51 0 51 -52v-1331q0 -51 -51 -51h-226q-51 0 -51 51v1057l-266 -147q-26 -15 -44 -5t-18 39v215q0 42 35 62z" />
    <glyph glyph-name="two" unicode="2" horiz-adv-x="1097" 
d="M113 0q-52 0 -52 51v150q0 36 27 63l451 455q149 153 149 272q0 73 -36.5 112.5t-104.5 39.5q-131 0 -154 -111q-9 -49 -53 -49h-227q-53 0 -50 53q9 108 52.5 191.5t110 133.5t146 75.5t167.5 25.5q93 0 176.5 -28t151.5 -83.5t108.5 -148.5t40.5 -211
q0 -113 -59.5 -228.5t-153.5 -207.5l-248 -240h430q51 0 51 -51v-213q0 -51 -51 -51h-872z" />
    <glyph glyph-name="three" unicode="3" horiz-adv-x="1126" 
d="M755 854q140 -49 225 -153.5t85 -249.5q0 -115 -42.5 -207.5t-115 -151t-166 -90t-198.5 -31.5q-133 0 -244 47t-187 145t-89 234q-1 26 12.5 40t38.5 14h227q41 0 53 -48q31 -112 189 -112q96 0 145 45t49 115t-49 114.5t-145 44.5h-119q-51 0 -51 52v131q0 32 22 63
l207 270h-475q-51 0 -51 52v204q0 52 51 52h819q51 0 51 -52v-180q0 -32 -22 -63z" />
    <glyph glyph-name="four" unicode="4" horiz-adv-x="1208" 
d="M1137 532q51 0 51 -51v-200q0 -52 -51 -52h-93v-178q0 -51 -51 -51h-229q-51 0 -51 51v178h-621q-51 0 -51 52v219q0 31 14 63l424 834q18 37 60 37h243q29 0 39.5 -17t-2.5 -45l-426 -840h320v256q0 52 51 52h229q51 0 51 -52v-256h93z" />
    <glyph glyph-name="five" unicode="5" horiz-adv-x="1146" 
d="M594 930q141 0 253 -53t180.5 -163.5t68.5 -262.5q0 -115 -42.5 -207.5t-115.5 -151t-166.5 -90t-198.5 -31.5q-133 0 -244 47t-187 145t-89 234q-1 26 12.5 40t38.5 14h228q41 0 53 -48q31 -112 188 -112q96 0 145.5 45t49.5 115t-49 114.5t-146 44.5h-405
q-25 0 -38 14.5t-11 39.5l51 720q2 23 16 36.5t37 13.5h750q51 0 51 -52v-204q0 -52 -51 -52h-492l-14 -196h127z" />
    <glyph glyph-name="six" unicode="6" horiz-adv-x="1146" 
d="M629 981q214 -17 345.5 -156t131.5 -348q0 -223 -148.5 -364.5t-384.5 -141.5q-237 0 -384.5 141t-147.5 365q0 165 85 291h-1l416 633q20 33 61 33h262q31 0 40.5 -18t-7.5 -44zM573 279q85 0 145 54t60 144t-60 144.5t-145 54.5q-87 0 -145.5 -53.5t-58.5 -145.5
t58.5 -145t145.5 -53z" />
    <glyph glyph-name="seven" unicode="7" horiz-adv-x="1003" 
d="M20 1382q0 52 52 52h839q52 0 52 -52v-190q0 -27 -13 -64l-438 -1089q-14 -39 -59 -39h-242q-28 0 -38.5 16t-0.5 43l426 1059h-526q-52 0 -52 51v213z" />
    <glyph glyph-name="eight" unicode="8" horiz-adv-x="1175" 
d="M927 748q91 -58 139 -148t48 -197q0 -199 -138 -315.5t-388 -116.5t-388.5 116.5t-138.5 315.5q0 107 48.5 197t139.5 148q-138 104 -138 288q0 102 37.5 184t102.5 134t151 80t186 28t186 -28t151 -80t102.5 -134t37.5 -184q0 -184 -138 -288zM588 1155q-68 0 -109 -39
t-41 -100t41 -100t109 -39t108.5 39t40.5 100t-40.5 100t-108.5 39zM588 279q88 0 143 46t55 126t-55 126t-143 46t-143.5 -46t-55.5 -126t55.5 -126t143.5 -46z" />
    <glyph glyph-name="nine" unicode="9" horiz-adv-x="1146" 
d="M1106 956q0 -164 -85 -290h1l-416 -633q-20 -33 -61 -33h-262q-31 0 -40.5 17.5t7.5 43.5l268 392q-214 17 -345.5 155.5t-131.5 347.5q0 223 148 364.5t384 141.5q237 0 385 -141.5t148 -364.5zM369 956q0 -90 59.5 -144t144.5 -54q87 0 146 53t59 145t-59 145.5
t-146 53.5q-85 0 -144.5 -54t-59.5 -145z" />
    <glyph glyph-name="colon" unicode=":" horiz-adv-x="573" 
d="M174 696q-51 0 -51 52v225q0 51 51 51h225q52 0 52 -51v-225q0 -52 -52 -52h-225zM174 0q-51 0 -51 51v225q0 52 51 52h225q52 0 52 -52v-225q0 -51 -52 -51h-225z" />
    <glyph glyph-name="semicolon" unicode=";" horiz-adv-x="573" 
d="M399 1024q52 0 52 -51v-225q0 -52 -52 -52h-225q-51 0 -51 52v225q0 51 51 51h225zM399 328q52 0 52 -52v-276q0 -126 -75.5 -202t-209.5 -87q-43 -3 -43 39v51q0 35 41 41q58 9 84 46.5t26 111.5h-100q-51 0 -51 51v225q0 52 51 52h225z" />
    <glyph glyph-name="less" unicode="&#x3c;" horiz-adv-x="1085" 
d="M1004 1184v-207q0 -42 -41 -57l-533 -203l533 -203q41 -15 41 -57v-207q0 -29 -17 -40t-43 1l-823 356q-39 17 -39 60v180q0 45 39 59l823 357q26 12 43 1t17 -40z" />
    <glyph glyph-name="equal" unicode="=" horiz-adv-x="1064" 
d="M133 788q-51 0 -51 52v184q0 51 51 51h799q51 0 51 -51v-184q0 -52 -51 -52h-799zM133 358q-51 0 -51 52v184q0 51 51 51h799q51 0 51 -51v-184q0 -52 -51 -52h-799z" />
    <glyph glyph-name="greater" unicode="&#x3e;" horiz-adv-x="1085" 
d="M82 1184q0 29 16.5 40t42.5 -1l824 -357q39 -14 39 -59v-180q0 -43 -39 -60l-824 -356q-26 -12 -42.5 -1t-16.5 40v207q0 42 41 57l532 203l-532 203q-41 15 -41 57v207z" />
    <glyph glyph-name="question" unicode="?" horiz-adv-x="1146" 
d="M442 512q-26 0 -39.5 14.5t-7.5 38.5q10 47 38.5 92.5t64 79t74.5 71t71 68.5t53 70t21 78q0 56 -38 87.5t-114 31.5q-68 0 -112.5 -29t-57.5 -84q-12 -47 -55 -47h-225q-25 0 -39 13.5t-13 39.5q7 85 38 155.5t79 120t111.5 84t135.5 50.5t151 16q89 0 171.5 -27
t148.5 -77t106 -129.5t40 -175.5q0 -64 -20 -122.5t-50 -100.5t-68 -82.5t-72 -70t-64.5 -62.5t-42.5 -60q-10 -23 -21.5 -33t-33.5 -10h-230zM440 0q-51 0 -51 51v225q0 52 51 52h226q51 0 51 -52v-225q0 -51 -51 -51h-226z" />
    <glyph glyph-name="at" unicode="@" horiz-adv-x="1585" 
d="M807 1253q133 0 249.5 -40t201 -109t145.5 -158.5t91 -190t30 -202.5q0 -214 -92.5 -331.5t-243.5 -117.5q-106 0 -178 43t-103 117q-76 -90 -196 -90q-128 0 -209.5 95.5t-81.5 242.5t81.5 242.5t209.5 95.5q104 0 176 -69q3 44 51 44h147q52 0 52 -51v-432
q0 -135 114 -135q87 0 139 87.5t52 258.5q0 173 -83.5 317t-229.5 227t-322 83q-138 0 -261 -52t-211.5 -140.5t-140 -212.5t-51.5 -263q0 -142 53 -266.5t145 -212.5t222.5 -138.5t280.5 -50.5q170 0 291 39q34 9 34 -26v-15q0 -26 -18 -32q-134 -39 -307 -39
q-165 0 -310 56t-249 153t-164 235t-60 297q0 152 57 288.5t155.5 236t237.5 158t296 58.5zM780 395q47 0 76 33t29 84q0 53 -29 85t-76 32q-49 0 -77.5 -32t-28.5 -85q0 -52 28.5 -84.5t77.5 -32.5z" />
    <glyph glyph-name="A" unicode="A" horiz-adv-x="1351" 
d="M1333 57q9 -27 -3 -42t-40 -15h-252q-46 0 -57 43l-54 182h-502l-54 -182q-11 -43 -58 -43h-252q-28 0 -40 15t-3 42l435 1334q12 43 59 43h328q47 0 59 -43zM515 532h321l-160 543z" />
    <glyph glyph-name="B" unicode="B" horiz-adv-x="1402" 
d="M1115 859q110 -61 173.5 -168t63.5 -240q0 -194 -129 -322.5t-324 -128.5h-694h-31q-51 0 -51 51v1331q0 52 51 52h277h276q189 0 314.5 -113.5t125.5 -286.5q0 -93 -52 -175zM727 1126h-276v-204h348q41 38 41 92q0 51 -31 81.5t-82 30.5zM858 307q85 0 125.5 45
t40.5 119t-40.5 119t-123.5 45h-409v-328h407z" />
    <glyph glyph-name="C" unicode="C" horiz-adv-x="1529" 
d="M807 -29q-159 0 -298 57.5t-237 157t-154.5 237.5t-56.5 294q0 209 95.5 379t267 268t383.5 98q246 0 436.5 -139.5t253.5 -364.5q6 -26 -6.5 -41.5t-38.5 -15.5h-242q-39 0 -57 41q-43 93 -136 147t-210 54q-190 0 -304 -116.5t-114 -309.5t114 -309.5t304 -116.5
q117 0 210 54t136 147q18 40 57 40h242q26 0 38.5 -14t6.5 -39q-60 -225 -251.5 -366.5t-438.5 -141.5z" />
    <glyph glyph-name="D" unicode="D" horiz-adv-x="1495" 
d="M737 1434q146 0 275.5 -55.5t221.5 -150.5t146 -228t54 -283t-54 -283t-146 -228t-221.5 -150.5t-275.5 -55.5h-512h-51q-51 0 -51 51v1331q0 52 51 52h277h286zM737 315q170 0 275.5 109.5t105.5 292.5t-105.5 292t-275.5 109h-286v-803h286z" />
    <glyph glyph-name="E" unicode="E" horiz-adv-x="1044" 
d="M932 315q51 0 51 -51v-213q0 -51 -51 -51h-707h-51q-51 0 -51 51v1331q0 52 51 52h277h471q51 0 51 -52v-213q0 -51 -51 -51h-471v-239h419q52 0 52 -52v-204q0 -52 -52 -52h-419v-256h481z" />
    <glyph glyph-name="F" unicode="F" horiz-adv-x="1034" 
d="M922 1118h-471v-297h460q52 0 52 -51v-213q0 -51 -52 -51h-460v-455q0 -51 -52 -51h-225q-51 0 -51 51v1331q0 52 51 52h277h471q51 0 51 -52v-213q0 -51 -51 -51z" />
    <glyph glyph-name="G" unicode="G" horiz-adv-x="1601" 
d="M1458 784q51 0 51 -51v-235v-447q0 -51 -51 -51h-205q-51 0 -51 51v116q-147 -196 -436 -196q-197 0 -358.5 98t-254 269t-92.5 379q0 209 95.5 379t267 268t383.5 98q241 0 431.5 -131.5t254.5 -331.5q9 -26 -3 -41.5t-40 -15.5h-242q-38 0 -59 37q-46 71 -138.5 117.5
t-203.5 46.5q-190 0 -304 -116.5t-114 -309.5q0 -204 117 -325.5t301 -121.5q125 0 225 56.5t141 171.5h-309q-51 0 -51 51v184q0 51 51 51h594z" />
    <glyph glyph-name="H" unicode="H" horiz-adv-x="1310" 
d="M1137 1434q51 0 51 -52v-1331q0 -51 -51 -51h-226q-51 0 -51 51v529h-409v-529q0 -51 -52 -51h-225q-51 0 -51 51v1331q0 52 51 52h225q52 0 52 -52v-487h409v487q0 52 51 52h226z" />
    <glyph glyph-name="I" unicode="I" horiz-adv-x="573" 
d="M123 1382q0 52 51 52h225q52 0 52 -52v-1331q0 -51 -52 -51h-225q-51 0 -51 51v1331z" />
    <glyph glyph-name="J" unicode="J" horiz-adv-x="1105" 
d="M512 -29q-94 0 -176 26t-150 78t-111.5 140t-51.5 203q-3 53 49 53h227q44 0 53 -51q9 -68 48 -98.5t112 -30.5q164 0 164 139v952q0 52 51 52h225q52 0 52 -52v-952q0 -114 -41 -204t-110.5 -144.5t-156 -82.5t-184.5 -28z" />
    <glyph glyph-name="K" unicode="K" horiz-adv-x="1282" 
d="M1239 61q17 -26 7.5 -43.5t-40.5 -17.5h-258q-41 0 -61 33l-436 630v-612q0 -51 -52 -51h-225q-51 0 -51 51v1331q0 52 51 52h225q52 0 52 -52v-572l415 591q23 33 62 33h258q31 0 41 -18t-8 -44l-441 -636z" />
    <glyph glyph-name="L" unicode="L" horiz-adv-x="962" 
d="M891 315q51 0 51 -51v-213q0 -51 -51 -51h-604h-113q-51 0 -51 51v1331q0 52 51 52h225q52 0 52 -52v-1067h440z" />
    <glyph glyph-name="M" unicode="M" horiz-adv-x="1679" 
d="M1505 1434q51 0 51 -52v-1331q0 -51 -51 -51h-225q-51 0 -51 51v828l-260 -617q-14 -39 -60 -39h-139q-45 0 -59 39l-260 617v-828q0 -51 -52 -51h-225q-51 0 -51 51v1331q0 52 51 52h225h50q45 0 59 -39l332 -789l331 789q14 39 60 39h166h108z" />
    <glyph glyph-name="N" unicode="N" horiz-adv-x="1331" 
d="M881 1382q0 52 51 52h225q51 0 51 -52v-1331q0 -51 -51 -51h-153q-44 0 -64 33l-489 766v-748q0 -51 -52 -51h-225q-51 0 -51 51v1331q0 52 51 52h154q43 0 63 -33l490 -766v747z" />
    <glyph glyph-name="O" unicode="O" horiz-adv-x="1613" 
d="M807 -29q-152 0 -290 57.5t-238 156.5t-159 238t-59 294q0 207 100 378.5t271 269t375 97.5q203 0 374 -97.5t271 -269t100 -378.5t-100 -379t-271 -269.5t-374 -97.5zM807 291q178 0 298 118.5t120 307.5t-120 307.5t-298 118.5t-298 -118.5t-120 -307.5t120 -307.5
t298 -118.5z" />
    <glyph glyph-name="P" unicode="P" horiz-adv-x="1208" 
d="M666 1434q211 0 356 -143.5t145 -348.5t-145 -348t-356 -143h-215v-400q0 -51 -52 -51h-225q-51 0 -51 51v1331q0 52 51 52h277h215zM666 758q75 0 124.5 53t49.5 131t-49.5 131t-124.5 53h-215v-368h215z" />
    <glyph glyph-name="Q" unicode="Q" horiz-adv-x="1624" 
d="M1383 240l112 -127q33 -39 -6 -72l-162 -135q-40 -34 -72 6l-118 134q-155 -75 -330 -75q-152 0 -290 57.5t-238 156.5t-159 238t-59 294q0 207 100 378.5t271 269t375 97.5q203 0 374 -97.5t271 -269t100 -378.5q0 -273 -169 -477zM807 291q55 0 104 12l-110 125
q-33 39 6 72l162 135q39 34 71 -6l125 -142q60 101 60 230q0 189 -120 307.5t-298 118.5t-298 -118.5t-120 -307.5t120 -307.5t298 -118.5z" />
    <glyph glyph-name="R" unicode="R" horiz-adv-x="1290" 
d="M1282 63q20 -25 10.5 -44t-41.5 -19h-262q-41 0 -63 31l-349 440h-126v-420q0 -51 -52 -51h-225q-51 0 -51 51v1331q0 52 51 52h277h225q134 0 247 -66t178.5 -179t65.5 -247q0 -127 -69 -238t-184 -173zM451 1126v-368h225q68 0 116 53.5t48 130.5t-48 130.5t-116 53.5
h-225z" />
    <glyph glyph-name="S" unicode="S" horiz-adv-x="1116" 
d="M571 -29q-103 0 -192.5 25.5t-162 75.5t-118.5 133.5t-55 191.5q-1 26 12.5 40t38.5 14h225q45 0 54 -50q24 -110 198 -110q93 0 135 30.5t42 79.5q0 24 -13 45.5t-30 36t-51.5 31t-60.5 26t-73 25.5q-169 58 -243 101q-192 110 -213 311q-3 26 -3 55q0 104 40 187.5
t107.5 135.5t152.5 79.5t178 27.5t175.5 -25.5t151 -75.5t113 -133.5t53.5 -191.5q3 -53 -51 -53h-225q-45 0 -54 49q-23 111 -163 111q-73 0 -111.5 -32t-38.5 -79q0 -59 50 -96t153 -74q13 -5 40 -14q41 -14 62 -21.5t60.5 -22.5t62 -27t57 -30.5t55.5 -37t47 -43
t41.5 -52t30 -60t21 -71.5t6.5 -82q0 -139 -70 -238t-182 -145.5t-252 -46.5z" />
    <glyph glyph-name="T" unicode="T" horiz-adv-x="1024" 
d="M952 1434q52 0 52 -52v-213q0 -51 -52 -51h-276v-1067q0 -51 -51 -51h-226q-51 0 -51 51v1067h-276q-52 0 -52 51v213q0 52 52 52h604h276z" />
    <glyph glyph-name="U" unicode="U" horiz-adv-x="1269" 
d="M635 -29q-150 0 -269 52.5t-191.5 161t-72.5 257.5v940q0 52 52 52h225q51 0 51 -52v-911q0 -87 47.5 -133.5t157.5 -46.5t157.5 46.5t47.5 133.5v911q0 52 51 52h225q51 0 51 -52v-940q0 -112 -41.5 -202.5t-114 -148.5t-168.5 -89t-208 -31z" />
    <glyph glyph-name="V" unicode="V" horiz-adv-x="1310" 
d="M492 0q-46 0 -58 43l-416 1333q-8 26 3.5 42t39.5 16h252q47 0 58 -43l284 -1012l285 1012q11 43 57 43h252q28 0 39.5 -16t3.5 -42l-415 -1333q-12 -43 -58 -43h-327z" />
    <glyph glyph-name="W" unicode="W" horiz-adv-x="1843" 
d="M1784 1434q28 0 39 -15t4 -43l-367 -1333q-11 -43 -57 -43h-262q-47 0 -58 43l-161 588l-162 -588q-11 -43 -58 -43h-262q-46 0 -57 43l-367 1333q-7 28 4 43t39 15h240q46 0 55 -45l238 -959l190 710l-65 236q-7 28 4 43t39 15h198q47 0 56 -45l237 -959l238 959
q9 45 55 45h240z" />
    <glyph glyph-name="X" unicode="X" horiz-adv-x="1249" 
d="M1194 61q15 -28 5 -44.5t-40 -16.5h-262q-41 0 -61 35l-211 371l-211 -371q-20 -35 -62 -35h-262q-30 0 -40 16.5t5 44.5l383 674l-362 637q-15 28 -5 45t40 17h262q41 0 61 -35l191 -335l190 335q20 35 62 35h262q30 0 40 -17t-5 -45l-363 -637z" />
    <glyph glyph-name="Y" unicode="Y" horiz-adv-x="1249" 
d="M1180 1434q29 0 39 -17t-5 -45l-426 -744v-577q0 -51 -51 -51h-225q-51 0 -51 51v577l-426 744q-15 28 -5 45t40 17h262q41 0 59 -37l234 -447l233 447q18 37 60 37h262z" />
    <glyph glyph-name="Z" unicode="Z" horiz-adv-x="1105" 
d="M496 315h508q51 0 51 -51v-213q0 -51 -51 -51h-881q-51 0 -51 51v168q0 34 18 64l531 835h-488q-51 0 -51 51v213q0 52 51 52h860q51 0 51 -52v-168q0 -33 -18 -63z" />
    <glyph glyph-name="bracketleft" unicode="[" horiz-adv-x="614" 
d="M563 1343h-153v-1253h153q51 0 51 -51v-193q0 -51 -51 -51h-317h-92q-52 0 -52 51v1741q0 51 52 51h256h153q51 0 51 -51v-192q0 -52 -51 -52z" />
    <glyph glyph-name="backslash" unicode="\" horiz-adv-x="1064" 
d="M907 -205q-26 0 -37 25l-792 1779q-7 19 0 29t26 10h54q26 0 37 -24l792 -1780q7 -19 0 -29t-26 -10h-54z" />
    <glyph glyph-name="bracketright" unicode="]" horiz-adv-x="614" 
d="M461 1638q51 0 51 -51v-1741q0 -51 -51 -51h-256h-154q-51 0 -51 51v193q0 51 51 51h154v1253h-154q-51 0 -51 52v192q0 51 51 51h318h92z" />
    <glyph glyph-name="asciicircum" unicode="^" horiz-adv-x="1187" 
d="M1071 799q15 -28 4.5 -45t-41.5 -17h-215q-43 0 -61 37l-164 305l-164 -305q-18 -37 -61 -37h-215q-31 0 -41.5 17t4.5 45l346 600q20 35 61 35h140q41 0 61 -35z" />
    <glyph glyph-name="underscore" unicode="_" horiz-adv-x="1064" 
d="M113 -371q-52 0 -52 52v192q0 51 52 51h839q52 0 52 -51v-192q0 -52 -52 -52h-839z" />
    <glyph glyph-name="grave" unicode="`" horiz-adv-x="614" 
d="M516 1147q25 0 33 14.5t-4 34.5l-119 209q-14 29 -49 29h-271q-26 0 -33.5 -15t9.5 -37l176 -213q16 -22 51 -22h207z" />
    <glyph glyph-name="a" unicode="a" horiz-adv-x="1048" 
d="M537 1053q86 0 161.5 -25.5t135.5 -74.5t94.5 -128.5t34.5 -179.5v-594q0 -51 -52 -51h-196q-51 0 -51 51v29q-94 -109 -265 -109q-143 0 -240.5 84t-97.5 236t97 235.5t241 83.5q163 0 265 -78v93q0 75 -31 110t-96 35q-92 0 -119 -59q-10 -24 -20.5 -34.5t-32.5 -10.5
h-201q-54 0 -51 53q13 107 75.5 184t152 113.5t196.5 36.5zM508 188q73 0 114.5 28.5t41.5 74.5q0 48 -41 75t-115 27q-68 0 -103.5 -28t-35.5 -74t35.5 -74.5t103.5 -28.5z" />
    <glyph glyph-name="b" unicode="b" horiz-adv-x="1275" 
d="M725 1053q202 0 345.5 -157t143.5 -384t-143.5 -384t-345.5 -157q-196 0 -305 125v-45q0 -51 -51 -51h-205q-51 0 -51 51v1331q0 52 51 52h205q51 0 51 -52v-454q109 125 305 125zM664 262q107 0 175 68t68 182t-68 182t-175 68t-175.5 -68t-68.5 -182t68.5 -182
t175.5 -68z" />
    <glyph glyph-name="c" unicode="c" horiz-adv-x="1153" 
d="M1065 389q27 0 39.5 -15.5t3.5 -41.5q-48 -161 -186.5 -261t-317.5 -100q-232 0 -387.5 155.5t-155.5 385.5t155.5 385.5t387.5 155.5q179 0 317.5 -100t186.5 -261q9 -26 -3.5 -41.5t-39.5 -15.5h-225q-38 0 -62 35q-58 80 -174 80q-101 0 -168 -66.5t-67 -171.5
t67 -171.5t168 -66.5q115 0 174 78q24 37 62 37h225z" />
    <glyph glyph-name="d" unicode="d" horiz-adv-x="1275" 
d="M1112 1434q51 0 51 -52v-1331q0 -51 -51 -51h-205q-51 0 -51 51v45q-109 -125 -305 -125q-202 0 -346 157t-144 384t144 384t346 157q196 0 305 -125v454q0 52 51 52h205zM612 262q107 0 175.5 68t68.5 182t-68.5 182t-175.5 68t-175 -68t-68 -182t68 -182t175 -68z" />
    <glyph glyph-name="e" unicode="e" horiz-adv-x="1183" 
d="M610 1053q147 0 265.5 -70.5t184.5 -194t66 -276.5q0 -26 -4 -76q-6 -47 -55 -47h-250h-434q26 -87 90 -128.5t150 -41.5q90 0 151 51q34 27 64 27l196 2q28 0 40.5 -16.5t0.5 -40.5q-59 -132 -178.5 -201.5t-278.5 -69.5q-250 0 -403.5 154t-153.5 387q0 231 154.5 386
t394.5 155zM382 623h439q-22 82 -80 119.5t-133 37.5q-86 0 -144 -40t-82 -117z" />
    <glyph glyph-name="f" unicode="f" horiz-adv-x="634" 
d="M582 1169q-65 0 -101.5 -36.5t-36.5 -108.5h140q51 0 51 -51v-193q0 -51 -51 -51h-140v-678q0 -51 -51 -51h-205q-51 0 -51 51v678h-86q-51 0 -51 51v193q0 51 51 51h86q0 209 111.5 324.5t335.5 115.5q51 0 51 -53v-192q0 -50 -53 -50z" />
    <glyph glyph-name="g" unicode="g" horiz-adv-x="1275" 
d="M1112 1024q51 0 51 -51v-922q0 -100 -31 -182.5t-82 -138.5t-119.5 -94.5t-142.5 -56t-151 -17.5q-130 0 -239 38.5t-185.5 123t-91.5 202.5q-1 26 12.5 40t38.5 14h207q22 0 34.5 -11t20.5 -34q18 -48 69.5 -75.5t133.5 -27.5q105 0 166 56.5t61 162.5v93
q-111 -132 -313 -132q-132 0 -245 70t-179 190t-66 260t66 260t179 190.5t245 70.5q202 0 313 -132v52q0 51 51 51h197zM616 295q109 0 178.5 66.5t69.5 171.5t-69.5 171t-178.5 66t-178 -66t-69 -171q0 -106 69 -172t178 -66z" />
    <glyph glyph-name="h" unicode="h" 
d="M686 1053q146 0 237 -108t91 -296v-598q0 -51 -51 -51h-205q-51 0 -51 51v572q0 73 -38 110t-100 37q-149 0 -149 -172v-547q0 -51 -51 -51h-205q-51 0 -51 51v1331q0 52 51 52h205q51 0 51 -52v-452q83 123 266 123z" />
    <glyph glyph-name="i" unicode="i" horiz-adv-x="532" 
d="M164 1147q-51 0 -51 51v184q0 52 51 52h205q51 0 51 -52v-184q0 -51 -51 -51h-205zM164 0q-51 0 -51 51v922q0 51 51 51h205q51 0 51 -51v-922q0 -51 -51 -51h-205z" />
    <glyph glyph-name="j" unicode="j" horiz-adv-x="563" 
d="M399 1434q52 0 52 -52v-184q0 -51 -52 -51h-204q-52 0 -52 51v184q0 52 52 52h204zM399 1024q52 0 52 -51v-973q0 -227 -101.5 -333.5t-318.5 -106.5q-51 0 -51 53v192q0 48 53 54q57 6 83.5 40t26.5 101v973q0 51 52 51h204z" />
    <glyph glyph-name="k" unicode="k" horiz-adv-x="1075" 
d="M1030 61q18 -26 9 -43.5t-40 -17.5h-233q-41 0 -61 33l-285 416v-398q0 -51 -51 -51h-205q-51 0 -51 51v1331q0 52 51 52h205q51 0 51 -52v-803l264 412q20 33 61 33h236q31 0 40.5 -17.5t-7.5 -43.5l-301 -451z" />
    <glyph glyph-name="l" unicode="l" horiz-adv-x="532" 
d="M164 0q-51 0 -51 51v1372q0 52 51 52h205q51 0 51 -52v-1372q0 -51 -51 -51h-205z" />
    <glyph glyph-name="m" unicode="m" horiz-adv-x="1570" 
d="M1167 1053q152 0 235 -93.5t83 -269.5v-639q0 -51 -51 -51h-205q-51 0 -51 51v613q0 106 -107 106q-52 0 -85.5 -31t-33.5 -100v-588q0 -51 -51 -51h-205q-51 0 -51 51v613q0 106 -106 106q-52 0 -85.5 -31t-33.5 -100v-588q0 -51 -51 -51h-205q-51 0 -51 51v922
q0 51 51 51h205q51 0 51 -51v-42q37 56 97.5 89t137.5 33q159 0 238 -122q113 122 274 122z" />
    <glyph glyph-name="n" unicode="n" 
d="M686 1053q146 0 237 -108t91 -296v-598q0 -51 -51 -51h-205q-51 0 -51 51v572q0 73 -38 110t-100 37q-149 0 -149 -172v-547q0 -51 -51 -51h-205q-51 0 -51 51v922q0 51 51 51h205q51 0 51 -51v-43q83 123 266 123z" />
    <glyph glyph-name="o" unicode="o" horiz-adv-x="1208" 
d="M604 -29q-149 0 -273.5 71t-197 195.5t-72.5 274.5t72.5 274.5t197 195.5t273.5 71t273.5 -71t197 -195.5t72.5 -274.5t-72.5 -274.5t-197 -195.5t-273.5 -71zM604 270q101 0 168.5 67.5t67.5 174.5t-67.5 174.5t-168.5 67.5t-168 -67.5t-67 -174.5t67 -174.5t168 -67.5z
" />
    <glyph glyph-name="p" unicode="p" horiz-adv-x="1275" 
d="M725 1053q202 0 345.5 -157t143.5 -384t-143.5 -384t-345.5 -157q-196 0 -305 125v-454q0 -52 -51 -52h-205q-51 0 -51 52v1331q0 51 51 51h205q51 0 51 -51v-45q109 125 305 125zM664 262q107 0 175 68t68 182t-68 182t-175 68t-175.5 -68t-68.5 -182t68.5 -182
t175.5 -68z" />
    <glyph glyph-name="q" unicode="q" horiz-adv-x="1275" 
d="M1112 1024q51 0 51 -51v-1331q0 -52 -51 -52h-205q-51 0 -51 52v454q-109 -125 -305 -125q-202 0 -346 157t-144 384t144 384t346 157q196 0 305 -125v45q0 51 51 51h205zM612 262q107 0 175.5 68t68.5 182t-68.5 182t-175.5 68t-175 -68t-68 -182t68 -182t175 -68z" />
    <glyph glyph-name="r" unicode="r" horiz-adv-x="706" 
d="M633 1040q25 4 39 -9.5t14 -39.5v-241q0 -50 -41 -50q-96 3 -160.5 -49.5t-64.5 -167.5v-432q0 -51 -51 -51h-205q-51 0 -51 51v922q0 51 51 51h205q51 0 51 -51v-111q23 76 79 121t134 57z" />
    <glyph glyph-name="s" unicode="s" horiz-adv-x="995" 
d="M389 717q0 -27 23 -45t60.5 -27t85.5 -19.5t98.5 -20.5t98.5 -33t85.5 -54t60.5 -85t23 -126q0 -86 -34.5 -152t-94.5 -105t-135 -59t-162 -20q-80 0 -151 18.5t-129 55.5t-95.5 98t-46.5 140q-3 26 10.5 39.5t38.5 13.5h201q21 0 32 -9.5t23 -33.5q25 -55 117 -55
q118 0 118 69q0 29 -29.5 47.5t-76.5 29t-104 21t-114 31t-104 52t-76.5 90t-29.5 139.5q0 84 34.5 149.5t93.5 105.5t132 60.5t156 20.5q99 0 183 -31.5t145 -104t73 -176.5q3 -26 -10.5 -39.5t-38.5 -13.5h-201q-21 0 -32 10t-23 35q-22 53 -96 53q-109 0 -109 -69z" />
    <glyph glyph-name="t" unicode="t" horiz-adv-x="696" 
d="M614 1024q52 0 52 -51v-193q0 -51 -52 -51h-112v-678q0 -51 -51 -51h-205q-51 0 -51 51v678h-113q-51 0 -51 51v193q0 51 51 51h113v276q0 52 51 52h205q51 0 51 -52v-276h112z" />
    <glyph glyph-name="u" unicode="u" 
d="M936 1024q51 0 51 -51v-922q0 -51 -51 -51h-205q-51 0 -51 51v43q-83 -123 -266 -123q-146 0 -237 108t-91 296v598q0 51 51 51h205q51 0 51 -51v-572q0 -73 37.5 -110t99.5 -37q150 0 150 172v547q0 51 51 51h205z" />
    <glyph glyph-name="v" unicode="v" horiz-adv-x="1044" 
d="M983 1024q28 0 39 -15.5t2 -43.5l-334 -924q-15 -41 -57 -41h-172h-49q-43 0 -58 41l-334 924q-9 27 3 43t40 16h220q45 0 57 -43l182 -587l183 587q12 43 57 43h221z" />
    <glyph glyph-name="w" unicode="w" horiz-adv-x="1515" 
d="M1434 1024q28 0 39.5 -15.5t3.5 -41.5l-295 -924q-12 -43 -60 -43h-172h-24q-48 0 -60 43l-108 341l-109 -341q-12 -43 -59 -43h-129h-68q-47 0 -59 43l-295 924q-8 26 3.5 41.5t39.5 15.5h221q46 0 57 -43l160 -594l116 377l-65 203q-8 26 3.5 41.5t39.5 15.5h160
q45 0 57 -43l174 -559l150 559q11 43 57 43h222z" />
    <glyph glyph-name="x" unicode="x" horiz-adv-x="983" 
d="M944 61q17 -26 6.5 -43.5t-41.5 -17.5h-213q-40 0 -61 35l-143 228l-144 -228q-21 -35 -61 -35h-213q-31 0 -41.5 17.5t6.5 43.5l290 461l-278 441q-17 26 -6.5 43.5t41.5 17.5h213q40 0 61 -35l132 -208l131 208q21 35 61 35h213q31 0 41.5 -17.5t-6.5 -43.5l-277 -441z
" />
    <glyph glyph-name="y" unicode="y" horiz-adv-x="1044" 
d="M705 981q12 43 57 43h221q28 0 40 -15t3 -42l-442 -1336q-11 -41 -60 -41h-221q-28 0 -40 15.5t-3 42.5l123 368l-360 949q-9 26 1.5 42.5t38.5 16.5h222q42 0 57 -41l195 -543z" />
    <glyph glyph-name="z" unicode="z" horiz-adv-x="931" 
d="M473 287h356q52 0 52 -51v-185q0 -51 -52 -51h-716q-52 0 -52 51v119q0 33 21 63l367 504h-316q-51 0 -51 51v185q0 51 51 51h676q51 0 51 -51v-119q0 -34 -20 -63z" />
    <glyph glyph-name="braceleft" unicode="{" horiz-adv-x="716" 
d="M696 -168q0 -53 -51 -53q-203 0 -301 102.5t-98 296.5v291q0 56 -22.5 79t-67.5 25q-54 3 -54 52v190q0 48 54 51q45 2 67.5 25.5t22.5 79.5v291q0 194 98 296.5t301 102.5q51 0 51 -53v-191q0 -48 -53 -51q-45 -2 -67.5 -25t-22.5 -79v-291q0 -175 -109 -250
q109 -78 109 -252v-291q0 -56 22.5 -79t67.5 -25q53 -3 53 -51v-191z" />
    <glyph glyph-name="bar" unicode="|" horiz-adv-x="552" 
d="M174 -410q-51 0 -51 52v1781q0 52 51 52h205q51 0 51 -52v-1781q0 -52 -51 -52h-205z" />
    <glyph glyph-name="braceright" unicode="}" horiz-adv-x="716" 
d="M20 -168v191q0 48 54 51q45 2 67.5 25t22.5 79v291q0 175 108 252q-108 74 -108 250v291q0 56 -22.5 79t-67.5 25q-54 3 -54 51v191q0 25 13.5 39t38.5 14q203 0 301 -102.5t98 -296.5v-291q0 -56 22.5 -79.5t67.5 -25.5q53 -3 53 -51v-190q0 -49 -53 -52
q-45 -2 -67.5 -25t-22.5 -79v-291q0 -194 -98 -296.5t-301 -102.5q-25 0 -38.5 14t-13.5 39z" />
    <glyph glyph-name="asciitilde" unicode="~" horiz-adv-x="1228" 
d="M881 879q21 46 67 24l156 -76q43 -22 29 -67q-31 -92 -83 -152.5t-117.5 -85t-140.5 -19.5t-155 38q-53 22 -81.5 33.5t-62 22t-51.5 11t-37.5 -4t-32 -18t-24.5 -36.5q-25 -48 -67 -27l-156 76q-44 23 -29 68q31 92 83 152.5t117.5 85t140.5 19.5t155 -38
q52 -22 81 -33.5t62 -21.5t51 -10.5t37.5 4.5t32.5 18.5t25 36.5z" />
    <glyph glyph-name="exclamdown" unicode="&#xa1;" horiz-adv-x="573" 
d="M174 1024h225q52 0 52 -51v-225q0 -52 -52 -52h-225q-51 0 -51 52v225q0 51 51 51zM213 512h147q50 0 56 -47l55 -465v-358q0 -52 -51 -52h-266q-52 0 -52 52v358l56 465q6 47 55 47z" />
    <glyph glyph-name="cent" unicode="&#xa2;" horiz-adv-x="1153" 
d="M1065 594q27 0 39.5 -15.5t3.5 -41.5q-48 -161 -186.5 -261t-317.5 -100q-71 0 -141 17l-53 -166q-9 -27 -37 -27h-56q-36 0 -26 37l63 196q-134 67 -213.5 196t-79.5 288q0 230 155.5 385.5t387.5 155.5q40 0 79 -6l50 155q9 27 37 27h55q17 0 24.5 -10t2.5 -27
l-56 -173q113 -42 195.5 -127.5t116.5 -199.5q9 -26 -3.5 -41.5t-39.5 -15.5h-225q-38 0 -62 35q-28 39 -75 60l-146 -452q20 -4 47 -4q115 0 174 78q24 37 62 37h225zM369 717q0 -117 82 -185l136 422q-95 -6 -156.5 -71.5t-61.5 -165.5z" />
    <glyph glyph-name="sterling" unicode="&#xa3;" horiz-adv-x="1198" 
d="M1116 315q51 0 51 -51v-213q0 -51 -51 -51h-1003q-52 0 -52 51v213q0 51 52 51h84v195h-64q-51 0 -51 51v184q0 52 51 52h64v207q0 91 26.5 168t71 129.5t104 89.5t125 54t133.5 17t133.5 -17t125 -54t104.5 -89.5t71.5 -129.5t26.5 -168v-52q0 -51 -51 -51h-225
q-51 0 -51 51v52q0 65 -37 102t-97 37t-96.5 -37t-36.5 -102v-207h305q52 0 52 -52v-184q0 -51 -52 -51h-305v-195h592z" />
    <glyph glyph-name="currency" unicode="&#xa4;" horiz-adv-x="1105" 
d="M901 449l115 -113q28 -28 0 -57l-25 -25q-30 -30 -57 0l-116 116q-114 -83 -265 -83t-265 83l-116 -116q-28 -28 -57 0l-25 25q-28 29 0 57l114 114q-91 115 -91 267t91 267l-114 114q-28 28 0 57l25 25q29 28 57 0l116 -116q114 83 265 83t265 -83l116 116q28 28 57 0
l25 -25q28 -29 0 -57l-114 -114q91 -115 91 -267t-92 -268zM553 578q63 0 100 38t37 101t-37 101t-100 38t-100 -38t-37 -101t37 -101t100 -38z" />
    <glyph glyph-name="yen" unicode="&#xa5;" horiz-adv-x="1249" 
d="M1180 1434q29 0 39 -17t-5 -45l-355 -620h202q45 0 45 -45v-91q0 -45 -45 -45h-273v-82h273q45 0 45 -45v-90q0 -45 -45 -45h-273v-258q0 -51 -51 -51h-225q-51 0 -51 51v258h-273q-45 0 -45 45v90q0 45 45 45h273v82h-273q-45 0 -45 45v91q0 45 45 45h202l-355 620
q-15 28 -5 45t40 17h262q41 0 59 -37l234 -447l233 447q18 37 60 37h262z" />
    <glyph glyph-name="brokenbar" unicode="&#xa6;" horiz-adv-x="552" 
d="M174 717q-51 0 -51 51v655q0 52 51 52h205q51 0 51 -52v-655q0 -51 -51 -51h-205zM174 -410q-51 0 -51 52v655q0 51 51 51h205q51 0 51 -51v-655q0 -52 -51 -52h-205z" />
    <glyph glyph-name="section" unicode="&#xa7;" horiz-adv-x="1140" 
d="M1059 598q0 -168 -126 -274q58 -81 58 -197q0 -89 -34.5 -159t-94.5 -112t-135.5 -63.5t-161.5 -21.5q-171 0 -288.5 82t-135.5 249q-1 26 13 40t39 14h198q41 0 53 -47q21 -72 121 -72q61 0 90 24.5t29 65.5q0 22 -14.5 41t-47.5 36.5t-61.5 29.5t-82.5 32t-85 33
q-52 21 -92 42t-83 52.5t-71.5 67.5t-46.5 86t-18 108q0 164 123 259q-55 80 -55 200q0 87 34.5 155t93 109.5t131.5 62.5t156 21q74 0 140.5 -19t123 -58t94 -104.5t46.5 -150.5q3 -53 -51 -53h-199q-41 0 -53 47q-21 72 -101 72q-108 0 -108 -82q0 -17 7 -31.5t24 -28
t32.5 -24t45.5 -23.5t50 -20.5t58.5 -22t58.5 -22.5q55 -21 95.5 -40.5t86.5 -50t75.5 -65t49 -83t19.5 -105.5zM389 676q0 -47 36.5 -78t106.5 -57q20 -7 88.5 -30.5t106.5 -39.5q25 39 25 86q0 51 -41 81.5t-123 59.5q-7 3 -73.5 26t-101.5 38q-24 -38 -24 -86z" />
    <glyph glyph-name="dieresis" unicode="&#xa8;" horiz-adv-x="716" 
d="M82 1137q-41 0 -41 41v184q0 41 41 41h184q41 0 41 -41v-184q0 -41 -41 -41h-184zM451 1137q-41 0 -41 41v184q0 41 41 41h184q41 0 41 -41v-184q0 -41 -41 -41h-184z" />
    <glyph glyph-name="copyright" unicode="&#xa9;" horiz-adv-x="1605" 
d="M803 -25q-202 0 -372.5 99.5t-270 270t-99.5 372.5t99.5 372.5t270 269.5t372.5 99q151 0 288.5 -58.5t236.5 -157.5t157.5 -236.5t58.5 -288.5q0 -202 -99 -372.5t-269.5 -270t-372.5 -99.5zM803 49q179 0 331 89.5t240 243t88 335.5q0 136 -52 259.5t-140 213
t-210.5 142t-256.5 52.5t-256.5 -52.5t-211 -142t-140.5 -213t-52 -259.5t52 -259.5t140.5 -213t211 -142.5t256.5 -53zM809 313q-167 0 -287.5 119.5t-120.5 284.5q0 164 120.5 283.5t287.5 119.5q128 0 232.5 -73.5t148.5 -198.5q7 -26 -5 -41.5t-40 -15.5h-176
q-34 0 -64 30q-45 39 -102 39q-64 0 -104 -42.5t-40 -100.5t40 -101t104 -43q57 0 102 39q31 31 64 31h176q28 0 40 -16.5t3 -44.5q-44 -123 -148.5 -196t-230.5 -73z" />
    <glyph glyph-name="ordfeminine" unicode="&#xaa;" horiz-adv-x="552" 
d="M279 1462q91 0 152 -52t61 -150v-291q0 -15 -9 -24t-24 -9h-84q-15 0 -24 9t-9 24v8q-47 -55 -133 -55q-72 0 -120 41.5t-48 117.5t48.5 118t119.5 42q81 0 133 -39v47q0 72 -63 72q-42 0 -56 -25q-16 -26 -37 -26h-86q-16 0 -24.5 9t-7.5 26q12 75 71 116t140 41z
M264 1030q36 0 57 14.5t21 36.5q0 25 -20.5 38.5t-57.5 13.5q-69 0 -69 -52q0 -23 17.5 -37t51.5 -14z" />
    <glyph glyph-name="guillemotleft" unicode="&#xab;" horiz-adv-x="1150" 
d="M547 1022q31 0 41.5 -16.5t-4.5 -44.5l-191 -328l191 -328q15 -28 4.5 -44.5t-41.5 -16.5h-158q-41 0 -61 35l-185 319q-20 35 0 70l185 319q20 35 61 35h158zM956 1022q31 0 41.5 -16.5t-4.5 -44.5l-190 -328l190 -328q15 -28 4.5 -44.5t-41.5 -16.5h-157q-42 0 -62 35
l-184 319q-20 35 0 70l184 319q20 35 62 35h157z" />
    <glyph glyph-name="logicalnot" unicode="&#xac;" horiz-adv-x="1146" 
d="M1014 860q51 0 51 -51v-236v-194q0 -51 -51 -51h-205q-51 0 -51 51v194h-625q-51 0 -51 52v184q0 51 51 51h881z" />
    <glyph glyph-name="registered" unicode="&#xae;" horiz-adv-x="1605" 
d="M803 1458q151 0 288.5 -58.5t236.5 -157.5t157.5 -236.5t58.5 -288.5q0 -202 -99 -372.5t-269.5 -270t-372.5 -99.5t-372.5 99.5t-270 270t-99.5 372.5t99.5 372.5t270 269.5t372.5 99zM803 49q179 0 331 89.5t240 243t88 335.5q0 136 -52 259.5t-140 213t-210.5 142
t-256.5 52.5t-256.5 -52.5t-211 -142t-140.5 -213t-52 -259.5t52 -259.5t140.5 -213t211 -142.5t256.5 -53zM1042 592l127 -193q17 -26 8 -43.5t-40 -17.5h-156q-41 0 -61 33l-102 155h-62v-137q0 -51 -52 -51h-147q-51 0 -51 51v655q0 52 51 52h199h106q117 0 202 -75
t85 -190q0 -149 -107 -239zM809 870h-53v-139h53q90 0 90 70q0 69 -90 69z" />
    <glyph glyph-name="macron" unicode="&#xaf;" horiz-adv-x="696" 
d="M82 1145q-41 0 -41 41v164q0 41 41 41h532q41 0 41 -41v-164q0 -41 -41 -41h-532z" />
    <glyph glyph-name="degree" unicode="&#xb0;" horiz-adv-x="831" 
d="M416 963q-152 0 -253.5 102t-101.5 246q0 146 101.5 247t253.5 101t253 -101t101 -247q0 -145 -100 -246.5t-254 -101.5zM416 1208q45 0 72.5 28.5t27.5 74.5q0 44 -28 73t-72 29t-72.5 -29t-28.5 -73t28.5 -73.5t72.5 -29.5z" />
    <glyph glyph-name="plusminus" unicode="&#xb1;" horiz-adv-x="1146" 
d="M993 1065q51 0 51 -51v-185q0 -51 -51 -51h-276v-235q0 -51 -51 -51h-185q-51 0 -51 51v235h-276q-52 0 -52 51v185q0 51 52 51h276v235q0 52 51 52h185q51 0 51 -52v-235h276zM993 369q51 0 51 -52v-184q0 -51 -51 -51h-839q-52 0 -52 51v184q0 52 52 52h839z" />
    <glyph glyph-name="acute" unicode="&#xb4;" horiz-adv-x="614" 
d="M76 1208q-15 -28 -5 -44.5t40 -16.5h186q40 0 63 29l162 194q20 25 11 44.5t-41 19.5h-246q-42 0 -62 -35z" />
    <glyph glyph-name="uni00B5" unicode="&#xb5;" horiz-adv-x="1187" 
d="M1096 287q51 0 51 -51v-185q0 -51 -51 -51h-82q-160 0 -242 99q-45 -63 -106.5 -95.5t-153.5 -32.5q-46 0 -92 11v-340q0 -52 -51 -52h-205q-51 0 -51 52v1331q0 51 51 51h205q51 0 51 -51v-572q0 -73 37.5 -110t99.5 -37q150 0 150 172v547q0 51 51 51h205q51 0 51 -51
v-625q0 -36 20 -48.5t62 -12.5z" />
    <glyph glyph-name="paragraph" unicode="&#xb6;" horiz-adv-x="1429" 
d="M1280 1434q51 0 51 -52v-163q0 -52 -51 -52h-76v-1525q0 -52 -51 -52h-184q-51 0 -51 52v1525h-140v-1525q0 -52 -51 -52h-184q-51 0 -51 52v890q-187 0 -319 132.5t-132 318.5q0 187 131.5 319t319.5 132h286h426h76z" />
    <glyph glyph-name="periodcentered" unicode="&#xb7;" horiz-adv-x="573" 
d="M174 543q-51 0 -51 51v225q0 51 51 51h225q52 0 52 -51v-225q0 -51 -52 -51h-225z" />
    <glyph glyph-name="cedilla" unicode="&#xb8;" horiz-adv-x="542" 
d="M373 -94q51 -13 90 -52.5t39 -105.5q0 -208 -418 -192q-43 3 -43 43v129q0 41 45 41q150 -6 150 30q0 24 -70 37q-39 6 -39 43v121h246v-94z" />
    <glyph glyph-name="ordmasculine" unicode="&#xba;" horiz-adv-x="624" 
d="M313 922q-114 0 -193 78t-79 192q0 115 78.5 192.5t193.5 77.5q113 0 192 -77.5t79 -192.5q0 -114 -79 -192t-192 -78zM313 1071q50 0 83.5 34t33.5 87q0 54 -33 87.5t-84 33.5q-52 0 -85 -33t-33 -88q0 -54 33.5 -87.5t84.5 -33.5z" />
    <glyph glyph-name="guillemotright" unicode="&#xbb;" horiz-adv-x="1150" 
d="M195 1022h157q42 0 62 -35l184 -319q20 -35 0 -70l-184 -319q-20 -35 -62 -35h-157q-31 0 -41.5 16.5t4.5 44.5l190 328l-190 328q-15 28 -4.5 44.5t41.5 16.5zM604 1022h158q41 0 61 -35l185 -319q20 -35 0 -70l-185 -319q-20 -35 -61 -35h-158q-31 0 -41.5 16.5
t4.5 44.5l191 328l-191 328q-15 28 -4.5 44.5t41.5 16.5z" />
    <glyph glyph-name="onequarter" unicode="&#xbc;" horiz-adv-x="1662" 
d="M418 614h-148q-51 0 -51 52v518l-137 -72q-26 -14 -44 -3t-18 40v135q0 41 37 62l133 71q28 17 62 17h166q51 0 51 -52v-716q0 -52 -51 -52zM1188 1434q30 0 40 -17t-5 -45l-764 -1337q-20 -35 -62 -35h-94q-30 0 -40 16.5t5 44.5l764 1338q20 35 62 35h94zM1581 350
q51 0 51 -51v-123q0 -51 -51 -51h-25v-74q0 -51 -51 -51h-135q-51 0 -51 51v74h-318q-51 0 -51 51v141q0 30 17 64l215 401q18 37 59 37h158q30 0 40 -16.5t-3 -44.5l-209 -408h92v74q0 51 51 51h135q51 0 51 -51v-74h25z" />
    <glyph glyph-name="onehalf" unicode="&#xbd;" horiz-adv-x="1669" 
d="M190 1417q28 17 62 17h166q51 0 51 -52v-716q0 -52 -51 -52h-148q-51 0 -51 52v518l-137 -72q-26 -14 -44 -3t-18 40v135q0 41 37 62zM303 0q-30 0 -40 16.5t5 44.5l764 1338q20 35 62 35h94q30 0 40 -17t-5 -45l-764 -1337q-20 -35 -62 -35h-94zM1042 0q-51 0 -51 51v70
q0 36 27 63l270 275q66 66 66 110q0 25 -15 39.5t-41 14.5q-40 0 -57 -29q-12 -26 -22 -35.5t-31 -9.5h-154q-26 0 -39.5 14t-9.5 39q16 120 103.5 183t209.5 63q136 0 222 -69t86 -204q0 -109 -144 -253l-96 -97h201q51 0 51 -51v-123q0 -51 -51 -51h-525z" />
    <glyph glyph-name="threequarters" unicode="&#xbe;" horiz-adv-x="1810" 
d="M668 864q0 -136 -85.5 -207t-238.5 -71q-137 0 -219.5 57t-99.5 168q-4 25 9.5 39t39.5 14h155q14 0 24.5 -6.5t14.5 -11.5t17 -23q19 -22 59 -22q72 0 72 63q0 62 -72 62h-88q-51 0 -51 51v49q0 39 22 64l99 118h-222q-51 0 -51 52v122q0 52 51 52h474q51 0 51 -52v-88
q0 -37 -23 -63l-110 -136q82 -28 127 -87.5t45 -143.5zM1335 1434q30 0 40 -17t-5 -45l-764 -1337q-20 -35 -61 -35h-94q-30 0 -40 16.5t5 44.5l764 1338q20 35 61 35h94zM1729 350q51 0 51 -51v-123q0 -51 -51 -51h-25v-74q0 -51 -51 -51h-135q-52 0 -52 51v74h-317
q-51 0 -51 51v141q0 32 16 64l215 401q18 37 60 37h157q30 0 40 -16.5t-3 -44.5l-209 -408h92v74q0 51 52 51h135q51 0 51 -51v-74h25z" />
    <glyph glyph-name="questiondown" unicode="&#xbf;" horiz-adv-x="1126" 
d="M686 1024q51 0 51 -51v-225q0 -52 -51 -52h-225q-51 0 -51 52v225q0 51 51 51h225zM684 512q26 0 39.5 -14.5t7.5 -38.5q-12 -55 -49.5 -108t-82.5 -94t-88 -81t-72 -85t-29 -91q0 -56 37.5 -87.5t113.5 -31.5q68 0 112.5 29t57.5 84q12 47 55 47h226q54 0 51 -53
q-9 -106 -54 -189t-115.5 -134t-158 -77t-186.5 -26q-89 0 -171.5 27t-149 77t-106.5 129.5t-40 175.5q0 64 20 122.5t50 100.5t68 82.5t72 70t64.5 62.5t42.5 60q10 23 22 33t34 10h229z" />
    <glyph glyph-name="Agrave" unicode="&#xc0;" horiz-adv-x="1351" 
d="M545 1579l-176 213q-17 22 -10 36.5t34 14.5h271q35 0 49 -28l118 -209q12 -20 4 -35t-32 -15h-207q-34 0 -51 23zM1333 57q9 -27 -3 -42t-40 -15h-252q-46 0 -57 43l-54 182h-502l-54 -182q-11 -43 -58 -43h-252q-28 0 -40 15t-3 42l435 1334q12 43 59 43h328
q47 0 59 -43zM515 532h321l-160 543z" />
    <glyph glyph-name="Aacute" unicode="&#xc1;" horiz-adv-x="1351" 
d="M561 1556q-30 0 -40 17t5 45l109 190q20 35 61 35h246q32 0 41.5 -19t-10.5 -44l-162 -195q-23 -29 -63 -29h-187zM1333 57q9 -27 -3 -42t-40 -15h-252q-46 0 -57 43l-54 182h-502l-54 -182q-11 -43 -58 -43h-252q-28 0 -40 15t-3 42l435 1334q12 43 59 43h328
q47 0 59 -43zM515 532h321l-160 543z" />
    <glyph glyph-name="Acircumflex" unicode="&#xc2;" horiz-adv-x="1351" 
d="M358 1536q-25 0 -32.5 14.5t6.5 34.5l164 232q20 26 49 26h184h57q30 0 50 -26l163 -232q14 -20 6.5 -34.5t-32.5 -14.5h-203q-33 0 -49 27l-55 86l-56 -86q-16 -27 -49 -27h-203zM1333 57q9 -27 -3 -42t-40 -15h-252q-46 0 -57 43l-54 182h-502l-54 -182
q-11 -43 -58 -43h-252q-28 0 -40 15t-3 42l435 1334q12 43 59 43h328q47 0 59 -43zM515 532h321l-160 543z" />
    <glyph glyph-name="Atilde" unicode="&#xc3;" horiz-adv-x="1351" 
d="M348 1542q-42 0 -39 43q6 111 44 181t95.5 92t125 11t135.5 -54q28 -18 45 -23t27 2t14 29q6 41 41 41h165q42 0 39 -43q-6 -111 -44 -181t-95 -92t-124.5 -11t-135.5 54q-28 18 -45 23t-27 -2t-14 -29q-6 -41 -41 -41h-166zM1333 57q9 -27 -3 -42t-40 -15h-252
q-46 0 -57 43l-54 182h-502l-54 -182q-11 -43 -58 -43h-252q-28 0 -40 15t-3 42l435 1334q12 43 59 43h328q47 0 59 -43zM515 532h321l-160 543z" />
    <glyph glyph-name="Adieresis" unicode="&#xc4;" horiz-adv-x="1351" 
d="M399 1546q-41 0 -41 41v185q0 40 41 40h185q41 0 41 -40v-185q0 -41 -41 -41h-185zM768 1546q-41 0 -41 41v185q0 40 41 40h184q41 0 41 -40v-185q0 -41 -41 -41h-184zM1333 57q9 -27 -3 -42t-40 -15h-252q-46 0 -57 43l-54 182h-502l-54 -182q-11 -43 -58 -43h-252
q-28 0 -40 15t-3 42l435 1334q12 43 59 43h328q47 0 59 -43zM515 532h321l-160 543z" />
    <glyph glyph-name="Aring" unicode="&#xc5;" horiz-adv-x="1351" 
d="M676 1505q-119 0 -196 73t-77 183t77 183t196 73q121 0 196.5 -73t75.5 -183t-75.5 -183t-196.5 -73zM676 1831q-34 0 -53 -20t-19 -50t19 -49.5t53 -19.5q36 0 55 19t19 50t-19.5 50.5t-54.5 19.5zM1333 57q9 -27 -3 -42t-40 -15h-252q-46 0 -57 43l-54 182h-502
l-54 -182q-11 -43 -58 -43h-252q-28 0 -40 15t-3 42l435 1334q12 43 59 43h328q47 0 59 -43zM515 532h321l-160 543z" />
    <glyph glyph-name="AE" unicode="&#xc6;" horiz-adv-x="1802" 
d="M1690 315q51 0 51 -51v-213q0 -51 -51 -51h-666h-51q-51 0 -51 51v174h-422l-111 -190q-20 -35 -61 -35h-256q-31 0 -40.5 16.5t5.5 44.5l780 1338q20 35 62 35h145h215h440q52 0 52 -52v-213q0 -51 -52 -51h-440v-239h389q51 0 51 -52v-204q0 -52 -51 -52h-389v-256h451
zM678 532h244v419z" />
    <glyph glyph-name="Ccedilla" unicode="&#xc7;" horiz-adv-x="1529" 
d="M1452 532q26 0 38.5 -14t6.5 -39q-52 -191 -201.5 -324.5t-351.5 -170.5v-78q51 -13 90 -52.5t39 -105.5q0 -208 -418 -192q-43 3 -43 43v129q0 41 45 41q150 -6 150 30q0 24 -70 37q-39 6 -39 43v99q-281 37 -459 243t-178 496q0 209 95.5 379t267 268t383.5 98
q246 0 436.5 -139.5t253.5 -364.5q6 -26 -6.5 -41.5t-38.5 -15.5h-242q-39 0 -57 41q-43 93 -136 147t-210 54q-190 0 -304 -116.5t-114 -309.5t114 -309.5t304 -116.5q117 0 210 54t136 147q18 40 57 40h242z" />
    <glyph glyph-name="Egrave" unicode="&#xc8;" horiz-adv-x="1044" 
d="M418 1579l-176 213q-17 22 -10 36.5t34 14.5h271q35 0 49 -28l119 -209q12 -20 4 -35t-33 -15h-207q-34 0 -51 23zM932 315q51 0 51 -51v-213q0 -51 -51 -51h-707h-51q-51 0 -51 51v1331q0 52 51 52h277h471q51 0 51 -52v-213q0 -51 -51 -51h-471v-239h419q52 0 52 -52
v-204q0 -52 -52 -52h-419v-256h481z" />
    <glyph glyph-name="Eacute" unicode="&#xc9;" horiz-adv-x="1044" 
d="M434 1556q-30 0 -40 17t5 45l109 190q20 35 61 35h246q32 0 41.5 -19t-10.5 -44l-162 -195q-23 -29 -63 -29h-187zM932 315q51 0 51 -51v-213q0 -51 -51 -51h-707h-51q-51 0 -51 51v1331q0 52 51 52h277h471q51 0 51 -52v-213q0 -51 -51 -51h-471v-239h419q52 0 52 -52
v-204q0 -52 -52 -52h-419v-256h481z" />
    <glyph glyph-name="Ecircumflex" unicode="&#xca;" horiz-adv-x="1044" 
d="M231 1536q-25 0 -32.5 14.5t6.5 34.5l164 232q19 26 49 26h184h57q31 0 50 -26l163 -232q14 -20 6.5 -34.5t-32.5 -14.5h-203q-33 0 -49 27l-55 86l-56 -86q-16 -27 -49 -27h-203zM932 315q51 0 51 -51v-213q0 -51 -51 -51h-707h-51q-51 0 -51 51v1331q0 52 51 52h277
h471q51 0 51 -52v-213q0 -51 -51 -51h-471v-239h419q52 0 52 -52v-204q0 -52 -52 -52h-419v-256h481z" />
    <glyph glyph-name="Edieresis" unicode="&#xcb;" horiz-adv-x="1044" 
d="M272 1546q-41 0 -41 41v185q0 40 41 40h185q41 0 41 -40v-185q0 -41 -41 -41h-185zM641 1546q-41 0 -41 41v185q0 40 41 40h184q41 0 41 -40v-185q0 -41 -41 -41h-184zM932 315q51 0 51 -51v-213q0 -51 -51 -51h-707h-51q-51 0 -51 51v1331q0 52 51 52h277h471
q51 0 51 -52v-213q0 -51 -51 -51h-471v-239h419q52 0 52 -52v-204q0 -52 -52 -52h-419v-256h481z" />
    <glyph glyph-name="Igrave" unicode="&#xcc;" horiz-adv-x="573" 
d="M414 1556q24 0 32 15t-4 35l-118 209q-14 28 -50 28h-270q-27 0 -34 -14.5t10 -36.5l176 -213q17 -23 51 -23h207zM123 1382q0 52 51 52h225q52 0 52 -52v-1331q0 -51 -52 -51h-225q-51 0 -51 51v1331z" />
    <glyph glyph-name="Iacute" unicode="&#xcd;" horiz-adv-x="573" 
d="M137 1618q-15 -28 -5 -45t40 -17h186q41 0 64 29l162 195q20 25 10.5 44t-41.5 19h-246q-41 0 -61 -35zM123 1382q0 52 51 52h225q52 0 52 -52v-1331q0 -51 -52 -51h-225q-51 0 -51 51v1331z" />
    <glyph glyph-name="Icircumflex" unicode="&#xce;" horiz-adv-x="573" 
d="M610 1585q14 -20 6.5 -34.5t-32.5 -14.5h-203q-33 0 -49 27l-56 86l-55 -86q-16 -27 -49 -27h-203q-25 0 -32.5 14.5t6.5 34.5l163 232q19 26 50 26h184h57q29 0 49 -26zM399 1434q52 0 52 -52v-1331q0 -51 -52 -51h-225q-51 0 -51 51v1331q0 52 51 52h225z" />
    <glyph glyph-name="Idieresis" unicode="&#xcf;" horiz-adv-x="573" 
d="M10 1546q-41 0 -41 41v185q0 40 41 40h185q41 0 41 -40v-185q0 -41 -41 -41h-185zM379 1546q-41 0 -41 41v185q0 40 41 40h184q41 0 41 -40v-185q0 -41 -41 -41h-184zM123 1382q0 52 51 52h225q52 0 52 -52v-1331q0 -51 -52 -51h-225q-51 0 -51 51v1331z" />
    <glyph glyph-name="Eth" unicode="&#xd0;" horiz-adv-x="1576" 
d="M819 1434q146 0 275.5 -55.5t221.5 -150.5t146 -228t54 -283t-54 -283t-146 -228t-221.5 -150.5t-275.5 -55.5h-512h-51q-51 0 -51 51v498h-113q-51 0 -51 51v193q0 51 51 51h113v538q0 52 51 52h276h287zM819 315q170 0 275.5 109.5t105.5 292.5t-105.5 292t-275.5 109
h-287v-274h236q51 0 51 -51v-193q0 -51 -51 -51h-236v-234h287z" />
    <glyph glyph-name="Ntilde" unicode="&#xd1;" horiz-adv-x="1331" 
d="M338 1542q-42 0 -39 43q6 111 44 181t95 92t124.5 11t135.5 -54q28 -18 45 -23t27 2t14 29q6 41 41 41h166q42 0 39 -43q-6 -111 -44 -181t-95 -92t-124.5 -11t-135.5 54q-28 18 -45 23t-27 -2t-14 -29q-6 -41 -41 -41h-166zM881 1382q0 52 51 52h225q51 0 51 -52v-1331
q0 -51 -51 -51h-153q-44 0 -64 33l-489 766v-748q0 -51 -52 -51h-225q-51 0 -51 51v1331q0 52 51 52h154q43 0 63 -33l490 -766v747z" />
    <glyph glyph-name="Ograve" unicode="&#xd2;" horiz-adv-x="1613" 
d="M934 1577q25 0 33 14.5t-4 34.5l-119 209q-14 29 -49 29h-271q-26 0 -33.5 -15t9.5 -37l176 -213q16 -22 51 -22h207zM807 -29q-152 0 -290 57.5t-238 156.5t-159 238t-59 294q0 207 100 378.5t271 269t375 97.5q203 0 374 -97.5t271 -269t100 -378.5t-100 -379
t-271 -269.5t-374 -97.5zM807 291q178 0 298 118.5t120 307.5t-120 307.5t-298 118.5t-298 -118.5t-120 -307.5t120 -307.5t298 -118.5z" />
    <glyph glyph-name="Oacute" unicode="&#xd3;" horiz-adv-x="1613" 
d="M657 1638q-15 -28 -5 -44.5t40 -16.5h187q40 0 63 29l162 194q20 25 10.5 44.5t-41.5 19.5h-246q-41 0 -61 -35zM807 -29q-152 0 -290 57.5t-238 156.5t-159 238t-59 294q0 207 100 378.5t271 269t375 97.5q203 0 374 -97.5t271 -269t100 -378.5t-100 -379t-271 -269.5
t-374 -97.5zM807 291q178 0 298 118.5t120 307.5t-120 307.5t-298 118.5t-298 -118.5t-120 -307.5t120 -307.5t298 -118.5z" />
    <glyph glyph-name="Ocircumflex" unicode="&#xd4;" horiz-adv-x="1613" 
d="M489 1556q-25 0 -32.5 15t6.5 35l164 231q20 27 49 27h184h58q29 0 49 -27l163 -231q14 -20 6.5 -35t-32.5 -15h-203q-33 0 -49 27l-55 87l-56 -87q-16 -27 -49 -27h-203zM807 1462q203 0 374 -97.5t271 -269t100 -378.5t-100 -379t-271 -269.5t-374 -97.5
q-152 0 -290 57.5t-238 156.5t-159 238t-59 294q0 207 100 378.5t271 269t375 97.5zM807 291q178 0 298 118.5t120 307.5t-120 307.5t-298 118.5t-298 -118.5t-120 -307.5t120 -307.5t298 -118.5z" />
    <glyph glyph-name="Otilde" unicode="&#xd5;" horiz-adv-x="1613" 
d="M479 1563q-42 0 -39 43q6 111 44 181t95.5 91.5t125 10.5t135.5 -54q28 -18 45 -23t27 2t14 29q6 41 41 41h166q41 0 38 -43q-6 -111 -44 -181t-95 -91.5t-124.5 -10.5t-135.5 54q-28 18 -45 23t-27 -2t-14 -29q-6 -41 -41 -41h-166zM807 -29q-152 0 -290 57.5
t-238 156.5t-159 238t-59 294q0 207 100 378.5t271 269t375 97.5q203 0 374 -97.5t271 -269t100 -378.5t-100 -379t-271 -269.5t-374 -97.5zM807 291q178 0 298 118.5t120 307.5t-120 307.5t-298 118.5t-298 -118.5t-120 -307.5t120 -307.5t298 -118.5z" />
    <glyph glyph-name="Odieresis" unicode="&#xd6;" horiz-adv-x="1613" 
d="M530 1567q-41 0 -41 41v184q0 41 41 41h185q41 0 41 -41v-184q0 -41 -41 -41h-185zM899 1567q-41 0 -41 41v184q0 41 41 41h184q41 0 41 -41v-184q0 -41 -41 -41h-184zM807 -29q-152 0 -290 57.5t-238 156.5t-159 238t-59 294q0 207 100 378.5t271 269t375 97.5
q203 0 374 -97.5t271 -269t100 -378.5t-100 -379t-271 -269.5t-374 -97.5zM807 291q178 0 298 118.5t120 307.5t-120 307.5t-298 118.5t-298 -118.5t-120 -307.5t120 -307.5t298 -118.5z" />
    <glyph glyph-name="multiply" unicode="&#xd7;" horiz-adv-x="1075" 
d="M739 717l197 -197q37 -37 0 -74l-129 -127q-37 -37 -74 0l-195 196l-196 -196q-37 -37 -74 0l-129 127q-37 37 0 74l197 197l-197 196q-37 37 0 74l129 127q37 37 74 0l196 -195l195 195q37 37 74 0l129 -127q37 -37 0 -74z" />
    <glyph glyph-name="Oslash" unicode="&#xd8;" horiz-adv-x="1624" 
d="M1356 1236q98 -102 152.5 -235t54.5 -284q0 -155 -59 -294t-159 -238t-238 -156.5t-290 -57.5q-221 0 -403 116l-47 -58q-23 -29 -64 -29h-104q-32 0 -41.5 19.5t10.5 44.5l110 134q-98 102 -152 235t-54 284q0 207 100 378.5t271 269t374 97.5q223 0 403 -115l48 58
q23 29 63 29h105q32 0 41 -19.5t-11 -44.5zM399 717q0 -156 85 -268l531 648q-90 46 -198 46q-178 0 -298 -118.5t-120 -307.5zM817 291q178 0 298 118.5t120 307.5q0 155 -85 267l-531 -647q90 -46 198 -46z" />
    <glyph glyph-name="Ugrave" unicode="&#xd9;" horiz-adv-x="1269" 
d="M762 1556q25 0 33 15t-4 35l-119 209q-14 28 -49 28h-271q-27 0 -34 -14.5t10 -36.5l176 -213q17 -23 51 -23h207zM635 -29q-150 0 -269 52.5t-191.5 161t-72.5 257.5v940q0 52 52 52h225q51 0 51 -52v-911q0 -87 47.5 -133.5t157.5 -46.5t157.5 46.5t47.5 133.5v911
q0 52 51 52h225q51 0 51 -52v-940q0 -112 -41.5 -202.5t-114 -148.5t-168.5 -89t-208 -31z" />
    <glyph glyph-name="Uacute" unicode="&#xda;" horiz-adv-x="1269" 
d="M485 1618q-15 -28 -5 -45t40 -17h187q40 0 63 29l162 195q20 25 10.5 44t-41.5 19h-246q-41 0 -61 -35zM635 -29q-150 0 -269 52.5t-191.5 161t-72.5 257.5v940q0 52 52 52h225q51 0 51 -52v-911q0 -87 47.5 -133.5t157.5 -46.5t157.5 46.5t47.5 133.5v911q0 52 51 52
h225q51 0 51 -52v-940q0 -112 -41.5 -202.5t-114 -148.5t-168.5 -89t-208 -31z" />
    <glyph glyph-name="Ucircumflex" unicode="&#xdb;" horiz-adv-x="1269" 
d="M317 1536q-25 0 -32.5 14.5t6.5 34.5l164 232q19 26 49 26h184h57q31 0 50 -26l163 -232q14 -20 6.5 -34.5t-32.5 -14.5h-203q-33 0 -49 27l-55 86l-56 -86q-16 -27 -49 -27h-203zM1116 1434q51 0 51 -52v-940q0 -112 -41.5 -202.5t-114 -148.5t-168.5 -89t-208 -31
q-150 0 -269 52.5t-191.5 161t-72.5 257.5v940q0 52 52 52h225q51 0 51 -52v-911q0 -87 47.5 -133.5t157.5 -46.5t157.5 46.5t47.5 133.5v911q0 52 51 52h225z" />
    <glyph glyph-name="Udieresis" unicode="&#xdc;" horiz-adv-x="1269" 
d="M358 1546q-41 0 -41 41v185q0 40 41 40h185q41 0 41 -40v-185q0 -41 -41 -41h-185zM727 1546q-41 0 -41 41v185q0 40 41 40h184q41 0 41 -40v-185q0 -41 -41 -41h-184zM635 -29q-150 0 -269 52.5t-191.5 161t-72.5 257.5v940q0 52 52 52h225q51 0 51 -52v-911
q0 -87 47.5 -133.5t157.5 -46.5t157.5 46.5t47.5 133.5v911q0 52 51 52h225q51 0 51 -52v-940q0 -112 -41.5 -202.5t-114 -148.5t-168.5 -89t-208 -31z" />
    <glyph glyph-name="Yacute" unicode="&#xdd;" horiz-adv-x="1249" 
d="M510 1556q-30 0 -40 17t5 45l109 190q20 35 61 35h246q32 0 41.5 -19t-10.5 -44l-162 -195q-23 -29 -64 -29h-186zM1180 1434q29 0 39 -17t-5 -45l-426 -744v-577q0 -51 -51 -51h-225q-51 0 -51 51v577l-426 744q-15 28 -5 45t40 17h262q41 0 59 -37l234 -447l233 447
q18 37 60 37h262z" />
    <glyph glyph-name="Thorn" unicode="&#xde;" horiz-adv-x="1208" 
d="M676 1208q134 0 247 -65.5t178.5 -178.5t65.5 -247t-65.5 -247t-178.5 -179t-247 -66h-225v-174q0 -51 -52 -51h-225q-51 0 -51 51v1331q0 52 51 52h225q52 0 52 -52v-174h225zM676 532q68 0 116 53.5t48 131.5q0 77 -48 130.5t-116 53.5h-225v-369h225z" />
    <glyph glyph-name="germandbls" unicode="&#xdf;" horiz-adv-x="1062" 
d="M596 -18q-51 3 -51 53v168q0 49 55 49q135 0 135 108q0 32 -23 75t-56.5 85.5t-66.5 86t-56 88.5t-23 81q0 35 19 78.5t41.5 78t41.5 79t19 82.5q0 39 -27.5 64.5t-71.5 25.5q-51 0 -81.5 -31.5t-30.5 -97.5v-1004q0 -51 -51 -51h-205q-51 0 -51 51v1004q0 184 112 295.5
t318 111.5q186 0 290.5 -88t104.5 -225q0 -60 -21 -117t-45.5 -93t-45.5 -75t-21 -67q0 -32 24.5 -73t59.5 -85t69.5 -93.5t59 -114.5t24.5 -132q0 -57 -12.5 -104.5t-44 -91t-81 -72t-128 -42.5t-180.5 -7z" />
    <glyph glyph-name="agrave" unicode="&#xe0;" horiz-adv-x="1048" 
d="M406 1190l-177 213q-17 22 -9.5 36.5t34.5 14.5h270q34 0 49 -29l119 -208q12 -20 4 -35t-32 -15h-207q-34 0 -51 23zM537 1053q86 0 161.5 -25.5t135.5 -74.5t94.5 -128.5t34.5 -179.5v-594q0 -51 -52 -51h-196q-51 0 -51 51v29q-94 -109 -265 -109q-143 0 -240.5 84
t-97.5 236t97 235.5t241 83.5q163 0 265 -78v93q0 75 -31 110t-96 35q-92 0 -119 -59q-10 -24 -20.5 -34.5t-32.5 -10.5h-201q-54 0 -51 53q13 107 75.5 184t152 113.5t196.5 36.5zM508 188q73 0 114.5 28.5t41.5 74.5q0 48 -41 75t-115 27q-68 0 -103.5 -28t-35.5 -74
t35.5 -74.5t103.5 -28.5z" />
    <glyph glyph-name="aacute" unicode="&#xe1;" horiz-adv-x="1048" 
d="M422 1167q-30 0 -40 17t5 45l109 190q20 35 61 35h246q32 0 41.5 -19t-10.5 -44l-162 -195q-23 -29 -64 -29h-186zM537 1053q86 0 161.5 -25.5t135.5 -74.5t94.5 -128.5t34.5 -179.5v-594q0 -51 -52 -51h-196q-51 0 -51 51v29q-94 -109 -265 -109q-143 0 -240.5 84
t-97.5 236t97 235.5t241 83.5q163 0 265 -78v93q0 75 -31 110t-96 35q-92 0 -119 -59q-10 -24 -20.5 -34.5t-32.5 -10.5h-201q-54 0 -51 53q13 107 75.5 184t152 113.5t196.5 36.5zM508 188q73 0 114.5 28.5t41.5 74.5q0 48 -41 75t-115 27q-68 0 -103.5 -28t-35.5 -74
t35.5 -74.5t103.5 -28.5z" />
    <glyph glyph-name="acircumflex" unicode="&#xe2;" horiz-adv-x="1048" 
d="M219 1147q-25 0 -32.5 14.5t6.5 34.5l163 231q20 27 50 27h184h57q29 0 49 -27l164 -231q14 -20 6.5 -34.5t-32.5 -14.5h-203q-33 0 -49 27l-56 86l-55 -86q-16 -27 -49 -27h-203zM537 1053q86 0 161.5 -25.5t135.5 -74.5t94.5 -128.5t34.5 -179.5v-594q0 -51 -52 -51
h-196q-51 0 -51 51v29q-94 -109 -265 -109q-143 0 -240.5 84t-97.5 236t97 235.5t241 83.5q163 0 265 -78v93q0 75 -31 110t-96 35q-92 0 -119 -59q-10 -24 -20.5 -34.5t-32.5 -10.5h-201q-54 0 -51 53q13 107 75.5 184t152 113.5t196.5 36.5zM508 188q73 0 114.5 28.5
t41.5 74.5q0 48 -41 75t-115 27q-68 0 -103.5 -28t-35.5 -74t35.5 -74.5t103.5 -28.5z" />
    <glyph glyph-name="atilde" unicode="&#xe3;" horiz-adv-x="1048" 
d="M209 1153q-42 0 -39 43q6 111 44 181t95 91.5t124.5 10.5t135.5 -54q28 -18 45 -23t27 2.5t14 29.5q6 41 41 41h166q42 0 39 -43q-6 -111 -44 -181t-95 -92t-124.5 -11t-135.5 54q-28 18 -45 23t-27 -2t-14 -29q-6 -41 -41 -41h-166zM537 1053q86 0 161.5 -25.5
t135.5 -74.5t94.5 -128.5t34.5 -179.5v-594q0 -51 -52 -51h-196q-51 0 -51 51v29q-94 -109 -265 -109q-143 0 -240.5 84t-97.5 236t97 235.5t241 83.5q163 0 265 -78v93q0 75 -31 110t-96 35q-92 0 -119 -59q-10 -24 -20.5 -34.5t-32.5 -10.5h-201q-54 0 -51 53
q13 107 75.5 184t152 113.5t196.5 36.5zM508 188q73 0 114.5 28.5t41.5 74.5q0 48 -41 75t-115 27q-68 0 -103.5 -28t-35.5 -74t35.5 -74.5t103.5 -28.5z" />
    <glyph glyph-name="adieresis" unicode="&#xe4;" horiz-adv-x="1048" 
d="M260 1157q-41 0 -41 41v184q0 41 41 41h184q41 0 41 -41v-184q0 -41 -41 -41h-184zM629 1157q-41 0 -41 41v184q0 41 41 41h184q41 0 41 -41v-184q0 -41 -41 -41h-184zM537 1053q86 0 161.5 -25.5t135.5 -74.5t94.5 -128.5t34.5 -179.5v-594q0 -51 -52 -51h-196
q-51 0 -51 51v29q-94 -109 -265 -109q-143 0 -240.5 84t-97.5 236t97 235.5t241 83.5q163 0 265 -78v93q0 75 -31 110t-96 35q-92 0 -119 -59q-10 -24 -20.5 -34.5t-32.5 -10.5h-201q-54 0 -51 53q13 107 75.5 184t152 113.5t196.5 36.5zM508 188q73 0 114.5 28.5t41.5 74.5
q0 48 -41 75t-115 27q-68 0 -103.5 -28t-35.5 -74t35.5 -74.5t103.5 -28.5z" />
    <glyph glyph-name="aring" unicode="&#xe5;" horiz-adv-x="1048" 
d="M537 1116q-119 0 -196 73t-77 183t77 183t196 73q121 0 196.5 -73t75.5 -183t-75.5 -183t-196.5 -73zM537 1442q-34 0 -53 -20t-19 -50t19 -49.5t53 -19.5q35 0 54 19t19 50t-19 50.5t-54 19.5zM537 1053q86 0 161.5 -25.5t135.5 -74.5t94.5 -128.5t34.5 -179.5v-594
q0 -51 -52 -51h-196q-51 0 -51 51v29q-94 -109 -265 -109q-143 0 -240.5 84t-97.5 236t97 235.5t241 83.5q163 0 265 -78v93q0 75 -31 110t-96 35q-92 0 -119 -59q-10 -24 -20.5 -34.5t-32.5 -10.5h-201q-54 0 -51 53q13 107 75.5 184t152 113.5t196.5 36.5zM508 188
q73 0 114.5 28.5t41.5 74.5q0 48 -41 75t-115 27q-68 0 -103.5 -28t-35.5 -74t35.5 -74.5t103.5 -28.5z" />
    <glyph glyph-name="ae" unicode="&#xe6;" horiz-adv-x="1705" 
d="M1194 1053q137 0 241 -71t159 -193.5t55 -276.5q0 -26 -4 -76q-6 -47 -56 -47h-250h-355q22 -87 75.5 -128.5t126.5 -41.5q75 0 114 45q27 35 62 35h199q28 0 39.5 -18.5t-0.5 -49.5q-49 -123 -155.5 -189.5t-232.5 -66.5q-230 0 -345 160q-103 -164 -388 -164
q-194 0 -306 87t-112 233q0 152 97 235.5t241 83.5q163 0 265 -78v93q0 75 -31 110t-96 35q-92 0 -119 -59q-10 -24 -20.5 -34.5t-32.5 -10.5h-201q-54 0 -51 53q13 107 74.5 184t149 113.5t189.5 36.5q112 0 199.5 -45t137.5 -128q115 173 331 173zM983 623h366
q-17 82 -65.5 119.5t-112.5 37.5q-150 0 -188 -157zM508 188q73 0 114.5 28.5t41.5 74.5q0 48 -41 75t-115 27q-68 0 -103.5 -28t-35.5 -74t35.5 -74.5t103.5 -28.5z" />
    <glyph glyph-name="ccedilla" unicode="&#xe7;" horiz-adv-x="1153" 
d="M1065 389q27 0 39.5 -15.5t3.5 -41.5q-38 -128 -136 -219.5t-231 -124.5v-82q51 -13 90 -52.5t39 -105.5q0 -208 -417 -192q-43 3 -43 43v129q0 41 45 41q149 -6 149 30q0 24 -69 37q-39 6 -39 43v102q-192 36 -313.5 183.5t-121.5 347.5q0 230 155.5 385.5t387.5 155.5
q179 0 317.5 -100t186.5 -261q9 -26 -3.5 -41.5t-39.5 -15.5h-225q-38 0 -62 35q-58 80 -174 80q-101 0 -168 -66.5t-67 -171.5t67 -171.5t168 -66.5q115 0 174 78q24 37 62 37h225z" />
    <glyph glyph-name="egrave" unicode="&#xe8;" horiz-adv-x="1183" 
d="M483 1180l-176 213q-17 22 -9.5 36.5t34.5 14.5h270q34 0 49 -29l119 -209q12 -20 4 -34.5t-33 -14.5h-206q-35 0 -52 23zM610 1053q147 0 265.5 -70.5t184.5 -194t66 -276.5q0 -26 -4 -76q-6 -47 -55 -47h-250h-434q26 -87 90 -128.5t150 -41.5q90 0 151 51q34 27 64 27
l196 2q28 0 40.5 -16.5t0.5 -40.5q-59 -132 -178.5 -201.5t-278.5 -69.5q-250 0 -403.5 154t-153.5 387q0 231 154.5 386t394.5 155zM382 623h439q-22 82 -80 119.5t-133 37.5q-86 0 -144 -40t-82 -117z" />
    <glyph glyph-name="eacute" unicode="&#xe9;" horiz-adv-x="1183" 
d="M500 1157q-30 0 -40 17t5 45l108 190q20 35 62 35h246q32 0 41 -19.5t-11 -44.5l-161 -194q-23 -29 -64 -29h-186zM610 1053q147 0 265.5 -70.5t184.5 -194t66 -276.5q0 -26 -4 -76q-6 -47 -55 -47h-250h-434q26 -87 90 -128.5t150 -41.5q90 0 151 51q34 27 64 27l196 2
q28 0 40.5 -16.5t0.5 -40.5q-59 -132 -178.5 -201.5t-278.5 -69.5q-250 0 -403.5 154t-153.5 387q0 231 154.5 386t394.5 155zM382 623h439q-22 82 -80 119.5t-133 37.5q-86 0 -144 -40t-82 -117z" />
    <glyph glyph-name="ecircumflex" unicode="&#xea;" horiz-adv-x="1183" 
d="M297 1137q-25 0 -33 14.5t6 34.5l164 231q20 27 49 27h185h57q29 0 49 -27l164 -231q14 -20 6 -34.5t-33 -14.5h-202q-34 0 -50 26l-55 87l-55 -87q-16 -26 -49 -26h-203zM610 1053q147 0 265.5 -70.5t184.5 -194t66 -276.5q0 -26 -4 -76q-6 -47 -55 -47h-250h-434
q26 -87 90 -128.5t150 -41.5q90 0 151 51q34 27 64 27l196 2q28 0 40.5 -16.5t0.5 -40.5q-59 -132 -178.5 -201.5t-278.5 -69.5q-250 0 -403.5 154t-153.5 387q0 231 154.5 386t394.5 155zM382 623h439q-22 82 -80 119.5t-133 37.5q-86 0 -144 -40t-82 -117z" />
    <glyph glyph-name="edieresis" unicode="&#xeb;" horiz-adv-x="1183" 
d="M338 1147q-41 0 -41 41v184q0 41 41 41h184q41 0 41 -41v-184q0 -41 -41 -41h-184zM707 1147q-41 0 -41 41v184q0 41 41 41h184q41 0 41 -41v-184q0 -41 -41 -41h-184zM610 1053q147 0 265.5 -70.5t184.5 -194t66 -276.5q0 -26 -4 -76q-6 -47 -55 -47h-250h-434
q26 -87 90 -128.5t150 -41.5q90 0 151 51q34 27 64 27l196 2q28 0 40.5 -16.5t0.5 -40.5q-59 -132 -178.5 -201.5t-278.5 -69.5q-250 0 -403.5 154t-153.5 387q0 231 154.5 386t394.5 155zM382 623h439q-22 82 -80 119.5t-133 37.5q-86 0 -144 -40t-82 -117z" />
    <glyph glyph-name="igrave" unicode="&#xec;" horiz-adv-x="532" 
d="M158 1126q-43 0 -60 39l-92 209q-12 28 -1 44t40 16h238q46 0 57 -43l55 -207q7 -27 -5.5 -42.5t-39.5 -15.5h-192zM164 0q-51 0 -51 51v922q0 51 51 51h205q51 0 51 -51v-922q0 -51 -51 -51h-205z" />
    <glyph glyph-name="iacute" unicode="&#xed;" horiz-adv-x="532" 
d="M127 1184q-7 -27 5.5 -42.5t39.5 -15.5h193q42 0 59 39l92 209q12 28 1 44t-40 16h-237q-47 0 -58 -43zM164 0q-51 0 -51 51v922q0 51 51 51h205q51 0 51 -51v-922q0 -51 -51 -51h-205z" />
    <glyph glyph-name="icircumflex" unicode="&#xee;" horiz-adv-x="532" 
d="M575 1188q17 -26 7 -44t-41 -18h-183q-41 0 -61 35l-31 55l-30 -55q-20 -35 -62 -35h-182q-31 0 -41.5 18t6.5 44l135 213q20 33 64 33h163h58q43 0 63 -33zM369 1024q51 0 51 -51v-922q0 -51 -51 -51h-205q-51 0 -51 51v922q0 51 51 51h205z" />
    <glyph glyph-name="idieresis" unicode="&#xef;" horiz-adv-x="532" 
d="M0 1137q-51 0 -51 51v164q0 51 51 51h164q51 0 51 -51v-164q0 -51 -51 -51h-164zM369 1137q-52 0 -52 51v164q0 51 52 51h163q52 0 52 -51v-164q0 -51 -52 -51h-163zM164 0q-51 0 -51 51v922q0 51 51 51h205q51 0 51 -51v-922q0 -51 -51 -51h-205z" />
    <glyph glyph-name="eth" unicode="&#xf0;" horiz-adv-x="1159" 
d="M1004 758q94 -130 94 -287q0 -151 -73 -266t-189.5 -172.5t-255.5 -57.5q-103 0 -196.5 34t-165.5 96t-114.5 157t-42.5 209q0 187 129.5 320.5t320.5 137.5l-103 144l-211 -98q-26 -12 -43 -2t-17 39v96q0 42 39 61l122 57l-105 146q-19 26 -10 44t40 18h238
q36 0 61 -31l41 -55l185 86q26 12 42.5 2t16.5 -39v-97q0 -42 -39 -61l-92 -42zM580 262q95 0 153 55.5t58 153.5q0 65 -37 121q-61 80 -174 80q-95 0 -153 -54t-58 -147q0 -98 58 -153.5t153 -55.5z" />
    <glyph glyph-name="ntilde" unicode="&#xf1;" 
d="M227 1153q-42 0 -39 43q6 111 44 181t95.5 91.5t125 10.5t135.5 -54q28 -18 45 -23t27 2.5t14 29.5q6 41 41 41h166q42 0 39 -43q-6 -111 -44 -181t-95.5 -92t-125 -11t-135.5 54q-28 18 -45 23t-27 -2t-14 -29q-6 -41 -41 -41h-166zM686 1053q146 0 237 -108t91 -296
v-598q0 -51 -51 -51h-205q-51 0 -51 51v572q0 73 -38 110t-100 37q-149 0 -149 -172v-547q0 -51 -51 -51h-205q-51 0 -51 51v922q0 51 51 51h205q51 0 51 -51v-43q83 123 266 123z" />
    <glyph glyph-name="ograve" unicode="&#xf2;" horiz-adv-x="1208" 
d="M731 1167q25 0 33 15t-4 35l-119 208q-15 29 -49 29h-270q-27 0 -34.5 -14.5t9.5 -36.5l176 -213q17 -23 51 -23h207zM604 -29q-149 0 -273.5 71t-197 195.5t-72.5 274.5t72.5 274.5t197 195.5t273.5 71t273.5 -71t197 -195.5t72.5 -274.5t-72.5 -274.5t-197 -195.5
t-273.5 -71zM604 270q101 0 168.5 67.5t67.5 174.5t-67.5 174.5t-168.5 67.5t-168 -67.5t-67 -174.5t67 -174.5t168 -67.5z" />
    <glyph glyph-name="oacute" unicode="&#xf3;" horiz-adv-x="1208" 
d="M455 1229q-15 -28 -5 -45t39 -17h187q40 0 63 29l162 195q20 25 10.5 44t-41.5 19h-245q-42 0 -62 -35zM604 -29q-149 0 -273.5 71t-197 195.5t-72.5 274.5t72.5 274.5t197 195.5t273.5 71t273.5 -71t197 -195.5t72.5 -274.5t-72.5 -274.5t-197 -195.5t-273.5 -71z
M604 270q101 0 168.5 67.5t67.5 174.5t-67.5 174.5t-168.5 67.5t-168 -67.5t-67 -174.5t67 -174.5t168 -67.5z" />
    <glyph glyph-name="ocircumflex" unicode="&#xf4;" horiz-adv-x="1208" 
d="M287 1147q-25 0 -33 14.5t6 34.5l164 231q20 27 49 27h184h58q29 0 49 -27l164 -231q14 -20 6 -34.5t-33 -14.5h-203q-33 0 -49 27l-55 86l-55 -86q-16 -27 -50 -27h-202zM604 1053q149 0 273.5 -71t197 -195.5t72.5 -274.5t-72.5 -274.5t-197 -195.5t-273.5 -71
t-273.5 71t-197 195.5t-72.5 274.5t72.5 274.5t197 195.5t273.5 71zM604 270q101 0 168.5 67.5t67.5 174.5t-67.5 174.5t-168.5 67.5t-168 -67.5t-67 -174.5t67 -174.5t168 -67.5z" />
    <glyph glyph-name="otilde" unicode="&#xf5;" horiz-adv-x="1208" 
d="M276 1153q-41 0 -38 43q6 111 44 181t95 91.5t124.5 10.5t135.5 -54q28 -18 45 -23t27 2.5t14 29.5q6 41 41 41h166q42 0 39 -43q-6 -111 -44 -181t-95.5 -92t-125 -11t-135.5 54q-28 18 -45 23t-27 -2t-14 -29q-6 -41 -41 -41h-166zM604 -29q-149 0 -273.5 71
t-197 195.5t-72.5 274.5t72.5 274.5t197 195.5t273.5 71t273.5 -71t197 -195.5t72.5 -274.5t-72.5 -274.5t-197 -195.5t-273.5 -71zM604 270q101 0 168.5 67.5t67.5 174.5t-67.5 174.5t-168.5 67.5t-168 -67.5t-67 -174.5t67 -174.5t168 -67.5z" />
    <glyph glyph-name="odieresis" unicode="&#xf6;" horiz-adv-x="1208" 
d="M328 1157q-41 0 -41 41v184q0 41 41 41h184q41 0 41 -41v-184q0 -41 -41 -41h-184zM696 1157q-41 0 -41 41v184q0 41 41 41h185q41 0 41 -41v-184q0 -41 -41 -41h-185zM604 -29q-149 0 -273.5 71t-197 195.5t-72.5 274.5t72.5 274.5t197 195.5t273.5 71t273.5 -71
t197 -195.5t72.5 -274.5t-72.5 -274.5t-197 -195.5t-273.5 -71zM604 270q101 0 168.5 67.5t67.5 174.5t-67.5 174.5t-168.5 67.5t-168 -67.5t-67 -174.5t67 -174.5t168 -67.5z" />
    <glyph glyph-name="divide" unicode="&#xf7;" horiz-adv-x="1146" 
d="M573 936q-78 0 -131 53t-53 131t53 131.5t131 53.5t131.5 -53.5t53.5 -131.5t-53.5 -131t-131.5 -53zM133 573q-51 0 -51 52v184q0 51 51 51h881q51 0 51 -51v-184q0 -52 -51 -52h-881zM573 129q-78 0 -131 53t-53 131t53 131.5t131 53.5t131.5 -53.5t53.5 -131.5
t-53.5 -131t-131.5 -53z" />
    <glyph glyph-name="oslash" unicode="&#xf8;" horiz-adv-x="1208" 
d="M992 893q155 -157 155 -381q0 -150 -72.5 -274.5t-197 -195.5t-273.5 -71q-164 0 -301 89l-27 -31q-23 -29 -63 -29h-63q-32 0 -41.5 19t10.5 44l75 92q-133 151 -133 357q0 150 72.5 274.5t197 195.5t273.5 71q148 0 275 -73l12 15q23 29 63 29h64q32 0 41.5 -19
t-10.5 -44zM369 512q0 -64 25 -116l287 346q-36 12 -77 12q-101 0 -168 -67.5t-67 -174.5zM604 270q101 0 168.5 67.5t67.5 174.5q0 83 -43 145l-301 -363q51 -24 108 -24z" />
    <glyph glyph-name="ugrave" unicode="&#xf9;" 
d="M426 1169l-176 213q-17 22 -9.5 37t33.5 15h271q35 0 49 -29l119 -209q12 -20 4 -34.5t-33 -14.5h-207q-35 0 -51 22zM936 1024q51 0 51 -51v-922q0 -51 -51 -51h-205q-51 0 -51 51v43q-83 -123 -266 -123q-146 0 -237 108t-91 296v598q0 51 51 51h205q51 0 51 -51v-572
q0 -73 37.5 -110t99.5 -37q150 0 150 172v547q0 51 51 51h205z" />
    <glyph glyph-name="uacute" unicode="&#xfa;" 
d="M442 1147q-30 0 -39.5 16.5t5.5 44.5l108 191q20 35 62 35h245q32 0 41.5 -19.5t-10.5 -44.5l-162 -194q-23 -29 -63 -29h-187zM936 1024q51 0 51 -51v-922q0 -51 -51 -51h-205q-51 0 -51 51v43q-83 -123 -266 -123q-146 0 -237 108t-91 296v598q0 51 51 51h205
q51 0 51 -51v-572q0 -73 37.5 -110t99.5 -37q150 0 150 172v547q0 51 51 51h205z" />
    <glyph glyph-name="ucircumflex" unicode="&#xfb;" 
d="M240 1126q-25 0 -33 15t6 35l164 231q20 27 49 27h184h58q29 0 49 -27l164 -231q14 -20 6 -35t-33 -15h-203q-33 0 -49 27l-55 87l-55 -87q-16 -27 -50 -27h-202zM936 1024q51 0 51 -51v-922q0 -51 -51 -51h-205q-51 0 -51 51v43q-83 -123 -266 -123q-146 0 -237 108
t-91 296v598q0 51 51 51h205q51 0 51 -51v-572q0 -73 37.5 -110t99.5 -37q150 0 150 172v547q0 51 51 51h205z" />
    <glyph glyph-name="udieresis" unicode="&#xfc;" 
d="M281 1137q-41 0 -41 41v184q0 41 41 41h184q41 0 41 -41v-184q0 -41 -41 -41h-184zM649 1137q-41 0 -41 41v184q0 41 41 41h185q40 0 40 -41v-184q0 -41 -40 -41h-185zM936 1024q51 0 51 -51v-922q0 -51 -51 -51h-205q-51 0 -51 51v43q-83 -123 -266 -123
q-146 0 -237 108t-91 296v598q0 51 51 51h205q51 0 51 -51v-572q0 -73 37.5 -110t99.5 -37q150 0 150 172v547q0 51 51 51h205z" />
    <glyph glyph-name="yacute" unicode="&#xfd;" horiz-adv-x="1044" 
d="M373 1208q-15 -28 -5 -44.5t40 -16.5h186q40 0 63 29l162 194q20 25 10.5 44.5t-41.5 19.5h-245q-42 0 -62 -35zM705 981q12 43 57 43h221q28 0 40 -15t3 -42l-442 -1336q-11 -41 -60 -41h-221q-28 0 -40 15.5t-3 42.5l123 368l-360 949q-9 26 1.5 42.5t38.5 16.5h222
q42 0 57 -41l195 -543z" />
    <glyph glyph-name="thorn" unicode="&#xfe;" horiz-adv-x="1275" 
d="M725 1053q202 0 345.5 -157t143.5 -384t-143.5 -384t-345.5 -157q-196 0 -305 125v-454q0 -52 -51 -52h-205q-51 0 -51 52v1740q0 52 51 52h205q51 0 51 -52v-454q109 125 305 125zM664 262q107 0 175 68t68 182t-68 182t-175 68t-175.5 -68t-68.5 -182t68.5 -182
t175.5 -68z" />
    <glyph glyph-name="ydieresis" unicode="&#xff;" horiz-adv-x="1044" 
d="M246 1137q-41 0 -41 41v184q0 41 41 41h184q41 0 41 -41v-184q0 -41 -41 -41h-184zM614 1137q-41 0 -41 41v184q0 41 41 41h185q41 0 41 -41v-184q0 -41 -41 -41h-185zM705 981q12 43 57 43h221q28 0 40 -15t3 -42l-442 -1336q-11 -41 -60 -41h-221q-28 0 -40 15.5
t-3 42.5l123 368l-360 949q-9 26 1.5 42.5t38.5 16.5h222q42 0 57 -41l195 -543z" />
    <glyph glyph-name="Amacron" unicode="&#x100;" horiz-adv-x="1351" 
d="M410 1554q-41 0 -41 41v164q0 41 41 41h532q41 0 41 -41v-164q0 -41 -41 -41h-532zM1333 57q9 -27 -3 -42t-40 -15h-252q-46 0 -57 43l-54 182h-502l-54 -182q-11 -43 -58 -43h-252q-28 0 -40 15t-3 42l435 1334q12 43 59 43h328q47 0 59 -43zM515 532h321l-160 543z" />
    <glyph glyph-name="amacron" unicode="&#x101;" horiz-adv-x="1048" 
d="M270 1165q-41 0 -41 41v164q0 41 41 41h533q41 0 41 -41v-164q0 -41 -41 -41h-533zM537 1053q86 0 161.5 -25.5t135.5 -74.5t94.5 -128.5t34.5 -179.5v-594q0 -51 -52 -51h-196q-51 0 -51 51v29q-94 -109 -265 -109q-143 0 -240.5 84t-97.5 236t97 235.5t241 83.5
q163 0 265 -78v93q0 75 -31 110t-96 35q-92 0 -119 -59q-10 -24 -20.5 -34.5t-32.5 -10.5h-201q-54 0 -51 53q13 107 75.5 184t152 113.5t196.5 36.5zM508 188q73 0 114.5 28.5t41.5 74.5q0 48 -41 75t-115 27q-68 0 -103.5 -28t-35.5 -74t35.5 -74.5t103.5 -28.5z" />
    <glyph glyph-name="Abreve" unicode="&#x102;" horiz-adv-x="1351" 
d="M676 1520q-160 0 -251.5 68.5t-105.5 195.5q-3 43 41 43h189q33 0 45 -39q16 -55 82 -55t82 55q12 39 45 39h188q44 0 41 -37q-11 -130 -102.5 -200t-253.5 -70zM1333 57q9 -27 -3 -42t-40 -15h-252q-46 0 -57 43l-54 182h-502l-54 -182q-11 -43 -58 -43h-252
q-28 0 -40 15t-3 42l435 1334q12 43 59 43h328q47 0 59 -43zM515 532h321l-160 543z" />
    <glyph glyph-name="abreve" unicode="&#x103;" horiz-adv-x="1048" 
d="M537 1130q-160 0 -251.5 69t-105.5 196q-3 43 41 43h189q33 0 45 -39q16 -56 82 -56q65 0 81 56q12 39 46 39h188q44 0 41 -37q-11 -130 -102.5 -200.5t-253.5 -70.5zM537 1053q86 0 161.5 -25.5t135.5 -74.5t94.5 -128.5t34.5 -179.5v-594q0 -51 -52 -51h-196
q-51 0 -51 51v29q-94 -109 -265 -109q-143 0 -240.5 84t-97.5 236t97 235.5t241 83.5q163 0 265 -78v93q0 75 -31 110t-96 35q-92 0 -119 -59q-10 -24 -20.5 -34.5t-32.5 -10.5h-201q-54 0 -51 53q13 107 75.5 184t152 113.5t196.5 36.5zM508 188q73 0 114.5 28.5t41.5 74.5
q0 48 -41 75t-115 27q-68 0 -103.5 -28t-35.5 -74t35.5 -74.5t103.5 -28.5z" />
    <glyph glyph-name="Aogonek" unicode="&#x104;" horiz-adv-x="1351" 
d="M1286 -227q47 0 47 -37v-105q0 -36 -26 -45q-70 -24 -154 -24q-90 0 -147.5 47t-57.5 139q0 114 131 252h-41q-46 0 -57 43l-54 182h-502l-54 -182q-11 -43 -57 -43h-252q-28 0 -40 15t-3 42l434 1334q12 43 59 43h328q47 0 59 -43l434 -1334h1v-1q2 -4 2 -7
q6 -13 0.5 -30t-9 -24t-12.5 -18t-10 -12q-64 -83 -64 -139q-3 -53 45 -53zM516 532h320l-160 543z" />
    <glyph glyph-name="aogonek" unicode="&#x105;" horiz-adv-x="1048" 
d="M963 645v-594v-2q0 -17 -9 -34t-23 -33l-14 -17q-63 -81 -63 -139q-3 -53 45 -53q47 0 47 -37v-105q0 -36 -26 -45q-70 -24 -154 -24q-90 0 -147.5 47t-57.5 139q0 114 131 252l8 1q-36 7 -36 50v29q-94 -109 -265 -109q-143 0 -240.5 84t-97.5 236t97 235.5t241 83.5
q163 0 265 -78v93q0 75 -31 110t-96 35q-92 0 -119 -59q-10 -24 -20.5 -34.5t-32.5 -10.5h-201q-54 0 -51 53q13 107 75.5 184t152 113.5t196.5 36.5q86 0 161.5 -25.5t135.5 -74.5t94.5 -128.5t34.5 -179.5zM508 188q73 0 114.5 28.5t41.5 74.5q0 48 -41 75t-115 27
q-68 0 -103.5 -28t-35.5 -74t35.5 -74.5t103.5 -28.5z" />
    <glyph glyph-name="Cacute" unicode="&#x106;" horiz-adv-x="1529" 
d="M657 1638q-15 -28 -5 -44.5t40 -16.5h187q40 0 63 29l162 194q20 25 10.5 44.5t-41.5 19.5h-246q-41 0 -61 -35zM807 -29q-159 0 -298 57.5t-237 157t-154.5 237.5t-56.5 294q0 209 95.5 379t267 268t383.5 98q246 0 436.5 -139.5t253.5 -364.5q6 -26 -6.5 -41.5
t-38.5 -15.5h-242q-39 0 -57 41q-43 93 -136 147t-210 54q-190 0 -304 -116.5t-114 -309.5t114 -309.5t304 -116.5q117 0 210 54t136 147q18 40 57 40h242q26 0 38.5 -14t6.5 -39q-60 -225 -251.5 -366.5t-438.5 -141.5z" />
    <glyph glyph-name="cacute" unicode="&#x107;" horiz-adv-x="1153" 
d="M459 1208q-15 -28 -5 -44.5t40 -16.5h186q40 0 63 29l162 194q20 25 10.5 44.5t-41.5 19.5h-245q-42 0 -62 -35zM1065 389q27 0 39.5 -15.5t3.5 -41.5q-48 -161 -186.5 -261t-317.5 -100q-232 0 -387.5 155.5t-155.5 385.5t155.5 385.5t387.5 155.5q179 0 317.5 -100
t186.5 -261q9 -26 -3.5 -41.5t-39.5 -15.5h-225q-38 0 -62 35q-58 80 -174 80q-101 0 -168 -66.5t-67 -171.5t67 -171.5t168 -66.5q115 0 174 78q24 37 62 37h225z" />
    <glyph glyph-name="Cdotaccent" unicode="&#x10a;" horiz-adv-x="1529" 
d="M694 1556q-41 0 -41 41v226q0 41 41 41h226q41 0 41 -41v-226q0 -41 -41 -41h-226zM807 -29q-159 0 -298 57.5t-237 157t-154.5 237.5t-56.5 294q0 209 95.5 379t267 268t383.5 98q246 0 436.5 -139.5t253.5 -364.5q6 -26 -6.5 -41.5t-38.5 -15.5h-242q-39 0 -57 41
q-43 93 -136 147t-210 54q-190 0 -304 -116.5t-114 -309.5t114 -309.5t304 -116.5q117 0 210 54t136 147q18 40 57 40h242q26 0 38.5 -14t6.5 -39q-60 -225 -251.5 -366.5t-438.5 -141.5z" />
    <glyph glyph-name="cdotaccent" unicode="&#x10b;" horiz-adv-x="1153" 
d="M496 1126q-41 0 -41 41v226q0 41 41 41h225q41 0 41 -41v-226q0 -41 -41 -41h-225zM1065 389q27 0 39.5 -15.5t3.5 -41.5q-48 -161 -186.5 -261t-317.5 -100q-232 0 -387.5 155.5t-155.5 385.5t155.5 385.5t387.5 155.5q179 0 317.5 -100t186.5 -261q9 -26 -3.5 -41.5
t-39.5 -15.5h-225q-38 0 -62 35q-58 80 -174 80q-101 0 -168 -66.5t-67 -171.5t67 -171.5t168 -66.5q115 0 174 78q24 37 62 37h225z" />
    <glyph glyph-name="Ccaron" unicode="&#x10c;" horiz-adv-x="1529" 
d="M627 1583l-164 232q-14 20 -6.5 34.5t32.5 14.5h203q33 0 49 -27l56 -87l55 87q16 27 49 27h203q25 0 32.5 -14.5t-6.5 -34.5l-163 -232q-20 -27 -49 -27h-185h-57q-29 0 -49 27zM1452 532q26 0 38.5 -14t6.5 -39q-60 -225 -251.5 -366.5t-438.5 -141.5q-159 0 -298 57.5
t-237 157t-154.5 237.5t-56.5 294q0 209 95.5 379t267 268t383.5 98q246 0 436.5 -139.5t253.5 -364.5q6 -26 -6.5 -41.5t-38.5 -15.5h-242q-39 0 -57 41q-43 93 -136 147t-210 54q-190 0 -304 -116.5t-114 -309.5t114 -309.5t304 -116.5q117 0 210 54t136 147q18 40 57 40
h242z" />
    <glyph glyph-name="ccaron" unicode="&#x10d;" horiz-adv-x="1153" 
d="M428 1153l-164 231q-14 20 -6 35t33 15h203q33 0 49 -27l55 -87l55 87q16 27 49 27h203q25 0 33 -15t-6 -35l-164 -231q-20 -27 -49 -27h-184h-58q-29 0 -49 27zM1065 389q27 0 39.5 -15.5t3.5 -41.5q-48 -161 -186.5 -261t-317.5 -100q-232 0 -387.5 155.5t-155.5 385.5
t155.5 385.5t387.5 155.5q179 0 317.5 -100t186.5 -261q9 -26 -3.5 -41.5t-39.5 -15.5h-225q-38 0 -62 35q-58 80 -174 80q-101 0 -168 -66.5t-67 -171.5t67 -171.5t168 -66.5q115 0 174 78q24 37 62 37h225z" />
    <glyph glyph-name="Dcaron" unicode="&#x10e;" horiz-adv-x="1495" 
d="M496 1563l-164 231q-14 20 -6.5 34.5t32.5 14.5h203q33 0 49 -26l56 -87l55 87q16 26 49 26h203q25 0 32.5 -14.5t-6.5 -34.5l-163 -231q-20 -27 -50 -27h-184h-57q-29 0 -49 27zM737 1434q146 0 275.5 -55.5t221.5 -150.5t146 -228t54 -283t-54 -283t-146 -228
t-221.5 -150.5t-275.5 -55.5h-512h-51q-51 0 -51 51v1331q0 52 51 52h277h286zM737 315q170 0 275.5 109.5t105.5 292.5t-105.5 292t-275.5 109h-286v-803h286z" />
    <glyph glyph-name="dcaron" unicode="&#x10f;" horiz-adv-x="1527" 
d="M1112 1434q51 0 51 -52v-1331q0 -51 -51 -51h-205q-51 0 -51 51v45q-109 -125 -305 -125q-202 0 -346 157t-144 384t144 384t346 157q196 0 305 -125v454q0 52 51 52h205zM1493 1434q53 0 47 -56l-47 -327q-6 -47 -53 -47h-146q-25 0 -38.5 14t-12.5 39l17 327
q3 50 51 50h182zM612 262q107 0 175.5 68t68.5 182t-68.5 182t-175.5 68t-175 -68t-68 -182t68 -182t175 -68z" />
    <glyph glyph-name="Dcroat" unicode="&#x110;" horiz-adv-x="1576" 
d="M819 1434q146 0 275.5 -55.5t221.5 -150.5t146 -228t54 -283t-54 -283t-146 -228t-221.5 -150.5t-275.5 -55.5h-512h-51q-51 0 -51 51v498h-113q-51 0 -51 51v193q0 51 51 51h113v538q0 52 51 52h276h287zM819 315q170 0 275.5 109.5t105.5 292.5t-105.5 292t-275.5 109
h-287v-274h236q51 0 51 -51v-193q0 -51 -51 -51h-236v-234h287z" />
    <glyph glyph-name="dcroat" unicode="&#x111;" horiz-adv-x="1286" 
d="M1235 1311q51 0 51 -51v-91q0 -51 -51 -51h-72v-1067q0 -51 -51 -51h-205q-51 0 -51 51v45q-109 -125 -305 -125q-202 0 -346 157t-144 384t144 384t346 157q196 0 305 -125v190h-235q-52 0 -52 51v91q0 51 52 51h235v71q0 52 51 52h205q51 0 51 -52v-71h72zM612 262
q107 0 175.5 68t68.5 182t-68.5 182t-175.5 68t-175 -68t-68 -182t68 -182t175 -68z" />
    <glyph glyph-name="Emacron" unicode="&#x112;" horiz-adv-x="1044" 
d="M283 1554q-41 0 -41 41v164q0 41 41 41h532q41 0 41 -41v-164q0 -41 -41 -41h-532zM932 315q51 0 51 -51v-213q0 -51 -51 -51h-707h-51q-51 0 -51 51v1331q0 52 51 52h277h471q51 0 51 -52v-213q0 -51 -51 -51h-471v-239h419q52 0 52 -52v-204q0 -52 -52 -52h-419v-256
h481z" />
    <glyph glyph-name="emacron" unicode="&#x113;" horiz-adv-x="1183" 
d="M348 1155q-41 0 -41 41v164q0 41 41 41h533q41 0 41 -41v-164q0 -41 -41 -41h-533zM610 1053q147 0 265.5 -70.5t184.5 -194t66 -276.5q0 -26 -4 -76q-6 -47 -55 -47h-250h-434q26 -87 90 -128.5t150 -41.5q90 0 151 51q34 27 64 27l196 2q28 0 40.5 -16.5t0.5 -40.5
q-59 -132 -178.5 -201.5t-278.5 -69.5q-250 0 -403.5 154t-153.5 387q0 231 154.5 386t394.5 155zM382 623h439q-22 82 -80 119.5t-133 37.5q-86 0 -144 -40t-82 -117z" />
    <glyph glyph-name="Edotaccent" unicode="&#x116;" horiz-adv-x="1044" 
d="M436 1536q-41 0 -41 41v225q0 41 41 41h226q40 0 40 -41v-225q0 -41 -40 -41h-226zM932 315q51 0 51 -51v-213q0 -51 -51 -51h-707h-51q-51 0 -51 51v1331q0 52 51 52h277h471q51 0 51 -52v-213q0 -51 -51 -51h-471v-239h419q52 0 52 -52v-204q0 -52 -52 -52h-419v-256
h481z" />
    <glyph glyph-name="edotaccent" unicode="&#x117;" horiz-adv-x="1183" 
d="M502 1137q-41 0 -41 41v225q0 41 41 41h225q41 0 41 -41v-225q0 -41 -41 -41h-225zM610 1053q147 0 265.5 -70.5t184.5 -194t66 -276.5q0 -26 -4 -76q-6 -47 -55 -47h-250h-434q26 -87 90 -128.5t150 -41.5q90 0 151 51q34 27 64 27l196 2q28 0 40.5 -16.5t0.5 -40.5
q-59 -132 -178.5 -201.5t-278.5 -69.5q-250 0 -403.5 154t-153.5 387q0 231 154.5 386t394.5 155zM382 623h439q-22 82 -80 119.5t-133 37.5q-86 0 -144 -40t-82 -117z" />
    <glyph glyph-name="Eogonek" unicode="&#x118;" horiz-adv-x="1044" 
d="M803 -438q-90 0 -147.5 47t-57.5 139q0 114 131 252h-555q-51 0 -51 51v1331q0 52 51 52h748q51 0 51 -52v-213q0 -51 -51 -51h-471v-239h419q52 0 52 -52v-204q0 -52 -52 -52h-419v-256h481q51 0 51 -51v-227q0 -30 -25 -66q-67 -86 -67 -145q-3 -53 45 -53q47 0 47 -37
v-105q0 -36 -27 -45q-71 -24 -153 -24z" />
    <glyph glyph-name="eogonek" unicode="&#x119;" horiz-adv-x="1183" 
d="M610 1053q147 0 265.5 -70.5t184.5 -194t66 -276.5q0 -26 -4 -76q-6 -47 -55 -47h-250h-434q26 -87 90 -128.5t150 -41.5q90 0 151 51q34 27 64 27l196 2q28 0 40.5 -16.5t0.5 -40.5q-41 -89 -107 -149q-81 -88 -113 -156.5t-32 -110.5q-3 -53 45 -53q27 0 37 -10t10 -37
v-86q0 -45 -34 -56q-68 -22 -146 -22q-90 0 -147.5 47t-57.5 139q0 115 136 225q-32 -2 -48 -2q-250 0 -403.5 154t-153.5 387q0 231 154.5 386t394.5 155zM382 623h439q-22 82 -80 119.5t-133 37.5q-86 0 -144 -40t-82 -117z" />
    <glyph glyph-name="Ecaron" unicode="&#x11a;" horiz-adv-x="1044" 
d="M369 1563l-164 231q-14 20 -6.5 34.5t32.5 14.5h203q33 0 49 -26l56 -87l55 87q16 26 49 26h203q25 0 32.5 -14.5t-6.5 -34.5l-163 -231q-20 -27 -50 -27h-184h-57q-29 0 -49 27zM932 315q51 0 51 -51v-213q0 -51 -51 -51h-707h-51q-51 0 -51 51v1331q0 52 51 52h277h471
q51 0 51 -52v-213q0 -51 -51 -51h-471v-239h419q52 0 52 -52v-204q0 -52 -52 -52h-419v-256h481z" />
    <glyph glyph-name="ecaron" unicode="&#x11b;" horiz-adv-x="1183" 
d="M434 1163l-164 232q-14 20 -6 34.5t33 14.5h203q33 0 49 -27l55 -87l55 87q16 27 50 27h202q25 0 33 -14.5t-6 -34.5l-164 -232q-20 -26 -49 -26h-184h-58q-29 0 -49 26zM610 1053q147 0 265.5 -70.5t184.5 -194t66 -276.5q0 -26 -4 -76q-6 -47 -55 -47h-250h-434
q26 -87 90 -128.5t150 -41.5q90 0 151 51q34 27 64 27l196 2q28 0 40.5 -16.5t0.5 -40.5q-59 -132 -178.5 -201.5t-278.5 -69.5q-250 0 -403.5 154t-153.5 387q0 231 154.5 386t394.5 155zM382 623h439q-22 82 -80 119.5t-133 37.5q-86 0 -144 -40t-82 -117z" />
    <glyph glyph-name="Gbreve" unicode="&#x11e;" horiz-adv-x="1601" 
d="M807 1540q-160 0 -251 68.5t-105 195.5q-3 43 41 43h188q33 0 45 -39q16 -55 82 -55t82 55q12 39 45 39h188q44 0 41 -37q-11 -130 -102.5 -200t-253.5 -70zM1458 784q51 0 51 -51v-235v-447q0 -51 -51 -51h-205q-51 0 -51 51v116q-147 -196 -436 -196q-197 0 -358.5 98
t-254 269t-92.5 379q0 209 95.5 379t267 268t383.5 98q241 0 431.5 -131.5t254.5 -331.5q9 -26 -3 -41.5t-40 -15.5h-242q-38 0 -59 37q-46 71 -138.5 117.5t-203.5 46.5q-190 0 -304 -116.5t-114 -309.5q0 -204 117 -325.5t301 -121.5q125 0 225 56.5t141 171.5h-309
q-51 0 -51 51v184q0 51 51 51h594z" />
    <glyph glyph-name="gbreve" unicode="&#x11f;" horiz-adv-x="1275" 
d="M600 1130q-160 0 -251 69t-105 196q-3 43 41 43h188q33 0 45 -39q16 -56 82 -56t82 56q12 39 45 39h188q44 0 41 -37q-11 -130 -102.5 -200.5t-253.5 -70.5zM1112 1024q51 0 51 -51v-922q0 -100 -31 -182.5t-82 -138.5t-119.5 -94.5t-142.5 -56t-151 -17.5
q-130 0 -239 38.5t-185.5 123t-91.5 202.5q-1 26 12.5 40t38.5 14h207q22 0 34.5 -11t20.5 -34q18 -48 69.5 -75.5t133.5 -27.5q105 0 166 56.5t61 162.5v93q-111 -132 -313 -132q-132 0 -245 70t-179 190t-66 260t66 260t179 190.5t245 70.5q202 0 313 -132v52q0 51 51 51
h197zM616 295q109 0 178.5 66.5t69.5 171.5t-69.5 171t-178.5 66t-178 -66t-69 -171q0 -106 69 -172t178 -66z" />
    <glyph glyph-name="Gdotaccent" unicode="&#x120;" horiz-adv-x="1601" 
d="M694 1556q-41 0 -41 41v226q0 41 41 41h226q41 0 41 -41v-226q0 -41 -41 -41h-226zM1458 784q51 0 51 -51v-235v-447q0 -51 -51 -51h-205q-51 0 -51 51v116q-147 -196 -436 -196q-197 0 -358.5 98t-254 269t-92.5 379q0 209 95.5 379t267 268t383.5 98
q241 0 431.5 -131.5t254.5 -331.5q9 -26 -3 -41.5t-40 -15.5h-242q-38 0 -59 37q-46 71 -138.5 117.5t-203.5 46.5q-190 0 -304 -116.5t-114 -309.5q0 -204 117 -325.5t301 -121.5q125 0 225 56.5t141 171.5h-309q-51 0 -51 51v184q0 51 51 51h594z" />
    <glyph glyph-name="gdotaccent" unicode="&#x121;" horiz-adv-x="1275" 
d="M487 1147q-41 0 -41 41v225q0 41 41 41h226q41 0 41 -41v-225q0 -41 -41 -41h-226zM1112 1024q51 0 51 -51v-922q0 -100 -31 -182.5t-82 -138.5t-119.5 -94.5t-142.5 -56t-151 -17.5q-130 0 -239 38.5t-185.5 123t-91.5 202.5q-1 26 12.5 40t38.5 14h207q22 0 34.5 -11
t20.5 -34q18 -48 69.5 -75.5t133.5 -27.5q105 0 166 56.5t61 162.5v93q-111 -132 -313 -132q-132 0 -245 70t-179 190t-66 260t66 260t179 190.5t245 70.5q202 0 313 -132v52q0 51 51 51h197zM616 295q109 0 178.5 66.5t69.5 171.5t-69.5 171t-178.5 66t-178 -66t-69 -171
q0 -106 69 -172t178 -66z" />
    <glyph glyph-name="Gcommaaccent" unicode="&#x122;" horiz-adv-x="1601" 
d="M1458 784q51 0 51 -51v-235v-447q0 -51 -51 -51h-205q-51 0 -51 51v116q-147 -196 -436 -196q-197 0 -358.5 98t-254 269t-92.5 379q0 209 95.5 379t267 268t383.5 98q241 0 431.5 -131.5t254.5 -331.5q9 -26 -3 -41.5t-40 -15.5h-242q-38 0 -59 37q-46 71 -138.5 117.5
t-203.5 46.5q-190 0 -304 -116.5t-114 -309.5q0 -204 117 -325.5t301 -121.5q125 0 225 56.5t141 171.5h-309q-51 0 -51 51v184q0 51 51 51h594zM922 -123q20 0 30.5 -11.5t7.5 -31.5l-49 -350q-5 -37 -45 -37h-166q-42 0 -39 41l17 348q2 19 13 30t30 11h201z" />
    <glyph glyph-name="gcommaaccent" unicode="&#x123;" horiz-adv-x="1275" 
d="M487 1188q-20 0 -30.5 11.5t-7.5 31.5l49 350q5 37 45 37h166q42 0 39 -41l-17 -348q-2 -19 -13 -30t-30 -11h-201zM1112 1024q51 0 51 -51v-922q0 -100 -31 -182.5t-82 -138.5t-119.5 -94.5t-142.5 -56t-151 -17.5q-130 0 -239 38.5t-185.5 123t-91.5 202.5
q-1 26 12.5 40t38.5 14h207q22 0 34.5 -11t20.5 -34q18 -48 69.5 -75.5t133.5 -27.5q105 0 166 56.5t61 162.5v93q-111 -132 -313 -132q-132 0 -245 70t-179 190t-66 260t66 260t179 190.5t245 70.5q202 0 313 -132v52q0 51 51 51h197zM616 295q109 0 178.5 66.5t69.5 171.5
t-69.5 171t-178.5 66t-178 -66t-69 -171q0 -106 69 -172t178 -66z" />
    <glyph glyph-name="Hbar" unicode="&#x126;" horiz-adv-x="1392" 
d="M1300 1255q52 0 52 -51v-135q0 -51 -52 -51h-71v-967q0 -51 -51 -51h-226q-51 0 -51 51v467h-409v-467q0 -51 -52 -51h-225q-51 0 -51 51v967h-72q-51 0 -51 51v135q0 51 51 51h72v127q0 52 51 52h225q52 0 52 -52v-127h409v127q0 52 51 52h226q51 0 51 -52v-127h71z
M901 834v184h-409v-184h409z" />
    <glyph glyph-name="hbar" unicode="&#x127;" horiz-adv-x="1110" 
d="M696 1053q146 0 237 -108t91 -296v-598q0 -51 -51 -51h-205q-51 0 -51 51v572q0 73 -37.5 110t-99.5 37q-150 0 -150 -172v-547q0 -51 -51 -51h-205q-51 0 -51 51v1067h-72q-51 0 -51 51v91q0 51 51 51h72v71q0 52 51 52h205q51 0 51 -52v-71h236q51 0 51 -51v-91
q0 -51 -51 -51h-236v-188q83 123 266 123z" />
    <glyph glyph-name="Imacron" unicode="&#x12a;" horiz-adv-x="573" 
d="M20 1554q-40 0 -40 41v164q0 41 40 41h533q41 0 41 -41v-164q0 -41 -41 -41h-533zM123 1382q0 52 51 52h225q52 0 52 -52v-1331q0 -51 -52 -51h-225q-51 0 -51 51v1331z" />
    <glyph glyph-name="imacron" unicode="&#x12b;" horiz-adv-x="532" 
d="M72 1145q-52 0 -52 51v164q0 51 52 51h389q51 0 51 -51v-164q0 -51 -51 -51h-389zM164 0q-51 0 -51 51v922q0 51 51 51h205q51 0 51 -51v-922q0 -51 -51 -51h-205z" />
    <glyph glyph-name="Iogonek" unicode="&#x12e;" horiz-adv-x="573" 
d="M434 -227q28 0 37.5 -10t9.5 -37v-86q0 -45 -35 -56q-68 -22 -145 -22q-90 0 -147.5 47t-57.5 139q0 116 101 252h-23q-51 0 -51 51v1331q0 52 51 52h225q52 0 52 -52v-1331q0 -38 -33 -114q-29 -72 -29 -111q0 -53 45 -53z" />
    <glyph glyph-name="iogonek" unicode="&#x12f;" horiz-adv-x="532" 
d="M164 1147q-51 0 -51 51v184q0 52 51 52h205q51 0 51 -52v-184q0 -51 -51 -51h-205zM399 -227q29 0 38.5 -10t9.5 -37v-86q0 -45 -35 -56q-68 -22 -146 -22q-90 0 -147 47t-57 139q0 118 100 252q-49 2 -49 51v922q0 51 51 51h205q51 0 51 -51v-922q0 -19 -4.5 -38
t-9.5 -31.5t-15 -33t-14 -30.5q-23 -52 -23 -92q0 -53 45 -53z" />
    <glyph glyph-name="Idotaccent" unicode="&#x130;" horiz-adv-x="573" 
d="M174 1536q-41 0 -41 41v225q0 41 41 41h225q41 0 41 -41v-225q0 -41 -41 -41h-225zM123 1382q0 52 51 52h225q52 0 52 -52v-1331q0 -51 -52 -51h-225q-51 0 -51 51v1331z" />
    <glyph glyph-name="dotlessi" unicode="&#x131;" horiz-adv-x="532" 
d="M164 0q-51 0 -51 51v922q0 51 51 51h205q51 0 51 -51v-922q0 -51 -51 -51h-205z" />
    <glyph glyph-name="Kcommaaccent" unicode="&#x136;" horiz-adv-x="1282" 
d="M1239 61q17 -26 7.5 -43.5t-40.5 -17.5h-258q-41 0 -61 33l-436 630v-612q0 -51 -52 -51h-225q-51 0 -51 51v1331q0 52 51 52h225q52 0 52 -52v-572l415 591q23 33 62 33h258q31 0 41 -18t-8 -44l-441 -636zM743 -123q21 0 31.5 -11.5t7.5 -31.5l-49 -350q-5 -37 -45 -37
h-166q-42 0 -39 41l17 348q2 19 13 30t30 11h200z" />
    <glyph glyph-name="kcommaaccent" unicode="&#x137;" horiz-adv-x="1075" 
d="M1030 61q18 -26 9 -43.5t-40 -17.5h-233q-41 0 -61 33l-285 416v-398q0 -51 -51 -51h-205q-51 0 -51 51v1331q0 52 51 52h205q51 0 51 -52v-803l264 412q20 33 61 33h236q31 0 40.5 -17.5t-7.5 -43.5l-301 -451zM698 -123q21 0 31.5 -11.5t7.5 -31.5l-49 -350
q-5 -37 -45 -37h-166q-42 0 -39 41l17 348q2 19 13 30t30 11h200z" />
    <glyph glyph-name="Lacute" unicode="&#x139;" horiz-adv-x="962" 
d="M197 1556q-30 0 -40 17t5 45l108 190q20 35 62 35h246q32 0 41 -19t-11 -44l-162 -195q-23 -29 -63 -29h-186zM891 315q51 0 51 -51v-213q0 -51 -51 -51h-604h-113q-51 0 -51 51v1331q0 52 51 52h225q52 0 52 -52v-1067h440z" />
    <glyph glyph-name="lacute" unicode="&#x13a;" horiz-adv-x="532" 
d="M141 1618q-15 -28 -5 -45t40 -17h186q41 0 64 29l162 195q20 25 10.5 44t-41.5 19h-246q-41 0 -61 -35zM164 0q-51 0 -51 51v1372q0 52 51 52h205q51 0 51 -52v-1372q0 -51 -51 -51h-205z" />
    <glyph glyph-name="Lcommaaccent" unicode="&#x13b;" horiz-adv-x="962" 
d="M891 315q51 0 51 -51v-213q0 -51 -51 -51h-604h-113q-51 0 -51 51v1331q0 52 51 52h225q52 0 52 -52v-1067h440zM668 -123q21 0 31.5 -11.5t7.5 -31.5l-50 -350q-5 -37 -45 -37h-166q-41 0 -38 41l16 348q2 19 13 30t30 11h201z" />
    <glyph glyph-name="lcommaaccent" unicode="&#x13c;" horiz-adv-x="532" 
d="M164 0q-51 0 -51 51v1372q0 52 51 52h205q51 0 51 -52v-1372q0 -51 -51 -51h-205zM315 -553q40 0 45 37l50 350q3 20 -7.5 31.5t-31.5 11.5h-201q-19 0 -30 -11t-13 -30l-16 -348q-3 -41 39 -41h165z" />
    <glyph glyph-name="Lcaron" unicode="&#x13d;" horiz-adv-x="962" 
d="M891 315q51 0 51 -51v-213q0 -51 -51 -51h-604h-113q-51 0 -51 51v1331q0 52 51 52h225q52 0 52 -52v-1067h440zM608 1044q-25 0 -38.5 14.5t-12.5 39.5l16 286q3 50 52 50h202q26 0 38.5 -15t8.5 -41l-45 -286q-6 -48 -55 -48h-166z" />
    <glyph glyph-name="lcaron" unicode="&#x13e;" horiz-adv-x="780" 
d="M164 0q-51 0 -51 51v1372q0 52 51 52h205q51 0 51 -52v-1372q0 -51 -51 -51h-205zM692 1044q47 0 53 48l48 327q6 56 -48 56h-182q-48 0 -51 -50l-16 -327q-1 -25 12.5 -39.5t38.5 -14.5h145z" />
    <glyph glyph-name="Lslash" unicode="&#x141;" horiz-adv-x="1003" 
d="M932 315q51 0 51 -51v-213q0 -51 -51 -51h-604h-113q-51 0 -51 51v351l-41 -27q-26 -17 -44 -7.5t-18 40.5v221q0 40 33 61l70 46v646q0 52 51 52h225q52 0 52 -52v-432l204 133q26 17 44 8t18 -40v-222q0 -40 -33 -61l-233 -152v-301h440z" />
    <glyph glyph-name="lslash" unicode="&#x142;" horiz-adv-x="552" 
d="M471 981q26 17 43.5 7.5t17.5 -40.5v-178q0 -42 -32 -61l-70 -48v-610q0 -51 -51 -51h-205q-51 0 -51 51v401l-41 -28q-26 -17 -44 -7.5t-18 40.5v178q0 41 33 61l70 48v679q0 52 51 52h205q51 0 51 -52v-470z" />
    <glyph glyph-name="Nacute" unicode="&#x143;" horiz-adv-x="1331" 
d="M516 1618q-15 -28 -5 -45t40 -17h186q41 0 64 29l162 195q20 25 10.5 44t-41.5 19h-246q-41 0 -61 -35zM881 1382q0 52 51 52h225q51 0 51 -52v-1331q0 -51 -51 -51h-153q-44 0 -64 33l-489 766v-748q0 -51 -52 -51h-225q-51 0 -51 51v1331q0 52 51 52h154q43 0 63 -33
l490 -766v747z" />
    <glyph glyph-name="nacute" unicode="&#x144;" 
d="M440 1167q-29 0 -39 17t5 45l108 190q20 35 61 35h246q32 0 41.5 -19t-10.5 -44l-162 -195q-23 -29 -63 -29h-187zM686 1053q146 0 237 -108t91 -296v-598q0 -51 -51 -51h-205q-51 0 -51 51v572q0 73 -38 110t-100 37q-149 0 -149 -172v-547q0 -51 -51 -51h-205
q-51 0 -51 51v922q0 51 51 51h205q51 0 51 -51v-43q83 123 266 123z" />
    <glyph glyph-name="Ncommaaccent" unicode="&#x145;" horiz-adv-x="1331" 
d="M881 1382q0 52 51 52h225q51 0 51 -52v-1331q0 -51 -51 -51h-153q-44 0 -64 33l-489 766v-748q0 -51 -52 -51h-225q-51 0 -51 51v1331q0 52 51 52h154q43 0 63 -33l490 -766v747zM725 -553q40 0 45 37l49 350q3 20 -7.5 31.5t-31.5 11.5h-200q-19 0 -30 -11t-13 -30
l-17 -348q-3 -41 39 -41h166z" />
    <glyph glyph-name="ncommaaccent" unicode="&#x146;" 
d="M686 1053q146 0 237 -108t91 -296v-598q0 -51 -51 -51h-205q-51 0 -51 51v572q0 73 -38 110t-100 37q-149 0 -149 -172v-547q0 -51 -51 -51h-205q-51 0 -51 51v922q0 51 51 51h205q51 0 51 -51v-43q83 123 266 123zM684 -123q21 0 31.5 -11.5t7.5 -31.5l-49 -350
q-5 -37 -45 -37h-166q-42 0 -39 41l16 348q2 19 13 30t30 11h201z" />
    <glyph glyph-name="Ncaron" unicode="&#x147;" horiz-adv-x="1331" 
d="M485 1563l-163 231q-14 20 -6.5 34.5t32.5 14.5h203q33 0 49 -26l55 -87l56 87q16 26 49 26h203q25 0 32.5 -14.5t-6.5 -34.5l-164 -231q-20 -27 -49 -27h-184h-57q-30 0 -50 27zM1157 1434q51 0 51 -52v-1331q0 -51 -51 -51h-153q-44 0 -64 33l-489 766v-748
q0 -51 -52 -51h-225q-51 0 -51 51v1331q0 52 51 52h154q43 0 63 -33l490 -766v747q0 52 51 52h225z" />
    <glyph glyph-name="ncaron" unicode="&#x148;" 
d="M375 1174l-164 231q-14 20 -6 34.5t33 14.5h202q33 0 49 -27l56 -86l55 86q16 27 49 27h203q25 0 33 -14.5t-6 -34.5l-164 -231q-20 -27 -49 -27h-185h-57q-29 0 -49 27zM686 1053q146 0 237 -108t91 -296v-598q0 -51 -51 -51h-205q-51 0 -51 51v572q0 73 -38 110
t-100 37q-149 0 -149 -172v-547q0 -51 -51 -51h-205q-51 0 -51 51v922q0 51 51 51h205q51 0 51 -51v-43q83 123 266 123z" />
    <glyph glyph-name="Eng" unicode="&#x14a;" horiz-adv-x="1331" 
d="M1157 1434q51 0 51 -52v-1331v-51q0 -191 -111 -294.5t-327 -113.5q-53 -3 -53 50v186q0 44 51 53q113 18 113 119v126l-430 673v-748q0 -51 -52 -51h-225q-51 0 -51 51v1331q0 52 51 52h154q43 0 63 -33l490 -766v747q0 52 51 52h225z" />
    <glyph glyph-name="eng" unicode="&#x14b;" 
d="M686 1053q146 0 237 -108t91 -296v-649q0 -209 -99 -324t-301 -116q-51 0 -51 53v192q0 46 51 52q93 13 93 143v623q0 73 -38 110t-100 37q-149 0 -149 -172v-547q0 -51 -51 -51h-205q-51 0 -51 51v922q0 51 51 51h205q51 0 51 -51v-43q83 123 266 123z" />
    <glyph glyph-name="Omacron" unicode="&#x14c;" horiz-adv-x="1613" 
d="M541 1575q-41 0 -41 41v164q0 41 41 41h532q41 0 41 -41v-164q0 -41 -41 -41h-532zM807 -29q-152 0 -290 57.5t-238 156.5t-159 238t-59 294q0 207 100 378.5t271 269t375 97.5q203 0 374 -97.5t271 -269t100 -378.5t-100 -379t-271 -269.5t-374 -97.5zM807 291
q178 0 298 118.5t120 307.5t-120 307.5t-298 118.5t-298 -118.5t-120 -307.5t120 -307.5t298 -118.5z" />
    <glyph glyph-name="omacron" unicode="&#x14d;" horiz-adv-x="1208" 
d="M338 1165q-41 0 -41 41v164q0 41 41 41h532q41 0 41 -41v-164q0 -41 -41 -41h-532zM604 -29q-149 0 -273.5 71t-197 195.5t-72.5 274.5t72.5 274.5t197 195.5t273.5 71t273.5 -71t197 -195.5t72.5 -274.5t-72.5 -274.5t-197 -195.5t-273.5 -71zM604 270q101 0 168.5 67.5
t67.5 174.5t-67.5 174.5t-168.5 67.5t-168 -67.5t-67 -174.5t67 -174.5t168 -67.5z" />
    <glyph glyph-name="Ohungarumlaut" unicode="&#x150;" horiz-adv-x="1613" 
d="M473 1618q-15 -28 -5 -45t40 -17h192q41 0 62 35l117 191q15 26 6 43.5t-39 17.5h-203q-41 0 -61 -35zM852 1618q-17 -26 -6.5 -44t41.5 -18h190q42 0 62 33l131 193q17 26 7.5 43.5t-40.5 17.5h-201q-41 0 -61 -33zM807 -29q-152 0 -290 57.5t-238 156.5t-159 238
t-59 294q0 207 100 378.5t271 269t375 97.5q203 0 374 -97.5t271 -269t100 -378.5t-100 -379t-271 -269.5t-374 -97.5zM807 291q178 0 298 118.5t120 307.5t-120 307.5t-298 118.5t-298 -118.5t-120 -307.5t120 -307.5t298 -118.5z" />
    <glyph glyph-name="ohungarumlaut" unicode="&#x151;" horiz-adv-x="1208" 
d="M270 1208q-15 -28 -5 -44.5t40 -16.5h193q40 0 61 35l117 190q15 26 6 44t-39 18h-203q-41 0 -61 -35zM649 1208q-17 -26 -6.5 -43.5t41.5 -17.5h190q42 0 62 33l131 192q17 26 7.5 44t-40.5 18h-200q-42 0 -62 -33zM604 -29q-149 0 -273.5 71t-197 195.5t-72.5 274.5
t72.5 274.5t197 195.5t273.5 71t273.5 -71t197 -195.5t72.5 -274.5t-72.5 -274.5t-197 -195.5t-273.5 -71zM604 270q101 0 168.5 67.5t67.5 174.5t-67.5 174.5t-168.5 67.5t-168 -67.5t-67 -174.5t67 -174.5t168 -67.5z" />
    <glyph glyph-name="OE" unicode="&#x152;" horiz-adv-x="1875" 
d="M1763 315q52 0 52 -51v-213q0 -51 -52 -51h-665h-103q-106 -29 -209 -29q-203 0 -369.5 98t-261 269t-94.5 379q0 156 56 294t152 237t230.5 156.5t286.5 57.5q106 0 209 -28h328h430q51 0 51 -52v-213q0 -51 -51 -51h-430v-239h379q51 0 51 -52v-204q0 -52 -51 -52h-379
v-256h440zM995 322v790q-82 31 -209 31q-176 0 -286.5 -117.5t-110.5 -308.5t110.5 -308.5t286.5 -117.5q127 0 209 31z" />
    <glyph glyph-name="oe" unicode="&#x153;" horiz-adv-x="1961" 
d="M1399 1053q147 0 263 -70.5t179.5 -194t63.5 -276.5q0 -26 -4 -76q-6 -47 -56 -47h-250h-434q26 -87 90 -128.5t150 -41.5q90 0 151 51q34 27 64 27l196 2q28 0 40.5 -16.5t0.5 -40.5q-58 -133 -173 -202t-273 -69q-284 0 -417 205q-65 -97 -166.5 -151t-229.5 -54
q-148 0 -270.5 71t-192.5 195.5t-70 274.5t70 274.5t192.5 195.5t270.5 71q128 0 230 -54.5t167 -151.5q63 97 167 151.5t241 54.5zM1160 623h439q-22 82 -80 119.5t-133 37.5q-86 0 -144 -40t-82 -117zM604 270q101 0 168.5 67.5t67.5 174.5t-67.5 174.5t-168.5 67.5
t-168 -67.5t-67 -174.5t67 -174.5t168 -67.5z" />
    <glyph glyph-name="Racute" unicode="&#x154;" horiz-adv-x="1290" 
d="M459 1556q-30 0 -40 17t5 45l108 190q20 35 62 35h246q32 0 41 -19t-11 -44l-161 -195q-23 -29 -64 -29h-186zM1282 63q20 -25 10.5 -44t-41.5 -19h-262q-41 0 -63 31l-349 440h-126v-420q0 -51 -52 -51h-225q-51 0 -51 51v1331q0 52 51 52h277h225q134 0 247 -66
t178.5 -179t65.5 -247q0 -127 -69 -238t-184 -173zM451 1126v-368h225q68 0 116 53.5t48 130.5t-48 130.5t-116 53.5h-225z" />
    <glyph glyph-name="racute" unicode="&#x155;" horiz-adv-x="706" 
d="M670 1434q32 0 41 -19.5t-11 -44.5l-161 -194q-23 -29 -64 -29h-186q-30 0 -40 16.5t5 44.5l108 191q20 35 62 35h246zM633 1040q25 4 39 -9.5t14 -39.5v-241q0 -50 -41 -50q-96 3 -160.5 -49.5t-64.5 -167.5v-432q0 -51 -51 -51h-205q-51 0 -51 51v922q0 51 51 51h205
q51 0 51 -51v-111q23 76 79 121t134 57z" />
    <glyph glyph-name="Rcommaaccent" unicode="&#x156;" horiz-adv-x="1290" 
d="M1282 63q20 -25 10.5 -44t-41.5 -19h-262q-41 0 -63 31l-349 440h-126v-420q0 -51 -52 -51h-225q-51 0 -51 51v1331q0 52 51 52h277h225q134 0 247 -66t178.5 -179t65.5 -247q0 -127 -69 -238t-184 -173zM451 1126v-368h225q68 0 116 53.5t48 130.5t-48 130.5t-116 53.5
h-225zM832 -123q20 0 30.5 -11.5t7.5 -31.5l-49 -350q-5 -37 -45 -37h-166q-42 0 -39 41l17 348q2 19 13 30t30 11h201z" />
    <glyph glyph-name="rcommaaccent" unicode="&#x157;" horiz-adv-x="706" 
d="M633 1040q25 4 39 -9.5t14 -39.5v-241q0 -50 -41 -50q-96 3 -160.5 -49.5t-64.5 -167.5v-432q0 -51 -51 -51h-205q-51 0 -51 51v922q0 51 51 51h205q51 0 51 -51v-111q23 76 79 121t134 57zM373 -123q21 0 31.5 -11.5t7.5 -31.5l-50 -350q-5 -37 -45 -37h-165
q-42 0 -39 41l16 348q2 19 13 30t30 11h201z" />
    <glyph glyph-name="Rcaron" unicode="&#x158;" horiz-adv-x="1290" 
d="M393 1563l-164 231q-14 20 -6 34.5t33 14.5h203q33 0 49 -26l55 -87l55 87q16 26 50 26h202q25 0 33 -14.5t-6 -34.5l-164 -231q-20 -27 -49 -27h-184h-58q-29 0 -49 27zM1282 63q20 -25 10.5 -44t-41.5 -19h-262q-41 0 -63 31l-349 440h-126v-420q0 -51 -52 -51h-225
q-51 0 -51 51v1331q0 52 51 52h277h225q134 0 247 -66t178.5 -179t65.5 -247q0 -127 -69 -238t-184 -173zM451 1126v-368h225q68 0 116 53.5t48 130.5t-48 130.5t-116 53.5h-225z" />
    <glyph glyph-name="rcaron" unicode="&#x159;" horiz-adv-x="706" 
d="M700 1434q25 0 33 -15t-6 -35l-164 -231q-20 -27 -49 -27h-184h-58q-29 0 -49 27l-164 231q-14 20 -6 35t33 15h203q33 0 49 -27l55 -87l56 87q16 27 49 27h202zM633 1040q25 4 39 -9.5t14 -39.5v-241q0 -50 -41 -50q-96 3 -160.5 -49.5t-64.5 -167.5v-432q0 -51 -51 -51
h-205q-51 0 -51 51v922q0 51 51 51h205q51 0 51 -51v-111q23 76 79 121t134 57z" />
    <glyph glyph-name="Sacute" unicode="&#x15a;" horiz-adv-x="1116" 
d="M406 1638q-15 -28 -5.5 -44.5t39.5 -16.5h187q40 0 63 29l162 194q20 25 10.5 44.5t-41.5 19.5h-246q-41 0 -61 -35zM571 -29q-103 0 -192.5 25.5t-162 75.5t-118.5 133.5t-55 191.5q-1 26 12.5 40t38.5 14h225q45 0 54 -50q24 -110 198 -110q93 0 135 30.5t42 79.5
q0 24 -13 45.5t-30 36t-51.5 31t-60.5 26t-73 25.5q-169 58 -243 101q-192 110 -213 311q-3 26 -3 55q0 104 40 187.5t107.5 135.5t152.5 79.5t178 27.5t175.5 -25.5t151 -75.5t113 -133.5t53.5 -191.5q3 -53 -51 -53h-225q-45 0 -54 49q-23 111 -163 111q-73 0 -111.5 -32
t-38.5 -79q0 -59 50 -96t153 -74q13 -5 40 -14q41 -14 62 -21.5t60.5 -22.5t62 -27t57 -30.5t55.5 -37t47 -43t41.5 -52t30 -60t21 -71.5t6.5 -82q0 -139 -70 -238t-182 -145.5t-252 -46.5z" />
    <glyph glyph-name="sacute" unicode="&#x15b;" horiz-adv-x="995" 
d="M377 1167q-30 0 -40 17t5 45l109 190q20 35 61 35h246q32 0 41 -19t-11 -44l-161 -195q-23 -29 -64 -29h-186zM389 717q0 -27 23 -45t60.5 -27t85.5 -19.5t98.5 -20.5t98.5 -33t85.5 -54t60.5 -85t23 -126q0 -86 -34.5 -152t-94.5 -105t-135 -59t-162 -20
q-80 0 -151 18.5t-129 55.5t-95.5 98t-46.5 140q-3 26 10.5 39.5t38.5 13.5h201q21 0 32 -9.5t23 -33.5q25 -55 117 -55q118 0 118 69q0 29 -29.5 47.5t-76.5 29t-104 21t-114 31t-104 52t-76.5 90t-29.5 139.5q0 84 34.5 149.5t93.5 105.5t132 60.5t156 20.5
q99 0 183 -31.5t145 -104t73 -176.5q3 -26 -10.5 -39.5t-38.5 -13.5h-201q-21 0 -32 10t-23 35q-22 53 -96 53q-109 0 -109 -69z" />
    <glyph glyph-name="Scedilla" unicode="&#x15e;" horiz-adv-x="1116" 
d="M1075 401q0 -171 -100.5 -278t-265.5 -139v-78q51 -13 90 -52.5t39 -105.5q0 -208 -418 -192q-43 3 -43 43v129q0 41 45 41q149 -6 149 30q0 24 -69 37q-39 6 -39 43v100q-176 25 -290.5 130t-129.5 288q-1 26 12.5 40t38.5 14h225q45 0 54 -50q24 -110 198 -110
q93 0 135 30.5t42 79.5q0 24 -13 45.5t-30 36t-51.5 31t-60.5 26t-73 25.5q-169 58 -243 101q-192 110 -213 311q-3 26 -3 55q0 104 40 187.5t107.5 135.5t152.5 79.5t178 27.5t175.5 -25.5t151 -75.5t113 -133.5t53.5 -191.5q3 -53 -51 -53h-225q-45 0 -54 49
q-23 111 -163 111q-73 0 -111.5 -32t-38.5 -79q0 -59 50 -96t153 -74q13 -5 40 -14q41 -14 62 -21.5t60.5 -22.5t62 -27t57 -30.5t55.5 -37t47 -43t41.5 -52t30 -60t21 -71.5t6.5 -82z" />
    <glyph glyph-name="scedilla" unicode="&#x15f;" horiz-adv-x="995" 
d="M924 307q0 -129 -75 -209t-200 -110v-82q51 -13 90 -52.5t39 -105.5q0 -208 -418 -192q-43 3 -43 43v129q0 41 45 41q150 -6 150 30q0 24 -70 37q-39 6 -39 43v99q-135 20 -223.5 96.5t-103.5 208.5q-3 26 10.5 39.5t38.5 13.5h201q21 0 32 -9.5t23 -33.5q25 -55 117 -55
q118 0 118 69q0 29 -29.5 47.5t-76.5 29t-104 21t-114 31t-104 52t-76.5 90t-29.5 139.5q0 84 34.5 149.5t93.5 105.5t132 60.5t156 20.5q99 0 183 -31.5t145 -104t73 -176.5q3 -26 -10.5 -39.5t-38.5 -13.5h-201q-21 0 -32 10t-23 35q-22 53 -96 53q-109 0 -109 -69
q0 -27 23 -45t60.5 -27t85.5 -19.5t98.5 -20.5t98.5 -33t85.5 -54t60.5 -85t23 -126z" />
    <glyph glyph-name="Scaron" unicode="&#x160;" horiz-adv-x="1116" 
d="M375 1583l-164 232q-14 20 -6 34.5t33 14.5h202q33 0 49 -27l56 -87l55 87q16 27 49 27h203q25 0 33 -14.5t-6 -34.5l-164 -232q-20 -27 -49 -27h-185h-57q-29 0 -49 27zM592 862q13 -5 40 -14q41 -14 62 -21.5t60.5 -22.5t62 -27t57 -30.5t55.5 -37t47 -43t41.5 -52
t30 -60t21 -71.5t6.5 -82q0 -139 -70 -238t-182 -145.5t-252 -46.5q-103 0 -192.5 25.5t-162 75.5t-118.5 133.5t-55 191.5q-1 26 12.5 40t38.5 14h225q45 0 54 -50q24 -110 198 -110q93 0 135 30.5t42 79.5q0 24 -13 45.5t-30 36t-51.5 31t-60.5 26t-73 25.5
q-169 58 -243 101q-192 110 -213 311q-3 26 -3 55q0 104 40 187.5t107.5 135.5t152.5 79.5t178 27.5t175.5 -25.5t151 -75.5t113 -133.5t53.5 -191.5q3 -53 -51 -53h-225q-45 0 -54 49q-23 111 -163 111q-73 0 -111.5 -32t-38.5 -79q0 -59 50 -96t153 -74z" />
    <glyph glyph-name="scaron" unicode="&#x161;" horiz-adv-x="995" 
d="M311 1174l-164 231q-14 20 -6 34.5t33 14.5h203q33 0 49 -27l55 -86l56 86q16 27 49 27h202q25 0 33 -14.5t-6 -34.5l-164 -231q-20 -27 -49 -27h-184h-58q-29 0 -49 27zM389 717q0 -27 23 -45t60.5 -27t85.5 -19.5t98.5 -20.5t98.5 -33t85.5 -54t60.5 -85t23 -126
q0 -86 -34.5 -152t-94.5 -105t-135 -59t-162 -20q-80 0 -151 18.5t-129 55.5t-95.5 98t-46.5 140q-3 26 10.5 39.5t38.5 13.5h201q21 0 32 -9.5t23 -33.5q25 -55 117 -55q118 0 118 69q0 29 -29.5 47.5t-76.5 29t-104 21t-114 31t-104 52t-76.5 90t-29.5 139.5
q0 84 34.5 149.5t93.5 105.5t132 60.5t156 20.5q99 0 183 -31.5t145 -104t73 -176.5q3 -26 -10.5 -39.5t-38.5 -13.5h-201q-21 0 -32 10t-23 35q-22 53 -96 53q-109 0 -109 -69z" />
    <glyph glyph-name="uni0162" unicode="&#x162;" horiz-adv-x="1024" 
d="M952 1434q52 0 52 -52v-213q0 -51 -52 -51h-276v-1067q0 -51 -51 -51h-226q-51 0 -51 51v1067h-276q-52 0 -52 51v213q0 52 52 52h604h276zM627 -123q21 0 31.5 -11.5t7.5 -31.5l-50 -350q-5 -37 -45 -37h-165q-42 0 -39 41l16 348q2 19 13 30t30 11h201z" />
    <glyph glyph-name="uni0163" unicode="&#x163;" horiz-adv-x="696" 
d="M614 1024q52 0 52 -51v-193q0 -51 -52 -51h-112v-678q0 -51 -51 -51h-205q-51 0 -51 51v678h-113q-51 0 -51 51v193q0 51 51 51h113v276q0 52 51 52h205q51 0 51 -52v-276h112zM457 -123q21 0 31.5 -11.5t7.5 -31.5l-50 -350q-5 -37 -45 -37h-165q-42 0 -39 41l16 348
q2 19 13 30t30 11h201z" />
    <glyph glyph-name="Tcaron" unicode="&#x164;" horiz-adv-x="1024" 
d="M332 1563l-164 231q-14 20 -6 34.5t33 14.5h202q33 0 49 -26l56 -87l55 87q16 26 49 26h203q25 0 33 -14.5t-6 -34.5l-164 -231q-20 -27 -49 -27h-185h-57q-29 0 -49 27zM952 1434q52 0 52 -52v-213q0 -51 -52 -51h-276v-1067q0 -51 -51 -51h-226q-51 0 -51 51v1067h-276
q-52 0 -52 51v213q0 52 52 52h604h276z" />
    <glyph glyph-name="tcaron" unicode="&#x165;" horiz-adv-x="851" 
d="M838 1516q26 0 38.5 -15t8.5 -41l-45 -286q-6 -48 -56 -48h-145q-25 0 -38.5 14.5t-12.5 39.5l16 286q3 50 51 50h183zM614 1024q52 0 52 -51v-193q0 -51 -52 -51h-112v-678q0 -51 -51 -51h-205q-51 0 -51 51v678h-113q-51 0 -51 51v193q0 51 51 51h113v276q0 52 51 52
h205q51 0 51 -52v-276h112z" />
    <glyph glyph-name="Tbar" unicode="&#x166;" horiz-adv-x="1024" 
d="M952 1434q52 0 52 -52v-213q0 -51 -52 -51h-276v-274h174q51 0 51 -51v-193q0 -51 -51 -51h-174v-498q0 -51 -51 -51h-226q-51 0 -51 51v498h-174q-51 0 -51 51v193q0 51 51 51h174v274h-276q-52 0 -52 51v213q0 52 52 52h604h276z" />
    <glyph glyph-name="tbar" unicode="&#x167;" horiz-adv-x="696" 
d="M614 1024q52 0 52 -51v-193q0 -51 -52 -51h-112v-84h82q51 0 51 -51v-143q0 -52 -51 -52h-82v-348q0 -51 -51 -51h-205q-51 0 -51 51v348h-82q-52 0 -52 52v143q0 51 52 51h82v84h-113q-51 0 -51 51v193q0 51 51 51h113v276q0 52 51 52h205q51 0 51 -52v-276h112z" />
    <glyph glyph-name="Umacron" unicode="&#x16a;" horiz-adv-x="1269" 
d="M369 1554q-41 0 -41 41v164q0 41 41 41h532q41 0 41 -41v-164q0 -41 -41 -41h-532zM635 -29q-150 0 -269 52.5t-191.5 161t-72.5 257.5v940q0 52 52 52h225q51 0 51 -52v-911q0 -87 47.5 -133.5t157.5 -46.5t157.5 46.5t47.5 133.5v911q0 52 51 52h225q51 0 51 -52v-940
q0 -112 -41.5 -202.5t-114 -148.5t-168.5 -89t-208 -31z" />
    <glyph glyph-name="umacron" unicode="&#x16b;" 
d="M291 1145q-41 0 -41 41v164q0 41 41 41h532q41 0 41 -41v-164q0 -41 -41 -41h-532zM936 1024q51 0 51 -51v-922q0 -51 -51 -51h-205q-51 0 -51 51v43q-83 -123 -266 -123q-146 0 -237 108t-91 296v598q0 51 51 51h205q51 0 51 -51v-572q0 -73 37.5 -110t99.5 -37
q150 0 150 172v547q0 51 51 51h205z" />
    <glyph glyph-name="Uring" unicode="&#x16e;" horiz-adv-x="1269" 
d="M635 1505q-119 0 -196 73t-77 183t77 183t196 73q121 0 196.5 -73t75.5 -183t-75.5 -183t-196.5 -73zM635 1692q35 0 54.5 19t19.5 50t-19.5 50.5t-54.5 19.5q-34 0 -53 -20t-19 -50t19 -49.5t53 -19.5zM635 -29q-150 0 -269 52.5t-191.5 161t-72.5 257.5v940q0 52 52 52
h225q51 0 51 -52v-911q0 -87 47.5 -133.5t157.5 -46.5t157.5 46.5t47.5 133.5v911q0 52 51 52h225q51 0 51 -52v-940q0 -112 -41.5 -202.5t-114 -148.5t-168.5 -89t-208 -31z" />
    <glyph glyph-name="uring" unicode="&#x16f;" 
d="M557 1096q-119 0 -195.5 73t-76.5 183t76.5 183t195.5 73q121 0 196.5 -73t75.5 -183t-75.5 -183t-196.5 -73zM557 1421q-34 0 -53 -19.5t-19 -49.5t19 -50t53 -20q35 0 54.5 19.5t19.5 50.5q0 30 -19.5 49.5t-54.5 19.5zM936 1024q51 0 51 -51v-922q0 -51 -51 -51h-205
q-51 0 -51 51v43q-83 -123 -266 -123q-146 0 -237 108t-91 296v598q0 51 51 51h205q51 0 51 -51v-572q0 -73 37.5 -110t99.5 -37q150 0 150 172v547q0 51 51 51h205z" />
    <glyph glyph-name="Uhungarumlaut" unicode="&#x170;" horiz-adv-x="1269" 
d="M301 1597q-15 -28 -5 -44.5t40 -16.5h192q41 0 62 35l117 190q15 26 6 44t-39 18h-203q-41 0 -61 -35zM680 1597q-17 -26 -6.5 -43.5t41.5 -17.5h190q42 0 62 33l131 192q17 26 7.5 44t-40.5 18h-201q-41 0 -61 -33zM635 -29q-150 0 -269 52.5t-191.5 161t-72.5 257.5
v940q0 52 52 52h225q51 0 51 -52v-911q0 -87 47.5 -133.5t157.5 -46.5t157.5 46.5t47.5 133.5v911q0 52 51 52h225q51 0 51 -52v-940q0 -112 -41.5 -202.5t-114 -148.5t-168.5 -89t-208 -31z" />
    <glyph glyph-name="uhungarumlaut" unicode="&#x171;" 
d="M258 1126q-30 0 -40 17t5 45l109 190q20 35 61 35h203q30 0 39 -17.5t-6 -43.5l-117 -191q-21 -35 -61 -35h-193zM987 1413q31 0 40.5 -17.5t-7.5 -43.5l-131 -193q-20 -33 -62 -33h-190q-31 0 -41.5 18t6.5 44l123 192q20 33 61 33h201zM936 1024q51 0 51 -51v-922
q0 -51 -51 -51h-205q-51 0 -51 51v43q-83 -123 -266 -123q-146 0 -237 108t-91 296v598q0 51 51 51h205q51 0 51 -51v-572q0 -73 37.5 -110t99.5 -37q150 0 150 172v547q0 51 51 51h205z" />
    <glyph glyph-name="Uogonek" unicode="&#x172;" horiz-adv-x="1269" 
d="M1116 1434q51 0 51 -52v-940q0 -215 -145 -342q-110 -99 -151.5 -157.5t-41.5 -116.5q-2 -25 10.5 -39t35.5 -14q25 0 36 -10.5t11 -36.5v-86q0 -45 -35 -56q-68 -22 -146 -22q-90 0 -147 47t-57 139q0 102 105 223h-7q-150 0 -269 52.5t-191.5 161t-72.5 257.5v940
q0 52 52 52h225q51 0 51 -52v-911q0 -87 47.5 -133.5t157.5 -46.5t157.5 46.5t47.5 133.5v911q0 52 51 52h225z" />
    <glyph glyph-name="uogonek" unicode="&#x173;" 
d="M987 973v-922v-2q0 -13 -6 -28t-13 -24t-15.5 -19.5t-10.5 -12.5q-63 -81 -63 -139q-3 -53 45 -53q47 0 47 -37v-105q0 -36 -27 -45q-70 -24 -153 -24q-90 0 -147.5 47t-57.5 139q0 114 131 252l4 1q-41 6 -41 50v43q-83 -123 -266 -123q-146 0 -237 108t-91 296v598
q0 51 51 51h205q51 0 51 -51v-572q0 -73 37.5 -110t99.5 -37q150 0 150 172v547q0 51 51 51h205q51 0 51 -51z" />
    <glyph glyph-name="Wcircumflex" unicode="&#x174;" horiz-adv-x="1843" 
d="M604 1536q-25 0 -32.5 14.5t6.5 34.5l163 232q19 26 50 26h184h57q30 0 49 -26l164 -232q14 -20 6.5 -34.5t-32.5 -14.5h-203q-33 0 -49 27l-56 86l-55 -86q-16 -27 -49 -27h-203zM1784 1434q28 0 39 -15t4 -43l-367 -1333q-11 -43 -57 -43h-262q-47 0 -58 43l-161 588
l-162 -588q-11 -43 -58 -43h-262q-46 0 -57 43l-367 1333q-7 28 4 43t39 15h240q46 0 55 -45l238 -959l190 710l-65 236q-7 28 4 43t39 15h198q47 0 56 -45l237 -959l238 959q9 45 55 45h240z" />
    <glyph glyph-name="wcircumflex" unicode="&#x175;" horiz-adv-x="1515" 
d="M440 1126q-25 0 -32.5 15t6.5 35l164 231q20 27 49 27h184h57q30 0 50 -27l163 -231q14 -20 6.5 -35t-32.5 -15h-203q-33 0 -49 27l-55 87l-56 -87q-16 -27 -49 -27h-203zM1434 1024q28 0 39.5 -15.5t3.5 -41.5l-295 -924q-12 -43 -60 -43h-172h-24q-48 0 -60 43
l-108 341l-109 -341q-12 -43 -59 -43h-129h-68q-47 0 -59 43l-295 924q-8 26 3.5 41.5t39.5 15.5h221q46 0 57 -43l160 -594l116 377l-65 203q-8 26 3.5 41.5t39.5 15.5h160q45 0 57 -43l174 -559l150 559q11 43 57 43h222z" />
    <glyph glyph-name="Ycircumflex" unicode="&#x176;" horiz-adv-x="1249" 
d="M307 1536q-25 0 -32.5 14.5t6.5 34.5l163 232q20 26 50 26h184h57q29 0 49 -26l164 -232q14 -20 6.5 -34.5t-32.5 -14.5h-203q-33 0 -49 27l-56 86l-55 -86q-16 -27 -49 -27h-203zM1180 1434q29 0 39 -17t-5 -45l-426 -744v-577q0 -51 -51 -51h-225q-51 0 -51 51v577
l-426 744q-15 28 -5 45t40 17h262q41 0 59 -37l234 -447l233 447q18 37 60 37h262z" />
    <glyph glyph-name="ycircumflex" unicode="&#x177;" horiz-adv-x="1044" 
d="M205 1126q-25 0 -33 15t6 35l164 231q20 27 49 27h184h58q29 0 49 -27l164 -231q14 -20 6 -35t-33 -15h-203q-33 0 -49 27l-55 87l-55 -87q-16 -27 -49 -27h-203zM983 1024q28 0 40 -15t3 -42l-442 -1336q-11 -41 -60 -41h-221q-28 0 -40 15.5t-3 42.5l123 368l-360 949
q-9 26 1.5 42.5t38.5 16.5h222q42 0 57 -41l195 -543l168 541q12 43 57 43h221z" />
    <glyph glyph-name="Ydieresis" unicode="&#x178;" horiz-adv-x="1249" 
d="M348 1546q-41 0 -41 41v185q0 40 41 40h184q41 0 41 -40v-185q0 -41 -41 -41h-184zM717 1546q-41 0 -41 41v185q0 40 41 40h184q41 0 41 -40v-185q0 -41 -41 -41h-184zM1180 1434q29 0 39 -17t-5 -45l-426 -744v-577q0 -51 -51 -51h-225q-51 0 -51 51v577l-426 744
q-15 28 -5 45t40 17h262q41 0 59 -37l234 -447l233 447q18 37 60 37h262z" />
    <glyph glyph-name="Zacute" unicode="&#x179;" horiz-adv-x="1105" 
d="M414 1618q-15 -28 -5 -45t40 -17h186q40 0 63 29l162 195q20 25 10.5 44t-41.5 19h-245q-42 0 -62 -35zM496 315h508q51 0 51 -51v-213q0 -51 -51 -51h-881q-51 0 -51 51v168q0 34 18 64l531 835h-488q-51 0 -51 51v213q0 52 51 52h860q51 0 51 -52v-168q0 -33 -18 -63z
" />
    <glyph glyph-name="zacute" unicode="&#x17a;" horiz-adv-x="931" 
d="M322 1208q-15 -28 -5.5 -44.5t39.5 -16.5h187q40 0 63 29l162 194q20 25 10.5 44.5t-41.5 19.5h-245q-42 0 -62 -35zM473 287h356q52 0 52 -51v-185q0 -51 -52 -51h-716q-52 0 -52 51v119q0 33 21 63l367 504h-316q-51 0 -51 51v185q0 51 51 51h676q51 0 51 -51v-119
q0 -34 -20 -63z" />
    <glyph glyph-name="Zdotaccent" unicode="&#x17b;" horiz-adv-x="1105" 
d="M451 1536q-41 0 -41 41v225q0 41 41 41h225q41 0 41 -41v-225q0 -41 -41 -41h-225zM496 315h508q51 0 51 -51v-213q0 -51 -51 -51h-881q-51 0 -51 51v168q0 34 18 64l531 835h-488q-51 0 -51 51v213q0 52 51 52h860q51 0 51 -52v-168q0 -33 -18 -63z" />
    <glyph glyph-name="zdotaccent" unicode="&#x17c;" horiz-adv-x="931" 
d="M358 1126q-41 0 -41 41v226q0 41 41 41h226q41 0 41 -41v-226q0 -41 -41 -41h-226zM473 287h356q52 0 52 -51v-185q0 -51 -52 -51h-716q-52 0 -52 51v119q0 33 21 63l367 504h-316q-51 0 -51 51v185q0 51 51 51h676q51 0 51 -51v-119q0 -34 -20 -63z" />
    <glyph glyph-name="Zcaron" unicode="&#x17d;" horiz-adv-x="1105" 
d="M383 1563l-164 231q-14 20 -6 34.5t33 14.5h203q33 0 49 -26l55 -87l55 87q16 26 49 26h203q25 0 33 -14.5t-6 -34.5l-164 -231q-20 -27 -49 -27h-185h-57q-29 0 -49 27zM1004 315q51 0 51 -51v-213q0 -51 -51 -51h-881q-51 0 -51 51v168q0 34 18 64l531 835h-488
q-51 0 -51 51v213q0 52 51 52h860q51 0 51 -52v-168q0 -33 -18 -63l-530 -836h508z" />
    <glyph glyph-name="zcaron" unicode="&#x17e;" horiz-adv-x="931" 
d="M291 1153l-164 231q-14 20 -6 35t33 15h202q34 0 50 -27l55 -87l55 87q16 27 49 27h203q25 0 33 -15t-6 -35l-164 -231q-20 -27 -49 -27h-185h-57q-29 0 -49 27zM829 287q52 0 52 -51v-185q0 -51 -52 -51h-716q-52 0 -52 51v119q0 33 21 63l367 504h-316q-51 0 -51 51
v185q0 51 51 51h676q51 0 51 -51v-119q0 -34 -20 -63l-367 -504h356z" />
    <glyph glyph-name="florin" unicode="&#x192;" horiz-adv-x="905" 
d="M860 1454q45 -9 45 -57v-203q0 -26 -13 -35t-40 -6q-53 5 -97 -25.5t-55 -97.5l-27 -162h118q51 0 51 -51v-192q0 -52 -51 -52h-168l-109 -639q-19 -110 -63 -188t-105.5 -117.5t-138.5 -53.5t-162 3q-45 9 -45 57v203q0 26 13 35t40 6q53 -5 97 25.5t55 97.5l97 571
h-105q-52 0 -52 52v192q0 51 52 51h155l39 230q19 110 63 188t105.5 117.5t138.5 53.5t162 -3z" />
    <glyph glyph-name="Scommaaccent" unicode="&#x218;" horiz-adv-x="1116" 
d="M571 -29q-103 0 -192.5 25.5t-162 75.5t-118.5 133.5t-55 191.5q-1 26 12.5 40t38.5 14h225q45 0 54 -50q24 -110 198 -110q93 0 135 30.5t42 79.5q0 24 -13 45.5t-30 36t-51.5 31t-60.5 26t-73 25.5q-169 58 -243 101q-192 110 -213 311q-3 26 -3 55q0 104 40 187.5
t107.5 135.5t152.5 79.5t178 27.5t175.5 -25.5t151 -75.5t113 -133.5t53.5 -191.5q3 -53 -51 -53h-225q-45 0 -54 49q-23 111 -163 111q-73 0 -111.5 -32t-38.5 -79q0 -59 50 -96t153 -74q13 -5 40 -14q41 -14 62 -21.5t60.5 -22.5t62 -27t57 -30.5t55.5 -37t47 -43
t41.5 -52t30 -60t21 -71.5t6.5 -82q0 -139 -70 -238t-182 -145.5t-252 -46.5zM631 -553q40 0 45 37l49 350q3 20 -7.5 31.5t-31.5 11.5h-201q-19 0 -30 -11t-13 -30l-16 -348q-3 -41 39 -41h166z" />
    <glyph glyph-name="scommaaccent" unicode="&#x219;" horiz-adv-x="995" 
d="M389 717q0 -27 23 -45t60.5 -27t85.5 -19.5t98.5 -20.5t98.5 -33t85.5 -54t60.5 -85t23 -126q0 -86 -34.5 -152t-94.5 -105t-135 -59t-162 -20q-80 0 -151 18.5t-129 55.5t-95.5 98t-46.5 140q-3 26 10.5 39.5t38.5 13.5h201q21 0 32 -9.5t23 -33.5q25 -55 117 -55
q118 0 118 69q0 29 -29.5 47.5t-76.5 29t-104 21t-114 31t-104 52t-76.5 90t-29.5 139.5q0 84 34.5 149.5t93.5 105.5t132 60.5t156 20.5q99 0 183 -31.5t145 -104t73 -176.5q3 -26 -10.5 -39.5t-38.5 -13.5h-201q-21 0 -32 10t-23 35q-22 53 -96 53q-109 0 -109 -69z
M627 -123q21 0 31.5 -11.5t7.5 -31.5l-50 -350q-5 -37 -45 -37h-165q-42 0 -39 41l16 348q2 19 13 30t30 11h201z" />
    <glyph glyph-name="uni021A" unicode="&#x21a;" horiz-adv-x="1024" 
d="M952 1434q52 0 52 -52v-213q0 -51 -52 -51h-276v-1067q0 -51 -51 -51h-226q-51 0 -51 51v1067h-276q-52 0 -52 51v213q0 52 52 52h604h276zM627 -123q21 0 31.5 -11.5t7.5 -31.5l-50 -350q-5 -37 -45 -37h-165q-42 0 -39 41l16 348q2 19 13 30t30 11h201z" />
    <glyph glyph-name="uni021B" unicode="&#x21b;" horiz-adv-x="696" 
d="M614 1024q52 0 52 -51v-193q0 -51 -52 -51h-112v-678q0 -51 -51 -51h-205q-51 0 -51 51v678h-113q-51 0 -51 51v193q0 51 51 51h113v276q0 52 51 52h205q51 0 51 -52v-276h112zM457 -123q21 0 31.5 -11.5t7.5 -31.5l-50 -350q-5 -37 -45 -37h-165q-42 0 -39 41l16 348
q2 19 13 30t30 11h201z" />
    <glyph glyph-name="circumflex" unicode="&#x2c6;" horiz-adv-x="819" 
d="M743 1176q14 -20 6.5 -35t-32.5 -15h-203q-33 0 -49 27l-55 87l-56 -87q-16 -27 -49 -27h-203q-25 0 -32.5 15t6.5 35l164 231q20 27 49 27h184h57q30 0 50 -27z" />
    <glyph glyph-name="caron" unicode="&#x2c7;" horiz-adv-x="819" 
d="M717 1434q25 0 32.5 -15t-6.5 -35l-163 -231q-20 -27 -50 -27h-184h-57q-29 0 -49 27l-164 231q-14 20 -6.5 35t32.5 15h203q33 0 49 -27l56 -87l55 87q16 27 49 27h203z" />
    <glyph glyph-name="breve" unicode="&#x2d8;" horiz-adv-x="798" 
d="M399 1110q-160 0 -251 68.5t-105 195.5q-3 43 41 43h188q33 0 45 -39q16 -55 82 -55t82 55q12 39 45 39h189q44 0 41 -37q-11 -130 -103 -200t-254 -70z" />
    <glyph glyph-name="dotaccent" unicode="&#x2d9;" horiz-adv-x="389" 
d="M82 1126q-41 0 -41 41v226q0 41 41 41h225q41 0 41 -41v-226q0 -41 -41 -41h-225z" />
    <glyph glyph-name="ring" unicode="&#x2da;" horiz-adv-x="626" 
d="M313 1096q-119 0 -195.5 73t-76.5 183t76.5 183t195.5 73q121 0 197 -73t76 -183t-76 -183t-197 -73zM313 1282q35 0 54.5 19.5t19.5 50.5q0 30 -19.5 49.5t-54.5 19.5q-34 0 -52.5 -19.5t-18.5 -49.5q0 -31 18.5 -50.5t52.5 -19.5z" />
    <glyph glyph-name="ogonek" unicode="&#x2db;" horiz-adv-x="466" 
d="M246 -438q-90 0 -147.5 47t-57.5 139q0 114 131 252h254q-92 -103 -92 -174q-3 -53 45 -53q47 0 47 -37v-105q0 -36 -27 -45q-71 -24 -153 -24z" />
    <glyph glyph-name="tilde" unicode="&#x2dc;" horiz-adv-x="817" 
d="M82 1133q-42 0 -39 43q6 111 44 181t95 91.5t124.5 10.5t135.5 -54q28 -18 45 -23t27 2t14 29q6 41 41 41h166q42 0 39 -43q-6 -111 -44 -181t-95 -91.5t-124.5 -10.5t-135.5 54q-28 18 -45 23t-27 -2t-14 -29q-6 -41 -41 -41h-166z" />
    <glyph glyph-name="hungarumlaut" unicode="&#x2dd;" horiz-adv-x="956" 
d="M76 1188q-15 -28 -5 -45t40 -17h192q41 0 62 35l116 191q15 26 6.5 43.5t-38.5 17.5h-203q-42 0 -62 -35zM455 1188q-17 -26 -7 -44t41 -18h191q41 0 61 33l131 193q17 26 8 43.5t-40 17.5h-201q-41 0 -61 -33z" />
    <glyph glyph-name="gravecomb" unicode="&#x300;" horiz-adv-x="0" 
d="M-98 1147q24 0 32 14.5t-4 34.5l-118 209q-14 29 -50 29h-270q-26 0 -33.5 -15t9.5 -37l176 -213q16 -22 51 -22h207z" />
    <glyph glyph-name="acutecomb" unicode="&#x301;" horiz-adv-x="0" 
d="M-539 1208q-15 -28 -5 -44.5t40 -16.5h187q40 0 63 29l162 194q20 25 10.5 44.5t-41.5 19.5h-246q-41 0 -61 -35z" />
    <glyph glyph-name="uni0302" unicode="&#x302;" horiz-adv-x="0" 
d="M-76 1176q14 -20 6.5 -35t-32.5 -15h-203q-33 0 -49 27l-56 87l-55 -87q-16 -27 -49 -27h-203q-25 0 -32.5 15t6.5 35l163 231q20 27 50 27h184h57q29 0 49 -27z" />
    <glyph glyph-name="tildecomb" unicode="&#x303;" horiz-adv-x="0" 
d="M-715 1133q-42 0 -39 43q6 111 44 181t95.5 91.5t125 10.5t135.5 -54q28 -18 45 -23t27 2t14 29q6 41 41 41h166q41 0 38 -43q-6 -111 -44 -181t-95 -91.5t-124.5 -10.5t-135.5 54q-28 18 -45 23t-27 -2t-14 -29q-6 -41 -41 -41h-166z" />
    <glyph glyph-name="uni0304" unicode="&#x304;" horiz-adv-x="0" 
d="M-614 1145q-41 0 -41 41v164q0 41 41 41h532q41 0 41 -41v-164q0 -41 -41 -41h-532z" />
    <glyph glyph-name="uni0306" unicode="&#x306;" horiz-adv-x="0" 
d="M-399 1110q-160 0 -251.5 68.5t-105.5 195.5q-3 43 41 43h189q33 0 45 -39q16 -55 82 -55t82 55q12 39 45 39h188q44 0 41 -37q-11 -130 -102.5 -200t-253.5 -70z" />
    <glyph glyph-name="uni0307" unicode="&#x307;" horiz-adv-x="0" 
d="M-307 1126q-41 0 -41 41v226q0 41 41 41h225q41 0 41 -41v-226q0 -41 -41 -41h-225z" />
    <glyph glyph-name="uni0308" unicode="&#x308;" horiz-adv-x="0" 
d="M-635 1137q-41 0 -41 41v184q0 41 41 41h184q41 0 41 -41v-184q0 -41 -41 -41h-184zM-266 1137q-41 0 -41 41v184q0 41 41 41h184q41 0 41 -41v-184q0 -41 -41 -41h-184z" />
    <glyph glyph-name="uni030A" unicode="&#x30a;" horiz-adv-x="0" 
d="M-324 1096q-119 0 -195.5 73t-76.5 183t76.5 183t195.5 73q121 0 197 -73t76 -183t-76 -183t-197 -73zM-324 1282q35 0 54.5 19.5t19.5 50.5q0 30 -19 49.5t-55 19.5q-34 0 -52.5 -19.5t-18.5 -49.5q0 -31 18.5 -50.5t52.5 -19.5z" />
    <glyph glyph-name="uni030B" unicode="&#x30b;" horiz-adv-x="0" 
d="M-881 1188q-15 -28 -5 -45t40 -17h193q40 0 61 35l117 191q15 26 6 43.5t-39 17.5h-203q-41 0 -61 -35zM-502 1188q-17 -26 -6.5 -44t41.5 -18h191q41 0 61 33l131 193q17 26 7.5 43.5t-40.5 17.5h-200q-42 0 -62 -33z" />
    <glyph glyph-name="uni030C" unicode="&#x30c;" horiz-adv-x="0" 
d="M-102 1434q25 0 32.5 -15t-6.5 -35l-164 -231q-20 -27 -49 -27h-184h-57q-30 0 -50 27l-163 231q-14 20 -6.5 35t32.5 15h203q33 0 49 -27l55 -87l56 87q16 27 49 27h203z" />
    <glyph glyph-name="uni0312" unicode="&#x312;" horiz-adv-x="0" 
d="M-248 2007q-40 0 -45 -37l-49 -350q-3 -20 7.5 -31.5t31.5 -11.5h201q19 0 30 11t13 30l16 348q3 41 -39 41h-166z" />
    <glyph glyph-name="uni0326" unicode="&#x326;" horiz-adv-x="0" 
d="M-141 -553q40 0 45 37l49 350q3 20 -7.5 31.5t-31.5 11.5h-201q-19 0 -30 -11t-13 -30l-16 -348q-3 -41 39 -41h166z" />
    <glyph glyph-name="uni0327" unicode="&#x327;" horiz-adv-x="0" 
d="M-170 -94q51 -13 90 -52.5t39 -105.5q0 -208 -418 -192q-43 3 -43 43v129q0 41 45 41q150 -6 150 30q0 24 -70 37q-39 6 -39 43v121h246v-94z" />
    <glyph glyph-name="uni0328" unicode="&#x328;" horiz-adv-x="0" 
d="M-242 -438q-90 0 -147 47t-57 139q0 114 131 252h254q-93 -104 -93 -174q-3 -53 45 -53t48 -37v-105q0 -36 -27 -45q-71 -24 -154 -24z" />
    <glyph glyph-name="uni0394" unicode="&#x394;" horiz-adv-x="1351" 
d="M1333 57q9 -27 -3 -42t-40 -15h-297h-696h-236q-28 0 -40 15t-3 42l435 1334q12 43 59 43h328q47 0 59 -43zM449 307h454l-227 768z" />
    <glyph glyph-name="uni03A9" unicode="&#x3a9;" horiz-adv-x="1572" 
d="M1532 758q0 -129 -51 -242.5t-142 -200.5h113q51 0 51 -51v-213q0 -51 -51 -51h-467q-51 0 -51 51v221q0 43 39 60q106 48 168.5 149.5t62.5 235.5q0 189 -120 307.5t-298 118.5t-297.5 -118.5t-119.5 -307.5q0 -134 62.5 -235.5t168.5 -149.5q39 -17 39 -60v-221
q0 -51 -51 -51h-467q-51 0 -51 51v213q0 51 51 51h112q-92 86 -142 199.5t-50 243.5q0 197 100 359t270.5 253.5t374.5 91.5q152 0 290 -54t238 -147t159 -224.5t59 -278.5z" />
    <glyph glyph-name="pi" unicode="&#x3c0;" horiz-adv-x="1310" 
d="M1219 1024q51 0 51 -51v-185q0 -51 -51 -51h-109v-686q0 -51 -51 -51h-205q-51 0 -51 51v686h-287v-686q0 -51 -51 -51h-205q-51 0 -51 51v686h-117q-51 0 -51 51v185q0 51 51 51h424h594h109z" />
    <glyph glyph-name="uni0401" unicode="&#x401;" horiz-adv-x="1044" 
d="M272 1546q-41 0 -41 41v185q0 40 41 40h185q41 0 41 -40v-185q0 -41 -41 -41h-185zM641 1546q-41 0 -41 41v185q0 40 41 40h184q41 0 41 -40v-185q0 -41 -41 -41h-184zM932 315q51 0 51 -51v-213q0 -51 -51 -51h-707h-51q-51 0 -51 51v1331q0 52 51 52h277h471
q51 0 51 -52v-213q0 -51 -51 -51h-471v-239h419q52 0 52 -52v-204q0 -52 -52 -52h-419v-256h481z" />
    <glyph glyph-name="uni0402" unicode="&#x402;" horiz-adv-x="1361" 
d="M905 930q179 0 282 -104t103 -300v-108q0 -227 -101.5 -334t-318.5 -107q-24 0 -37.5 14.5t-13.5 39.5v202q0 45 58 54q48 7 67 38t19 93v71q0 146 -140 146q-73 0 -147 -30v-554q0 -51 -51 -51h-226q-51 0 -51 51v1067h-276q-52 0 -52 51v213q0 52 52 52h604h338
q51 0 51 -52v-213q0 -51 -51 -51h-338v-224q118 36 229 36z" />
    <glyph glyph-name="uni0403" unicode="&#x403;" horiz-adv-x="962" 
d="M430 1554q-30 0 -40 17t5 45l109 190q20 35 61 35h246q32 0 41.5 -19t-10.5 -44l-162 -195q-23 -29 -64 -29h-186zM891 1434q51 0 51 -52v-213q0 -51 -51 -51h-440v-1067q0 -51 -52 -51h-225q-51 0 -51 51v1331q0 52 51 52h277h440z" />
    <glyph glyph-name="uni0404" unicode="&#x404;" horiz-adv-x="1529" 
d="M1442 532q27 0 40 -14.5t7 -40.5q-56 -225 -247 -365.5t-445 -140.5q-159 0 -296.5 57.5t-234 157t-151 237t-54.5 294.5q0 209 93 379t262 268t381 98q253 0 444 -140t248 -366q6 -26 -7 -40.5t-40 -14.5h-240q-41 0 -59 43q-37 92 -130 145.5t-216 53.5
q-147 0 -248 -72.5t-139 -200.5h536q51 0 51 -51v-205q0 -51 -51 -51h-536q38 -128 139 -200t248 -72q124 0 217.5 53t130.5 145q15 43 57 43h240z" />
    <glyph glyph-name="uni0405" unicode="&#x405;" horiz-adv-x="1116" 
d="M571 -29q-103 0 -192.5 25.5t-162 75.5t-118.5 133.5t-55 191.5q-1 26 12.5 40t38.5 14h225q45 0 54 -50q24 -110 198 -110q93 0 135 30.5t42 79.5q0 24 -13 45.5t-30 36t-51.5 31t-60.5 26t-73 25.5q-169 58 -243 101q-192 110 -213 311q-3 26 -3 55q0 104 40 187.5
t107.5 135.5t152.5 79.5t178 27.5t175.5 -25.5t151 -75.5t113 -133.5t53.5 -191.5q3 -53 -51 -53h-225q-45 0 -54 49q-23 111 -163 111q-73 0 -111.5 -32t-38.5 -79q0 -59 50 -96t153 -74q13 -5 40 -14q41 -14 62 -21.5t60.5 -22.5t62 -27t57 -30.5t55.5 -37t47 -43
t41.5 -52t30 -60t21 -71.5t6.5 -82q0 -139 -70 -238t-182 -145.5t-252 -46.5z" />
    <glyph glyph-name="uni0406" unicode="&#x406;" horiz-adv-x="573" 
d="M123 1382q0 52 51 52h225q52 0 52 -52v-1331q0 -51 -52 -51h-225q-51 0 -51 51v1331z" />
    <glyph glyph-name="uni0407" unicode="&#x407;" horiz-adv-x="573" 
d="M10 1546q-41 0 -41 41v185q0 40 41 40h185q41 0 41 -40v-185q0 -41 -41 -41h-185zM379 1546q-41 0 -41 41v185q0 40 41 40h184q41 0 41 -40v-185q0 -41 -41 -41h-184zM123 1382q0 52 51 52h225q52 0 52 -52v-1331q0 -51 -52 -51h-225q-51 0 -51 51v1331z" />
    <glyph glyph-name="uni0408" unicode="&#x408;" horiz-adv-x="1105" 
d="M512 -29q-94 0 -176 26t-150 78t-111.5 140t-51.5 203q-3 53 49 53h227q44 0 53 -51q9 -68 48 -98.5t112 -30.5q164 0 164 139v952q0 52 51 52h225q52 0 52 -52v-952q0 -114 -41 -204t-110.5 -144.5t-156 -82.5t-184.5 -28z" />
    <glyph glyph-name="uni0409" unicode="&#x409;" horiz-adv-x="1863" 
d="M1321 922q141 0 255 -58t180.5 -164t66.5 -239t-66.5 -239t-180.5 -164t-255 -58h-399h-52q-51 0 -51 51v1067h-233v-536q0 -139 -30 -246t-79 -171.5t-118 -105t-139 -54.5t-150 -11q-50 0 -50 51v205q0 49 54 49q92 0 138 60.5t46 209.5v813q0 52 51 52h787
q51 0 51 -52v-460h174zM1321 307q78 0 126 39.5t48 114.5t-48 114t-126 39h-174v-307h174z" />
    <glyph glyph-name="uni040A" unicode="&#x40a;" horiz-adv-x="1863" 
d="M1321 922q141 0 255 -58t180.5 -164t66.5 -239t-66.5 -239t-180.5 -164t-255 -58h-399h-52q-51 0 -51 51v563h-368v-563q0 -51 -52 -51h-225q-51 0 -51 51v1331q0 52 51 52h225q52 0 52 -52v-460h368v460q0 52 51 52h226q51 0 51 -52v-460h174zM1321 307q78 0 126 39.5
t48 114.5t-48 114t-126 39h-174v-307h174z" />
    <glyph glyph-name="uni040B" unicode="&#x40b;" horiz-adv-x="1372" 
d="M905 930q179 0 282 -104t103 -300v-475q0 -51 -51 -51h-225q-51 0 -51 51v438q0 146 -140 146q-73 0 -147 -30v-554q0 -51 -51 -51h-226q-51 0 -51 51v1067h-276q-52 0 -52 51v213q0 52 52 52h604h338q51 0 51 -52v-213q0 -51 -51 -51h-338v-224q118 36 229 36z" />
    <glyph glyph-name="uni040C" unicode="&#x40c;" horiz-adv-x="1282" 
d="M532 1554q-29 0 -39 17t5 45l108 190q20 35 62 35h245q32 0 41.5 -19t-10.5 -44l-162 -195q-23 -29 -63 -29h-187zM1239 61q17 -26 7.5 -43.5t-40.5 -17.5h-258q-41 0 -61 33l-436 630v-612q0 -51 -52 -51h-225q-51 0 -51 51v1331q0 52 51 52h225q52 0 52 -52v-572
l415 591q23 33 62 33h258q31 0 41 -18t-8 -44l-441 -636z" />
    <glyph glyph-name="uni040E" unicode="&#x40e;" horiz-adv-x="1249" 
d="M350 1552q-51 0 -51 52v163q0 52 51 52h512q51 0 51 -52v-163q0 -52 -51 -52h-512zM1165 1434q28 0 38.5 -16t0.5 -44l-389 -952q-172 -419 -551 -422q-24 -1 -37.5 12.5t-13.5 38.5v205q0 49 53 49q156 4 234 143l-430 926q-12 28 -2.5 44t38.5 16h220q42 0 59 -39
l263 -589l237 589q14 39 59 39h221z" />
    <glyph glyph-name="uni040F" unicode="&#x40f;" horiz-adv-x="1310" 
d="M1137 1434q51 0 51 -52v-1331q0 -51 -51 -51h-277h-41v-244q0 -51 -51 -51h-225q-51 0 -51 51v244h-267h-51q-51 0 -51 51v1331q0 52 51 52h225q52 0 52 -52v-1067h409v1067q0 52 51 52h226z" />
    <glyph glyph-name="uni0410" unicode="&#x410;" horiz-adv-x="1351" 
d="M1333 57q9 -27 -3 -42t-40 -15h-252q-46 0 -57 43l-54 182h-502l-54 -182q-11 -43 -58 -43h-252q-28 0 -40 15t-3 42l435 1334q12 43 59 43h328q47 0 59 -43zM515 532h321l-160 543z" />
    <glyph glyph-name="uni0411" unicode="&#x411;" horiz-adv-x="1198" 
d="M676 901q220 0 355.5 -123.5t135.5 -326.5t-135.5 -327t-355.5 -124h-451h-51q-51 0 -51 51v1331q0 52 51 52h277h542q51 0 51 -52v-213q0 -51 -51 -51h-542v-217h225zM676 307q73 0 118.5 35t45.5 109t-45.5 108.5t-118.5 34.5h-225v-287h225z" />
    <glyph glyph-name="uni0412" unicode="&#x412;" horiz-adv-x="1402" 
d="M1115 859q110 -61 173.5 -168t63.5 -240q0 -194 -129 -322.5t-324 -128.5h-694h-31q-51 0 -51 51v1331q0 52 51 52h277h276q189 0 314.5 -113.5t125.5 -286.5q0 -93 -52 -175zM727 1126h-276v-204h348q41 38 41 92q0 51 -31 81.5t-82 30.5zM858 307q85 0 125.5 45
t40.5 119t-40.5 119t-123.5 45h-409v-328h407z" />
    <glyph glyph-name="uni0413" unicode="&#x413;" horiz-adv-x="962" 
d="M891 1434q51 0 51 -52v-213q0 -51 -51 -51h-440v-1067q0 -51 -52 -51h-225q-51 0 -51 51v1331q0 52 51 52h277h440z" />
    <glyph glyph-name="uni0414" unicode="&#x414;" horiz-adv-x="1413" 
d="M1311 307q51 0 51 -51v-256v-244q0 -51 -51 -51h-226q-51 0 -51 51v244h-676v-244q0 -51 -51 -51h-225q-51 0 -51 51v318v182q0 51 51 51h89q118 159 118 484v591q0 52 51 52h817q51 0 51 -52v-1075h103zM519 307h362v819h-265v-340q0 -309 -97 -479z" />
    <glyph glyph-name="uni0415" unicode="&#x415;" horiz-adv-x="1044" 
d="M932 315q51 0 51 -51v-213q0 -51 -51 -51h-707h-51q-51 0 -51 51v1331q0 52 51 52h277h471q51 0 51 -52v-213q0 -51 -51 -51h-471v-239h419q52 0 52 -52v-204q0 -52 -52 -52h-419v-256h481z" />
    <glyph glyph-name="uni0416" unicode="&#x416;" horiz-adv-x="1888" 
d="M1829 61q17 -26 6.5 -43.5t-41.5 -17.5h-248q-40 0 -61 35l-377 600v-584q0 -51 -51 -51h-226q-51 0 -51 51v584l-377 -600q-21 -35 -61 -35h-248q-31 0 -41.5 17.5t6.5 43.5l424 667l-403 644q-17 28 -6.5 45t41.5 17h247q41 0 62 -35l356 -597v580q0 52 51 52h226
q51 0 51 -52v-580l356 597q21 35 62 35h248q31 0 41 -17t-7 -45l-403 -644z" />
    <glyph glyph-name="uni0417" unicode="&#x417;" horiz-adv-x="1126" 
d="M916 838q92 -64 141 -162t49 -221q0 -218 -148.5 -351t-394.5 -133q-228 0 -374.5 125.5t-165.5 325.5q-3 53 51 53h225q43 0 55 -47q13 -66 66.5 -107.5t142.5 -41.5q106 0 160.5 48t54.5 128t-54.5 128t-160.5 48h-61q-51 0 -51 51v205q0 51 51 51h61q18 0 52 -2
q32 17 46.5 46.5t14.5 59.5q0 52 -34 82.5t-99 30.5q-98 0 -125 -68q-10 -24 -22 -34.5t-34 -10.5h-227q-25 0 -38.5 14t-12.5 40q19 166 144.5 266t314.5 100q203 0 332 -112.5t129 -286.5q0 -126 -88 -225z" />
    <glyph glyph-name="uni0418" unicode="&#x418;" horiz-adv-x="1331" 
d="M881 51v748l-490 -766q-20 -33 -63 -33h-154q-51 0 -51 51v1331q0 52 51 52h225q52 0 52 -52v-747l489 766q20 33 64 33h153q51 0 51 -52v-1331q0 -51 -51 -51h-225q-51 0 -51 51z" />
    <glyph glyph-name="uni0419" unicode="&#x419;" horiz-adv-x="1331" 
d="M430 1554q-51 0 -51 52v163q0 52 51 52h512q51 0 51 -52v-163q0 -52 -51 -52h-512zM881 51v748l-490 -766q-20 -33 -63 -33h-154q-51 0 -51 51v1331q0 52 51 52h225q52 0 52 -52v-747l489 766q20 33 64 33h153q51 0 51 -52v-1331q0 -51 -51 -51h-225q-51 0 -51 51z" />
    <glyph glyph-name="uni041A" unicode="&#x41a;" horiz-adv-x="1282" 
d="M1239 61q17 -26 7.5 -43.5t-40.5 -17.5h-258q-41 0 -61 33l-436 630v-612q0 -51 -52 -51h-225q-51 0 -51 51v1331q0 52 51 52h225q52 0 52 -52v-572l415 591q23 33 62 33h258q31 0 41 -18t-8 -44l-441 -636z" />
    <glyph glyph-name="uni041B" unicode="&#x41b;" horiz-adv-x="1310" 
d="M70 -6q-50 0 -50 51v205q0 49 54 49q92 0 138 60.5t46 209.5v813q0 52 51 52h828q51 0 51 -52v-1331q0 -51 -51 -51h-226q-51 0 -51 51v1067h-274v-536q0 -139 -30 -246t-79 -171.5t-118 -105t-139 -54.5t-150 -11z" />
    <glyph glyph-name="uni041C" unicode="&#x41c;" horiz-adv-x="1679" 
d="M1505 1434q51 0 51 -52v-1331q0 -51 -51 -51h-225q-51 0 -51 51v828l-260 -617q-14 -39 -60 -39h-139q-45 0 -59 39l-260 617v-828q0 -51 -52 -51h-225q-51 0 -51 51v1331q0 52 51 52h225h50q45 0 59 -39l332 -789l331 789q14 39 60 39h166h108z" />
    <glyph glyph-name="uni041D" unicode="&#x41d;" horiz-adv-x="1310" 
d="M1137 1434q51 0 51 -52v-1331q0 -51 -51 -51h-226q-51 0 -51 51v529h-409v-529q0 -51 -52 -51h-225q-51 0 -51 51v1331q0 52 51 52h225q52 0 52 -52v-487h409v487q0 52 51 52h226z" />
    <glyph glyph-name="uni041E" unicode="&#x41e;" horiz-adv-x="1613" 
d="M807 -29q-152 0 -290 57.5t-238 156.5t-159 238t-59 294q0 207 100 378.5t271 269t375 97.5q203 0 374 -97.5t271 -269t100 -378.5t-100 -379t-271 -269.5t-374 -97.5zM807 291q178 0 298 118.5t120 307.5t-120 307.5t-298 118.5t-298 -118.5t-120 -307.5t120 -307.5
t298 -118.5z" />
    <glyph glyph-name="uni041F" unicode="&#x41f;" horiz-adv-x="1310" 
d="M1137 1434q51 0 51 -52v-1331q0 -51 -51 -51h-226q-51 0 -51 51v1067h-409v-1067q0 -51 -52 -51h-225q-51 0 -51 51v1331q0 52 51 52h277h634h52z" />
    <glyph glyph-name="uni0420" unicode="&#x420;" horiz-adv-x="1208" 
d="M666 1434q211 0 356 -143.5t145 -348.5t-145 -348t-356 -143h-215v-400q0 -51 -52 -51h-225q-51 0 -51 51v1331q0 52 51 52h277h215zM666 758q75 0 124.5 53t49.5 131t-49.5 131t-124.5 53h-215v-368h215z" />
    <glyph glyph-name="uni0421" unicode="&#x421;" horiz-adv-x="1529" 
d="M807 -29q-159 0 -298 57.5t-237 157t-154.5 237.5t-56.5 294q0 209 95.5 379t267 268t383.5 98q246 0 436.5 -139.5t253.5 -364.5q6 -26 -6.5 -41.5t-38.5 -15.5h-242q-39 0 -57 41q-43 93 -136 147t-210 54q-190 0 -304 -116.5t-114 -309.5t114 -309.5t304 -116.5
q117 0 210 54t136 147q18 40 57 40h242q26 0 38.5 -14t6.5 -39q-60 -225 -251.5 -366.5t-438.5 -141.5z" />
    <glyph glyph-name="uni0422" unicode="&#x422;" horiz-adv-x="1024" 
d="M952 1434q52 0 52 -52v-213q0 -51 -52 -51h-276v-1067q0 -51 -51 -51h-226q-51 0 -51 51v1067h-276q-52 0 -52 51v213q0 52 52 52h604h276z" />
    <glyph glyph-name="uni0423" unicode="&#x423;" horiz-adv-x="1249" 
d="M1165 1434q28 0 38.5 -16t0.5 -44l-389 -952q-172 -419 -551 -422q-24 -1 -37.5 12.5t-13.5 38.5v205q0 49 53 49q156 4 234 143l-430 926q-12 28 -2.5 44t38.5 16h220q42 0 59 -39l263 -589l237 589q14 39 59 39h221z" />
    <glyph glyph-name="uni0424" unicode="&#x424;" horiz-adv-x="1687" 
d="M1647 717q0 -242 -173.5 -398t-469.5 -191v-118q0 -51 -52 -51h-217q-51 0 -51 51v118q-296 35 -469.5 191t-173.5 398t173.5 398t469.5 191v117q0 52 51 52h217q52 0 52 -52v-117q296 -35 469.5 -191t173.5 -398zM369 717q0 -246 315 -289v578q-315 -43 -315 -289z
M1004 428q315 43 315 289t-315 289v-578z" />
    <glyph glyph-name="uni0425" unicode="&#x425;" horiz-adv-x="1249" 
d="M1194 61q15 -28 5 -44.5t-40 -16.5h-262q-41 0 -61 35l-211 371l-211 -371q-20 -35 -62 -35h-262q-30 0 -40 16.5t5 44.5l383 674l-362 637q-15 28 -5 45t40 17h262q41 0 61 -35l191 -335l190 335q20 35 62 35h262q30 0 40 -17t-5 -45l-363 -637z" />
    <glyph glyph-name="uni0426" unicode="&#x426;" horiz-adv-x="1392" 
d="M1188 315h102q51 0 51 -51v-508q0 -51 -51 -51h-225q-51 0 -51 51v244h-840q-51 0 -51 51v1331q0 52 51 52h225q52 0 52 -52v-1067h409v1067q0 52 51 52h226q51 0 51 -52v-1067z" />
    <glyph glyph-name="uni0427" unicode="&#x427;" horiz-adv-x="1269" 
d="M1096 1434q51 0 51 -52v-1331q0 -51 -51 -51h-226q-51 0 -51 51v437q-99 -33 -213 -33q-222 0 -368 124.5t-146 342.5v460q0 52 51 52h226q51 0 51 -52v-411q0 -97 53 -149t141 -52q113 0 205 35v577q0 52 51 52h226z" />
    <glyph glyph-name="uni0428" unicode="&#x428;" horiz-adv-x="1843" 
d="M1393 1382q0 52 51 52h225q51 0 51 -52v-1331q0 -51 -51 -51h-1495q-51 0 -51 51v1331q0 52 51 52h225q52 0 52 -52v-1067h307v1067q0 52 51 52h225q51 0 51 -52v-1067h308v1067z" />
    <glyph glyph-name="uni0429" unicode="&#x429;" horiz-adv-x="1925" 
d="M1720 315h103q51 0 51 -51v-508q0 -51 -51 -51h-226q-51 0 -51 51v244h-1372q-51 0 -51 51v1331q0 52 51 52h225q52 0 52 -52v-1067h307v1067q0 52 51 52h225q51 0 51 -52v-1067h308v1067q0 52 51 52h225q51 0 51 -52v-1067z" />
    <glyph glyph-name="uni042A" unicode="&#x42a;" horiz-adv-x="1413" 
d="M379 0q-51 0 -51 51v1067h-277q-51 0 -51 51v213q0 52 51 52h553q51 0 51 -52v-399h215q211 0 356.5 -143t145.5 -348t-145.5 -348.5t-356.5 -143.5h-491zM655 307h215q75 0 124.5 53.5t49.5 131.5t-49.5 131t-124.5 53h-215v-369z" />
    <glyph glyph-name="uni042B" unicode="&#x42b;" horiz-adv-x="1740" 
d="M174 0q-51 0 -51 51v1331q0 52 51 52h225q52 0 52 -52v-399h215q211 0 356 -143t145 -348t-145 -348.5t-356 -143.5h-492zM1341 0q-51 0 -51 51v1331q0 52 51 52h226q51 0 51 -52v-1331q0 -51 -51 -51h-226zM451 307h215q75 0 124.5 53.5t49.5 131.5t-49.5 131t-124.5 53
h-215v-369z" />
    <glyph glyph-name="uni042C" unicode="&#x42c;" horiz-adv-x="1208" 
d="M666 983q211 0 356 -143t145 -348t-145 -348.5t-356 -143.5h-441h-51q-51 0 -51 51v1331q0 52 51 52h225q52 0 52 -52v-399h215zM666 307q75 0 124.5 53.5t49.5 131.5t-49.5 131t-124.5 53h-215v-369h215z" />
    <glyph glyph-name="uni042D" unicode="&#x42d;" horiz-adv-x="1529" 
d="M733 1462q212 0 380.5 -98t261.5 -268t93 -379t-93 -379.5t-261.5 -268.5t-380.5 -98q-254 0 -445 140.5t-247 365.5q-6 26 7 40.5t40 14.5h240q42 0 57 -43q37 -92 130.5 -145t217.5 -53q147 0 248 72t139 200h-536q-52 0 -52 51v205q0 51 52 51h536q-38 128 -139 200.5
t-248 72.5q-123 0 -216 -53.5t-130 -145.5q-18 -43 -59 -43h-240q-27 0 -40 14.5t-7 40.5q57 226 248 366t444 140z" />
    <glyph glyph-name="uni042E" unicode="&#x42e;" horiz-adv-x="2170" 
d="M1364 1462q203 0 374 -97.5t271 -269t100 -378.5q0 -154 -59 -292.5t-158.5 -237.5t-237.5 -157.5t-290 -58.5q-273 0 -475.5 171.5t-249.5 437.5h-188v-529q0 -51 -52 -51h-225q-51 0 -51 51v1331q0 52 51 52h225q52 0 52 -52v-487h196q58 250 256.5 408.5t460.5 158.5z
M1364 291q178 0 298 118.5t120 307.5t-120 307.5t-298 118.5q-179 0 -298.5 -116.5t-119.5 -309.5q0 -189 120 -307.5t298 -118.5z" />
    <glyph glyph-name="uni042F" unicode="&#x42f;" horiz-adv-x="1310" 
d="M1137 1434q51 0 51 -52v-1331q0 -51 -51 -51h-226q-51 0 -51 51v420h-95l-349 -440q-22 -31 -64 -31h-270q-32 0 -41.5 19.5t10.5 44.5l375 455q-128 59 -205.5 173.5t-77.5 249.5q0 205 145.5 348.5t356.5 143.5h440h52zM655 758h205v368h-205q-76 0 -130 -53.5
t-54 -130.5t54 -130.5t130 -53.5z" />
    <glyph glyph-name="uni0430" unicode="&#x430;" horiz-adv-x="1048" 
d="M537 1053q86 0 161.5 -25.5t135.5 -74.5t94.5 -128.5t34.5 -179.5v-594q0 -51 -52 -51h-196q-51 0 -51 51v29q-94 -109 -265 -109q-143 0 -240.5 84t-97.5 236t97 235.5t241 83.5q163 0 265 -78v93q0 75 -31 110t-96 35q-92 0 -119 -59q-10 -24 -20.5 -34.5t-32.5 -10.5
h-201q-54 0 -51 53q13 107 75.5 184t152 113.5t196.5 36.5zM508 188q73 0 114.5 28.5t41.5 74.5q0 48 -41 75t-115 27q-68 0 -103.5 -28t-35.5 -74t35.5 -74.5t103.5 -28.5z" />
    <glyph glyph-name="uni0431" unicode="&#x431;" horiz-adv-x="1150" 
d="M598 -29q-237 0 -387 146.5t-150 369.5q0 108 30 202.5t79 164t109 130t122.5 110.5t116 95.5t94 96t52.5 100.5q12 48 55 48h225q25 0 38.5 -14t12.5 -40q-7 -71 -33 -130t-65 -100.5t-84.5 -76t-96 -63t-95.5 -53t-87 -54.5t-67 -61q99 55 229 55q72 0 146 -31
t136.5 -86.5t102 -142t39.5 -186.5q0 -208 -146 -344t-376 -136zM596 248q95 0 156 57.5t61 145.5q0 89 -63 147.5t-160 58.5q-86 0 -151.5 -54t-65.5 -144q0 -93 64 -152t159 -59z" />
    <glyph glyph-name="uni0432" unicode="&#x432;" horiz-adv-x="1075" 
d="M876 603q87 -39 133 -112t46 -167q0 -142 -95 -233t-274 -91h-471h-51q-51 0 -51 51v922q0 51 51 51h235h205q148 0 238 -79t90 -195q0 -80 -56 -147zM553 782h-154v-143h232q14 28 14 55q0 38 -23.5 63t-68.5 25zM655 250q101 0 101 84q0 80 -101 80h-256v-164h256z" />
    <glyph glyph-name="uni0433" unicode="&#x433;" horiz-adv-x="788" 
d="M737 1024q51 0 51 -51v-193q0 -51 -51 -51h-317v-678q0 -51 -51 -51h-205q-51 0 -51 51v922q0 51 51 51h256h317z" />
    <glyph glyph-name="uni0434" unicode="&#x434;" horiz-adv-x="1187" 
d="M1096 274q51 0 51 -51v-223v-244q0 -51 -51 -51h-197q-51 0 -51 51v244h-529v-244q0 -51 -51 -51h-196q-52 0 -52 51v318v149q0 51 52 51h67q45 65 67.5 150t22.5 217v332q0 51 52 51h247h390h45q51 0 51 -51v-699h82zM463 274h252v476h-187v-109q0 -220 -65 -367z" />
    <glyph glyph-name="uni0435" unicode="&#x435;" horiz-adv-x="1183" 
d="M610 1053q147 0 265.5 -70.5t184.5 -194t66 -276.5q0 -26 -4 -76q-6 -47 -55 -47h-250h-434q26 -87 90 -128.5t150 -41.5q90 0 151 51q34 27 64 27l196 2q28 0 40.5 -16.5t0.5 -40.5q-59 -132 -178.5 -201.5t-278.5 -69.5q-250 0 -403.5 154t-153.5 387q0 231 154.5 386
t394.5 155zM382 623h439q-22 82 -80 119.5t-133 37.5q-86 0 -144 -40t-82 -117z" />
    <glyph glyph-name="uni0436" unicode="&#x436;" horiz-adv-x="1576" 
d="M1516 61q17 -26 7.5 -43.5t-40.5 -17.5h-226q-40 0 -61 35l-258 409v-393q0 -51 -51 -51h-197q-51 0 -51 51v393l-258 -409q-21 -35 -62 -35h-225q-31 0 -40.5 17.5t7.5 43.5l299 451l-280 451q-17 28 -6.5 44.5t41.5 16.5h225q41 0 61 -35l238 -404v388q0 51 51 51h197
q51 0 51 -51v-388l238 404q20 35 61 35h225q31 0 41.5 -16.5t-6.5 -44.5l-280 -451z" />
    <glyph glyph-name="uni0437" unicode="&#x437;" horiz-adv-x="901" 
d="M738 587q132 -87 132 -263q0 -151 -109.5 -252t-309.5 -101q-185 0 -292.5 85t-125.5 227q-3 53 51 53h203q22 0 33.5 -10.5t21.5 -34.5q22 -49 109 -49q116 0 116 98q0 40 -30 65t-86 25h-52q-51 0 -51 51v123q0 51 51 51h58q47 26 47 74q0 62 -74 62q-43 0 -63 -27
q-14 -24 -25 -33.5t-31 -9.5h-196q-26 0 -39.5 14t-9.5 39q15 133 112 206t262 73q167 0 263 -83t96 -210q0 -102 -61 -173z" />
    <glyph glyph-name="uni0438" unicode="&#x438;" horiz-adv-x="1126" 
d="M766 991q23 33 61 33h136q51 0 51 -51v-922q0 -51 -51 -51h-197q-51 0 -51 51v481l-355 -499q-23 -33 -61 -33h-135q-51 0 -51 51v922q0 51 51 51h196q52 0 52 -51v-481z" />
    <glyph glyph-name="uni0439" unicode="&#x439;" horiz-adv-x="1126" 
d="M307 1145q-51 0 -51 51v164q0 51 51 51h512q51 0 51 -51v-164q0 -51 -51 -51h-512zM766 991q23 33 61 33h136q51 0 51 -51v-922q0 -51 -51 -51h-197q-51 0 -51 51v481l-355 -499q-23 -33 -61 -33h-135q-51 0 -51 51v922q0 51 51 51h196q52 0 52 -51v-481z" />
    <glyph glyph-name="uni043A" unicode="&#x43a;" horiz-adv-x="1075" 
d="M1030 61q18 -26 9 -43.5t-40 -17.5h-233q-41 0 -61 33l-285 416v-398q0 -51 -51 -51h-205q-51 0 -51 51v922q0 51 51 51h205q51 0 51 -51v-394l264 412q20 33 61 33h236q31 0 40.5 -17.5t-7.5 -43.5l-301 -451z" />
    <glyph glyph-name="uni043B" unicode="&#x43b;" horiz-adv-x="1054" 
d="M891 1024q51 0 51 -51v-922q0 -51 -51 -51h-205q-51 0 -51 51v678h-160v-305q0 -218 -101.5 -329t-301.5 -113q-25 0 -38.5 14t-13.5 39v186q0 23 12 33.5t38 15.5q98 18 98 174v529q0 51 51 51h256h371h45z" />
    <glyph glyph-name="uni043C" unicode="&#x43c;" horiz-adv-x="1351" 
d="M1188 1024q51 0 51 -51v-922q0 -51 -51 -51h-193q-51 0 -51 51v524l-172 -352q-18 -37 -59 -37h-76q-39 0 -57 37l-172 352v-524q0 -51 -52 -51h-192q-51 0 -51 51v922q0 51 51 51h192h35q42 0 60 -37l225 -457l225 457q18 37 60 37h43h184z" />
    <glyph glyph-name="uni043D" unicode="&#x43d;" horiz-adv-x="1126" 
d="M963 1024q51 0 51 -51v-922q0 -51 -51 -51h-205q-51 0 -51 51v318h-287v-318q0 -51 -51 -51h-205q-51 0 -51 51v922q0 51 51 51h205q51 0 51 -51v-318h287v318q0 51 51 51h205z" />
    <glyph glyph-name="uni043E" unicode="&#x43e;" horiz-adv-x="1208" 
d="M604 -29q-149 0 -273.5 71t-197 195.5t-72.5 274.5t72.5 274.5t197 195.5t273.5 71t273.5 -71t197 -195.5t72.5 -274.5t-72.5 -274.5t-197 -195.5t-273.5 -71zM604 270q101 0 168.5 67.5t67.5 174.5t-67.5 174.5t-168.5 67.5t-168 -67.5t-67 -174.5t67 -174.5t168 -67.5z
" />
    <glyph glyph-name="uni043F" unicode="&#x43f;" horiz-adv-x="1126" 
d="M963 1024q51 0 51 -51v-922q0 -51 -51 -51h-205q-51 0 -51 51v686h-287v-686q0 -51 -51 -51h-205q-51 0 -51 51v922q0 51 51 51h256h498h45z" />
    <glyph glyph-name="uni0440" unicode="&#x440;" horiz-adv-x="1275" 
d="M725 1053q202 0 345.5 -157t143.5 -384t-143.5 -384t-345.5 -157q-196 0 -305 125v-454q0 -52 -51 -52h-205q-51 0 -51 52v1331q0 51 51 51h205q51 0 51 -51v-45q109 125 305 125zM664 262q107 0 175 68t68 182t-68 182t-175 68t-175.5 -68t-68.5 -182t68.5 -182
t175.5 -68z" />
    <glyph glyph-name="uni0441" unicode="&#x441;" horiz-adv-x="1153" 
d="M1065 389q27 0 39.5 -15.5t3.5 -41.5q-48 -161 -186.5 -261t-317.5 -100q-232 0 -387.5 155.5t-155.5 385.5t155.5 385.5t387.5 155.5q179 0 317.5 -100t186.5 -261q9 -26 -3.5 -41.5t-39.5 -15.5h-225q-38 0 -62 35q-58 80 -174 80q-101 0 -168 -66.5t-67 -171.5
t67 -171.5t168 -66.5q115 0 174 78q24 37 62 37h225z" />
    <glyph glyph-name="uni0442" unicode="&#x442;" horiz-adv-x="880" 
d="M809 1024q51 0 51 -51v-185q0 -51 -51 -51h-213v-686q0 -51 -51 -51h-205q-51 0 -51 51v686h-217q-52 0 -52 51v185q0 51 52 51h737z" />
    <glyph glyph-name="uni0443" unicode="&#x443;" horiz-adv-x="1024" 
d="M963 1024q28 0 40 -15t3 -42l-312 -936q-145 -438 -532 -441q-24 -1 -37.5 13t-13.5 39v184q0 50 51 53q78 5 123.5 37t75.5 104l-359 945q-9 26 2 42.5t39 16.5h221q43 0 58 -41l200 -578l162 576q11 43 57 43h222z" />
    <glyph glyph-name="uni0444" unicode="&#x444;" horiz-adv-x="1413" 
d="M1352 512q0 -201 -132 -344.5t-364 -180.5v-345q0 -52 -51 -52h-197q-51 0 -51 52v345q-232 37 -364 180.5t-132 344.5t132 344.5t364 180.5v345q0 52 51 52h197q51 0 51 -52v-345q232 -37 364 -180.5t132 -344.5zM365 512q0 -85 49 -145.5t143 -86.5v464
q-94 -26 -143 -86.5t-49 -145.5zM856 280q94 26 143.5 86.5t49.5 145.5t-49.5 145.5t-143.5 86.5v-464z" />
    <glyph glyph-name="uni0445" unicode="&#x445;" horiz-adv-x="983" 
d="M944 61q17 -26 6.5 -43.5t-41.5 -17.5h-213q-40 0 -61 35l-143 228l-144 -228q-21 -35 -61 -35h-213q-31 0 -41.5 17.5t6.5 43.5l290 461l-278 441q-17 26 -6.5 43.5t41.5 17.5h213q40 0 61 -35l132 -208l131 208q21 35 61 35h213q31 0 41.5 -17.5t-6.5 -43.5l-277 -441z
" />
    <glyph glyph-name="uni0446" unicode="&#x446;" horiz-adv-x="1187" 
d="M973 287h123q51 0 51 -51v-480q0 -51 -51 -51h-197q-51 0 -51 51v244h-684q-51 0 -51 51v922q0 51 51 51h205q51 0 51 -51v-686h246v686q0 51 51 51h205q51 0 51 -51v-686z" />
    <glyph glyph-name="uni0447" unicode="&#x447;" horiz-adv-x="1054" 
d="M891 1024q51 0 51 -51v-922q0 -51 -51 -51h-205q-51 0 -51 51v256q-107 -33 -205 -33q-163 0 -266 91.5t-103 259.5v348q0 51 52 51h204q52 0 52 -51v-307q0 -55 34 -80t89 -25q75 0 143 33v379q0 51 51 51h205z" />
    <glyph glyph-name="uni0448" unicode="&#x448;" horiz-adv-x="1597" 
d="M1434 1024q51 0 51 -51v-922q0 -51 -51 -51h-256h-533h-444h-37q-51 0 -51 51v922q0 51 51 51h205q51 0 51 -51v-686h225v686q0 51 51 51h205q51 0 51 -51v-686h226v686q0 51 51 51h205z" />
    <glyph glyph-name="uni0449" unicode="&#x449;" horiz-adv-x="1617" 
d="M1526 287q51 0 51 -51v-236v-244q0 -51 -51 -51h-197q-51 0 -51 51v244h-1077h-37q-51 0 -51 51v922q0 51 51 51h205q51 0 51 -51v-686h205v686q0 51 51 51h205q51 0 51 -51v-686h205v686q0 51 51 51h205q51 0 51 -51v-686h82z" />
    <glyph glyph-name="uni044A" unicode="&#x44a;" horiz-adv-x="1198" 
d="M756 717q185 0 293 -98t108 -261q0 -162 -108 -260t-293 -98h-418h-10q-52 0 -52 51v686h-225q-51 0 -51 51v185q0 51 51 51h318h163q52 0 52 -51v-256h172zM758 266q45 0 72.5 26t27.5 66t-27.5 66.5t-72.5 26.5h-174v-185h174z" />
    <glyph glyph-name="uni044B" unicode="&#x44b;" horiz-adv-x="1515" 
d="M592 717q185 0 293 -98t108 -261q0 -162 -108 -260t-293 -98h-418h-10q-51 0 -51 51v922q0 51 51 51h205q51 0 51 -51v-256h172zM1352 1024q51 0 51 -51v-922q0 -51 -51 -51h-205q-51 0 -51 51v922q0 51 51 51h205zM594 266q45 0 72.5 26t27.5 66t-27.5 66.5t-72.5 26.5
h-174v-185h174z" />
    <glyph glyph-name="uni044C" unicode="&#x44c;" horiz-adv-x="1034" 
d="M592 717q185 0 293 -98t108 -261q0 -162 -108 -260t-293 -98h-418h-10q-51 0 -51 51v922q0 51 51 51h205q51 0 51 -51v-256h172zM594 266q45 0 72.5 26t27.5 66t-27.5 66.5t-72.5 26.5h-174v-185h174z" />
    <glyph glyph-name="uni044D" unicode="&#x44d;" horiz-adv-x="1142" 
d="M539 1053q232 0 387 -155.5t155 -385.5t-155 -385.5t-387 -155.5q-179 0 -317.5 100t-186.5 261q-9 26 3.5 41.5t39.5 15.5h213q37 0 61 -37q30 -47 82 -73.5t117 -26.5q69 0 122 32.5t83 90.5h-240q-51 0 -51 51v172q0 51 51 51h240q-30 58 -83 90.5t-122 32.5
q-65 0 -117 -26.5t-82 -73.5q-21 -37 -59 -37h-215q-27 0 -39.5 15.5t-3.5 41.5q48 161 186.5 261t317.5 100z" />
    <glyph glyph-name="uni044E" unicode="&#x44e;" horiz-adv-x="1669" 
d="M1065 1053q149 0 273.5 -71t197 -195.5t72.5 -274.5t-72.5 -274.5t-197 -195.5t-273.5 -71q-187 0 -329.5 111t-187.5 287h-128v-318q0 -51 -51 -51h-205q-51 0 -51 51v922q0 51 51 51h205q51 0 51 -51v-318h128q45 176 187.5 287t329.5 111zM1065 270q101 0 168 67.5
t67 174.5t-67 174.5t-168 67.5t-168.5 -67.5t-67.5 -174.5t67.5 -174.5t168.5 -67.5z" />
    <glyph glyph-name="uni044F" unicode="&#x44f;" horiz-adv-x="1075" 
d="M911 1024q52 0 52 -51v-922q0 -51 -52 -51h-196q-51 0 -51 51v244h-80l-211 -264q-25 -31 -64 -31h-229q-32 0 -41.5 18.5t10.5 44.5l222 279q-89 48 -139 134.5t-50 182.5q0 69 25 133.5t71.5 116.5t120.5 83.5t164 31.5h438h10zM489 754q-50 0 -79 -28t-29 -77
q0 -47 29 -73.5t79 -26.5h175v205h-175z" />
    <glyph glyph-name="uni0451" unicode="&#x451;" horiz-adv-x="1183" 
d="M338 1147q-41 0 -41 41v184q0 41 41 41h184q41 0 41 -41v-184q0 -41 -41 -41h-184zM707 1147q-41 0 -41 41v184q0 41 41 41h184q41 0 41 -41v-184q0 -41 -41 -41h-184zM610 1053q147 0 265.5 -70.5t184.5 -194t66 -276.5q0 -26 -4 -76q-6 -47 -55 -47h-250h-434
q26 -87 90 -128.5t150 -41.5q90 0 151 51q34 27 64 27l196 2q28 0 40.5 -16.5t0.5 -40.5q-59 -132 -178.5 -201.5t-278.5 -69.5q-250 0 -403.5 154t-153.5 387q0 231 154.5 386t394.5 155zM382 623h439q-22 82 -80 119.5t-133 37.5q-86 0 -144 -40t-82 -117z" />
    <glyph glyph-name="uni0452" unicode="&#x452;" horiz-adv-x="1095" 
d="M696 1053q146 0 237 -108t91 -296v-649q0 -227 -101.5 -333.5t-318.5 -106.5q-51 0 -51 53v192q0 48 53 54q57 6 84 40t27 101v623q0 73 -37.5 110t-99.5 37q-150 0 -150 -172v-547q0 -51 -51 -51h-205q-51 0 -51 51v1067h-72q-51 0 -51 51v91q0 51 51 51h72v71
q0 52 51 52h205q51 0 51 -52v-71h236q51 0 51 -51v-91q0 -51 -51 -51h-236v-188q83 123 266 123z" />
    <glyph glyph-name="uni0453" unicode="&#x453;" horiz-adv-x="788" 
d="M307 1147q-30 0 -40 16.5t5 44.5l109 191q20 35 61 35h246q32 0 41.5 -19.5t-10.5 -44.5l-162 -194q-23 -29 -63 -29h-187zM737 1024q51 0 51 -51v-193q0 -51 -51 -51h-317v-678q0 -51 -51 -51h-205q-51 0 -51 51v922q0 51 51 51h256h317z" />
    <glyph glyph-name="uni0454" unicode="&#x454;" horiz-adv-x="1142" 
d="M1065 389q27 0 39.5 -15.5t3.5 -41.5q-48 -161 -186.5 -261t-317.5 -100q-232 0 -387.5 155.5t-155.5 385.5t155.5 385.5t387.5 155.5q179 0 317.5 -100t186.5 -261q9 -26 -3.5 -41.5t-39.5 -15.5h-215q-38 0 -59 37q-30 47 -82 73.5t-117 26.5q-69 0 -122 -32.5
t-83 -90.5h240q51 0 51 -51v-172q0 -51 -51 -51h-240q30 -58 83 -90.5t122 -32.5q65 0 117 26.5t82 73.5q24 37 61 37h213z" />
    <glyph glyph-name="uni0455" unicode="&#x455;" horiz-adv-x="995" 
d="M389 717q0 -27 23 -45t60.5 -27t85.5 -19.5t98.5 -20.5t98.5 -33t85.5 -54t60.5 -85t23 -126q0 -86 -34.5 -152t-94.5 -105t-135 -59t-162 -20q-80 0 -151 18.5t-129 55.5t-95.5 98t-46.5 140q-3 26 10.5 39.5t38.5 13.5h201q21 0 32 -9.5t23 -33.5q25 -55 117 -55
q118 0 118 69q0 29 -29.5 47.5t-76.5 29t-104 21t-114 31t-104 52t-76.5 90t-29.5 139.5q0 84 34.5 149.5t93.5 105.5t132 60.5t156 20.5q99 0 183 -31.5t145 -104t73 -176.5q3 -26 -10.5 -39.5t-38.5 -13.5h-201q-21 0 -32 10t-23 35q-22 53 -96 53q-109 0 -109 -69z" />
    <glyph glyph-name="uni0456" unicode="&#x456;" horiz-adv-x="532" 
d="M164 1147q-51 0 -51 51v184q0 52 51 52h205q51 0 51 -52v-184q0 -51 -51 -51h-205zM164 0q-51 0 -51 51v922q0 51 51 51h205q51 0 51 -51v-922q0 -51 -51 -51h-205z" />
    <glyph glyph-name="uni0457" unicode="&#x457;" horiz-adv-x="532" 
d="M-10 1137q-41 0 -41 41v184q0 41 41 41h184q41 0 41 -41v-184q0 -41 -41 -41h-184zM358 1137q-41 0 -41 41v184q0 41 41 41h185q41 0 41 -41v-184q0 -41 -41 -41h-185zM164 0q-51 0 -51 51v922q0 51 51 51h205q51 0 51 -51v-922q0 -51 -51 -51h-205z" />
    <glyph glyph-name="uni0458" unicode="&#x458;" horiz-adv-x="563" 
d="M399 1434q52 0 52 -52v-184q0 -51 -52 -51h-204q-52 0 -52 51v184q0 52 52 52h204zM399 1024q52 0 52 -51v-973q0 -227 -101.5 -333.5t-318.5 -106.5q-51 0 -51 53v192q0 48 53 54q57 6 83.5 40t26.5 101v973q0 51 52 51h204z" />
    <glyph glyph-name="uni0459" unicode="&#x459;" horiz-adv-x="1505" 
d="M1083 696q172 0 276.5 -94t104.5 -254q0 -159 -106.5 -253.5t-274.5 -94.5h-407h-10q-52 0 -52 51v678h-139v-305q0 -218 -101.5 -329t-301.5 -113q-25 0 -38.5 14t-13.5 39v186q0 23 12 33.5t38 15.5q98 18 98 174v529q0 51 51 51h256h350h45q52 0 52 -51v-277h161z
M1085 266q33 0 56.5 22t23.5 60t-23.5 60t-56.5 22h-163v-164h163z" />
    <glyph glyph-name="uni045A" unicode="&#x45a;" horiz-adv-x="1556" 
d="M1135 696q172 0 276.5 -94t104.5 -254q0 -159 -106.5 -253.5t-274.5 -94.5h-408h-10q-51 0 -51 51v359h-267v-359q0 -51 -51 -51h-205q-51 0 -51 51v922q0 51 51 51h205q51 0 51 -51v-277h267v277q0 51 51 51h205q51 0 51 -51v-277h162zM1137 266q33 0 56.5 22t23.5 60
t-23.5 60t-56.5 22h-164v-164h164z" />
    <glyph glyph-name="uni045B" unicode="&#x45b;" horiz-adv-x="1110" 
d="M696 1053q146 0 237 -108t91 -296v-598q0 -51 -51 -51h-205q-51 0 -51 51v572q0 73 -37.5 110t-99.5 37q-150 0 -150 -172v-547q0 -51 -51 -51h-205q-51 0 -51 51v1067h-72q-51 0 -51 51v91q0 51 51 51h72v71q0 52 51 52h205q51 0 51 -52v-71h236q51 0 51 -51v-91
q0 -51 -51 -51h-236v-188q83 123 266 123z" />
    <glyph glyph-name="uni045C" unicode="&#x45c;" horiz-adv-x="1075" 
d="M430 1147q-30 0 -40 16.5t5 44.5l109 191q20 35 61 35h246q32 0 41.5 -19.5t-10.5 -44.5l-162 -194q-23 -29 -64 -29h-186zM1030 61q18 -26 9 -43.5t-40 -17.5h-233q-41 0 -61 33l-285 416v-398q0 -51 -51 -51h-205q-51 0 -51 51v922q0 51 51 51h205q51 0 51 -51v-394
l264 412q20 33 61 33h236q31 0 40.5 -17.5t-7.5 -43.5l-301 -451z" />
    <glyph glyph-name="uni045E" unicode="&#x45e;" horiz-adv-x="1024" 
d="M248 1145q-51 0 -51 51v164q0 51 51 51h512q51 0 51 -51v-164q0 -51 -51 -51h-512zM963 1024q28 0 40 -15t3 -42l-312 -936q-145 -438 -532 -441q-24 -1 -37.5 13t-13.5 39v184q0 50 51 53q78 5 123.5 37t75.5 104l-359 945q-9 26 2 42.5t39 16.5h221q43 0 58 -41
l200 -578l162 576q11 43 57 43h222z" />
    <glyph glyph-name="uni045F" unicode="&#x45f;" horiz-adv-x="1126" 
d="M963 1024q51 0 51 -51v-922q0 -51 -51 -51h-250v-244q0 -51 -51 -51h-197q-51 0 -51 51v244h-250q-51 0 -51 51v922q0 51 51 51h205q51 0 51 -51v-686h287v686q0 51 51 51h205z" />
    <glyph glyph-name="uni0490" unicode="&#x490;" horiz-adv-x="962" 
d="M891 1679q51 0 51 -51v-358v-101q0 -51 -51 -51h-440v-1067q0 -51 -52 -51h-225q-51 0 -51 51v1331q0 52 51 52h277h163v194q0 51 52 51h225z" />
    <glyph glyph-name="uni0491" unicode="&#x491;" horiz-adv-x="788" 
d="M737 1229q51 0 51 -51v-244v-154q0 -51 -51 -51h-317v-678q0 -51 -51 -51h-205q-51 0 -51 51v922q0 51 51 51h256h69v154q0 51 52 51h196z" />
    <glyph glyph-name="Wgrave" unicode="&#x1e80;" horiz-adv-x="1843" 
d="M791 1579l-177 213q-17 22 -9.5 36.5t34.5 14.5h270q35 0 49 -28l119 -209q12 -20 4 -35t-32 -15h-207q-34 0 -51 23zM1784 1434q28 0 39 -15t4 -43l-367 -1333q-11 -43 -57 -43h-262q-47 0 -58 43l-161 588l-162 -588q-11 -43 -58 -43h-262q-46 0 -57 43l-367 1333
q-7 28 4 43t39 15h240q46 0 55 -45l238 -959l190 710l-65 236q-7 28 4 43t39 15h198q47 0 56 -45l237 -959l238 959q9 45 55 45h240z" />
    <glyph glyph-name="wgrave" unicode="&#x1e81;" horiz-adv-x="1515" 
d="M627 1169l-176 213q-17 22 -9.5 37t33.5 15h270q35 0 50 -29l118 -209q12 -20 4 -34.5t-32 -14.5h-207q-34 0 -51 22zM1434 1024q28 0 39.5 -15.5t3.5 -41.5l-295 -924q-12 -43 -60 -43h-172h-24q-48 0 -60 43l-108 341l-109 -341q-12 -43 -59 -43h-129h-68q-47 0 -59 43
l-295 924q-8 26 3.5 41.5t39.5 15.5h221q46 0 57 -43l160 -594l116 377l-65 203q-8 26 3.5 41.5t39.5 15.5h160q45 0 57 -43l174 -559l150 559q11 43 57 43h222z" />
    <glyph glyph-name="Wacute" unicode="&#x1e82;" horiz-adv-x="1843" 
d="M807 1556q-30 0 -40 17t5 45l109 190q20 35 61 35h246q32 0 41.5 -19t-10.5 -44l-162 -195q-23 -29 -64 -29h-186zM1784 1434q28 0 39 -15t4 -43l-367 -1333q-11 -43 -57 -43h-262q-47 0 -58 43l-161 588l-162 -588q-11 -43 -58 -43h-262q-46 0 -57 43l-367 1333
q-7 28 4 43t39 15h240q46 0 55 -45l238 -959l190 710l-65 236q-7 28 4 43t39 15h198q47 0 56 -45l237 -959l238 959q9 45 55 45h240z" />
    <glyph glyph-name="wacute" unicode="&#x1e83;" horiz-adv-x="1515" 
d="M643 1147q-30 0 -40 16.5t5 44.5l109 191q20 35 61 35h246q32 0 41.5 -19.5t-10.5 -44.5l-162 -194q-23 -29 -64 -29h-186zM1434 1024q28 0 39.5 -15.5t3.5 -41.5l-295 -924q-12 -43 -60 -43h-172h-24q-48 0 -60 43l-108 341l-109 -341q-12 -43 -59 -43h-129h-68
q-47 0 -59 43l-295 924q-8 26 3.5 41.5t39.5 15.5h221q46 0 57 -43l160 -594l116 377l-65 203q-8 26 3.5 41.5t39.5 15.5h160q45 0 57 -43l174 -559l150 559q11 43 57 43h222z" />
    <glyph glyph-name="Wdieresis" unicode="&#x1e84;" horiz-adv-x="1843" 
d="M645 1546q-41 0 -41 41v185q0 40 41 40h184q41 0 41 -40v-185q0 -41 -41 -41h-184zM1014 1546q-41 0 -41 41v185q0 40 41 40h184q41 0 41 -40v-185q0 -41 -41 -41h-184zM1784 1434q28 0 39 -15t4 -43l-367 -1333q-11 -43 -57 -43h-262q-47 0 -58 43l-161 588l-162 -588
q-11 -43 -58 -43h-262q-46 0 -57 43l-367 1333q-7 28 4 43t39 15h240q46 0 55 -45l238 -959l190 710l-65 236q-7 28 4 43t39 15h198q47 0 56 -45l237 -959l238 959q9 45 55 45h240z" />
    <glyph glyph-name="wdieresis" unicode="&#x1e85;" horiz-adv-x="1515" 
d="M481 1137q-41 0 -41 41v184q0 41 41 41h185q41 0 41 -41v-184q0 -41 -41 -41h-185zM850 1137q-41 0 -41 41v184q0 41 41 41h184q41 0 41 -41v-184q0 -41 -41 -41h-184zM1434 1024q28 0 39.5 -15.5t3.5 -41.5l-295 -924q-12 -43 -60 -43h-172h-24q-48 0 -60 43l-108 341
l-109 -341q-12 -43 -59 -43h-129h-68q-47 0 -59 43l-295 924q-8 26 3.5 41.5t39.5 15.5h221q46 0 57 -43l160 -594l116 377l-65 203q-8 26 3.5 41.5t39.5 15.5h160q45 0 57 -43l174 -559l150 559q11 43 57 43h222z" />
    <glyph glyph-name="Ygrave" unicode="&#x1ef2;" horiz-adv-x="1249" 
d="M494 1579l-177 213q-17 22 -9.5 36.5t34.5 14.5h270q36 0 50 -28l118 -209q12 -20 4 -35t-32 -15h-207q-34 0 -51 23zM1180 1434q29 0 39 -17t-5 -45l-426 -744v-577q0 -51 -51 -51h-225q-51 0 -51 51v577l-426 744q-15 28 -5 45t40 17h262q41 0 59 -37l234 -447l233 447
q18 37 60 37h262z" />
    <glyph glyph-name="ygrave" unicode="&#x1ef3;" horiz-adv-x="1044" 
d="M649 1147q25 0 33 14.5t-4 34.5l-119 209q-15 29 -49 29h-270q-27 0 -34.5 -15t9.5 -37l176 -213q16 -22 51 -22h207zM705 981q12 43 57 43h221q28 0 40 -15t3 -42l-442 -1336q-11 -41 -60 -41h-221q-28 0 -40 15.5t-3 42.5l123 368l-360 949q-9 26 1.5 42.5t38.5 16.5
h222q42 0 57 -41l195 -543z" />
    <glyph glyph-name="endash" unicode="&#x2013;" horiz-adv-x="1310" 
d="M174 465q-51 0 -51 51v193q0 51 51 51h963q51 0 51 -51v-193q0 -51 -51 -51h-963z" />
    <glyph glyph-name="emdash" unicode="&#x2014;" horiz-adv-x="1515" 
d="M174 465q-51 0 -51 51v193q0 51 51 51h1167q52 0 52 -51v-193q0 -51 -52 -51h-1167z" />
    <glyph glyph-name="quoteleft" unicode="&#x2018;" horiz-adv-x="573" 
d="M410 1313q-58 -9 -84.5 -46.5t-26.5 -111.5h100q52 0 52 -51v-225q0 -52 -52 -52h-225q-51 0 -51 52v276q0 126 75.5 202t209.5 87q43 3 43 -39v-51q0 -35 -41 -41z" />
    <glyph glyph-name="quoteright" unicode="&#x2019;" horiz-adv-x="573" 
d="M399 1434q52 0 52 -52v-276q0 -126 -75.5 -202t-209.5 -87q-43 -3 -43 39v51q0 35 41 41q58 9 84 46.5t26 111.5h-100q-51 0 -51 51v225q0 52 51 52h225z" />
    <glyph glyph-name="quotesinglbase" unicode="&#x201a;" horiz-adv-x="573" 
d="M399 328q52 0 52 -52v-276q0 -126 -75.5 -202t-209.5 -87q-43 -3 -43 39v51q0 35 41 41q58 9 84 46.5t26 111.5h-100q-51 0 -51 51v225q0 52 51 52h225z" />
    <glyph glyph-name="quotedblleft" unicode="&#x201c;" horiz-adv-x="983" 
d="M408 1444q43 3 43 -39v-51q0 -35 -41 -41q-58 -9 -84.5 -46.5t-26.5 -111.5h100q52 0 52 -51v-225q0 -52 -52 -52h-225q-51 0 -51 52v276q0 126 75.5 202t209.5 87zM819 1313q-58 -9 -84 -46.5t-26 -111.5h100q51 0 51 -51v-225q0 -52 -51 -52h-225q-52 0 -52 52v276
q0 126 75.5 202t209.5 87q43 3 43 -39v-51q0 -35 -41 -41z" />
    <glyph glyph-name="quotedblright" unicode="&#x201d;" horiz-adv-x="983" 
d="M399 1434q52 0 52 -52v-276q0 -126 -75.5 -202t-209.5 -87q-43 -3 -43 39v51q0 35 41 41q58 9 84 46.5t26 111.5h-100q-51 0 -51 51v225q0 52 51 52h225zM809 1434q51 0 51 -52v-276q0 -126 -75.5 -202t-209.5 -87q-43 -3 -43 39v51q0 35 41 41q58 9 84.5 46.5
t26.5 111.5h-100q-52 0 -52 51v225q0 52 52 52h225z" />
    <glyph glyph-name="quotedblbase" unicode="&#x201e;" horiz-adv-x="983" 
d="M399 328q52 0 52 -52v-276q0 -126 -75.5 -202t-209.5 -87q-43 -3 -43 39v51q0 35 41 41q58 9 84 46.5t26 111.5h-100q-51 0 -51 51v225q0 52 51 52h225zM809 328q51 0 51 -52v-276q0 -126 -75.5 -202t-209.5 -87q-43 -3 -43 39v51q0 35 41 41q58 9 84.5 46.5t26.5 111.5
h-100q-52 0 -52 51v225q0 52 52 52h225z" />
    <glyph glyph-name="dagger" unicode="&#x2020;" horiz-adv-x="983" 
d="M850 1178q51 0 51 -52v-192q0 -51 -51 -51h-205v-832q0 -51 -51 -51h-205q-51 0 -51 51v832h-205q-51 0 -51 51v192q0 52 51 52h205v204q0 52 51 52h205q51 0 51 -52v-204h205z" />
    <glyph glyph-name="daggerdbl" unicode="&#x2021;" horiz-adv-x="983" 
d="M850 883h-205v-332h205q51 0 51 -51v-193q0 -51 -51 -51h-205v-205q0 -51 -51 -51h-205q-51 0 -51 51v205h-205q-51 0 -51 51v193q0 51 51 51h205v332h-205q-51 0 -51 51v192q0 52 51 52h205v204q0 52 51 52h205q51 0 51 -52v-204h205q51 0 51 -52v-192q0 -51 -51 -51z
" />
    <glyph glyph-name="bullet" unicode="&#x2022;" horiz-adv-x="778" 
d="M393 410q-129 0 -220 91t-91 220q0 126 91 214.5t220 88.5q126 0 214.5 -88.5t88.5 -214.5q0 -129 -88.5 -220t-214.5 -91z" />
    <glyph glyph-name="ellipsis" unicode="&#x2026;" horiz-adv-x="1556" 
d="M174 0q-51 0 -51 51v225q0 52 51 52h225q52 0 52 -52v-225q0 -51 -52 -51h-225zM666 0q-52 0 -52 51v225q0 52 52 52h225q51 0 51 -52v-225q0 -51 -51 -51h-225zM1157 0q-51 0 -51 51v225q0 52 51 52h225q52 0 52 -52v-225q0 -51 -52 -51h-225z" />
    <glyph glyph-name="perthousand" unicode="&#x2030;" horiz-adv-x="2424" 
d="M438 766q-152 0 -254 101t-102 247t102 247t254 101q151 0 253 -101t102 -247t-102 -247t-253 -101zM264 0q-31 0 -41 17.5t8 43.5l940 1340q20 33 62 33h168q31 0 41 -18t-8 -44l-942 -1339q-23 -33 -62 -33h-166zM436 1001q48 0 79.5 33.5t31.5 79.5q0 48 -31 80.5
t-80 32.5q-47 0 -77.5 -32.5t-30.5 -80.5t30.5 -80.5t77.5 -32.5zM1231 -25q-152 0 -254.5 101.5t-102.5 247.5t102 247t255 101q151 0 252.5 -101t101.5 -247t-101.5 -247.5t-252.5 -101.5zM2009 -25q-152 0 -254 101.5t-102 247.5t102 247t254 101q151 0 252.5 -101
t101.5 -247t-101.5 -247.5t-252.5 -101.5zM1229 211q48 0 79 33.5t31 79.5q0 48 -30.5 80t-79.5 32q-47 0 -78 -32t-31 -80t31 -80.5t78 -32.5zM2007 211q48 0 79.5 33.5t31.5 79.5q0 48 -31 80t-80 32q-47 0 -78 -32t-31 -80t31 -80.5t78 -32.5z" />
    <glyph glyph-name="guilsinglleft" unicode="&#x2039;" horiz-adv-x="741" 
d="M547 1022q31 0 41.5 -16.5t-4.5 -44.5l-191 -328l191 -328q15 -28 4.5 -44.5t-41.5 -16.5h-158q-41 0 -61 35l-185 319q-20 35 0 70l185 319q20 35 61 35h158z" />
    <glyph glyph-name="guilsinglright" unicode="&#x203a;" horiz-adv-x="741" 
d="M195 1022h157q42 0 62 -35l184 -319q20 -35 0 -70l-184 -319q-20 -35 -62 -35h-157q-31 0 -41.5 16.5t4.5 44.5l190 328l-190 328q-15 28 -4.5 44.5t41.5 16.5z" />
    <glyph glyph-name="fraction" unicode="&#x2044;" horiz-adv-x="368" 
d="M-258 0q-30 0 -40 16.5t5 44.5l764 1338q20 35 61 35h95q30 0 40 -17t-5 -45l-764 -1337q-20 -35 -62 -35h-94z" />
    <glyph glyph-name="Euro" unicode="&#x20ac;" horiz-adv-x="1337" 
d="M1241 520q26 0 38.5 -14.5t8.5 -40.5q-37 -229 -179 -361.5t-361 -132.5q-231 0 -379 147t-190 402h-97q-41 0 -41 41v90q0 41 41 41h82v25v41h-82q-41 0 -41 41v90q0 41 41 41h100q45 248 192 390t374 142q214 0 355 -127.5t181 -349.5q4 -26 -8.5 -40.5t-38.5 -14.5
h-229q-44 0 -56 47q-19 81 -71.5 123.5t-132.5 42.5q-180 0 -234 -213h346q41 0 41 -41v-90q0 -41 -41 -41h-368v-41v-25h368q41 0 41 -41v-90q0 -41 -41 -41h-350q50 -229 238 -229q83 0 137 46.5t73 135.5q9 47 54 47h229z" />
    <glyph glyph-name="uni20BD" unicode="&#x20bd;" horiz-adv-x="1239" 
d="M707 471h-215v-84h385q45 0 45 -45v-111q0 -45 -45 -45h-385v-135q0 -51 -52 -51h-225q-51 0 -51 51v135h-98q-46 0 -46 45v111q0 45 46 45h98v84h-92q-52 0 -52 51v185q0 51 52 51h92v624q0 52 51 52h277h215q211 0 356 -143.5t145 -348.5q0 -203 -144 -337t-357 -134z
M492 1126v-368h215q75 0 124.5 53t49.5 131t-49.5 131t-124.5 53h-215z" />
    <glyph glyph-name="uni2116" unicode="&#x2116;" horiz-adv-x="2080" 
d="M1665 766q-152 0 -253 101.5t-101 246.5q0 146 101 247t253 101t253 -101t101 -247q0 -145 -100 -246.5t-254 -101.5zM881 1382q0 52 51 52h225q51 0 51 -52v-1331q0 -51 -51 -51h-153q-44 0 -64 33l-489 766v-748q0 -51 -52 -51h-225q-51 0 -51 51v1331q0 52 51 52h154
q43 0 63 -33l490 -766v747zM1665 1012q46 0 73 28t27 74q0 45 -28 74t-72 29t-72 -29t-28 -74q0 -44 28 -73t72 -29zM1391 377q-52 0 -52 51v184q0 52 52 52h557q51 0 51 -52v-184q0 -51 -51 -51h-557z" />
    <glyph glyph-name="trademark" unicode="&#x2122;" horiz-adv-x="954" 
d="M379 1434q10 0 17 -7t7 -18v-78q0 -11 -6.5 -17.5t-17.5 -6.5h-78v-258q0 -11 -7.5 -18t-17.5 -7h-88q-10 0 -17 7t-7 18v258h-78q-11 0 -18 7t-7 17v78q0 11 7.5 18t17.5 7h215h78zM868 1434q10 0 17.5 -7t7.5 -18v-360q0 -11 -7.5 -18t-17.5 -7h-88q-10 0 -17 7t-7 18
v169l-51 -96q-8 -16 -25 -16h-25q-16 0 -24 16l-58 107v-180q0 -11 -7 -18t-17 -7h-82q-11 0 -18 7t-7 18v360q0 11 7 18t18 7h82h16q19 0 29 -19l74 -145l73 145q9 19 29 19h70h28z" />
    <glyph glyph-name="estimated" unicode="&#x212e;" horiz-adv-x="1597" 
d="M799 1454q166 0 308.5 -58t240.5 -157.5t153 -234.5t55 -287q0 -31 -30 -31h-1147q-31 0 -31 -31v-393q0 -22 14 -39q173 -182 478 -182q296 0 473 199q15 18 37 18h75q20 0 26 -12t-7 -27q-106 -113 -260 -176t-344 -63q-181 0 -332.5 58t-253 157.5t-157.5 234
t-56 287.5q0 152 55.5 287t153 234.5t240.5 157.5t309 58zM1249 1171q0 22 -14 39q-174 183 -436 183q-263 0 -437 -183q-14 -17 -14 -39v-393q0 -30 31 -30h840q30 0 30 30v393z" />
    <glyph glyph-name="oneeighth" unicode="&#x215b;" horiz-adv-x="1654" 
d="M418 614h-148q-51 0 -51 52v518l-137 -72q-26 -14 -44 -3t-18 40v135q0 41 37 62l133 71q28 17 62 17h166q51 0 51 -52v-716q0 -52 -51 -52zM1188 1434q30 0 40 -17t-5 -45l-764 -1337q-20 -35 -62 -35h-94q-30 0 -40 16.5t5 44.5l764 1338q20 35 62 35h94zM1498 430
q56 -34 86 -87.5t30 -117.5q0 -117 -84.5 -185.5t-237.5 -68.5t-237 68.5t-84 185.5q0 135 115 205q-87 64 -87 168q0 115 82 182.5t211 67.5t211 -67.5t82 -182.5q0 -104 -87 -168zM1292 641q-39 0 -61.5 -17.5t-22.5 -50.5q0 -32 22.5 -48.5t61.5 -16.5q36 0 60 17t24 48
q0 32 -24 50t-60 18zM1292 180q41 0 64.5 21.5t23.5 58.5q0 36 -23.5 57t-64.5 21t-64.5 -21t-23.5 -57q0 -37 23.5 -58.5t64.5 -21.5z" />
    <glyph glyph-name="threeeighths" unicode="&#x215c;" horiz-adv-x="1802" 
d="M668 864q0 -136 -85.5 -207t-238.5 -71q-137 0 -219.5 57t-99.5 168q-4 25 9.5 39t39.5 14h155q14 0 24.5 -6.5t14.5 -11.5t17 -23q19 -22 59 -22q72 0 72 63q0 62 -72 62h-88q-51 0 -51 51v49q0 39 22 64l99 118h-222q-51 0 -51 52v122q0 52 51 52h474q51 0 51 -52v-88
q0 -37 -23 -63l-110 -136q82 -28 127 -87.5t45 -143.5zM1335 1434q30 0 40 -17t-5 -45l-764 -1337q-20 -35 -61 -35h-94q-30 0 -40 16.5t5 44.5l764 1338q20 35 61 35h94zM1646 430q115 -70 115 -205q0 -117 -84 -185.5t-237 -68.5t-237.5 68.5t-84.5 185.5q0 64 30 117.5
t86 87.5q-87 64 -87 168q0 115 82 182.5t211 67.5t211 -67.5t82 -182.5q0 -104 -87 -168zM1440 641q-39 0 -61.5 -17.5t-22.5 -50.5q0 -32 22.5 -48.5t61.5 -16.5q36 0 60 17t24 48q0 32 -24 50t-60 18zM1440 180q41 0 64.5 21.5t23.5 58.5q0 36 -23.5 57t-64.5 21
t-64.5 -21t-23.5 -57q0 -37 23.5 -58.5t64.5 -21.5z" />
    <glyph glyph-name="fiveeighths" unicode="&#x215d;" horiz-adv-x="1773" 
d="M639 854q0 -132 -84.5 -200t-218.5 -68q-121 0 -202.5 55t-98.5 166q-4 25 9.5 39t39.5 14h131q5 0 10 -1t8.5 -2t7 -4t6 -4t6 -6t5 -7t6 -8.5t6.5 -8.5q21 -24 66 -24q37 0 56.5 18t19.5 47q0 30 -20.5 48t-55.5 18h-225q-25 0 -38 14t-12 39l27 405q2 23 16 36.5
t37 13.5h404q51 0 51 -52v-122q0 -52 -51 -52h-232l-6 -84h39q136 0 214.5 -65.5t78.5 -204.5zM1307 1434q29 0 39 -17t-5 -45l-763 -1337q-20 -35 -62 -35h-94q-30 0 -40 16.5t5 44.5l764 1338q20 35 61 35h95zM1617 430q56 -34 86 -87.5t30 -117.5q0 -117 -84.5 -185.5
t-237.5 -68.5t-237 68.5t-84 185.5q0 135 115 205q-87 64 -87 168q0 115 82 182.5t211 67.5t211 -67.5t82 -182.5q0 -104 -87 -168zM1411 641q-39 0 -61.5 -17.5t-22.5 -50.5q0 -32 22.5 -48.5t61.5 -16.5q36 0 60 17t24 48q0 32 -24 50t-60 18zM1411 180q41 0 64.5 21.5
t23.5 58.5q0 36 -23.5 57t-64.5 21t-64.5 -21t-23.5 -57q0 -37 23.5 -58.5t64.5 -21.5z" />
    <glyph glyph-name="seveneighths" unicode="&#x215e;" horiz-adv-x="1697" 
d="M346 655q-14 -41 -59 -41h-152q-28 0 -39.5 16.5t-1.5 43.5l209 534h-252q-51 0 -51 52v122q0 52 51 52h471q51 0 51 -52v-106q0 -34 -12 -64zM1231 1434q30 0 40 -17t-5 -45l-764 -1337q-20 -35 -62 -35h-94q-30 0 -40 16.5t5 44.5l764 1338q20 35 62 35h94zM1541 430
q56 -34 86 -87.5t30 -117.5q0 -117 -84.5 -185.5t-237.5 -68.5t-237 68.5t-84 185.5q0 135 115 205q-87 64 -87 168q0 115 82 182.5t211 67.5t211 -67.5t82 -182.5q0 -104 -87 -168zM1335 641q-39 0 -61.5 -17.5t-22.5 -50.5q0 -32 22.5 -48.5t61.5 -16.5q36 0 60 17t24 48
q0 32 -24 50t-60 18zM1335 180q41 0 64.5 21.5t23.5 58.5q0 36 -23.5 57t-64.5 21t-64.5 -21t-23.5 -57q0 -37 23.5 -58.5t64.5 -21.5z" />
    <glyph glyph-name="arrowleft" unicode="&#x2190;" horiz-adv-x="1617" 
d="M1485 864q51 0 51 -51v-192q0 -52 -51 -52h-850l403 -403q25 -25 16.5 -44.5t-42.5 -19.5h-279q-36 0 -63 27l-551 551q-37 37 0 74l551 551q26 26 63 26h279q34 0 42 -19t-16 -44l-403 -404h850z" />
    <glyph glyph-name="arrowup" unicode="&#x2191;" horiz-adv-x="1392" 
d="M1284 846q27 -27 27 -64v-278q0 -34 -19.5 -42.5t-44.5 15.5l-397 397v-823q0 -51 -51 -51h-205q-51 0 -51 51v823l-398 -397q-25 -24 -44 -15.5t-19 42.5v278q0 37 27 64l550 551q37 37 74 0z" />
    <glyph glyph-name="arrowright" unicode="&#x2192;" horiz-adv-x="1617" 
d="M1499 754q37 -37 0 -74l-551 -551q-27 -27 -63 -27h-279q-34 0 -42.5 19.5t16.5 44.5l403 403h-850q-51 0 -51 52v192q0 51 51 51h850l-403 404q-24 25 -16 44t42 19h279q37 0 63 -26z" />
    <glyph glyph-name="arrowdown" unicode="&#x2193;" horiz-adv-x="1392" 
d="M1247 956q25 25 44.5 16.5t19.5 -42.5v-279q0 -36 -27 -63l-551 -551q-37 -37 -74 0l-550 551q-27 27 -27 63v279q0 34 19 42t44 -16l398 -397v823q0 52 51 52h205q51 0 51 -52v-823z" />
    <glyph glyph-name="arrowboth" unicode="&#x2194;" horiz-adv-x="2252" 
d="M2134 754q37 -37 0 -74l-510 -510q-27 -27 -63 -27h-271q-34 0 -42.5 19.5t16.5 44.5l362 362h-999l362 -362q25 -25 16.5 -44.5t-42.5 -19.5h-271q-36 0 -63 27l-510 510q-37 37 0 74l510 510q26 26 63 26h271q34 0 42 -19t-16 -44l-362 -363h999l-362 363
q-24 25 -16 44t42 19h271q37 0 63 -26z" />
    <glyph glyph-name="arrowupdn" unicode="&#x2195;" horiz-adv-x="1310" 
d="M1165 854l-356 356v-987l356 357q25 24 44.5 15.5t19.5 -42.5v-270q0 -37 -27 -64l-510 -510q-37 -37 -74 0l-509 510q-27 27 -27 64v270q0 34 19 42.5t44 -15.5l357 -357v987l-357 -356q-25 -24 -44 -15.5t-19 42.5v270q0 36 27 63l509 510q37 37 74 0l510 -510
q27 -27 27 -63v-270q0 -34 -19.5 -42.5t-44.5 15.5z" />
    <glyph glyph-name="uni2196" unicode="&#x2196;" horiz-adv-x="1320" 
d="M1202 360q36 -36 0 -73l-133 -133q-37 -37 -74 0l-626 625v-570q0 -34 -19.5 -42.5t-44.5 15.5l-196 197q-27 27 -27 63v781q0 51 51 51h780q37 0 64 -27l197 -196q24 -25 15.5 -44.5t-42.5 -19.5h-570z" />
    <glyph glyph-name="uni2197" unicode="&#x2197;" horiz-adv-x="1320" 
d="M1188 1274q51 0 51 -51v-781q0 -36 -27 -63l-196 -197q-25 -24 -44.5 -15.5t-19.5 42.5v570l-626 -625q-37 -37 -74 0l-133 133q-37 37 0 73l625 627h-570q-34 0 -42.5 19.5t15.5 44.5l197 196q27 27 64 27h780z" />
    <glyph glyph-name="uni2198" unicode="&#x2198;" horiz-adv-x="1320" 
d="M1212 1032q27 -27 27 -63v-781q0 -51 -51 -51h-780q-37 0 -64 27l-197 196q-24 25 -15.5 44.5t42.5 19.5h570l-625 627q-37 37 0 73l133 133q37 37 74 0l626 -625v570q0 34 19.5 42.5t44.5 -15.5z" />
    <glyph glyph-name="uni2199" unicode="&#x2199;" horiz-adv-x="1320" 
d="M1202 1124q36 -36 0 -73l-625 -627h570q34 0 42.5 -19.5t-15.5 -44.5l-197 -196q-27 -27 -64 -27h-780q-51 0 -51 51v781q0 36 27 63l196 197q25 24 44.5 15.5t19.5 -42.5v-570l626 625q37 37 74 0z" />
    <glyph glyph-name="partialdiff" unicode="&#x2202;" horiz-adv-x="1200" 
d="M496 1462q121 0 233 -53.5t198.5 -148.5t138.5 -236.5t52 -306.5q0 -182 -46 -326.5t-126 -235t-185 -137.5t-226 -47q-211 0 -332 125t-121 314q0 211 125 346t338 135q141 0 259 -71q-23 170 -112 261.5t-239 94.5q-82 3 -166 -35q-28 -11 -44 -0.5t-16 39.5v168
q0 41 35 61q100 53 234 53zM547 258q108 0 171.5 81t83.5 223q-87 63 -210 63q-87 0 -145 -55t-58 -150q0 -76 45 -119t113 -43z" />
    <glyph glyph-name="emptyset" unicode="&#x2205;" horiz-adv-x="1646" 
d="M1355 1234q99 -103 154.5 -236t55.5 -281q0 -202 -99.5 -372.5t-270 -270t-372.5 -99.5q-203 0 -380 105l-74 -94q-21 -27 -56 -27h-141q-28 0 -36 16.5t9 38.5l147 186q-99 103 -154.5 236t-55.5 281q0 151 58.5 288.5t157.5 236.5t236.5 157.5t288.5 58.5
q205 0 380 -104l75 94q21 27 55 27h142q28 0 35.5 -17t-9.5 -39zM287 717q0 -205 131 -357l660 834q-118 63 -255 63q-110 0 -209.5 -42.5t-171 -114.5t-113.5 -172t-42 -211zM823 176q147 0 270.5 72t195 196.5t71.5 272.5q0 204 -132 357l-659 -835q118 -63 254 -63z" />
    <glyph glyph-name="product" unicode="&#x220f;" horiz-adv-x="1310" 
d="M174 -410q-51 0 -51 52v1740q0 52 51 52h963q51 0 51 -52v-1740q0 -52 -51 -52h-205q-51 0 -51 52v1497h-451v-1497q0 -52 -51 -52h-205z" />
    <glyph glyph-name="summation" unicode="&#x2211;" horiz-adv-x="1167" 
d="M113 -410q-52 0 -52 52v170q0 31 19 63l399 657l-368 615q-19 36 -19 63v172q0 52 51 52h861q51 0 51 -52v-192q0 -51 -51 -51h-547l344 -572q19 -35 0 -69l-373 -613h606q51 0 51 -51v-192q0 -52 -51 -52h-921z" />
    <glyph glyph-name="minus" unicode="&#x2212;" horiz-adv-x="1146" 
d="M154 573q-52 0 -52 52v184q0 51 52 51h839q51 0 51 -51v-184q0 -52 -51 -52h-839z" />
    <glyph glyph-name="radical" unicode="&#x221a;" horiz-adv-x="1404" 
d="M580 0q-41 0 -62 35l-219 346h-166q-51 0 -51 51v193q0 51 51 51h301q42 0 62 -35l166 -287l417 1243q15 41 60 41h204q28 0 39 -15.5t2 -43.5l-536 -1538q-15 -41 -57 -41h-211z" />
    <glyph glyph-name="infinity" unicode="&#x221e;" horiz-adv-x="1658" 
d="M1171 1085q167 0 276 -101t109 -267t-109 -267.5t-276 -101.5q-168 0 -342 166q-174 -166 -342 -166q-167 0 -276 101.5t-109 267.5t109 267t276 101q169 0 342 -165q173 165 342 165zM504 625q70 0 143 92q-73 92 -143 92q-41 0 -67.5 -26.5t-26.5 -65.5t26.5 -65.5
t67.5 -26.5zM1155 625q41 0 67.5 26.5t26.5 65.5t-26.5 65.5t-67.5 26.5q-70 0 -143 -92q73 -92 143 -92z" />
    <glyph glyph-name="integral" unicode="&#x222b;" horiz-adv-x="905" 
d="M45 -428q-45 9 -45 57v203q0 26 13 35t40 6q53 -5 97 25.5t55 97.5l186 1096q19 110 63 188t105.5 117.5t138.5 53.5t162 -3q45 -9 45 -57v-203q0 -26 -13 -35t-40 -6q-53 5 -97 -25.5t-55 -97.5l-186 -1096q-19 -110 -63 -188t-105.5 -117.5t-138.5 -53.5t-162 3z" />
    <glyph glyph-name="approxequal" unicode="&#x2248;" horiz-adv-x="1146" 
d="M231 791l-100 32q-50 16 -35 64q115 349 455 217q80 -32 120.5 -43.5t75.5 -5t54 40.5q23 45 65 26l158 -75q44 -20 29 -72q-33 -114 -102 -178t-158.5 -71.5t-196.5 34.5q-85 36 -143 48.5t-89.5 8.5t-64.5 -20q-39 -15 -68 -6zM281 311l-158 76q-43 19 -31 66
q33 117 102 182.5t159 73t198 -34.5q85 -36 143 -48.5t89.5 -8.5t64.5 20q38 15 67 6l101 -33q50 -16 35 -63q-115 -349 -455 -217q-80 32 -120.5 43.5t-75.5 5t-54 -40.5q-24 -46 -65 -27z" />
    <glyph glyph-name="notequal" unicode="&#x2260;" horiz-adv-x="1064" 
d="M932 788h-276l-64 -143h340q51 0 51 -51v-184q0 -52 -51 -52h-468l-102 -225q-12 -31 -49 -31h-96q-23 0 -31.5 13t0.5 35l94 208h-147q-51 0 -51 52v184q0 51 51 51h276l64 143h-340q-51 0 -51 52v184q0 51 51 51h468l101 225q12 31 50 31h96q23 0 31.5 -12.5
t-0.5 -34.5l-94 -209h147q51 0 51 -51v-184q0 -52 -51 -52z" />
    <glyph glyph-name="lessequal" unicode="&#x2264;" horiz-adv-x="1085" 
d="M944 432l-821 311q-41 15 -41 58v180q0 42 41 57l821 312q26 10 43 -1.5t17 -39.5v-207q0 -46 -43 -58l-531 -153l531 -154q43 -12 43 -57v-207q0 -28 -17 -39.5t-43 -1.5zM952 82h-819q-51 0 -51 51v184q0 52 51 52h819q52 0 52 -52v-184q0 -51 -52 -51z" />
    <glyph glyph-name="greaterequal" unicode="&#x2265;" horiz-adv-x="1085" 
d="M141 432q-26 -10 -42.5 1.5t-16.5 39.5v207q0 45 43 57l530 154l-530 153q-43 12 -43 58v207q0 28 16.5 39.5t42.5 1.5l822 -312q41 -15 41 -57v-180q0 -43 -41 -58zM133 82q-51 0 -51 51v184q0 52 51 52h819q52 0 52 -52v-184q0 -51 -52 -51h-819z" />
    <glyph glyph-name="lozenge" unicode="&#x25ca;" horiz-adv-x="1146" 
d="M504 0q-42 0 -60 37l-344 645q-17 35 0 70l344 645q18 37 60 37h139q41 0 59 -37l345 -645q17 -35 0 -70l-345 -645q-18 -37 -59 -37h-139zM573 416l160 301l-160 301l-159 -301z" />
    <glyph glyph-name="i.loclTRK" horiz-adv-x="532" 
d="M154 1126q-41 0 -41 41v226q0 41 41 41h225q41 0 41 -41v-226q0 -41 -41 -41h-225zM164 0q-51 0 -51 51v922q0 51 51 51h205q51 0 51 -51v-922q0 -51 -51 -51h-205z" />
    <glyph glyph-name="a.ss01" horiz-adv-x="1275" 
d="M1112 1024q51 0 51 -51v-922q0 -51 -51 -51h-205q-51 0 -51 51v45q-109 -125 -305 -125q-202 0 -346 157t-144 384t144 384t346 157q196 0 305 -125v45q0 51 51 51h205zM612 262q107 0 175.5 68t68.5 182t-68.5 182t-175.5 68t-175 -68t-68 -182t68 -182t175 -68z" />
    <glyph glyph-name="aacute.ss01" horiz-adv-x="1275" 
d="M520 1147q-30 0 -40 16.5t5 44.5l109 191q20 35 61 35h246q32 0 41.5 -19.5t-10.5 -44.5l-162 -194q-23 -29 -63 -29h-187zM1112 1024q51 0 51 -51v-922q0 -51 -51 -51h-205q-51 0 -51 51v45q-109 -125 -305 -125q-202 0 -346 157t-144 384t144 384t346 157
q196 0 305 -125v45q0 51 51 51h205zM612 262q107 0 175.5 68t68.5 182t-68.5 182t-175.5 68t-175 -68t-68 -182t68 -182t175 -68z" />
    <glyph glyph-name="abreve.ss01" horiz-adv-x="1275" 
d="M635 1110q-160 0 -251 68.5t-105 195.5q-3 43 40 43h189q33 0 45 -39q16 -55 82 -55t82 55q12 39 45 39h188q44 0 41 -37q-11 -130 -102.5 -200t-253.5 -70zM1112 1024q51 0 51 -51v-922q0 -51 -51 -51h-205q-51 0 -51 51v45q-109 -125 -305 -125q-202 0 -346 157
t-144 384t144 384t346 157q196 0 305 -125v45q0 51 51 51h205zM612 262q107 0 175.5 68t68.5 182t-68.5 182t-175.5 68t-175 -68t-68 -182t68 -182t175 -68z" />
    <glyph glyph-name="acircumflex.ss01" horiz-adv-x="1275" 
d="M317 1126q-25 0 -32.5 15t6.5 35l164 231q20 27 49 27h184h57q30 0 50 -27l163 -231q14 -20 6.5 -35t-32.5 -15h-203q-33 0 -49 27l-55 87l-56 -87q-16 -27 -49 -27h-203zM1112 1024q51 0 51 -51v-922q0 -51 -51 -51h-205q-51 0 -51 51v45q-109 -125 -305 -125
q-202 0 -346 157t-144 384t144 384t346 157q196 0 305 -125v45q0 51 51 51h205zM612 262q107 0 175.5 68t68.5 182t-68.5 182t-175.5 68t-175 -68t-68 -182t68 -182t175 -68z" />
    <glyph glyph-name="adieresis.ss01" horiz-adv-x="1275" 
d="M358 1137q-41 0 -41 41v184q0 41 41 41h185q41 0 41 -41v-184q0 -41 -41 -41h-185zM727 1137q-41 0 -41 41v184q0 41 41 41h184q41 0 41 -41v-184q0 -41 -41 -41h-184zM1112 1024q51 0 51 -51v-922q0 -51 -51 -51h-205q-51 0 -51 51v45q-109 -125 -305 -125
q-202 0 -346 157t-144 384t144 384t346 157q196 0 305 -125v45q0 51 51 51h205zM612 262q107 0 175.5 68t68.5 182t-68.5 182t-175.5 68t-175 -68t-68 -182t68 -182t175 -68z" />
    <glyph glyph-name="agrave.ss01" horiz-adv-x="1275" 
d="M504 1169l-176 213q-17 22 -9.5 37t33.5 15h271q35 0 49 -29l119 -209q12 -20 4 -34.5t-33 -14.5h-207q-35 0 -51 22zM1112 1024q51 0 51 -51v-922q0 -51 -51 -51h-205q-51 0 -51 51v45q-109 -125 -305 -125q-202 0 -346 157t-144 384t144 384t346 157q196 0 305 -125v45
q0 51 51 51h205zM612 262q107 0 175.5 68t68.5 182t-68.5 182t-175.5 68t-175 -68t-68 -182t68 -182t175 -68z" />
    <glyph glyph-name="amacron.ss01" horiz-adv-x="1275" 
d="M369 1145q-41 0 -41 41v164q0 41 41 41h532q41 0 41 -41v-164q0 -41 -41 -41h-532zM1112 1024q51 0 51 -51v-922q0 -51 -51 -51h-205q-51 0 -51 51v45q-109 -125 -305 -125q-202 0 -346 157t-144 384t144 384t346 157q196 0 305 -125v45q0 51 51 51h205zM612 262
q107 0 175.5 68t68.5 182t-68.5 182t-175.5 68t-175 -68t-68 -182t68 -182t175 -68z" />
    <glyph glyph-name="aogonek.ss01" horiz-adv-x="1275" 
d="M1163 973v-922v-2q0 -14 -6 -29t-13 -24t-15.5 -19t-10.5 -12q-63 -81 -63 -139q-3 -53 45 -53q47 0 47 -37v-105q0 -36 -27 -45q-70 -24 -153 -24q-90 0 -147.5 47t-57.5 139q0 114 131 252l4 1q-41 6 -41 50v45q-109 -125 -305 -125q-202 0 -346 157t-144 384t144 384
t346 157q196 0 305 -125v45q0 51 51 51h205q51 0 51 -51zM612 262q107 0 175.5 68t68.5 182t-68.5 182t-175.5 68t-175 -68t-68 -182t68 -182t175 -68z" />
    <glyph glyph-name="aring.ss01" horiz-adv-x="1275" 
d="M635 1096q-119 0 -196 73t-77 183t77 183t196 73q121 0 196.5 -73t75.5 -183t-75.5 -183t-196.5 -73zM635 1421q-34 0 -53 -19.5t-19 -49.5t19 -50t53 -20q35 0 54.5 19.5t19.5 50.5q0 30 -19.5 49.5t-54.5 19.5zM1112 1024q51 0 51 -51v-922q0 -51 -51 -51h-205
q-51 0 -51 51v45q-109 -125 -305 -125q-202 0 -346 157t-144 384t144 384t346 157q196 0 305 -125v45q0 51 51 51h205zM612 262q107 0 175.5 68t68.5 182t-68.5 182t-175.5 68t-175 -68t-68 -182t68 -182t175 -68z" />
    <glyph glyph-name="atilde.ss01" horiz-adv-x="1275" 
d="M307 1133q-42 0 -39 43q6 111 44 181t95.5 91.5t125 10.5t135.5 -54q28 -18 45 -23t27 2t14 29q6 41 41 41h166q41 0 38 -43q-6 -111 -44 -181t-95 -91.5t-124.5 -10.5t-135.5 54q-28 18 -45 23t-27 -2t-14 -29q-6 -41 -41 -41h-166zM1112 1024q51 0 51 -51v-922
q0 -51 -51 -51h-205q-51 0 -51 51v45q-109 -125 -305 -125q-202 0 -346 157t-144 384t144 384t346 157q196 0 305 -125v45q0 51 51 51h205zM612 262q107 0 175.5 68t68.5 182t-68.5 182t-175.5 68t-175 -68t-68 -182t68 -182t175 -68z" />
    <glyph glyph-name="ae.ss01" horiz-adv-x="1982" 
d="M1460 1053q218 0 341.5 -151t123.5 -390q0 -44 -4 -76q-6 -47 -55 -47h-250h-434q26 -87 89.5 -128.5t149.5 -41.5q91 0 152 51q34 27 63 27l197 2q28 0 40.5 -16t2.5 -43q-55 -134 -154.5 -201.5t-253.5 -67.5q-201 0 -325 134v-54q0 -51 -51 -51h-185q-51 0 -51 51v45
q-109 -125 -305 -125q-202 0 -346 157t-144 384t144 384t346 157q196 0 305 -125v45q0 51 51 51h185q51 0 51 -51v-57q126 137 317 137zM1181 623h438q-22 82 -79.5 119.5t-132.5 37.5q-86 0 -144 -40t-82 -117zM612 262q107 0 175.5 68t68.5 182t-68.5 182t-175.5 68
t-175 -68t-68 -182t68 -182t175 -68z" />
    <glyph glyph-name="y.ss01" 
d="M936 1024q51 0 51 -51v-1004q0 -107 -35.5 -188t-97.5 -127.5t-137.5 -69t-163.5 -22.5q-107 0 -195.5 31t-151 98.5t-75.5 163.5q-4 25 9.5 39t39.5 14h201q20 0 31.5 -9.5t25.5 -31.5q27 -45 111 -45q67 0 99 35.5t32 111.5v125q-83 -123 -266 -123q-146 0 -237 108
t-91 296v598q0 51 51 51h205q51 0 51 -51v-572q0 -73 37.5 -110t99.5 -37q150 0 150 172v547q0 51 51 51h205z" />
    <glyph glyph-name="yacute.ss01" 
d="M422 1147q-30 0 -40 16.5t5 44.5l109 191q20 35 61 35h246q32 0 41.5 -19.5t-10.5 -44.5l-162 -194q-23 -29 -64 -29h-186zM936 1024q51 0 51 -51v-1004q0 -107 -35.5 -188t-97.5 -127.5t-137.5 -69t-163.5 -22.5q-107 0 -195.5 31t-151 98.5t-75.5 163.5q-4 25 9.5 39
t39.5 14h201q20 0 31.5 -9.5t25.5 -31.5q27 -45 111 -45q67 0 99 35.5t32 111.5v125q-83 -123 -266 -123q-146 0 -237 108t-91 296v598q0 51 51 51h205q51 0 51 -51v-572q0 -73 37.5 -110t99.5 -37q150 0 150 172v547q0 51 51 51h205z" />
    <glyph glyph-name="ycircumflex.ss01" 
d="M219 1126q-25 0 -32.5 15t6.5 35l163 231q20 27 50 27h184h57q29 0 49 -27l164 -231q14 -20 6.5 -35t-32.5 -15h-203q-33 0 -49 27l-56 87l-55 -87q-16 -27 -49 -27h-203zM936 1024q51 0 51 -51v-1004q0 -107 -35.5 -188t-97.5 -127.5t-137.5 -69t-163.5 -22.5
q-107 0 -195.5 31t-151 98.5t-75.5 163.5q-4 25 9.5 39t39.5 14h201q20 0 31.5 -9.5t25.5 -31.5q27 -45 111 -45q67 0 99 35.5t32 111.5v125q-83 -123 -266 -123q-146 0 -237 108t-91 296v598q0 51 51 51h205q51 0 51 -51v-572q0 -73 37.5 -110t99.5 -37q150 0 150 172v547
q0 51 51 51h205z" />
    <glyph glyph-name="ydieresis.ss01" 
d="M260 1137q-41 0 -41 41v184q0 41 41 41h184q41 0 41 -41v-184q0 -41 -41 -41h-184zM629 1137q-41 0 -41 41v184q0 41 41 41h184q41 0 41 -41v-184q0 -41 -41 -41h-184zM936 1024q51 0 51 -51v-1004q0 -107 -35.5 -188t-97.5 -127.5t-137.5 -69t-163.5 -22.5
q-107 0 -195.5 31t-151 98.5t-75.5 163.5q-4 25 9.5 39t39.5 14h201q20 0 31.5 -9.5t25.5 -31.5q27 -45 111 -45q67 0 99 35.5t32 111.5v125q-83 -123 -266 -123q-146 0 -237 108t-91 296v598q0 51 51 51h205q51 0 51 -51v-572q0 -73 37.5 -110t99.5 -37q150 0 150 172v547
q0 51 51 51h205z" />
    <glyph glyph-name="ygrave.ss01" 
d="M406 1169l-177 213q-17 22 -9.5 37t34.5 15h270q34 0 49 -29l119 -209q12 -20 4 -34.5t-32 -14.5h-207q-35 0 -51 22zM936 1024q51 0 51 -51v-1004q0 -107 -35.5 -188t-97.5 -127.5t-137.5 -69t-163.5 -22.5q-107 0 -195.5 31t-151 98.5t-75.5 163.5q-4 25 9.5 39
t39.5 14h201q20 0 31.5 -9.5t25.5 -31.5q27 -45 111 -45q67 0 99 35.5t32 111.5v125q-83 -123 -266 -123q-146 0 -237 108t-91 296v598q0 51 51 51h205q51 0 51 -51v-572q0 -73 37.5 -110t99.5 -37q150 0 150 172v547q0 51 51 51h205z" />
    <glyph glyph-name="f_f_j" horiz-adv-x="1699" 
d="M1536 1024q51 0 51 -51v-973q0 -227 -101.5 -333.5t-318.5 -106.5q-51 0 -51 53v192q0 48 53 54q57 6 84 40t27 101v729h-262v-678q0 -51 -51 -51h-205q-51 0 -51 51v678h-138h-129v-678q0 -51 -51 -51h-205q-51 0 -51 51v678h-86q-51 0 -51 51v193q0 51 51 51h86
q0 209 111.5 324.5t335.5 115.5q51 0 51 -53v-192q0 -47 -53 -50q-138 -10 -138 -145h191h76v20q0 439 497 439q103 0 211 -21q45 -6 45 -55v-182q0 -25 -14 -37.5t-39 -9.5q-120 10 -203 10q-95 0 -142.5 -30t-47.5 -114v-20h395h123z" />
    <glyph glyph-name="f_j" horiz-adv-x="1126" 
d="M963 1024q51 0 51 -51v-973q0 -227 -101.5 -333.5t-318.5 -106.5q-51 0 -51 53v192q0 48 53 54q57 6 84 40t27 101v729h-263v-678q0 -51 -51 -51h-205q-51 0 -51 51v678h-86q-51 0 -51 51v193q0 51 51 51h86q0 438 498 438q108 0 211 -20q45 -6 45 -56v-182
q0 -25 -14 -37.5t-39 -9.5q-120 10 -203 10q-96 0 -143.5 -30t-47.5 -113h396h123z" />
    <glyph glyph-name="uni0414.loclBGR" horiz-adv-x="1515" 
d="M1434 307q51 0 51 -51v-256v-244q0 -51 -51 -51h-226q-51 0 -51 51v244h-704h-95v-244q0 -51 -51 -51h-225q-51 0 -51 51v318v182q0 51 51 51h116l339 1084q12 43 57 43h328q45 0 57 -43l338 -1084h117zM540 307h435l-217 760z" />
    <glyph glyph-name="uni041B.loclBGR" horiz-adv-x="1310" 
d="M492 1434h327q46 0 58 -43l415 -1334q8 -26 -3.5 -41.5t-39.5 -15.5h-252q-46 0 -57 43l-285 1012l-284 -1012q-11 -43 -58 -43h-252q-28 0 -39.5 15.5t-3.5 41.5l416 1334q12 43 58 43z" />
    <glyph glyph-name="uni0424.loclBGR" horiz-adv-x="1769" 
d="M1708 717q0 -301 -180 -496t-490 -236v-139q0 -51 -51 -51h-205q-51 0 -51 51v139q-310 41 -490 236t-180 496t180 495.5t490 235.5v139q0 51 51 51h205q51 0 51 -51v-139q310 -41 490 -235.5t180 -495.5zM389 717q0 -368 342 -430v859q-342 -62 -342 -429zM1038 287
q342 62 342 430q0 367 -342 429v-859z" />
    <glyph glyph-name="uni0414.ss01" horiz-adv-x="1413" 
d="M1311 307q51 0 51 -51v-205q0 -51 -51 -51h-430h-799q-51 0 -51 51v205q0 51 51 51h89q118 159 118 484v591q0 52 51 52h817q51 0 51 -52v-1075h103zM519 307h362v819h-265v-340q0 -309 -97 -479z" />
    <glyph glyph-name="uni0426.ss01" horiz-adv-x="1392" 
d="M1188 315h102q51 0 51 -51v-213q0 -51 -51 -51h-1116q-51 0 -51 51v1331q0 52 51 52h225q52 0 52 -52v-1067h409v1067q0 52 51 52h226q51 0 51 -52v-1067z" />
    <glyph glyph-name="uni0429.ss01" horiz-adv-x="1925" 
d="M1720 315h103q51 0 51 -51v-213q0 -51 -51 -51h-1649q-51 0 -51 51v1331q0 52 51 52h225q52 0 52 -52v-1067h307v1067q0 52 51 52h225q51 0 51 -52v-1067h308v1067q0 52 51 52h225q51 0 51 -52v-1067z" />
    <glyph glyph-name="uni0414.loclBGR.ss01" horiz-adv-x="1515" 
d="M1434 307q51 0 51 -51v-205q0 -51 -51 -51h-371h-961h-20q-51 0 -51 51v205q0 51 51 51h116l339 1084q12 43 57 43h328q45 0 57 -43l338 -1084h117zM540 307h435l-217 760z" />
    <glyph glyph-name="uni0432.loclBGR" horiz-adv-x="1157" 
d="M871 843q108 -49 166.5 -150t58.5 -247q0 -224 -130 -349.5t-362 -125.5q-221 0 -356 136.5t-135 359.5v489q0 227 129.5 366.5t341.5 139.5q182 0 295.5 -96.5t113.5 -263.5q0 -68 -29 -129.5t-93 -129.5zM584 1176q-73 0 -118.5 -61t-45.5 -159v-102l59 12
q52 11 108 16q61 49 84 91t23 88q0 54 -29 84.5t-81 30.5zM604 266q87 0 135.5 47.5t48.5 132.5q0 102 -83 139t-226 7l-59 -12v-113q0 -91 50.5 -146t133.5 -55z" />
    <glyph glyph-name="uni0433.loclBGR" horiz-adv-x="933" 
d="M584 291q12 25 23 35t32 10h201q25 0 38.5 -13.5t10.5 -39.5q-18 -154 -134.5 -233t-281.5 -79q-89 0 -164.5 19t-136.5 58t-96 104t-35 151q0 72 23 126.5t60 86t85 55t98 34t97.5 22t84.5 20t59.5 26.5t22.5 44q0 69 -104 69q-74 0 -100 -53q-12 -24 -23 -34.5
t-33 -10.5h-200q-25 0 -39 13.5t-11 39.5q18 153 133.5 232.5t270.5 79.5q82 0 154.5 -20t131.5 -59t93.5 -105.5t34.5 -151.5q0 -80 -29.5 -138.5t-76.5 -90t-103.5 -52.5t-113.5 -32.5t-103.5 -22.5t-75.5 -30t-29 -48q0 -65 123 -65q87 0 113 53z" />
    <glyph glyph-name="uni0434.loclBGR" horiz-adv-x="1275" 
d="M1112 1024q51 0 51 -51v-922q0 -100 -31 -182.5t-82 -138.5t-119.5 -94.5t-142.5 -56t-151 -17.5q-130 0 -239 38.5t-185.5 123t-91.5 202.5q-1 26 12.5 40t38.5 14h207q22 0 34.5 -11t20.5 -34q18 -48 69.5 -75.5t133.5 -27.5q105 0 166 56.5t61 162.5v93
q-111 -132 -313 -132q-132 0 -245 70t-179 190t-66 260t66 260t179 190.5t245 70.5q202 0 313 -132v52q0 51 51 51h197zM616 295q109 0 178.5 66.5t69.5 171.5t-69.5 171t-178.5 66t-178 -66t-69 -171q0 -106 69 -172t178 -66z" />
    <glyph glyph-name="uni0436.loclBGR" horiz-adv-x="1576" 
d="M1516 61q17 -26 7.5 -43.5t-40.5 -17.5h-226q-40 0 -61 35l-258 409v-393q0 -51 -51 -51h-197q-51 0 -51 51v393l-258 -409q-21 -35 -62 -35h-225q-31 0 -40.5 17.5t7.5 43.5l299 451l-280 451q-17 28 -6.5 44.5t41.5 16.5h225q41 0 61 -35l238 -403v796q0 52 51 52h197
q51 0 51 -52v-796l238 403q20 35 61 35h225q31 0 41.5 -16.5t-6.5 -44.5l-280 -451z" />
    <glyph glyph-name="uni0438.loclBGR" 
d="M936 1024q51 0 51 -51v-922q0 -51 -51 -51h-205q-51 0 -51 51v43q-83 -123 -266 -123q-146 0 -237 108t-91 296v598q0 51 51 51h205q51 0 51 -51v-572q0 -73 37.5 -110t99.5 -37q150 0 150 172v547q0 51 51 51h205z" />
    <glyph glyph-name="uni0439.loclBGR" 
d="M307 1145q-51 0 -51 51v164q0 51 51 51h512q51 0 51 -51v-164q0 -51 -51 -51h-512zM936 1024q51 0 51 -51v-922q0 -51 -51 -51h-205q-51 0 -51 51v43q-83 -123 -266 -123q-146 0 -237 108t-91 296v598q0 51 51 51h205q51 0 51 -51v-572q0 -73 37.5 -110t99.5 -37
q150 0 150 172v547q0 51 51 51h205z" />
    <glyph glyph-name="uni043A.loclBGR" horiz-adv-x="1075" 
d="M1030 61q18 -26 9 -43.5t-40 -17.5h-233q-41 0 -61 33l-285 416v-398q0 -51 -51 -51h-205q-51 0 -51 51v1331q0 52 51 52h205q51 0 51 -52v-803l264 412q20 33 61 33h236q31 0 40.5 -17.5t-7.5 -43.5l-301 -451z" />
    <glyph glyph-name="uni043B.loclBGR" horiz-adv-x="1044" 
d="M1024 59q9 -28 -2 -43.5t-39 -15.5h-221q-45 0 -57 43l-183 587l-182 -587q-12 -43 -57 -43h-220q-28 0 -40 16t-3 43l334 924q15 41 58 41h172h49q42 0 57 -41z" />
    <glyph glyph-name="uni043F.loclBGR" 
d="M686 1053q146 0 237 -108t91 -296v-598q0 -51 -51 -51h-205q-51 0 -51 51v572q0 73 -38 110t-100 37q-149 0 -149 -172v-547q0 -51 -51 -51h-205q-51 0 -51 51v922q0 51 51 51h205q51 0 51 -51v-43q83 123 266 123z" />
    <glyph glyph-name="uni0442.loclBGR" horiz-adv-x="1570" 
d="M1167 1053q152 0 235 -93.5t83 -269.5v-639q0 -51 -51 -51h-205q-51 0 -51 51v613q0 106 -107 106q-52 0 -85.5 -31t-33.5 -100v-588q0 -51 -51 -51h-205q-51 0 -51 51v613q0 106 -106 106q-52 0 -85.5 -31t-33.5 -100v-588q0 -51 -51 -51h-205q-51 0 -51 51v922
q0 51 51 51h205q51 0 51 -51v-42q37 56 97.5 89t137.5 33q159 0 238 -122q113 122 274 122z" />
    <glyph glyph-name="uni0446.loclBGR" horiz-adv-x="1181" 
d="M1090 287q51 0 51 -51v-236v-244q0 -51 -51 -51h-197q-51 0 -51 51v271q-58 25 -99 75q-106 -131 -299 -131q-161 0 -259.5 107.5t-98.5 296.5v598q0 51 51 51h205q51 0 51 -51v-572q0 -73 37.5 -110t99.5 -37q150 0 150 172v547q0 51 51 51h205q51 0 51 -51v-625
q0 -29 16.5 -45t45.5 -16h41z" />
    <glyph glyph-name="uni0448.loclBGR" horiz-adv-x="1570" 
d="M1407 1024q51 0 51 -51v-922q0 -51 -51 -51h-205q-51 0 -51 51v42q-37 -56 -98 -89t-138 -33q-158 0 -237 122q-113 -122 -275 -122q-152 0 -234.5 93.5t-82.5 269.5v639q0 51 51 51h205q51 0 51 -51v-613q0 -106 107 -106q52 0 85 30.5t33 100.5v588q0 51 52 51h204
q52 0 52 -51v-613q0 -106 106 -106q52 0 85.5 31t33.5 100v588q0 51 51 51h205z" />
    <glyph glyph-name="uni0449.loclBGR" horiz-adv-x="1652" 
d="M1561 287q51 0 51 -51v-236v-244q0 -51 -51 -51h-197q-51 0 -51 51v271q-64 27 -103 80q-49 -62 -125 -99t-170 -37q-158 0 -237 122q-113 -122 -275 -122q-152 0 -234.5 93.5t-82.5 269.5v639q0 51 51 51h205q51 0 51 -51v-613q0 -106 107 -106q52 0 85 30.5t33 100.5
v588q0 51 52 51h204q52 0 52 -51v-613q0 -106 106 -106q52 0 85.5 31t33.5 100v588q0 51 51 51h205q51 0 51 -51v-625q0 -29 16.5 -45t45.5 -16h41z" />
    <glyph glyph-name="uni044C.loclBGR" horiz-adv-x="1007" 
d="M547 754q205 0 312.5 -100t107.5 -281q0 -174 -122.5 -288t-318.5 -114q-206 0 -323 113t-117 309v580q0 51 51 51h197q51 0 51 -51v-219h162zM526 258q60 0 101 37t41 82q0 48 -31 79t-90 31h-162v-94q0 -61 38 -98t103 -37z" />
    <glyph glyph-name="uni044A.loclBGR" horiz-adv-x="1198" 
d="M737 754q205 0 312.5 -100t107.5 -281q0 -174 -122 -288t-318 -114q-206 0 -323.5 113t-117.5 309v344h-225q-51 0 -51 51v185q0 51 51 51h318h155q51 0 51 -51v-219h162zM717 258q60 0 100.5 37t40.5 82q0 48 -31 79t-90 31h-162v-94q0 -61 38.5 -98t103.5 -37z" />
    <glyph glyph-name="uni044E.loclBGR" horiz-adv-x="1669" 
d="M1065 1053q149 0 273.5 -71t197 -195.5t72.5 -274.5t-72.5 -274.5t-197 -195.5t-273.5 -71q-187 0 -329.5 111t-187.5 287h-128v-318q0 -51 -51 -51h-205q-51 0 -51 51v1331q0 52 51 52h205q51 0 51 -52v-727h128q45 176 187.5 287t329.5 111zM1065 270q101 0 168 67.5
t67 174.5t-67 174.5t-168 67.5t-168.5 -67.5t-67.5 -174.5t67.5 -174.5t168.5 -67.5z" />
    <glyph glyph-name="uni0430.ss01" horiz-adv-x="1275" 
d="M1112 1024q51 0 51 -51v-922q0 -51 -51 -51h-205q-51 0 -51 51v45q-109 -125 -305 -125q-202 0 -346 157t-144 384t144 384t346 157q196 0 305 -125v45q0 51 51 51h205zM612 262q107 0 175.5 68t68.5 182t-68.5 182t-175.5 68t-175 -68t-68 -182t68 -182t175 -68z" />
    <glyph glyph-name="uni0443.ss01" 
d="M936 1024q51 0 51 -51v-1004q0 -107 -35.5 -188t-97.5 -127.5t-137.5 -69t-163.5 -22.5q-107 0 -195.5 31t-151 98.5t-75.5 163.5q-4 25 9.5 39t39.5 14h201q20 0 31.5 -9.5t25.5 -31.5q27 -45 111 -45q67 0 99 35.5t32 111.5v125q-83 -123 -266 -123q-146 0 -237 108
t-91 296v598q0 51 51 51h205q51 0 51 -51v-572q0 -73 37.5 -110t99.5 -37q150 0 150 172v547q0 51 51 51h205z" />
    <glyph glyph-name="zero.sinf" horiz-adv-x="835" 
d="M418 -356q-172 0 -274.5 117.5t-102.5 320.5t102.5 320.5t274.5 117.5t274.5 -117.5t102.5 -320.5t-102.5 -320.5t-274.5 -117.5zM418 -106q57 0 88 48.5t31 139.5t-31 139.5t-88 48.5t-88 -48.5t-31 -139.5t31 -139.5t88 -48.5z" />
    <glyph glyph-name="one.sinf" horiz-adv-x="561" 
d="M190 475q28 17 62 17h166q51 0 51 -52v-716q0 -52 -51 -52h-148q-51 0 -51 52v518l-137 -72q-26 -14 -44 -3t-18 40v135q0 40 37 61z" />
    <glyph glyph-name="two.sinf" horiz-adv-x="739" 
d="M113 -328q-52 0 -52 52v69q0 37 27 64l270 274q66 66 66 111q0 25 -14.5 39t-40.5 14q-41 0 -58 -29q-12 -26 -22 -35.5t-31 -9.5h-154q-26 0 -39.5 14t-9.5 39q16 120 103.5 183t210.5 63q136 0 221.5 -68.5t85.5 -203.5q0 -110 -144 -254l-96 -96h201q51 0 51 -52v-122
q0 -52 -51 -52h-524z" />
    <glyph glyph-name="three.sinf" horiz-adv-x="708" 
d="M496 153q82 -28 127 -87.5t45 -143.5q0 -136 -85.5 -207t-238.5 -71q-137 0 -219.5 57t-99.5 168q-4 25 9.5 39t39.5 14h155q14 0 24.5 -6.5t14.5 -11.5t17 -23q19 -22 59 -22q72 0 72 63q0 62 -72 62h-88q-51 0 -51 51v49q0 38 22 63l99 119h-222q-51 0 -51 51v123
q0 52 51 52h474q51 0 51 -52v-88q0 -37 -23 -63z" />
    <glyph glyph-name="four.sinf" horiz-adv-x="733" 
d="M651 23q51 0 51 -52v-123q0 -51 -51 -51h-24v-73q0 -52 -52 -52h-135q-51 0 -51 52v73h-317q-52 0 -52 51v142q0 29 17 63l215 402q18 37 59 37h158q29 0 39.5 -17t-2.5 -45l-209 -407h92v73q0 51 51 51h135q52 0 52 -51v-73h24z" />
    <glyph glyph-name="five.sinf" horiz-adv-x="679" 
d="M346 182q136 0 214.5 -65.5t78.5 -204.5q0 -132 -84.5 -200t-218.5 -68q-121 0 -202.5 55t-98.5 166q-4 25 9.5 39t39.5 14h131q5 0 10 -1t8.5 -2t7 -4t6 -4t6 -6t5 -7t6 -8.5t6.5 -8.5q21 -24 66 -24q37 0 56.5 18t19.5 47q0 30 -20.5 48t-55.5 18h-225q-25 0 -38 14
t-12 39l27 405q2 23 16 36.5t37 13.5h404q51 0 51 -52v-123q0 -51 -51 -51h-232l-6 -84h39z" />
    <glyph glyph-name="six.sinf" horiz-adv-x="700" 
d="M401 227v-1q123 -14 196 -93t73 -197q0 -130 -87.5 -211t-232.5 -81t-232 81t-87 211q0 85 39 152l231 369q21 35 61 35h136q31 0 41 -18t-7 -44zM350 -152q41 0 65.5 22.5t24.5 65.5t-24.5 65t-65.5 22t-65.5 -22t-24.5 -65t24.5 -65.5t65.5 -22.5z" />
    <glyph glyph-name="seven.sinf" horiz-adv-x="604" 
d="M0 440q0 52 51 52h471q51 0 51 -52v-106q0 -34 -12 -64l-215 -557q-14 -41 -59 -41h-152q-28 0 -39.5 16.5t-1.5 43.5l209 534h-252q-51 0 -51 51v123z" />
    <glyph glyph-name="eight.sinf" horiz-adv-x="724" 
d="M568 102q56 -34 86 -87t30 -117q0 -117 -84 -185.5t-237 -68.5t-237.5 68.5t-84.5 185.5q0 64 30 117t86 87q-87 64 -87 168q0 115 82 182.5t211 67.5t210.5 -67.5t81.5 -182.5q0 -104 -87 -168zM362 313q-83 0 -83 -67q0 -32 22 -49t61 -17q36 0 60 17.5t24 48.5
q0 32 -24 49.5t-60 17.5zM362 -147q41 0 65 21t24 58q0 35 -24 56.5t-65 21.5t-64.5 -21t-23.5 -57q0 -37 23.5 -58t64.5 -21z" />
    <glyph glyph-name="nine.sinf" horiz-adv-x="700" 
d="M670 227q0 -84 -39 -151l-232 -369q-21 -35 -61 -35h-135q-31 0 -41.5 18t6.5 44l132 203q-123 14 -196 93t-73 197q0 130 87 211.5t232 81.5t232.5 -81.5t87.5 -211.5zM260 227q0 -43 24.5 -64.5t65.5 -21.5t65.5 21.5t24.5 64.5t-24.5 65.5t-65.5 22.5t-65.5 -22.5
t-24.5 -65.5z" />
    <glyph glyph-name="zero.tf" horiz-adv-x="1187" 
d="M594 -29q-182 0 -315 94.5t-201 262t-68 389.5t68 389t201 261.5t315 94.5t315 -94.5t201 -261.5t68 -389t-68 -389.5t-201 -262t-315 -94.5zM594 291q128 0 192 108.5t64 317.5t-64 317.5t-192 108.5t-192 -108.5t-64 -317.5t64 -317.5t192 -108.5z" />
    <glyph glyph-name="one.tf" horiz-adv-x="1187" 
d="M102 0q-51 0 -51 51v213q0 51 51 51h359v793l-262 -145q-26 -15 -44 -5t-18 39v205q0 42 35 62l260 153q28 17 64 17h241q51 0 51 -52v-1067h318q51 0 51 -51v-213q0 -51 -51 -51h-1004z" />
    <glyph glyph-name="two.tf" horiz-adv-x="1187" 
d="M123 0q-51 0 -51 51v150q0 33 28 61l496 457q81 75 126.5 135.5t45.5 120.5q0 74 -47.5 121t-128.5 47q-76 0 -124 -33.5t-62 -93.5q-12 -49 -56 -49h-225q-54 0 -51 53q10 108 59 194.5t121.5 139.5t157.5 80.5t172 27.5q93 0 182 -31t163.5 -89t120.5 -153.5t46 -213.5
q0 -204 -277 -455l-223 -205h469q51 0 51 -51v-213q0 -51 -51 -51h-942z" />
    <glyph glyph-name="three.tf" horiz-adv-x="1187" 
d="M817 874q146 -48 233 -153.5t87 -259.5q0 -115 -44.5 -209t-121 -154.5t-176 -93.5t-211.5 -33q-219 0 -375 116.5t-176 320.5q-3 53 51 53h227q42 0 54 -47q16 -58 70.5 -90.5t148.5 -32.5q112 0 168.5 46.5t56.5 123.5t-56.5 123.5t-168.5 46.5h-119q-51 0 -51 51v129
q0 33 24 63l217 252h-518q-51 0 -51 52v204q0 52 51 52h881q51 0 51 -52v-178q0 -38 -22 -63z" />
    <glyph glyph-name="four.tf" horiz-adv-x="1187" 
d="M1106 532q51 0 51 -51v-200q0 -52 -51 -52h-92v-178q0 -51 -51 -51h-230q-51 0 -51 51v178h-621q-51 0 -51 52v219q0 28 15 63l424 834q18 37 59 37h244q29 0 39 -17t-3 -45l-426 -840h320v256q0 52 51 52h230q51 0 51 -52v-256h92z" />
    <glyph glyph-name="five.tf" horiz-adv-x="1187" 
d="M614 930q151 0 267.5 -53t186 -163t69.5 -263q0 -115 -43 -207.5t-117.5 -151.5t-172 -90t-210.5 -31q-143 0 -259 47t-192.5 145t-89.5 234q-1 26 12.5 40t38.5 14h228q41 0 53 -48q31 -112 209 -112q110 0 162.5 44t52.5 116q0 71 -52 115t-163 44h-426q-25 0 -38 14.5
t-11 39.5l51 720q2 23 16 36.5t37 13.5h791q51 0 51 -52v-204q0 -52 -51 -52h-533l-14 -196h147z" />
    <glyph glyph-name="six.tf" horiz-adv-x="1187" 
d="M648 1002q235 -16 372 -156t137 -359q0 -232 -152.5 -374t-410.5 -142q-259 0 -411 142t-152 374q0 182 96 312l434 602q23 33 62 33h260q31 0 40.5 -18t-8.5 -44zM594 279q107 0 171 54.5t64 153.5t-64 154t-171 55q-108 0 -172 -54t-64 -155q0 -100 64 -154t172 -54z
" />
    <glyph glyph-name="seven.tf" horiz-adv-x="1187" 
d="M41 1382q0 52 51 52h983q51 0 51 -52v-190q0 -36 -14 -64l-496 -1089q-17 -39 -61 -39h-240q-30 0 -40.5 15.5t1.5 43.5l480 1059h-664q-51 0 -51 51v213z" />
    <glyph glyph-name="eight.tf" horiz-adv-x="1187" 
d="M959 747q98 -58 150 -147.5t52 -196.5q0 -198 -150.5 -315t-416.5 -117t-416.5 117t-150.5 315q0 107 52 196.5t150 147.5q-153 104 -153 289q0 102 40.5 184t111.5 134t164.5 80t201.5 28t201.5 -28t164.5 -80t111.5 -134t40.5 -184q0 -185 -153 -289zM594 1155
q-90 0 -140.5 -38.5t-50.5 -100.5t50.5 -100.5t140.5 -38.5t140 38.5t50 100.5t-50 100.5t-140 38.5zM594 279q116 0 178 45t62 127t-62 127t-178 45t-178 -45t-62 -127t62 -127t178 -45z" />
    <glyph glyph-name="nine.tf" horiz-adv-x="1187" 
d="M1157 946q0 -182 -96 -312l-434 -601q-23 -33 -62 -33h-260q-31 0 -41 17.5t8 43.5l268 371q-235 16 -372 155.5t-137 358.5q0 232 152.5 374t410.5 142q259 0 411 -142t152 -374zM358 946q0 -99 64.5 -154t171.5 -55q108 0 171.5 54t63.5 155t-63.5 155t-171.5 54
q-107 0 -171.5 -55t-64.5 -154z" />
    <glyph glyph-name="zero.dnom" horiz-adv-x="835" 
d="M418 -29q-171 0 -274 118t-103 321t102.5 320.5t274.5 117.5t274.5 -117.5t102.5 -320.5t-103 -321t-274 -118zM418 221q57 0 88 49t31 140t-31 139.5t-88 48.5t-88 -48.5t-31 -139.5t31 -140t88 -49z" />
    <glyph glyph-name="one.dnom" horiz-adv-x="561" 
d="M190 803q27 16 62 16h166q51 0 51 -51v-717q0 -51 -51 -51h-148q-51 0 -51 51v518l-137 -71q-26 -14 -44 -3t-18 40v135q0 40 37 61z" />
    <glyph glyph-name="two.dnom" horiz-adv-x="739" 
d="M113 0q-52 0 -52 51v70q0 36 27 63l270 275q66 66 66 110q0 25 -14.5 39.5t-40.5 14.5q-41 0 -58 -29q-12 -26 -22 -35.5t-31 -9.5h-154q-26 0 -39.5 14t-9.5 39q16 120 103.5 183t210.5 63q135 0 221 -69t86 -204q0 -109 -144 -253l-96 -97h201q51 0 51 -51v-123
q0 -51 -51 -51h-524z" />
    <glyph glyph-name="three.dnom" horiz-adv-x="708" 
d="M496 481q82 -28 127 -87.5t45 -143.5q0 -136 -85.5 -207.5t-238.5 -71.5q-137 0 -219.5 57.5t-99.5 168.5q-4 25 9.5 39t39.5 14h155q14 0 24.5 -6.5t14.5 -11.5t17 -23q20 -23 59 -23q72 0 72 64q0 61 -72 61h-88q-51 0 -51 51v50q0 38 22 63l99 119h-222q-51 0 -51 51
v123q0 51 51 51h474q51 0 51 -51v-88q0 -38 -23 -64z" />
    <glyph glyph-name="four.dnom" horiz-adv-x="733" 
d="M651 350q51 0 51 -51v-123q0 -51 -51 -51h-24v-74q0 -51 -52 -51h-135q-51 0 -51 51v74h-317q-52 0 -52 51v141q0 30 17 64l215 401q18 37 59 37h158q30 0 40 -16.5t-3 -44.5l-209 -408h92v74q0 51 51 51h135q52 0 52 -51v-74h24z" />
    <glyph glyph-name="five.dnom" horiz-adv-x="679" 
d="M346 510q136 0 214.5 -65.5t78.5 -204.5q0 -132 -85 -200.5t-218 -68.5q-120 0 -202 55.5t-99 166.5q-4 25 9.5 39t39.5 14h131q5 0 10 -1t8.5 -2t7 -4t6 -4t6 -6t5 -7t6 -8.5t6.5 -8.5q21 -25 66 -25q37 0 56.5 18.5t19.5 47.5t-20.5 47t-55.5 18h-225q-25 0 -38.5 14.5
t-11.5 39.5l27 405q1 23 15.5 36t37.5 13h404q51 0 51 -51v-123q0 -51 -51 -51h-232l-6 -84h39z" />
    </font>
</defs>
</svg>
